<?xml version="1.0" standalone="no"?>
<!DOCTYPE svg PUBLIC "-//W3C//DTD SVG 1.1//EN" "http://www.w3.org/Graphics/SVG/1.1/DTD/svg11.dtd" >
<svg xmlns="http://www.w3.org/2000/svg">
<metadata></metadata>
<defs>
<font id="pf_beausans_probbook" horiz-adv-x="3723" >
<font-face units-per-em="2048" ascent="1536" descent="-512" />
<missing-glyph horiz-adv-x="563" />
<glyph unicode="fj" horiz-adv-x="1163" d="M16 948v53q0 18 6.5 26.5t26.5 12.5l148 33v101q0 337 399 337q169 0 324 -43q27 -7 16 -36l-23 -103q-6 -24 -34 -18q-119 28 -265 28q-56 0 -96.5 -10t-63 -25.5t-35.5 -38t-16.5 -42.5t-3.5 -45v-103h594q22 0 29.5 -5.5t7.5 -27.5v-882q0 -116 -18 -208.5t-49 -156.5 t-78 -113.5t-98.5 -79.5t-116.5 -53q-27 -9 -37 17l-41 123q-4 16 1 23t21 14q54 26 93.5 60t62 69.5t36 81.5t17.5 86.5t4 93.5v798h-430v-882q0 -22 -7.5 -27.5t-29.5 -5.5h-127q-22 0 -29 5.5t-7 27.5v882h-148q-15 0 -22.5 5t-9 11t-1.5 17z" />
<glyph unicode="ffj" horiz-adv-x="1761" d="M16 948v53q0 18 6.5 26.5t26.5 12.5l148 33v76q0 73 20 131.5t64.5 106.5t124 74t190.5 26q138 0 313 -41q99 74 285 74q169 0 324 -43q27 -7 16 -37l-23 -103q-6 -24 -34 -18q-124 29 -265 29q-55 0 -95.5 -10t-63 -25.5t-36.5 -38.5t-18 -43t-4 -45v-111h596 q22 0 29.5 -5.5t7.5 -27.5v-882q0 -116 -18 -208.5t-49 -156.5t-78 -113.5t-98.5 -79.5t-116.5 -53q-27 -9 -37 17l-41 123q-4 16 1 23t21 14q54 26 93.5 60t62 69.5t36 81.5t17.5 86.5t4 93.5v798h-430v-882q0 -22 -7.5 -27.5t-29.5 -5.5h-127q-22 0 -29 5.5t-7 27.5v882 h-398v-882q0 -22 -7.5 -27.5t-29.5 -5.5h-127q-22 0 -29 5.5t-7 27.5v882h-148q-15 0 -22.5 5t-9 11t-1.5 17zM399 1075h396v107q0 67 14 116q-139 17 -195 17q-69 0 -114.5 -14.5t-66 -40.5t-27.5 -50.5t-7 -56.5v-78z" />
<glyph unicode="ff" horiz-adv-x="1302" d="M16 948v53q0 18 6.5 26.5t26.5 12.5l148 33v80q0 73 20 131.5t64.5 106.5t124 74t190.5 26q141 0 289 -35q76 64 215 64q125 0 215 -29q27 -7 16 -37l-22 -106q-6 -25 -35 -19q-68 12 -144 12q-74 0 -104.5 -31t-30.5 -89v-146h248q22 0 27.5 -7t5.5 -26v-94 q0 -11 -1.5 -17t-9 -11t-22.5 -5h-248v-882q0 -22 -7.5 -27.5t-29.5 -5.5h-129q-22 0 -29 5.5t-7 27.5v882h-396v-882q0 -22 -7.5 -27.5t-29.5 -5.5h-127q-22 0 -29 5.5t-7 27.5v882h-148q-15 0 -22.5 5t-9 11t-1.5 17zM399 1075h394v142q0 45 6 86q-91 16 -185 16 q-69 0 -114.5 -14.5t-66 -40.5t-27.5 -50.5t-7 -56.5v-82z" />
<glyph unicode="fi" horiz-adv-x="1163" d="M16 948v53q0 18 6.5 26.5t26.5 12.5l148 33v96q0 73 20 131.5t64.5 106.5t124 74t190.5 26q169 0 324 -43q27 -7 16 -37l-23 -102q-6 -24 -34 -18q-119 28 -265 28q-56 0 -96.5 -10t-63 -25.5t-35.5 -38t-16.5 -42.5t-3.5 -45v-99h598q22 0 27.5 -7t5.5 -26v-1009 q0 -22 -7.5 -27.5t-29.5 -5.5h-129q-22 0 -29.5 5.5t-7.5 27.5v882h-430v-882q0 -22 -7.5 -27.5t-29.5 -5.5h-127q-22 0 -29 5.5t-7 27.5v882h-148q-15 0 -22.5 5t-9 11t-1.5 17z" />
<glyph unicode="fl" horiz-adv-x="1259" d="M16 948v53q0 18 6.5 26.5t26.5 12.5l148 33v101q0 337 399 337q164 0 291 -34l108 24q22 0 29.5 -5.5t7.5 -27.5v-1218q0 -54 15 -72t53 -18q28 0 74 4q18 2 23.5 -2t6.5 -21l13 -90q2 -20 -1.5 -26.5t-21.5 -16.5q-53 -24 -168 -24q-108 0 -153.5 49.5t-45.5 161.5v1124 q-126 20 -213 20q-56 0 -96.5 -10t-63 -25.5t-35.5 -38t-16.5 -42.5t-3.5 -45v-103h256q15 0 22.5 -5t9 -11t1.5 -17v-94q0 -19 -5.5 -26t-27.5 -7h-258v-882q0 -22 -7.5 -27.5t-29.5 -5.5h-127q-22 0 -29 5.5t-7 27.5v882h-148q-15 0 -22.5 5t-9 11t-1.5 17z" />
<glyph unicode="ffi" horiz-adv-x="1761" d="M16 948v53q0 18 6.5 26.5t26.5 12.5l148 33v70q0 73 20 131.5t64.5 106.5t124 74t190.5 26q138 0 313 -41q98 73 285 73q169 0 324 -43q27 -7 16 -36l-23 -103q-6 -24 -34 -18q-119 28 -265 28q-55 0 -95.5 -10t-63 -25.5t-36.5 -38t-18 -42.5t-4 -45v-105h600 q22 0 27.5 -7t5.5 -26v-1009q0 -22 -7.5 -27.5t-29.5 -5.5h-129q-22 0 -29.5 5.5t-7.5 27.5v882h-430v-882q0 -22 -7.5 -27.5t-29.5 -5.5h-127q-22 0 -29 5.5t-7 27.5v882h-398v-882q0 -22 -7.5 -27.5t-29.5 -5.5h-127q-22 0 -29 5.5t-7 27.5v882h-148q-15 0 -22.5 5t-9 11 t-1.5 17zM399 1075h396v101q0 67 14 116q-139 17 -195 17q-69 0 -114.5 -14.5t-66 -40.5t-27.5 -50.5t-7 -56.5v-72z" />
<glyph unicode="ffl" horiz-adv-x="1857" d="M16 948v53q0 18 6.5 26.5t26.5 12.5l148 33v78q0 73 20 131.5t64.5 106.5t124 74t190.5 26q143 0 313 -41q99 74 285 74q161 0 291 -35l108 24q22 0 29.5 -5t7.5 -27v-1229q0 -54 15 -72t53 -18q28 0 74 4q18 2 23.5 -2t6.5 -21l13 -90q2 -20 -1.5 -26.5t-21.5 -16.5 q-53 -24 -168 -24q-108 0 -153.5 49.5t-45.5 161.5v1134q-132 21 -213 21q-55 0 -95.5 -10t-63 -25.5t-36.5 -38.5t-18 -43t-4 -45v-113h258q15 0 22.5 -5t9 -11t1.5 -17v-94q0 -19 -5.5 -26t-27.5 -7h-258v-882q0 -22 -7.5 -27.5t-29.5 -5.5h-127q-22 0 -29 5.5t-7 27.5 v882h-398v-882q0 -22 -7.5 -27.5t-29.5 -5.5h-127q-22 0 -29 5.5t-7 27.5v882h-148q-15 0 -22.5 5t-9 11t-1.5 17zM399 1075h396v109q0 67 14 116q-136 17 -195 17q-69 0 -114.5 -14.5t-66 -40.5t-27.5 -50.5t-7 -56.5v-80z" />
<glyph unicode="ft" horiz-adv-x="1390" d="M16 948v53q0 18 6.5 26.5t26.5 12.5l148 33v131q0 146 75 224.5t232 78.5q128 0 215 -28q27 -7 16 -37l-22 -107q-6 -24 -35 -18q-68 12 -143 12q-74 0 -105 -31.5t-31 -89.5v-133h439l39 209q3 15 9 23t11.5 11t22.5 9l75 29q18 5 26.5 -1t8.5 -28v-252h215 q15 0 22.5 -5t9 -11t1.5 -17v-94q0 -19 -5.5 -26t-27.5 -7h-215v-639q0 -66 30 -94t97 -28q60 0 156 14q19 4 26 -0.5t9 -17.5l20 -107q4 -11 1 -21.5t-19 -15.5q-90 -29 -228 -29q-159 0 -226 68.5t-67 218.5v651h-430v-882q0 -22 -7.5 -27.5t-29.5 -5.5h-129 q-22 0 -29 5.5t-7 27.5v882h-148q-15 0 -22.5 5t-9 11t-1.5 17z" />
<glyph unicode=" "  horiz-adv-x="563" />
<glyph unicode="&#x09;" horiz-adv-x="563" />
<glyph unicode="&#xa0;" horiz-adv-x="563" />
<glyph unicode="!" horiz-adv-x="563" d="M131 133q0 63 44.5 107.5t107.5 44.5q66 0 108.5 -43t42.5 -109q0 -64 -43 -107.5t-108 -43.5q-66 0 -109 42.5t-43 108.5zM168 1397q-2 14 7 25.5t28 11.5h155q21 0 30 -11.5t7 -25.5l-45 -920q-1 -23 -10.5 -30t-38.5 -7h-47q-38 0 -41 31z" />
<glyph unicode="&#x22;" horiz-adv-x="759" d="M104 1403q-2 14 7 25.5t28 11.5h170q21 0 30 -11.5t7 -25.5l-53 -479q-5 -24 -13 -30.5t-36 -6.5h-47q-38 0 -41 31zM412 1403q0 14 9.5 25.5t27.5 11.5h169q21 0 30 -11.5t7 -25.5l-53 -479q-5 -24 -13 -30.5t-36 -6.5h-47q-38 0 -41 31z" />
<glyph unicode="#" horiz-adv-x="1218" d="M78 317l12 64q5 19 11 25t24 6h176l76 370h-182q-18 0 -22.5 6.5t-2.5 24.5l14 64q5 18 11 24t24 6h184l54 260q5 18 9 22.5t21 4.5h78q19 0 27 -5.5t4 -21.5l-53 -260h288l54 260q5 18 9 22.5t21 4.5h78q19 0 27 -5.5t4 -21.5l-53 -260h170q18 0 24 -6t4 -24l-14 -64 q-5 -19 -11 -25t-24 -6h-174l-78 -370h174q33 0 27 -31l-12 -64q-5 -18 -11 -24t-22 -6h-180l-53 -260q-5 -18 -9.5 -22.5t-21.5 -4.5h-80q-16 0 -24.5 5.5t-4.5 21.5l51 260h-286l-54 -260q-3 -13 -5.5 -17.5t-7.5 -7t-17 -2.5h-80q-19 0 -27 5.5t-4 21.5l53 260h-174 q-28 0 -22 30zM440 412h289l76 370h-287z" />
<glyph unicode="$" horiz-adv-x="1218" d="M121 129l49 121q12 23 37 14q109 -53 256 -80v492q-149 66 -220 146.5t-71 203.5q0 136 75.5 230.5t215.5 129.5v170q0 15 4.5 22t11 8t21.5 1h30q23 0 30 -4.5t7 -26.5v-1757q0 -12 -1.5 -18t-7.5 -8.5t-10.5 -3t-17.5 -0.5h-30q-16 0 -21.5 1t-10.5 7.5t-5 21.5v189 q-193 23 -332 100q-26 10 -10 41zM373 1042q0 -90 90 -149v289q-90 -44 -90 -140zM639 -201v1757q0 15 4.5 22t11 8t21.5 1h31q23 0 29.5 -4.5t6.5 -26.5v-161q139 -17 248 -70q25 -9 15 -33l-48 -129q-4 -13 -10 -16t-16 2q-113 37 -189 51v-434q51 -22 86.5 -40 t78.5 -44.5t72 -55.5t54.5 -65.5t38 -83t12.5 -100.5q0 -163 -93.5 -262t-248.5 -125v-191q0 -22 -6.5 -26t-29.5 -4h-31q-16 0 -21.5 1t-10.5 7.5t-5 21.5zM743 182q69 24 106.5 71t37.5 114q0 63 -36 107t-108 83v-375z" />
<glyph unicode="%" horiz-adv-x="1699" d="M59 815q0 168 88 269.5t244 101.5q163 0 247.5 -99.5t84.5 -269.5q0 -167 -87.5 -266.5t-246.5 -99.5q-156 0 -243 98t-87 266zM217 817q0 -235 174 -235q92 0 132 65t40 168q0 48 -8.5 88t-27.5 74t-54 53t-84 19q-47 0 -81.5 -19.5t-53.5 -53t-28 -73t-9 -86.5z M406 -12l745 1194q11 20 19 26t26 6h74q13 0 18.5 -6.5t-2.5 -25.5l-745 -1194q-11 -19 -21 -26t-28 -7h-66q-38 0 -20 33zM977 354q0 169 87.5 270t244.5 101q166 0 248.5 -99t82.5 -270q0 -165 -86.5 -265.5t-246.5 -100.5q-157 0 -243.5 98.5t-86.5 265.5zM1139 356 q0 -102 39.5 -166.5t130.5 -64.5t131.5 64.5t40.5 164.5q0 49 -9 89t-28 73.5t-54 52.5t-83 19q-46 0 -79.5 -19t-52.5 -52t-27.5 -73t-8.5 -88z" />
<glyph unicode="&#x26;" horiz-adv-x="1515" d="M143 330q0 144 89.5 269t226.5 204q-64 74 -107 161t-43 164q0 147 101 238.5t249 91.5q149 0 245.5 -83.5t96.5 -215.5q0 -73 -23 -135t-66.5 -111.5t-86 -83.5t-100.5 -71q47 -62 117.5 -146.5t83.5 -101.5q143 266 356 319q50 13 86 15q22 0 25 -19l18 -112 q4 -12 -4 -19.5t-21 -9.5q-70 -12 -125 -41.5t-95.5 -76.5t-66.5 -91t-55 -108q76 -91 170 -199q36 -45 115 -131q8 -7 5 -22t-19 -15h-156q-35 0 -55 23l-160 180q-185 -228 -428 -228q-176 0 -274.5 94.5t-98.5 260.5zM336 348q0 -198 201 -198q79 0 159 57.5t133 140.5 q-82 99 -258 322q-235 -145 -235 -322zM504 1139q0 -101 121 -252q35 23 62 44.5t58.5 54t48.5 73t17 84.5q0 60 -39 106.5t-110 46.5q-73 0 -115.5 -43.5t-42.5 -113.5z" />
<glyph unicode="'" horiz-adv-x="450" d="M104 1403q-2 14 7 25.5t28 11.5h170q21 0 30 -11.5t7 -25.5l-53 -479q-5 -24 -13 -30.5t-36 -6.5h-47q-38 0 -41 31z" />
<glyph unicode="(" horiz-adv-x="604" d="M61 655q0 131 31 252t88 223.5t122.5 186.5t150.5 166q19 19 36 4l72 -49q16 -11 2 -29q-139 -165 -207.5 -342.5t-68.5 -398.5q0 -234 69 -412.5t207 -339.5q17 -17 0 -27l-74 -53q-17 -15 -34 2q-394 383 -394 817z" />
<glyph unicode=")" horiz-adv-x="614" d="M66 -86q139 165 207.5 342.5t68.5 398.5q0 234 -69 412.5t-207 339.5q-17 17 0 27l73 53q18 15 35 -2q393 -382 393 -817q0 -130 -31 -251t-88 -224t-122.5 -187t-149.5 -166q-19 -19 -37 -4l-71 49q-16 11 -2 29z" />
<glyph unicode="*" horiz-adv-x="991" d="M147 1114l27 86q8 32 43 17l236 -99l-23 266q-2 11 4.5 18t22.5 7h96q31 0 27 -27l-23 -264l238 101q31 12 41 -15l28 -92q10 -32 -16 -35l-252 -65l166 -199q13 -18 11.5 -25t-15.5 -18l-70 -53q-21 -17 -29.5 -15t-19.5 21l-133 223l-137 -227q-18 -31 -39 -10l-80 61 q-25 16 -6 41l168 201l-242 63q-32 10 -23 39z" />
<glyph unicode="+" horiz-adv-x="1218" d="M106 645v121q0 21 5.5 29t27.5 8h371v379q0 21 8 26.5t29 5.5h127q22 0 29.5 -5t7.5 -27v-379h368q22 0 27.5 -8t5.5 -29v-121q0 -22 -5.5 -29.5t-27.5 -7.5h-368v-381q0 -22 -7.5 -27t-29.5 -5h-127q-15 0 -21.5 1.5t-11 8.5t-4.5 22v381h-371q-22 0 -27.5 7.5 t-5.5 29.5z" />
<glyph unicode="," horiz-adv-x="514" d="M121 -227l31 495q5 37 36 37h199q22 0 32 -12t5 -25l-150 -489q-8 -25 -14.5 -31t-28.5 -6h-69q-23 0 -33 8t-8 23z" />
<glyph unicode="-" horiz-adv-x="747" d="M102 512v156q0 21 5.5 29t27.5 8h477q22 0 27.5 -8t5.5 -29v-156q0 -22 -5.5 -29.5t-27.5 -7.5h-477q-22 0 -27.5 7.5t-5.5 29.5z" />
<glyph unicode="." horiz-adv-x="563" d="M119 137q0 69 47 116.5t115 47.5q72 0 117.5 -46t45.5 -118q0 -68 -46 -115t-117 -47q-68 0 -115 46.5t-47 115.5z" />
<glyph unicode="/" horiz-adv-x="905" d="M35 -164l643 1725q8 32 45 32h133q13 0 21.5 -7.5t3.5 -24.5l-643 -1725q-9 -33 -48 -33h-127q-39 0 -28 33z" />
<glyph unicode="0" horiz-adv-x="1218" d="M63 686q0 161 34 291t100.5 225t171.5 146t241 51q543 0 543 -709q0 -162 -32 -291t-97.5 -224t-171 -146.5t-246.5 -51.5q-182 0 -305 89t-180.5 245.5t-57.5 374.5zM268 690q0 -86 9.5 -161t33.5 -147t61.5 -123.5t98.5 -82.5t139 -31q94 0 163 46.5t106 126.5t54 171 t17 197q0 85 -10 160.5t-35 147t-63 122.5t-98.5 82t-137.5 31q-76 0 -135.5 -30.5t-97 -81t-62 -121.5t-34 -146t-9.5 -160z" />
<glyph unicode="1" horiz-adv-x="1097" d="M205 37v106q0 22 5.5 29.5t27.5 7.5h241v996l-233 -37q-19 -4 -26 2t-7 24v97q0 20 6.5 29.5t28.5 15.5l309 90q47 16 84 0.5t37 -62.5v-1155h250q22 0 27.5 -7.5t5.5 -29.5v-106q0 -22 -5.5 -29.5t-27.5 -7.5h-690q-22 0 -27.5 7.5t-5.5 29.5z" />
<glyph unicode="2" horiz-adv-x="1218" d="M113 158q0 68 45 159.5t131 180.5q121 130 317 250q133 76 185.5 137t52.5 137q0 91 -70 139.5t-199 48.5q-174 0 -309 -106q-31 -24 -51 2l-72 94q-15 27 11 47q93 73 205.5 112.5t228.5 39.5q94 0 176.5 -23t147 -67t102 -115t37.5 -160q0 -142 -83 -241t-255 -199 q-306 -179 -387 -414h694q22 0 27.5 -7.5t5.5 -29.5v-106q0 -22 -5.5 -29.5t-27.5 -7.5h-746q-91 0 -126 35.5t-35 122.5z" />
<glyph unicode="3" horiz-adv-x="1185" d="M41 154l68 102q18 27 55 4q144 -98 325 -98q158 0 235 70t77 192q0 90 -72.5 153.5t-214.5 63.5h-61q-31 0 -44.5 11.5t-13.5 45.5v60q0 61 51 61h52q128 0 196 55t68 154q0 64 -39 107.5t-94.5 61t-122.5 17.5q-87 0 -172 -25.5t-146 -68.5q-34 -24 -55 6l-63 91 q-17 23 4 38q79 69 202 107.5t246 38.5q193 0 320 -93t127 -257q0 -112 -60 -196t-157 -120v-10q113 -18 185.5 -104.5t72.5 -212.5q0 -187 -136.5 -309t-363.5 -122q-299 0 -465 136q-19 16 -4 41z" />
<glyph unicode="4" horiz-adv-x="1218" d="M45 403v25q0 71 45 131l582 758q22 27 35 41.5t39 30.5t51 16h65q62 0 86.5 -25.5t24.5 -87.5v-817h141q23 0 30 -7t7 -28v-100q0 -21 -7 -28t-30 -7h-141v-272q0 -22 -8 -27.5t-29 -5.5h-129q-21 0 -28 5.5t-7 27.5v270h-618q-109 0 -109 100zM272 483l4 -8h496v655 l-4 5z" />
<glyph unicode="5" horiz-adv-x="1218" d="M98 152l68 102q18 27 55 4q144 -98 352 -98q155 0 245.5 76.5t90.5 205.5q0 64 -24 113t-65 77t-90.5 42t-106.5 14q-28 0 -54 -2t-45 -4t-42 -7.5t-36 -9t-36.5 -12.5t-34 -13t-38.5 -16.5t-40 -17.5q-48 -20 -92 0l-31 12q-63 25 -55 99l51 526q6 64 43 97.5t88 33.5 h682q22 0 28.5 -7.5t6.5 -29.5v-106q0 -22 -6.5 -29.5t-28.5 -7.5h-618l-41 -385q126 57 323 57q200 0 332.5 -113.5t132.5 -299.5q0 -222 -144.5 -351t-387.5 -129q-320 0 -478 138q-19 16 -4 41z" />
<glyph unicode="6" horiz-adv-x="1218" d="M78 621q0 134 22 249t72.5 215t126.5 170t189 110t255 40q146 0 236 -37q18 -6 22.5 -14t-2.5 -29l-34 -111q-6 -17 -15 -20.5t-32 2.5q-81 29 -179 29q-191 0 -302.5 -112.5t-137.5 -303.5q67 24 168 38.5t190 14.5q80 0 152 -15.5t134.5 -49t108 -82t71.5 -119 t26 -156.5q0 -117 -42.5 -207.5t-116 -145t-163.5 -82.5t-192 -28q-266 0 -411.5 170.5t-145.5 473.5zM281 555q0 -177 100.5 -289t257.5 -112q142 0 223.5 71t81.5 199q0 116 -72.5 187t-214.5 71q-196 0 -374 -53q-2 -41 -2 -74z" />
<glyph unicode="7" horiz-adv-x="1097" d="M33 1233v106q0 22 5.5 29.5t27.5 7.5h849q101 0 101 -84v-55q0 -59 -33 -115l-584 -1089q-11 -20 -21 -26.5t-32 -6.5h-145q-18 0 -25.5 13.5t2.5 33.5l613 1149h-725q-22 0 -27.5 7.5t-5.5 29.5z" />
<glyph unicode="8" horiz-adv-x="1218" d="M94 383q0 119 72 218t182 136v6q-69 26 -116.5 77t-66 101.5t-18.5 98.5q0 175 130.5 280t330.5 105q206 0 331.5 -105t125.5 -264q0 -77 -52.5 -166t-148.5 -127v-6q125 -37 189.5 -133t64.5 -221q0 -56 -18 -111.5t-58.5 -109t-98.5 -94.5t-145 -66t-190 -25 q-128 0 -228 32t-161.5 88t-93 128.5t-31.5 157.5zM301 393q0 -48 17 -90t51.5 -77t95.5 -55.5t141 -20.5q83 0 145 22t95.5 60t49 80t15.5 89q0 115 -87 179.5t-218 64.5q-123 0 -214 -69t-91 -183zM348 1006q0 -85 75 -140t181 -55q103 0 181.5 58.5t78.5 142.5 q0 96 -67.5 155.5t-192.5 59.5q-124 0 -190 -64t-66 -157z" />
<glyph unicode="9" horiz-adv-x="1218" d="M63 942q0 117 42.5 207.5t115.5 145t163.5 82.5t193.5 28q265 0 411 -170t146 -473q0 -134 -22.5 -249t-73.5 -215t-127 -170.5t-189.5 -110.5t-255.5 -40q-144 0 -234 37q-18 6 -22.5 14t0.5 29l37 111q4 11 6.5 15.5t11.5 8.5t23 -2q25 -9 84 -20.5t98 -11.5 q190 0 303 112.5t139 302.5q-148 -53 -340 -53q-80 0 -153 15.5t-138.5 49t-114 82t-76.5 119.5t-28 156zM268 958q0 -112 77.5 -185t207.5 -73q194 0 375 54q4 27 4 73q0 172 -107.5 287t-251.5 115q-125 0 -215 -73.5t-90 -197.5z" />
<glyph unicode=":" horiz-adv-x="559" d="M119 141q0 68 46.5 116t113.5 48q71 0 117 -46t46 -116q0 -69 -47 -115t-116 -46q-68 0 -114 46t-46 113zM119 936q0 68 46.5 115t113.5 47q71 0 117 -46t46 -116q0 -68 -47 -115t-116 -47q-68 0 -114 46.5t-46 115.5z" />
<glyph unicode=";" horiz-adv-x="546" d="M133 -227l31 495q5 37 37 37h198q22 0 32 -12t5 -25l-149 -489q-8 -25 -14.5 -31t-28.5 -6h-70q-23 0 -33 8t-8 23zM143 936q0 68 46.5 115t115.5 47t115.5 -46.5t46.5 -115.5q0 -68 -47.5 -115t-114.5 -47q-69 0 -115.5 46.5t-46.5 115.5z" />
<glyph unicode="&#x3c;" horiz-adv-x="1218" d="M106 664v69q0 29 11 42t43 28l915 418q35 18 35 -25v-115q0 -38 -31 -55l-710 -317l700 -306q26 -14 33.5 -25t7.5 -36v-127q0 -12 -8.5 -19.5t-24.5 -0.5l-917 415q-27 12 -38.5 22.5t-15.5 31.5z" />
<glyph unicode="=" horiz-adv-x="1218" d="M158 467v111q0 21 5 28.5t27 7.5h838q22 0 27.5 -7.5t5.5 -28.5v-111q0 -22 -5.5 -29.5t-27.5 -7.5h-838q-22 0 -27 7.5t-5 29.5zM158 831v111q0 15 1.5 21.5t8.5 11t22 4.5h838q22 0 27.5 -8t5.5 -29v-111q0 -22 -5.5 -29t-27.5 -7h-838q-22 0 -27 7t-5 29z" />
<glyph unicode="&#x3e;" horiz-adv-x="1218" d="M106 215v127q0 25 7.5 36t33.5 25l701 306l-711 317q-31 17 -31 55v115q0 43 35 25l916 -418q31 -14 42 -27.5t11 -42.5v-69q-4 -22 -15.5 -32t-37.5 -22l-918 -415q-16 -7 -24.5 0.5t-8.5 19.5z" />
<glyph unicode="?" horiz-adv-x="1087" d="M119 1257q-16 28 10 48q83 67 202.5 105t211.5 38q204 0 328 -93.5t124 -269.5q0 -57 -17 -108t-51 -96.5t-67 -79t-82 -74.5q-7 -6 -34.5 -29.5t-36 -31t-31.5 -28.5t-31.5 -31t-25 -29t-23.5 -32t-16 -30t-12 -33.5t-3 -33.5v-39q0 -31 -30 -31h-142q-31 0 -31 29v51 q0 26 4.5 52t10.5 46.5t19.5 44t23 39t30 37.5t31 33.5t35.5 33.5t35 30t38 30.5t36 28.5q40 35 62 56t48.5 53.5t38.5 68t12 75.5q0 22 -5.5 44t-21.5 47t-41.5 43t-70.5 30.5t-104 12.5q-173 0 -310 -107q-31 -24 -51 2zM303 133q0 65 48.5 111.5t115.5 46.5 q21 0 44.5 -7.5t48.5 -24t41.5 -49.5t16.5 -77q0 -66 -45 -112t-112 -46q-66 0 -112 45.5t-46 112.5z" />
<glyph unicode="@" horiz-adv-x="2015" d="M164 664q0 174 69 328t187.5 262.5t283.5 171.5t351 63q367 0 581.5 -211t214.5 -563q0 -216 -116 -352t-303 -136q-105 0 -169.5 36.5t-82.5 96.5q-48 -38 -121 -66t-141 -28q-148 0 -222.5 67t-74.5 193q0 56 19 106.5t59 94.5t113.5 70t172.5 26h168v19 q0 74 -35 110.5t-131 36.5q-89 0 -219 -33q-18 -6 -30.5 -2t-16.5 23l-19 78q-11 28 27 45q117 43 281 43q319 0 319 -291v-332q0 -141 131 -141q113 0 173.5 90t60.5 240q0 285 -174 458.5t-465 173.5q-160 0 -297 -53t-230.5 -144t-146.5 -214.5t-53 -263.5 q0 -298 193 -483t501 -185q138 0 264 45q17 6 28.5 3t16.5 -21l25 -70q6 -19 -1.5 -28.5t-27.5 -18.5q-139 -58 -311 -58q-194 0 -354 59.5t-269 166.5t-169 258t-60 330zM799 526q0 -114 151 -114q106 0 203 69v189h-160q-29 0 -50 -1.5t-50.5 -10t-48 -22.5t-32 -42.5 t-13.5 -67.5z" />
<glyph unicode="A" horiz-adv-x="1288" d="M35 43l454 1305q19 54 41 71.5t76 18.5h68q59 0 82 -18t41 -72l456 -1305q4 -8 3.5 -15.5t-3.5 -14.5q-7 -13 -26 -13h-154q-19 0 -27 1t-15.5 8.5t-12.5 23.5l-96 291h-555l-97 -291q-6 -18 -16.5 -25.5t-32.5 -7.5h-158q-32 0 -32 24q0 8 4 19zM422 510h438l-125 395 l-92 291h-10l-86 -281z" />
<glyph unicode="B" horiz-adv-x="1339" d="M154 111v1214q0 60 25 85.5t85 25.5l457 2q99 0 178.5 -20t140 -61.5t93 -110.5t32.5 -161q0 -91 -46 -166.5t-118 -115.5v-15q75 -28 127 -85.5t75.5 -126t23.5 -146.5q0 -189 -136.5 -309.5t-336.5 -120.5h-490q-60 0 -85 25.5t-25 85.5zM367 195h364q63 0 112.5 16 t80 41.5t50 59.5t27 66t7.5 66q0 113 -71.5 180.5t-203.5 67.5h-366v-497zM367 870h362q36 0 70 8.5t68.5 29t55.5 62t21 99.5q0 82 -54 129t-147 47h-376v-375z" />
<glyph unicode="C" horiz-adv-x="1241" d="M113 696q0 342 175 550t460 208q218 0 380 -84q30 -15 11 -51l-52 -107q-9 -15 -14.5 -18.5t-25.5 2.5q-142 59 -291 59q-88 0 -160 -31.5t-120.5 -85t-82 -125.5t-48.5 -151.5t-15 -165.5q0 -520 438 -520q153 0 315 70q12 5 22 5q22 0 32 -24l43 -98q9 -18 9 -29 q0 -12 -4 -15q-3 -3 -16 -13q-156 -95 -438 -95q-298 0 -458 177.5t-160 541.5z" />
<glyph unicode="D" horiz-adv-x="1396" d="M154 111v1214q0 60 25 85.5t85 25.5l375 2q313 0 479 -189t166 -522q0 -163 -37.5 -294.5t-112.5 -229t-195.5 -150.5t-279.5 -53h-395q-60 0 -85 25.5t-25 85.5zM369 193h266q98 0 173 26.5t123.5 72t79.5 113.5t43.5 145.5t12.5 172.5q0 522 -438 522h-260v-1052z" />
<glyph unicode="E" horiz-adv-x="1204" d="M154 360v713q0 74 20 137.5t61.5 115t111.5 81t163 29.5h561q27 0 35 -10.5t8 -36.5v-99q0 -28 -7.5 -36.5t-35.5 -8.5h-561q-77 0 -111 -33.5t-34 -107.5v-252h639q25 0 32.5 -9.5t7.5 -37.5v-86q0 -25 -7.5 -36t-32.5 -11h-639v-340q0 -139 145 -139h569q28 0 35.5 -10 t7.5 -38v-98q0 -26 -8 -36.5t-35 -10.5h-569q-356 0 -356 360z" />
<glyph unicode="F" horiz-adv-x="1187" d="M154 43v1030q0 75 18 137.5t57.5 114.5t111 81.5t169.5 29.5h563q27 0 35 -10.5t8 -36.5v-97q0 -28 -7.5 -37.5t-35.5 -9.5h-563q-78 0 -111.5 -32.5t-33.5 -106.5v-270h636q25 0 33 -10t8 -38v-88q0 -25 -8 -36t-33 -11h-636v-610q0 -28 -10 -35.5t-38 -7.5h-116 q-26 0 -36.5 8t-10.5 35z" />
<glyph unicode="G" horiz-adv-x="1347" d="M113 700q0 346 169.5 550t462.5 204q236 0 398 -84q29 -14 10 -51l-51 -117q-8 -15 -14.5 -18.5t-26.5 2.5q-142 59 -311 59q-91 0 -163.5 -31t-120 -82.5t-78.5 -123t-44.5 -149t-13.5 -163.5q0 -92 10.5 -165.5t39 -143t75 -115.5t122 -74t175.5 -28q163 0 266 41v438 q-18 2 -53 2h-19q-156 0 -291 -61q-23 -12 -34 -11.5t-21 17.5l-43 104q-8 17 -5.5 28.5t19.5 21.5q67 42 164 67t191 25t149 -8q87 -17 118.5 -56t31.5 -127v-508q0 -37 -31 -59q-95 -60 -227.5 -83.5t-235.5 -23.5q-298 0 -458 179t-160 544z" />
<glyph unicode="H" horiz-adv-x="1421" d="M154 43v1348q0 27 10.5 35t36.5 8h118q28 0 38 -7.5t10 -35.5v-545h688v545q0 27 10.5 35t36.5 8h119q28 0 37.5 -7.5t9.5 -35.5v-1348q0 -28 -9.5 -35.5t-37.5 -7.5h-119q-26 0 -36.5 8t-10.5 35v621h-688v-621q0 -28 -10 -35.5t-38 -7.5h-118q-26 0 -36.5 8t-10.5 35z " />
<glyph unicode="I" horiz-adv-x="563" d="M176 43v1348q0 27 10.5 35t36.5 8h119q28 0 37.5 -7.5t9.5 -35.5v-1348q0 -28 -9.5 -35.5t-37.5 -7.5h-119q-26 0 -36.5 8t-10.5 35z" />
<glyph unicode="J" horiz-adv-x="1161" d="M13 107q0 10 7 24l54 107q15 28 49 10q163 -78 342 -78q173 0 248 98.5t75 304.5l-2 818q0 27 11 35t37 8h118q28 0 37.5 -7.5t9.5 -35.5q0 -266 -1 -474.5t-1 -353.5q0 -586 -538 -586q-103 0 -219.5 24.5t-206.5 76.5q-12 9 -15 13q-5 5 -5 16z" />
<glyph unicode="K" horiz-adv-x="1308" d="M154 43v1348q0 27 10.5 35t36.5 8h114q28 0 37.5 -7.5t9.5 -35.5v-668l9 -4l213 268l346 420q27 27 69 27h175q18 0 23.5 -10.5t-5.5 -22.5l-395 -481l493 -875q7 -13 7 -23q1 -6 -1 -10q-6 -12 -26 -12h-148q-38 0 -53 6.5t-31 34.5l-389 702l-287 -356v-344 q0 -28 -9.5 -35.5t-37.5 -7.5h-114q-26 0 -36.5 8t-10.5 35z" />
<glyph unicode="L" horiz-adv-x="1142" d="M154 360v1035q0 27 10.5 35t36.5 8h116q28 0 38 -7.5t10 -35.5v-1047q0 -155 157 -155h568q21 0 26.5 -8t5.5 -29v-117q0 -23 -5 -31t-27 -8h-586q-97 0 -167.5 29t-109 81t-56 113.5t-17.5 136.5z" />
<glyph unicode="M" horiz-adv-x="1675" d="M154 43v1280q0 58 23.5 85.5t86.5 27.5h64q49 0 75 -17t48 -71l264 -668l119 -311h8l116 305l267 674q22 54 48 71t75 17h63q63 0 87 -27.5t24 -85.5v-1280q0 -28 -9.5 -35.5t-37.5 -7.5h-109q-26 0 -36.5 8t-10.5 35v1014h-12l-117 -305l-197 -494q-21 -56 -42 -73 t-74 -17h-78q-53 0 -74.5 17.5t-42.5 72.5l-199 485l-114 289h-13v-989q0 -28 -9.5 -35.5t-37.5 -7.5h-108q-26 0 -36.5 8t-10.5 35z" />
<glyph unicode="N" horiz-adv-x="1433" d="M154 43v1280q0 59 24.5 86t85.5 27h62q46 0 68.5 -18t54.5 -70l444 -744l174 -299h6v1088q0 27 10.5 35t36.5 8h113q28 0 37.5 -7.5t9.5 -35.5v-1280q0 -59 -25 -86t-86 -27h-61q-46 0 -68.5 18t-54.5 70l-450 752l-168 290h-7v-1087q0 -28 -9.5 -35.5t-37.5 -7.5h-112 q-26 0 -36.5 8t-10.5 35z" />
<glyph unicode="O" horiz-adv-x="1458" d="M113 715q0 174 47 315.5t130 234t195 142t244 49.5q298 0 457.5 -193.5t159.5 -539.5q0 -363 -158.5 -554.5t-464.5 -191.5q-301 0 -455.5 186t-154.5 552zM326 723q0 -131 20 -228.5t65 -173t123.5 -114.5t190.5 -39q90 0 161 30t116 80.5t74.5 122t41.5 148.5t12 166 q0 93 -9.5 168.5t-36 149t-69.5 123t-114 80t-166 30.5q-101 0 -180 -43t-128.5 -117.5t-75 -172t-25.5 -210.5z" />
<glyph unicode="P" horiz-adv-x="1255" d="M154 43v1284q0 60 25 85.5t85 25.5h477q198 0 324.5 -119.5t126.5 -310.5q0 -51 -11 -104.5t-42 -116.5t-80 -111t-133.5 -80.5t-192.5 -32.5h-371v-520q0 -28 -9.5 -35.5t-37.5 -7.5h-114q-26 0 -36.5 8t-10.5 35zM365 750h331q141 0 209 64.5t68 178.5q0 34 -7.5 66 t-27 66.5t-50.5 59.5t-82 41.5t-116 16.5h-325v-493z" />
<glyph unicode="Q" horiz-adv-x="1458" d="M113 715q0 174 47 315.5t130 234t195 142t244 49.5q298 0 457.5 -193.5t159.5 -539.5q0 -363 -158.5 -554.5t-464.5 -191.5q-301 0 -455.5 186t-154.5 552zM326 723q0 -131 20 -228.5t65 -173t123.5 -114.5t190.5 -39q90 0 161 30t116 80.5t74.5 122t41.5 148.5t12 166 q0 93 -9.5 168.5t-36 149t-69.5 123t-114 80t-166 30.5q-101 0 -180 -43t-128.5 -117.5t-75 -172t-25.5 -210.5zM639 -147q0 22 5.5 29t27.5 7h233q155 0 289 -36t201 -86q18 -12 21 -22q1 -2 1 -5q0 -9 -8 -23l-51 -84q-13 -24 -34 -24q-13 0 -28 8q-163 94 -446 94h-178 q-22 0 -27.5 8t-5.5 29v105z" />
<glyph unicode="R" horiz-adv-x="1296" d="M154 43v1284q0 60 25 85.5t85 25.5h471q195 0 319 -114.5t124 -295.5q0 -121 -61 -211.5t-165 -132.5v-10q78 -23 113 -70t59 -131l119 -432q4 -6 4 -12q1 -6 -3 -14q-6 -15 -30 -15h-153q-32 0 -41 29l-105 387q-30 109 -97.5 150.5t-176.5 41.5h-270v-565 q0 -28 -9.5 -35.5t-37.5 -7.5h-123q-26 0 -36.5 8t-10.5 35zM373 791h323q138 0 203.5 64t65.5 165q0 30 -5.5 57.5t-22 58.5t-43.5 54t-73.5 38t-107.5 15h-340v-452z" />
<glyph unicode="S" horiz-adv-x="1181" d="M82 125l55 125q12 23 37 14q224 -96 410 -96q321 0 321 213q0 49 -19 86.5t-63.5 70t-95.5 58t-137 59.5q-123 48 -202 88.5t-142 91t-91 110.5t-28 136q0 175 115 276t333 101q109 0 231.5 -22t213.5 -60q24 -12 14 -35l-47 -131q-6 -16 -12.5 -19t-16.5 3 q-204 72 -391 72q-112 0 -169.5 -47.5t-57.5 -120.5q0 -26 8 -48.5t19.5 -40.5t38 -38t48.5 -34t68 -35.5t79.5 -36.5t98.5 -42h1l1 -1h1q173 -74 246 -123q161 -110 172 -282q1 -14 1 -28q0 -104 -39.5 -184t-109 -129t-159 -74t-193.5 -25q-319 0 -529 105q-16 6 -16 21 q0 9 6 22z" />
<glyph unicode="T" horiz-adv-x="1136" d="M31 1282v115q0 15 1.5 21.5t8.5 11t22 4.5h1010q22 0 27.5 -8t5.5 -29v-115q0 -21 -5.5 -28t-27.5 -7h-401v-1204q0 -28 -9.5 -35.5t-37.5 -7.5h-123q-26 0 -36.5 8t-10.5 35v1204h-392q-22 0 -27 7t-5 28z" />
<glyph unicode="U" horiz-adv-x="1400" d="M152 1391q0 27 10.5 35t36.5 8h123q28 0 37.5 -7.5t9.5 -35.5v-760q0 -84 6 -144.5t22.5 -116t46 -91.5t76 -63.5t112.5 -39.5t156 -12q142 0 250 22v1205q0 27 10.5 35t36.5 8h123q26 0 32.5 -7t6.5 -36v-1192q0 -86 -37.5 -135t-130.5 -66q-149 -23 -303 -23 q-174 0 -289 32.5t-191 109.5t-109 200.5t-33 309.5z" />
<glyph unicode="V" horiz-adv-x="1310" d="M35 1407q-3 8 -3 13q0 16 21 16h166q30 0 39 -27l291 -889l100 -301h13l92 299l299 891q7 19 16 23t29 4h162q19 0 19 -15q0 -6 -3 -14l-463 -1323q-18 -47 -38 -65t-62 -19h-101q-48 0 -73 17t-43 67z" />
<glyph unicode="W" horiz-adv-x="1712" d="M33 1407q-3 8 -3 13q0 16 21 16h166q33 0 39 -27l150 -829l57 -330h12l66 325l157 758q9 48 36 75.5t85 27.5h88q50 0 75.5 -27t37.5 -76l151 -747l66 -336h12l62 338l151 821q6 27 39 27h160q19 0 19 -19q0 -5 -1 -10l-276 -1323q-10 -50 -37.5 -67t-79.5 -17h-100 q-42 0 -65 25t-34 75l-161 770l-64 326h-8l-66 -328l-163 -768q-11 -50 -34 -75t-65 -25h-100q-52 0 -79.5 17t-37.5 67z" />
<glyph unicode="X" horiz-adv-x="1169" d="M22 9l-2 6q0 6 5 14l438 706l-412 674q-6 7 -1.5 17t20.5 10h161q29 0 40.5 -5.5t21.5 -25.5l295 -498l293 498q10 19 22.5 25t38.5 6h154q16 0 19.5 -10t-3.5 -21l-407 -664l440 -712q3 -8 3 -14q0 -15 -22 -15h-168q-26 0 -38 6.5t-23 24.5l-315 538l-318 -538 q-11 -18 -23 -24.5t-38 -6.5h-162q-15 0 -19 9z" />
<glyph unicode="Y" horiz-adv-x="1183" d="M24 1427q4 9 17 9h174q18 0 26.5 -5.5t18.5 -23.5l174 -332l162 -321h8l170 336l166 317q16 29 45 29h162q11 0 15 -9q2 -4 2 -8t-3 -8l-461 -844v-534q0 -22 -6.5 -27.5t-27.5 -5.5h-136q-21 0 -28.5 5.5t-7.5 27.5v534l-469 844q-3 4 -3 8t2 8z" />
<glyph unicode="Z" horiz-adv-x="1263" d="M61 100v33q0 40 11.5 66t38.5 57l833 991l-4 6h-739q-22 0 -27.5 7t-5.5 28v111q0 21 5.5 29t27.5 8h848q62 0 90 -24t28 -83v-43q0 -66 -57 -133l-803 -958l4 -13h842q22 0 27.5 -7.5t5.5 -29.5v-108q0 -22 -5.5 -29.5t-27.5 -7.5h-979q-113 0 -113 100z" />
<glyph unicode="[" horiz-adv-x="641" d="M129 -147v1585q0 21 5.5 29t27.5 8h393q22 0 27.5 -8t5.5 -29v-82q0 -21 -5.5 -28t-27.5 -7h-227v-1352h227q22 0 27.5 -7t5.5 -28v-81q0 -21 -5.5 -29t-27.5 -8h-393q-22 0 -27.5 8t-5.5 29z" />
<glyph unicode="\" horiz-adv-x="905" d="M35 1561q-7 17 1.5 24.5t22.5 7.5h134q19 0 28.5 -6.5t16.5 -25.5l643 -1725q11 -33 -29 -33h-127q-38 0 -47 33z" />
<glyph unicode="]" horiz-adv-x="641" d="M104 -66q0 21 5.5 28t27.5 7h228v1352h-228q-22 0 -27.5 7t-5.5 28v82q0 21 5.5 29t27.5 8h393q22 0 27.5 -8t5.5 -29v-1585q0 -21 -5.5 -29t-27.5 -8h-393q-22 0 -27.5 8t-5.5 29v81z" />
<glyph unicode="^" horiz-adv-x="1085" d="M56 784q-6 10 5 23l385 627q16 27 30.5 40t35.5 13h39q28 0 41 -8.5t31 -36.5l385 -631q10 -19 4 -27t-25 -8h-133q-38 0 -55 31l-256 432h-6l-252 -424q-14 -25 -25 -33t-37 -8h-141q-20 0 -26 10z" />
<glyph unicode="_" horiz-adv-x="1024" d="M-33 -180q0 21 5.5 29t27.5 8h1024q22 0 27.5 -8t5.5 -29v-47q0 -22 -5.5 -29.5t-27.5 -7.5h-1024q-22 0 -27.5 7.5t-5.5 29.5v47z" />
<glyph unicode="`" horiz-adv-x="1091" d="M330 1520q-17 24 14 32l158 43q31 7 43 -20l135 -324q10 -20 8 -27t-20 -12l-66 -24q-17 -5 -26 -2t-21 20z" />
<glyph unicode="a" horiz-adv-x="1116" d="M92 319q0 57 13.5 107.5t47 99t84.5 83.5t130.5 56t179.5 21h233v37q0 49 -9.5 83t-34.5 62t-71.5 42t-115.5 14q-127 0 -283 -41q-20 -7 -30.5 -4.5t-14.5 20.5l-26 100q-10 30 18 39q152 60 371 60q399 0 399 -365v-627q0 -44 -35 -59q-157 -70 -409 -70 q-104 0 -183 18.5t-128.5 49t-80.5 75.5t-43 93t-12 106zM295 319q0 -95 62.5 -135.5t179.5 -40.5q140 0 241 35v336h-219q-264 0 -264 -195z" />
<glyph unicode="b" horiz-adv-x="1159" d="M133 88v1376q0 22 8 27.5t29 5.5h129q22 0 29.5 -5.5t7.5 -27.5v-405q137 39 266 39q233 0 349 -147.5t116 -399.5q0 -128 -30.5 -231.5t-91 -181t-158.5 -119.5t-226 -42q-232 0 -401 70q-27 9 -27 41zM336 178q100 -31 219 -31q144 0 225.5 94.5t81.5 297.5 q0 190 -73.5 287.5t-210.5 97.5q-129 0 -242 -35v-711z" />
<glyph unicode="c" horiz-adv-x="987" d="M92 526q0 260 131 416t355 156q175 0 305 -72q31 -15 12 -47l-47 -98q-5 -11 -7.5 -14t-12 -5.5t-23.5 6.5q-117 50 -223 50q-59 0 -107.5 -21t-81.5 -57.5t-55.5 -86.5t-32.5 -106.5t-10 -120.5q0 -65 8 -118t28 -102t52 -82t83 -52.5t118 -19.5q65 0 131.5 16.5 t111.5 40.5q21 8 28.5 5t14.5 -17l48 -99q7 -12 7 -21q0 -16 -20 -26q-130 -74 -350 -74q-224 0 -343.5 139.5t-119.5 409.5z" />
<glyph unicode="d" horiz-adv-x="1157" d="M92 520q0 118 29.5 219.5t88.5 183t157 128.5t225 47q126 0 229 -27v393q0 22 7.5 27.5t29.5 5.5h129q21 0 29 -5.5t8 -27.5v-1372q0 -30 -27 -39q-177 -76 -426 -76q-479 0 -479 543zM301 520q0 -196 77 -283t226 -87q55 0 118 9t99 25v711q-111 29 -215 29 q-139 0 -222 -97t-83 -307z" />
<glyph unicode="e" horiz-adv-x="1110" d="M92 532q0 174 64 304t171.5 196t243.5 66q226 0 338.5 -118.5t112.5 -328.5q0 -176 -170 -176h-557q4 -168 89 -245.5t222 -77.5q64 0 131 17t111 42q31 15 43 -12l49 -97q14 -32 -12 -47q-129 -78 -336 -78q-242 0 -371 136t-129 419zM303 635h528q0 65 -11.5 115 t-39.5 92.5t-80 65t-127 22.5q-119 0 -192 -88.5t-78 -206.5z" />
<glyph unicode="f" horiz-adv-x="706" d="M16 948v53q0 18 6.5 26.5t26.5 12.5l148 33v137q0 146 75 224.5t232 78.5q128 0 215 -28q19 -5 19 -22q0 -6 -3 -15l-22 -107q-6 -24 -35 -18q-68 12 -143 12q-138 0 -138 -121v-139h250q22 0 27.5 -7t5.5 -26v-94q0 -11 -1.5 -17t-9 -11t-22.5 -5h-250v-882 q0 -22 -7.5 -27.5t-29.5 -5.5h-127q-22 0 -29 5.5t-7 27.5v882h-148q-15 0 -22.5 5t-9 11t-1.5 17z" />
<glyph unicode="g" horiz-adv-x="1157" d="M92 522q0 128 30.5 231.5t91 181t158.5 119.5t226 42q232 0 401 -70q27 -9 27 -41v-895q0 -136 -32 -232.5t-100 -160t-162.5 -99.5t-231.5 -55q-6 -1 -11 -1q-9 0 -15 3q-7 4 -11 21l-17 129q0 26 23 29q185 26 267.5 88t82.5 192v10q-137 -39 -262 -39 q-233 0 -349 147.5t-116 399.5zM297 535q0 -190 74 -287.5t211 -97.5q131 0 241 34v711q-100 31 -219 31q-144 0 -225.5 -94t-81.5 -297z" />
<glyph unicode="h" horiz-adv-x="1163" d="M133 33v1431q0 22 8 27.5t29 5.5h127q22 0 29.5 -5.5t7.5 -27.5v-409q114 43 266 43q432 0 432 -490v-575q0 -22 -8 -27.5t-29 -5.5h-129q-22 0 -29.5 5.5t-7.5 27.5v573q0 316 -264 316q-145 0 -231 -37v-852q0 -22 -7.5 -27.5t-29.5 -5.5h-127q-21 0 -29 5.5t-8 27.5z " />
<glyph unicode="i" horiz-adv-x="552" d="M143 1356q0 56 38.5 94.5t94.5 38.5t95 -39t39 -94t-39 -94t-95 -39t-94.5 38.5t-38.5 94.5zM174 33v1009q0 22 8 27.5t29 5.5h127q22 0 29.5 -5.5t7.5 -27.5v-1009q0 -22 -7.5 -27.5t-29.5 -5.5h-127q-21 0 -29 5.5t-8 27.5z" />
<glyph unicode="j" horiz-adv-x="583" d="M-39 -311q-2 7 -2 12q0 7 3 11q6 7 22 14q54 26 93.5 60t62 69.5t36 81.5t17.5 86.5t4 93.5v925q0 22 7.5 27.5t28.5 5.5h129q22 0 29.5 -5.5t7.5 -27.5v-882q0 -116 -18 -208.5t-49 -156.5t-78 -113.5t-98.5 -79.5t-116.5 -53q-7 -2 -13 -2q-17 0 -24 19zM164 1356 q0 56 39 94.5t94 38.5t94 -38.5t39 -94.5t-39 -94.5t-94 -38.5t-94 38.5t-39 94.5z" />
<glyph unicode="k" horiz-adv-x="1032" d="M131 33v1431q0 22 8 27.5t29 5.5h127q22 0 29.5 -5.5t7.5 -27.5v-858l8 -4l385 457q13 16 39 16h180q10 0 13 -9.5t-3 -16.5l-272 -328l315 -696q4 -5 4 -10q0 -3 -1 -6q-3 -9 -19 -9h-152q-22 0 -31.5 5t-15.5 18l-239 536l-211 -242v-284q0 -22 -7.5 -27.5t-29.5 -5.5 h-127q-21 0 -29 5.5t-8 27.5z" />
<glyph unicode="l" horiz-adv-x="585" d="M154 188v1276q0 22 7 27.5t29 5.5h132q22 0 29 -5.5t7 -27.5v-1220q0 -54 15 -72t53 -18q28 0 74 4q18 2 23.5 -2t6.5 -21l13 -90q1 -7 1 -13q0 -10 -2 -14q-4 -6 -22 -16q-55 -25 -168 -25q-107 0 -152.5 49.5t-45.5 161.5z" />
<glyph unicode="m" horiz-adv-x="1835" d="M133 33v868q0 80 28.5 120.5t114.5 59.5q111 17 222 17q123 0 207.5 -25t150.5 -82q154 107 387 107q122 0 212 -36t143.5 -103.5t78.5 -156.5t25 -204v-565q0 -22 -7.5 -27.5t-29.5 -5.5h-127q-21 0 -29 5.5t-8 27.5v536q0 183 -66.5 267t-222.5 84q-60 0 -132.5 -16.5 t-116.5 -41.5q27 -55 36 -121.5t9 -162.5v-545q0 -22 -7.5 -27.5t-29.5 -5.5h-127q-21 0 -29 5.5t-8 27.5v542q0 67 -7 116t-26 94.5t-52 73.5t-87 44.5t-129 16.5q-74 0 -172 -15v-872q0 -22 -7.5 -27.5t-29.5 -5.5h-127q-21 0 -29 5.5t-8 27.5z" />
<glyph unicode="n" horiz-adv-x="1163" d="M133 33v876q0 80 30.5 120.5t112.5 51.5q156 17 250 17q265 0 384.5 -121t119.5 -397v-547q0 -22 -7.5 -27.5t-29.5 -5.5h-127q-21 0 -29 5.5t-8 27.5v540q0 91 -14.5 153t-50.5 107t-98 66t-156 21q-86 0 -176 -15v-872q0 -22 -7.5 -27.5t-29.5 -5.5h-127q-21 0 -29 5.5 t-8 27.5z" />
<glyph unicode="o" horiz-adv-x="1153" d="M92 537q0 262 137 411.5t349 149.5q235 0 359 -145t124 -410q0 -276 -124.5 -421t-365.5 -145q-236 0 -357.5 141.5t-121.5 418.5zM293 543q0 -93 14 -163t45 -124.5t86.5 -82.5t134.5 -28q63 0 112.5 21.5t81.5 57.5t53 87.5t29.5 106.5t8.5 119q0 66 -6.5 120 t-25.5 106.5t-49 88t-79.5 57t-115.5 21.5q-141 0 -215 -109t-74 -278z" />
<glyph unicode="p" horiz-adv-x="1157" d="M133 -381v1364q0 30 27 39q179 76 422 76q123 0 217 -43t151 -119.5t86 -176.5t29 -220q0 -115 -30.5 -215.5t-88 -178.5t-150 -123t-208.5 -45q-130 0 -252 31v-389q0 -22 -7.5 -27.5t-29.5 -5.5h-129q-21 0 -29 5.5t-8 27.5zM336 182q115 -30 219 -30q301 0 301 387 q0 203 -79 295t-228 92q-135 0 -213 -35v-709z" />
<glyph unicode="q" horiz-adv-x="1159" d="M92 524q0 128 30.5 231.5t91 181t158.5 119.5t226 42q232 0 401 -70q27 -9 27 -41v-1376q0 -22 -8 -27.5t-29 -5.5h-129q-22 0 -29.5 5.5t-7.5 27.5v405q-137 -39 -266 -39q-233 0 -349 147.5t-116 399.5zM297 537q0 -190 74 -287.5t211 -97.5q131 0 241 34v711 q-100 31 -219 31q-144 0 -225.5 -94t-81.5 -297z" />
<glyph unicode="r" horiz-adv-x="866" d="M154 33v882q0 87 29 123.5t114 48.5q90 11 149 11q253 0 418 -142q11 -9 11 -19q0 -8 -7 -15l-86 -113q-7 -11 -14.5 -12.5t-10.5 0.5t-14 10q-117 111 -284 111q-45 0 -105 -11v-874q0 -22 -7.5 -27.5t-29.5 -5.5h-127q-21 0 -28.5 5.5t-7.5 27.5z" />
<glyph unicode="s" horiz-adv-x="968" d="M78 109l43 96q8 18 16.5 21.5t32.5 -5.5q165 -74 328 -74q95 0 145.5 37.5t50.5 104.5q0 64 -56 104t-185 86q-180 66 -256 133t-76 185q0 138 98 219.5t275 81.5q171 0 323 -60q13 -6 18.5 -18.5t0.5 -24.5l-43 -108q-9 -21 -35 -10q-82 30 -140.5 40.5t-130.5 10.5 q-83 0 -126.5 -34t-43.5 -85q0 -60 47.5 -94.5t184.5 -87.5q60 -21 99.5 -38t89 -46.5t79 -61.5t50 -79.5t20.5 -104.5q0 -105 -53.5 -178.5t-139.5 -107.5t-196 -34q-253 0 -406 84q-20 10 -20 27q0 9 6 21z" />
<glyph unicode="t" horiz-adv-x="770" d="M31 948v68q0 18 6.5 26.5t25.5 12.5l158 32l35 197q3 15 9 23t11.5 11t22.5 9l76 29q8 2 14 2q7 0 13 -3q8 -6 8 -28v-252h215q21 0 26.5 -8t5.5 -25v-94q0 -19 -5 -26t-27 -7h-215v-639q0 -66 30 -94t97 -28q59 0 155 14q19 4 26 -0.5t9 -17.5l21 -107q2 -6 2 -12 q0 -5 -1 -9q-3 -10 -20 -16q-90 -29 -227 -29q-159 0 -226 68.5t-67 218.5v651h-146q-21 0 -26.5 8t-5.5 25z" />
<glyph unicode="u" horiz-adv-x="1142" d="M133 498v546q0 22 7.5 27.5t29.5 5.5h127q21 0 29 -5.5t8 -27.5v-540q0 -94 11.5 -153.5t43.5 -106t91.5 -66.5t152.5 -20q92 0 176 14v872q0 22 7.5 27.5t29.5 5.5h127q21 0 29 -5.5t8 -27.5v-876q0 -148 -144 -172q-87 -16 -250 -16q-263 0 -373 119t-110 399z" />
<glyph unicode="v" horiz-adv-x="1034" d="M33 1053q-1 4 -1 8q0 14 19 14h156q16 0 21 -4t10 -16l174 -527l106 -350h12l103 346l168 531q4 9 5.5 12t7.5 5.5t17 2.5h152q19 0 19 -14q0 -4 -1 -8l-319 -967q-20 -57 -41.5 -76.5t-73.5 -19.5h-90q-44 0 -68.5 18t-46.5 76z" />
<glyph unicode="w" horiz-adv-x="1538" d="M43 1057q-1 4 -1 8q0 14 19 14h156q16 0 21 -4t10 -16l102 -553l56 -297h12l78 268l131 475q9 27 17.5 42.5t33 29.5t61.5 14h70q45 0 64.5 -22t33.5 -70l123 -436l90 -320h13l55 316l102 553q5 12 10 16t21 4h156q19 0 19 -14q0 -4 -1 -8l-213 -969q-12 -58 -41 -78 t-74 -20h-82q-53 0 -72.5 17t-37.5 73l-111 377l-92 348h-8l-94 -361l-111 -364q-13 -47 -36 -68.5t-74 -21.5h-89q-43 0 -68 20t-38 78z" />
<glyph unicode="x" horiz-adv-x="987" d="M25 35l354 532l-309 473q-7 10 -4.5 22.5t18.5 12.5h156q37 0 53 -26l205 -334l211 334q16 26 49 26h149q18 0 22 -11t-3 -17l-318 -469l357 -545q6 -8 6 -16q0 -3 -1 -6q-3 -11 -20 -11h-168q-24 0 -33 6t-18 21l-242 391l-247 -389q-9 -11 -14 -16t-15 -9t-25 -4h-149 q-20 0 -20 14q0 8 6 21z" />
<glyph unicode="y" horiz-adv-x="1021" d="M23 1053q-1 4 -1 8q0 14 19 14h158q16 0 20.5 -3.5t9.5 -16.5l156 -506l111 -379h12l123 381l168 504q4 9 5.5 12t7.5 5.5t17 2.5h152q19 0 19 -14q0 -4 -1 -8l-405 -1225q-46 -138 -124 -197t-202 -59q-85 0 -168 22q-33 9 -24 35l24 103q4 18 12 21.5t25 -1.5 q66 -14 101 -14q75 0 117.5 29.5t66.5 103.5l47 141h-43q-20 0 -31 1.5t-25 9t-24.5 25t-19.5 46.5z" />
<glyph unicode="z" horiz-adv-x="956" d="M41 78v33q0 70 43 118l602 676l-2 6h-559q-22 0 -28.5 7t-6.5 26v98q0 16 7 24.5t28 8.5h694q54 0 75 -18.5t21 -65.5v-37q0 -61 -36 -102l-609 -684l2 -4h607q21 0 27.5 -8.5t6.5 -24.5v-98q0 -19 -6 -26t-28 -7h-750q-88 0 -88 78z" />
<glyph unicode="{" horiz-adv-x="735" d="M117 617v6v94q0 14 4.5 19t21.5 9q57 11 83 54t26 139v211q0 90 25 154.5t72.5 102t107.5 55.5t137 20q20 0 20 -19v-112q0 -22 -20 -25q-70 -4 -105.5 -42.5t-35.5 -100.5v-256q0 -94 -38 -157t-100 -95v-8q61 -29 99.5 -92.5t38.5 -161.5v-318q0 -61 34.5 -101 t104.5 -46q22 -3 22 -21v-121q0 -18 -18 -18q-72 2 -131 21t-108.5 57.5t-77 105t-27.5 156.5v274q0 95 -27 138.5t-86 54.5q-1 0 -4.5 1.5t-4 2t-3 1.5t-3 1.5t-2.5 1.5t-2 2.5t-1 3.5t-1.5 4t-0.5 5z" />
<glyph unicode="|" horiz-adv-x="446" d="M129 -246v1807q0 21 8 26.5t29 5.5h123q22 0 29.5 -5t7.5 -27v-1807q0 -22 -7.5 -27.5t-29.5 -5.5h-123q-21 0 -29 5.5t-8 27.5z" />
<glyph unicode="}" horiz-adv-x="735" d="M123 -74q0 18 22 21q70 6 105 46t35 101v318q0 98 38 161.5t99 92.5v8q-62 32 -99.5 95t-37.5 157v256q0 62 -36 100.5t-106 42.5q-20 3 -20 25v112q0 19 20 19q77 -2 137 -20t107.5 -55.5t72.5 -102t25 -154.5v-211q0 -96 26 -139t83 -54q17 -5 22 -10t5 -18v-94 q0 -11 -3.5 -17t-5.5 -7t-14 -5q-59 -11 -86 -54.5t-27 -138.5v-274q0 -90 -27.5 -156.5t-77 -105t-108.5 -57.5t-131 -21q-18 0 -18 18v121z" />
<glyph unicode="~" horiz-adv-x="1218" d="M131 586q69 85 134.5 125.5t144.5 40.5q50 0 111.5 -19.5t109 -43t101.5 -43t91 -19.5q31 0 58 15.5t43 33.5t45 57q14 20 43 4l65 -45q23 -18 8 -45q-52 -89 -116 -133.5t-154 -44.5q-61 0 -139 30.5t-150 60.5t-120 30q-87 0 -168 -84q-19 -19 -41 -4l-58 47 q-23 19 -8 37z" />
<glyph unicode="&#xa1;" horiz-adv-x="563" d="M139 926q0 64 43.5 107.5t108.5 43.5q66 0 108.5 -42.5t42.5 -108.5q0 -63 -44 -107.5t-107 -44.5q-66 0 -109 43t-43 109zM178 -338l45 920q1 23 10 29.5t39 6.5h47q23 0 31 -6t10 -24l46 -926q2 -14 -7 -25.5t-28 -11.5h-156q-21 0 -30 11.5t-7 25.5z" />
<glyph unicode="&#xa2;" horiz-adv-x="1146" d="M154 526q0 241 111.5 390.5t309.5 175.5v176q0 17 7 22.5t22 5.5h45q17 0 22 -5t5 -23v-170q145 -6 268 -72q31 -15 12 -47l-47 -98q-5 -11 -7.5 -14t-12 -5.5t-23.5 6.5q-102 43 -190 50v-766q136 10 213 57q21 8 28.5 5t14.5 -17l47 -99q19 -32 -12 -47 q-107 -59 -291 -71v-175q0 -19 -5 -23.5t-22 -4.5h-45q-15 0 -22 5.5t-7 22.5v175q-205 12 -313 150t-108 396zM356 526q0 -326 219 -368v749q-75 -18 -125.5 -75.5t-72 -134.5t-21.5 -171z" />
<glyph unicode="&#xa3;" horiz-adv-x="1218" d="M150 692v74q0 15 1.5 21.5t8.5 11t22 4.5h142q-1 6 -9.5 53.5t-14 86.5t-5.5 63q0 191 119 283.5t325 92.5q190 0 318 -71q31 -15 12 -47l-45 -90q-5 -11 -7.5 -14t-12 -5.5t-23.5 6.5q-114 49 -236 49t-185.5 -48.5t-63.5 -141.5q0 -33 8.5 -108.5t15.5 -108.5h400 q21 0 26.5 -8t5.5 -29v-74q0 -22 -5 -29.5t-27 -7.5h-379q6 -59 6 -125q0 -110 -19.5 -197.5t-78.5 -152.5h610q22 0 27.5 -8t5.5 -29v-106q0 -22 -5.5 -29.5t-27.5 -7.5h-830q-75 0 -75 57v37q0 27 8 46t17.5 28.5t33.5 28.5q57 43 88.5 101.5t39 106.5t7.5 113 q0 74 -6 137h-160q-22 0 -27 7.5t-5 29.5z" />
<glyph unicode="&#xa4;" horiz-adv-x="1030" d="M49 139q-22 22 8 49l105 105q-94 118 -94 274q0 146 86 262l-93 95q-25 26 -4 47l66 63q11 11 19 13t12 -0.5t14 -12.5l96 -100q116 76 246 76q135 0 250 -78l110 110q25 25 48 2l63 -63q16 -19 15 -26.5t-15 -22.5l-111 -109q82 -119 82 -256q0 -142 -82 -258l107 -106 q18 -14 20 -23.5t-14 -27.5l-63 -66q-21 -21 -50 8l-108 109q-115 -78 -252 -78q-133 0 -236 65l-108 -110q-14 -18 -23.5 -19.5t-27.5 15.5zM254 565q0 -106 76 -182t182 -76t182 76t76 182t-76 182t-182 76t-182 -76t-76 -182z" />
<glyph unicode="&#xa5;" horiz-adv-x="1218" d="M116 1368q4 8 17 8h158q13 0 19.5 -1t12.5 -7t11 -18l151 -336l121 -289h8l117 289l146 336q9 26 43 26h155q11 0 15.5 -8t-0.5 -16l-283 -600h235q22 0 28.5 -8.5t6.5 -28.5v-62q0 -22 -6.5 -29.5t-28.5 -7.5h-847q-22 0 -28.5 7.5t-6.5 29.5v62q0 20 6.5 28.5t28.5 8.5 h208l-286 600q-5 8 -1 16zM160 416v61q0 20 6.5 28.5t28.5 8.5h847q22 0 28.5 -8.5t6.5 -28.5v-61q0 -22 -6.5 -29.5t-28.5 -7.5h-335v-348q0 -20 -7 -25.5t-28 -5.5h-129q-19 0 -27 6t-8 25v348h-313q-22 0 -28.5 7.5t-6.5 29.5z" />
<glyph unicode="&#xa6;" horiz-adv-x="446" d="M129 -246v811q0 22 8 27.5t29 5.5h123q22 0 29.5 -5.5t7.5 -27.5v-811q0 -22 -7.5 -27.5t-29.5 -5.5h-123q-21 0 -29 5.5t-8 27.5zM129 739v811q0 22 8 27.5t29 5.5h123q22 0 29.5 -5.5t7.5 -27.5v-811q0 -22 -7.5 -27t-29.5 -5h-123q-15 0 -21.5 1.5t-11 8.5t-4.5 22z " />
<glyph unicode="&#xa7;" horiz-adv-x="1142" d="M137 760q0 73 43.5 144t112.5 120q-64 80 -64 174q0 132 101 221.5t293 89.5q182 0 297 -59q28 -16 12 -41l-43 -90q-5 -12 -11.5 -15t-25.5 3q-99 45 -213 45q-219 0 -219 -131q0 -30 15 -60.5t52 -69t65.5 -63.5t90.5 -76q63 -51 94 -76.5t78.5 -67.5t70.5 -66.5 t53 -59.5t43 -62.5t22.5 -60t9.5 -65.5q0 -70 -44 -139.5t-114 -118.5q74 -99 74 -189q0 -127 -115 -218t-311 -91q-174 0 -289 59q-28 16 -12 41l43 90q5 12 11 15.5t26 -2.5q99 -45 213 -45q111 0 167 41.5t56 105.5q0 90 -195 240q-72 56 -118 94t-102.5 91.5t-89 96.5 t-55 94.5t-22.5 100.5zM334 768q0 -61 53.5 -119.5t222.5 -202.5q94 -85 138 -110q30 24 49.5 58.5t19.5 68.5q0 28 -9 54.5t-20 46t-41 50.5t-50.5 49.5t-70.5 63t-81 72.5q-15 13 -39 33t-37.5 31t-28 25t-22.5 23q-37 -24 -60.5 -62t-23.5 -81z" />
<glyph unicode="&#xa8;" horiz-adv-x="1173" d="M279 1372q0 45 37.5 83t84.5 38t85 -37t38 -84t-38 -84t-85 -37t-84.5 37.5t-37.5 83.5zM655 1372q0 45 38 83t85 38t85 -37t38 -84t-37 -84t-84 -37q-49 0 -87 37t-38 84z" />
<glyph unicode="&#xa9;" horiz-adv-x="1693" d="M113 717q0 155 57 292t155 235t235 155t292 57t292 -57t235 -155t155 -235t57 -292q0 -207 -96.5 -376.5t-266 -266.5t-376.5 -97t-376.5 97t-266 266.5t-96.5 376.5zM225 717q0 -180 82.5 -326t226 -227.5t318.5 -81.5t318.5 81.5t226 227.5t82.5 326t-82.5 326 t-226 227.5t-318.5 81.5t-318.5 -81.5t-226 -227.5t-82.5 -326zM449 702q0 221 110.5 356.5t294.5 135.5q185 0 285 -121q0 -1 1.5 -3t2 -3t2 -3.5t1.5 -4t0.5 -4t0 -4t-1 -4.5t-2.5 -5l-4.5 -4.5l-5.5 -5.5l-68 -61q-19 -12 -41 10q-66 72 -168 72q-125 0 -190.5 -94.5 t-65.5 -256.5q0 -159 66 -253.5t188 -94.5q104 0 174 76q18 21 37 6l72 -57q8 -6 11.5 -11t1 -11t-3 -7.5t-5.5 -7.5q-109 -131 -287 -131q-187 0 -296 136t-109 355z" />
<glyph unicode="&#xaa;" horiz-adv-x="770" d="M55 766q0 48 16.5 90.5t52 79.5t100.5 58.5t153 21.5h141v10q0 49 -30 78t-109 29q-113 0 -186 -25q-23 -6 -33.5 -4t-14.5 18l-20 76q-5 17 -0.5 25.5t22.5 15.5q99 37 256 37q283 0 283 -246v-399q0 -40 -33 -51q-103 -48 -282 -48q-316 0 -316 234zM223 766 q0 -52 38 -73t110 -21q90 0 145 16v184h-131q-162 0 -162 -106z" />
<glyph unicode="&#xab;" horiz-adv-x="1009" d="M123 500q0 7 1 14.5t2.5 13t4 13t4.5 11.5t6 11.5t5.5 10l6 10t5.5 8.5l190 313q14 23 29 33t47 10h115q23 0 30 -14t-4 -31l-241 -407l247 -394q23 -45 -26 -45h-119q-33 0 -48.5 10t-27.5 33l-196 316q-31 51 -31 84zM471 500q0 7 1 14.5t2.5 13t4 13t4.5 11.5t6 11.5 t5.5 10l6 10t5.5 8.5l190 313q14 23 29 33t47 10h115q23 0 30 -14t-4 -31l-241 -407l248 -394q23 -45 -27 -45h-119q-33 0 -48.5 10t-27.5 33l-196 316q-31 51 -31 84z" />
<glyph unicode="&#xac;" horiz-adv-x="1218" d="M106 645v121q0 21 5.5 29t27.5 8h940q22 0 27.5 -8t5.5 -29v-539q0 -22 -7.5 -27t-29.5 -5h-127q-15 0 -21.5 1.5t-11 8.5t-4.5 22v381h-772q-22 0 -27.5 7.5t-5.5 29.5z" />
<glyph unicode="&#xad;" horiz-adv-x="747" d="M102 512v156q0 21 5.5 29t27.5 8h477q22 0 27.5 -8t5.5 -29v-156q0 -22 -5.5 -29.5t-27.5 -7.5h-477q-22 0 -27.5 7.5t-5.5 29.5z" />
<glyph unicode="&#xae;" horiz-adv-x="1134" d="M102 979q0 200 134.5 336.5t330.5 136.5t330.5 -136.5t134.5 -336.5q0 -197 -136 -333t-329 -136q-196 0 -330.5 135.5t-134.5 333.5zM190 979q0 -162 108.5 -273.5t268.5 -111.5q159 0 267 111.5t108 273.5q0 166 -107.5 277.5t-267.5 111.5q-161 0 -269 -111.5 t-108 -277.5zM371 723v489q0 50 47 50h180q78 0 126 -45t48 -119q0 -84 -80 -137q47 -18 62 -80l43 -154q2 -4 2.5 -9.5t-5 -10.5t-16.5 -5h-57q-18 0 -21 17l-43 145q-10 39 -32.5 54.5t-61.5 15.5h-96v-211q0 -13 -5 -17t-18 -4h-55q-11 0 -14.5 4t-3.5 17zM467 1016h117 q48 0 71 22.5t23 55.5q0 32 -20 56t-68 24h-123v-158z" />
<glyph unicode="&#xaf;" horiz-adv-x="686" d="M61 1221v86q0 21 5.5 28.5t27.5 7.5h498q22 0 27.5 -7.5t5.5 -28.5v-86q0 -22 -5.5 -29.5t-27.5 -7.5h-498q-22 0 -27.5 7.5t-5.5 29.5z" />
<glyph unicode="&#xb0;" horiz-adv-x="763" d="M92 1151q0 125 83.5 206t207.5 81q125 0 207 -81t82 -206q0 -127 -83 -207t-208 -80t-207 80t-82 207zM213 1151q0 -75 49 -126.5t121 -51.5q73 0 122.5 51.5t49.5 126.5q0 74 -49.5 125t-122.5 51q-72 0 -121 -51t-49 -125z" />
<glyph unicode="&#xb1;" horiz-adv-x="1218" d="M102 29v133q0 19 5.5 25t27.5 6h940q22 0 27.5 -6t5.5 -25v-133q0 -19 -5.5 -25t-27.5 -6h-940q-22 0 -27.5 6t-5.5 25zM111 727v121q0 15 1.5 21.5t8.5 11t22 4.5h371v379q0 21 8 26.5t29 5.5h127q22 0 29.5 -5t7.5 -27v-379h368q22 0 27.5 -8t5.5 -29v-121 q0 -22 -5.5 -29.5t-27.5 -7.5h-368v-381q0 -22 -7.5 -27.5t-29.5 -5.5h-127q-21 0 -29 5.5t-8 27.5v381h-371q-22 0 -27 7.5t-5 29.5z" />
<glyph unicode="&#xb2;" horiz-adv-x="792" d="M61 840q0 43 30.5 99.5t88.5 111.5q25 25 57.5 50t50.5 37.5t55 35t40 24.5q80 44 110.5 73.5t30.5 65.5q0 90 -149 90q-86 0 -182 -59q-15 -9 -23 -12.5t-19 -2t-18 14.5l-41 68q-16 30 14 51q133 86 277 86q132 0 221.5 -59.5t89.5 -170.5q0 -84 -57 -146.5 t-166 -123.5q-168 -90 -223 -199h414q8 0 14 -0.5t10 -2.5l6 -3t3 -5.5t1 -5.5v-8v-9v-74v-5.5v-5.5v-5t-1 -5t-2.5 -4.5t-4 -4t-6 -3t-9 -2t-11.5 -0.5h-478q-70 0 -96.5 25t-26.5 84z" />
<glyph unicode="&#xb3;" horiz-adv-x="792" d="M43 846l45 69q11 12 21 12.5t30 -9.5q99 -54 211 -54q88 0 130 36.5t42 92.5q0 48 -36 80.5t-121 32.5h-48q-27 0 -38 7.5t-11 37.5v35q0 28 10.5 38.5t36.5 10.5h39q72 0 111 28t39 78q0 43 -42.5 64.5t-99.5 21.5q-101 0 -190 -47q-3 -1 -9.5 -4t-9 -4t-7 -3t-6.5 -2.5 t-5.5 -0.5t-5.5 1t-4.5 2.5t-5 4t-4.5 6.5l-39 70q-17 27 10 45q118 80 303 80q125 0 205 -59t80 -162q0 -56 -27.5 -102.5t-75.5 -73.5v-7q59 -20 90 -70t31 -118q0 -115 -91 -189.5t-243 -74.5q-198 0 -305 82q-28 21 -10 45z" />
<glyph unicode="&#xb4;" horiz-adv-x="989" d="M418 1224q-2 7 8 27l135 324q12 27 43 20l158 -43q31 -8 14 -32l-225 -314q-12 -17 -21 -20t-26 2l-66 24q-18 5 -20 12z" />
<glyph unicode="&#xb6;" horiz-adv-x="1062" d="M117 1057q0 156 109.5 267.5t271.5 111.5h182q20 0 20 -21v-713q0 -22 -20 -22h-182q-166 0 -273.5 108t-107.5 269zM535 -188q-4 25 18 28q80 10 131.5 30t79 54.5t37.5 75.5t10 104v1311q0 21 25 21h104q23 0 23 -21v-1309q0 -77 -11 -135.5t-38 -110t-72 -86 t-114 -55.5t-163 -26q-20 0 -22 20z" />
<glyph unicode="&#xb7;" horiz-adv-x="548" d="M109 612q0 68 46 115t113 47q72 0 118 -46t46 -116q0 -68 -47.5 -114.5t-116.5 -46.5q-68 0 -113.5 46t-45.5 115z" />
<glyph unicode="&#xb8;" horiz-adv-x="1007" d="M367 -371l16 43q7 16 14.5 18.5t20.5 -3.5q58 -21 119 -21q100 0 100 66q0 33 -32 48t-79 15h-13.5h-11.5h-9t-7.5 0.5t-6 1t-5.5 1t-4 2t-4 3.5q-3 3 -4.5 5.5t-2.5 5t-1 6.5t-0.5 5.5t0.5 6.5t1.5 7t2.5 8t2 8l59 170q3 14 21 14h71q16 0 11 -16l-47 -138 q107 -7 153.5 -50t46.5 -107t-57.5 -116t-159.5 -52q-119 0 -180 34q-23 9 -14 35z" />
<glyph unicode="&#xb9;" horiz-adv-x="792" d="M147 768v72q0 23 6.5 28.5t32.5 5.5h133v531l-131 -23q-34 -11 -34 27v66q0 17 1 23t7.5 12t21.5 10l201 51q42 11 71 -1.5t29 -51.5v-644h138q29 0 35 -5t6 -29v-72q0 -24 -6.5 -30.5t-34.5 -6.5h-437q-26 0 -32.5 6.5t-6.5 30.5z" />
<glyph unicode="&#xba;" horiz-adv-x="794" d="M55 903q0 176 95.5 274.5t248.5 98.5q164 0 252 -97t88 -272q0 -181 -87.5 -278t-256.5 -97q-167 0 -253.5 93.5t-86.5 277.5zM223 907q0 -113 39 -174t133 -61q176 0 176 231q0 50 -7.5 89t-25 73.5t-52.5 53t-85 18.5q-88 0 -133 -63t-45 -167z" />
<glyph unicode="&#xbb;" horiz-adv-x="1009" d="M90 102l248 394l-242 407q-11 17 -3.5 31t30.5 14h115q32 0 46.5 -9.5t28.5 -33.5l191 -313q1 -1 5.5 -8.5l6 -10t5.5 -10t6 -11.5t4.5 -11.5t4 -13t2.5 -13t1 -14.5q0 -33 -31 -84l-197 -316q-12 -23 -27 -33t-48 -10h-119q-50 0 -27 45zM438 102l248 394l-242 407 q-11 17 -3.5 31t30.5 14h115q32 0 47 -10t29 -33l190 -313q1 -1 5.5 -8.5l6 -10t5.5 -10t6 -11.5t4.5 -11.5t4 -13t2.5 -13t1 -14.5q0 -33 -31 -84l-197 -316q-12 -23 -27 -33t-48 -10h-119q-50 0 -27 45z" />
<glyph unicode="&#xbc;" horiz-adv-x="1843" d="M186 584v71q0 23 6.5 29t32.5 6h133v531l-131 -23q-34 -11 -34 27v65q0 17 1 23t7.5 12t21.5 10l201 51q42 11 71 -1.5t29 -51.5v-643h138q28 0 34 -5.5t6 -29.5v-71q0 -24 -6 -30.5t-34 -6.5h-437q-26 0 -32.5 6.5t-6.5 30.5zM442 -12l838 1401q11 20 19 26t26 6h80 q13 0 18.5 -6.5t-2.5 -25.5l-837 -1401q-11 -19 -21 -26t-28 -7h-72q-39 0 -21 33zM944 244v26q0 25 7.5 41t27.5 41l367 434q14 19 24.5 30t29 20.5t40.5 9.5h49q45 0 63.5 -17t18.5 -61v-455h78q17 0 24.5 -6t8.5 -12.5t1 -22.5v-57q0 -15 -1 -21t-8.5 -12t-24.5 -6h-78 v-141q0 -23 -8.5 -29t-34.5 -6h-82q-25 0 -33 6t-8 29v139h-379q-17 0 -29.5 2.5t-25.5 9t-20 21.5t-7 37zM1161 322l2 -9h242l-2 295l-6 2z" />
<glyph unicode="&#xbd;" horiz-adv-x="1843" d="M176 584v71q0 23 6.5 29t32.5 6h133v531l-131 -23q-15 -5 -25 1.5t-10 25.5v65q0 23 4.5 31t26.5 14l201 51q42 11 71 -1.5t29 -51.5v-643h137q29 0 35 -5.5t6 -29.5v-71q0 -24 -6.5 -30.5t-34.5 -6.5h-436q-26 0 -32.5 6.5t-6.5 30.5zM420 -12l837 1401q11 20 19.5 26 t26.5 6h79q13 0 19 -6.5t-2 -25.5l-838 -1401q-11 -19 -21 -26t-28 -7h-72q-38 0 -20 33zM1085 109q0 43 30.5 99t88.5 111q20 20 42.5 39t47 36t40.5 27.5t41.5 26t31.5 19.5q80 44 110.5 73.5t30.5 65.5q0 90 -149 90q-86 0 -182 -59q-15 -9 -23 -12.5t-19 -2t-18 14.5 l-41 68q-16 30 14 51q133 86 277 86q132 0 221.5 -59.5t89.5 -170.5q0 -84 -57 -146.5t-166 -123.5q-168 -90 -223 -199h414q8 0 14 -0.5t10 -2.5l6 -3t3 -5.5t1 -5.5v-8v-9v-74v-5.5v-5.5v-5t-1 -5t-2.5 -4.5t-4 -4t-6 -3t-9 -2t-11.5 -0.5h-478q-70 0 -96.5 25t-26.5 84z " />
<glyph unicode="&#xbe;" horiz-adv-x="1843" d="M100 662l45 69q10 12 21 12.5t31 -10.5q97 -53 211 -53q88 0 130 36.5t42 92.5q0 48 -36.5 80.5t-121.5 32.5h-47q-27 0 -38 7.5t-11 37.5v34q0 29 11 39.5t36 10.5h39q71 0 110 28t39 78q0 44 -42 65t-99 21q-102 0 -191 -47q-3 -1 -9.5 -4t-9 -4t-7 -3t-6.5 -2.5 t-5.5 -0.5t-5.5 1t-4.5 2.5t-5 4t-4.5 6.5l-39 70q-17 27 10 45q118 80 303 80q125 0 205 -59.5t80 -162.5q0 -57 -27 -103.5t-75 -72.5v-6q59 -20 90 -70t31 -118q0 -115 -91 -189.5t-243 -74.5q-200 0 -305 81q-29 22 -11 46zM438 -12l838 1401q11 20 19 26t26 6h80 q13 0 18.5 -6.5t-2.5 -25.5l-837 -1401q-11 -19 -21 -26t-29 -7h-71q-39 0 -21 33zM975 244v26q0 25 7.5 41t27.5 41l366 434q14 19 24.5 30t29 20.5t40.5 9.5h50q45 0 63.5 -17t18.5 -61v-455h77q24 0 29.5 -9t5.5 -32v-57q0 -15 -1 -21.5t-9 -12t-25 -5.5h-77v-141 q0 -23 -8.5 -29t-34.5 -6h-82q-25 0 -33 6t-8 29v139h-379q-17 0 -29.5 2.5t-25.5 9t-20 21.5t-7 37zM1192 322l2 -9h242l-2 295l-7 2z" />
<glyph unicode="&#xbf;" horiz-adv-x="1081" d="M104 -35q0 50 15.5 97.5t36 82t58.5 75.5t64 64.5t72 61.5q59 49 93 82t63 81t29 93v39q0 31 30 31h142q30 0 30 -29v-51q0 -34 -7.5 -66t-16.5 -57t-29 -53t-34 -45t-43 -43.5t-43.5 -38.5t-48.5 -39t-46 -37q-78 -67 -117 -121.5t-39 -128.5q0 -29 10 -56t34.5 -56 t76 -46.5t123.5 -17.5q172 0 309 107q31 24 52 -3l63 -98q15 -27 -10 -47q-83 -67 -202.5 -105t-211.5 -38q-204 0 -328.5 93t-124.5 269zM481 918q0 66 45.5 111.5t112.5 45.5q66 0 112 -45t46 -112q0 -65 -48.5 -111.5t-115.5 -46.5q-21 0 -45 7.5t-49 24t-41.5 49.5 t-16.5 77z" />
<glyph unicode="&#xc0;" horiz-adv-x="1288" d="M35 43l454 1305q19 54 41 71.5t76 18.5h68q59 0 82 -18t41 -72l456 -1305q7 -17 0 -30t-26 -13h-154q-19 0 -27 1t-15.5 8.5t-12.5 23.5l-96 291h-555l-97 -291q-6 -18 -16.5 -25.5t-32.5 -7.5h-158q-43 0 -28 43zM301 1718l94 131q8 11 17 13t14 0t14 -9l295 -217 q17 -12 18 -20.5t-10 -20.5l-38 -59q-20 -20 -52 -8l-348 155q-27 12 -4 35zM422 510h438l-125 395l-92 291h-10l-86 -281z" />
<glyph unicode="&#xc1;" horiz-adv-x="1288" d="M35 43l454 1305q19 54 41 71.5t76 18.5h68q59 0 82 -18t41 -72l456 -1305q7 -17 0 -30t-26 -13h-154q-19 0 -27 1t-15.5 8.5t-12.5 23.5l-96 291h-555l-97 -291q-6 -18 -16.5 -25.5t-32.5 -7.5h-158q-43 0 -28 43zM422 510h438l-125 395l-92 291h-10l-86 -281z M531 1615.5q1 8.5 18 20.5l295 217q9 7 14 9t14 0t17 -13l94 -131q23 -23 -4 -35l-348 -155q-31 -12 -51 8l-39 59q-11 12 -10 20.5z" />
<glyph unicode="&#xc2;" horiz-adv-x="1288" d="M35 43l454 1305q19 54 41 71.5t76 18.5h68q59 0 82 -18t41 -72l456 -1305q7 -17 0 -30t-26 -13h-154q-19 0 -27 1t-15.5 8.5t-12.5 23.5l-96 291h-555l-97 -291q-6 -18 -16.5 -25.5t-32.5 -7.5h-158q-43 0 -28 43zM295 1575q-17 21 0 33l260 209q45 36 84 36q48 0 90 -36 l250 -209q25 -19 4 -43l-33 -39q-2 -3 -4 -4.5t-4 -2.5t-5 -0.5t-4.5 0.5t-5.5 1.5t-6.5 2.5t-7.5 3.5t-8 3.5l-268 127l-266 -131q-22 -11 -39 6zM422 510h438l-125 395l-92 291h-10l-86 -281z" />
<glyph unicode="&#xc3;" horiz-adv-x="1288" d="M35 43l454 1305q19 54 41 71.5t76 18.5h68q59 0 82 -18t41 -72l456 -1305q7 -17 0 -30t-26 -13h-154q-19 0 -27 1t-15.5 8.5t-12.5 23.5l-96 291h-555l-97 -291q-6 -18 -16.5 -25.5t-32.5 -7.5h-158q-43 0 -28 43zM287 1588.5q-4 5.5 2 23.5q87 151 221 151q50 0 134 -40 t120 -40q30 0 53.5 16t34.5 42q7 16 14.5 18.5t24.5 -2.5l80 -22q33 -6 24 -31q-38 -82 -87.5 -123t-129.5 -41q-48 0 -137 37t-135 37q-25 0 -47.5 -15.5t-34.5 -39.5q-14 -25 -43 -13l-70 31q-20 6 -24 11.5zM422 510h438l-125 395l-92 291h-10l-86 -281z" />
<glyph unicode="&#xc4;" horiz-adv-x="1288" d="M35 43l454 1305q19 54 41 71.5t76 18.5h68q59 0 82 -18t41 -72l456 -1305q7 -17 0 -30t-26 -13h-154q-19 0 -27 1t-15.5 8.5t-12.5 23.5l-96 291h-555l-97 -291q-6 -18 -16.5 -25.5t-32.5 -7.5h-158q-43 0 -28 43zM330 1642q0 45 38 83t85 38t84.5 -37t37.5 -84 t-37.5 -83.5t-84.5 -36.5t-85 37t-38 83zM422 510h438l-125 395l-92 291h-10l-86 -281zM707 1642q0 45 37.5 83t84.5 38t85 -37t38 -84t-37 -83.5t-84 -36.5q-49 0 -86.5 36.5t-37.5 83.5z" />
<glyph unicode="&#xc5;" horiz-adv-x="1288" d="M35 43l454 1305q19 54 41 71.5t76 18.5h68q59 0 82 -18t41 -72l456 -1305q7 -17 0 -30t-26 -13h-154q-19 0 -27 1t-15.5 8.5t-12.5 23.5l-96 291h-555l-97 -291q-6 -18 -16.5 -25.5t-32.5 -7.5h-158q-43 0 -28 43zM422 510h438l-125 395l-92 291h-10l-86 -281zM436 1675 q0 86 60.5 142.5t148.5 56.5t148.5 -56.5t60.5 -142.5t-60 -142t-149 -56t-149 55.5t-60 142.5zM539 1675q0 -47 29.5 -76.5t76.5 -29.5t77 29.5t30 76.5t-30 77t-77 30t-76.5 -30t-29.5 -77z" />
<glyph unicode="&#xc6;" horiz-adv-x="1767" d="M39 29l407 1185q13 37 28 65.5t43 59.5t63 51t90 33t123 13h843q22 0 27.5 -8t5.5 -29v-117q0 -22 -5.5 -28.5t-27.5 -6.5h-501q-84 0 -121 -37t-37 -116v-242h598q22 0 27.5 -7.5t5.5 -29.5v-108q0 -21 -5.5 -29t-27.5 -8h-598v-326q0 -151 158 -151h516q22 0 27 -7.5 t5 -29.5v-119q0 -15 -1.5 -21.5t-8.5 -11t-22 -4.5h-533q-175 0 -257 82t-93 246h-408l-100 -301q-9 -27 -39 -27h-164q-28 0 -18 29zM410 498h358v579q0 136 29 178q-83 0 -120 -22.5t-56 -73.5l-74 -225z" />
<glyph unicode="&#xc7;" horiz-adv-x="1241" d="M113 696q0 342 175 550t460 208q218 0 380 -84q30 -15 11 -51l-52 -107q-9 -15 -14.5 -18.5t-25.5 2.5q-142 59 -291 59q-88 0 -160 -31.5t-120.5 -85t-82 -125.5t-48.5 -151.5t-15 -165.5q0 -520 438 -520q153 0 315 70q39 16 54 -19l43 -98q9 -19 8.5 -30t-3.5 -14 t-16 -13q-150 -91 -426 -95l-30 -92q107 -7 153.5 -50t46.5 -107t-57.5 -116t-159.5 -52q-119 0 -180 34q-23 9 -14 35l16 43q7 16 14.5 18.5t20.5 -3.5q59 -21 119 -21q100 0 100 66q0 33 -31.5 48t-78.5 15h-15h-13h-9.5t-8 0.5t-6 1.5t-6 2.5t-4.5 3.5q-3 3 -4.5 5.5 t-2.5 5t-1 6.5t-0.5 5.5t0.5 6.5t1.5 7t2.5 8t2 8l43 127q-256 25 -392 201.5t-136 512.5z" />
<glyph unicode="&#xc8;" horiz-adv-x="1204" d="M154 360v713q0 74 20 137.5t61.5 115t111.5 81t163 29.5h561q27 0 35 -10.5t8 -36.5v-99q0 -28 -7.5 -36.5t-35.5 -8.5h-561q-77 0 -111 -33.5t-34 -107.5v-252h639q25 0 32.5 -9.5t7.5 -37.5v-86q0 -25 -7.5 -36t-32.5 -11h-639v-340q0 -139 145 -139h569q28 0 35.5 -10 t7.5 -38v-98q0 -26 -8 -36.5t-35 -10.5h-569q-356 0 -356 360zM375 1718l94 131q8 11 17 13t14 0t14 -9l295 -217q17 -12 18 -20.5t-10 -20.5l-39 -59q-20 -20 -51 -8l-348 155q-27 12 -4 35z" />
<glyph unicode="&#xc9;" horiz-adv-x="1204" d="M154 360v713q0 74 20 137.5t61.5 115t111.5 81t163 29.5h561q27 0 35 -10.5t8 -36.5v-99q0 -28 -7.5 -36.5t-35.5 -8.5h-561q-77 0 -111 -33.5t-34 -107.5v-252h639q25 0 32.5 -9.5t7.5 -37.5v-86q0 -25 -7.5 -36t-32.5 -11h-639v-340q0 -139 145 -139h569q28 0 35.5 -10 t7.5 -38v-98q0 -26 -8 -36.5t-35 -10.5h-569q-356 0 -356 360zM541 1615.5q1 8.5 18 20.5l295 217q9 7 14 9t14 0t17 -13l94 -131q23 -23 -4 -35l-348 -155q-31 -12 -51 8l-39 59q-11 12 -10 20.5z" />
<glyph unicode="&#xca;" horiz-adv-x="1204" d="M154 360v713q0 74 20 137.5t61.5 115t111.5 81t163 29.5h561q27 0 35 -10.5t8 -36.5v-99q0 -28 -7.5 -36.5t-35.5 -8.5h-561q-77 0 -111 -33.5t-34 -107.5v-252h639q25 0 32.5 -9.5t7.5 -37.5v-86q0 -25 -7.5 -36t-32.5 -11h-639v-340q0 -139 145 -139h569q28 0 35.5 -10 t7.5 -38v-98q0 -26 -8 -36.5t-35 -10.5h-569q-356 0 -356 360zM334 1575q-17 21 0 33l260 209q45 36 84 36q48 0 90 -36l250 -209q25 -19 4 -43l-33 -39q-2 -3 -4 -4.5t-4 -2.5t-5 -0.5t-4.5 0.5t-5.5 1.5t-6.5 2.5t-7.5 3.5t-8 3.5l-268 127l-266 -131q-22 -11 -39 6z" />
<glyph unicode="&#xcb;" horiz-adv-x="1204" d="M154 360v713q0 74 20 137.5t61.5 115t111.5 81t163 29.5h561q27 0 35 -10.5t8 -36.5v-99q0 -28 -7.5 -36.5t-35.5 -8.5h-561q-77 0 -111 -33.5t-34 -107.5v-252h639q25 0 32.5 -9.5t7.5 -37.5v-86q0 -25 -7.5 -36t-32.5 -11h-639v-340q0 -139 145 -139h569q28 0 35.5 -10 t7.5 -38v-98q0 -26 -8 -36.5t-35 -10.5h-569q-356 0 -356 360zM371 1638q0 45 38 83t85 38t84.5 -37t37.5 -84t-37.5 -83.5t-84.5 -36.5t-85 37t-38 83zM748 1638q0 45 37.5 83t84.5 38t85 -37t38 -84t-37 -83.5t-84 -36.5q-49 0 -86.5 36.5t-37.5 83.5z" />
<glyph unicode="&#xcc;" horiz-adv-x="563" d="M-70 1718l95 131q8 11 17 13t14 0t14 -9l295 -217q17 -12 18 -20.5t-10 -20.5l-39 -59q-20 -20 -51 -8l-349 155q-27 12 -4 35zM176 43v1348q0 27 10.5 35t36.5 8h119q28 0 37.5 -7.5t9.5 -35.5v-1348q0 -28 -9.5 -35.5t-37.5 -7.5h-119q-26 0 -36.5 8t-10.5 35z" />
<glyph unicode="&#xcd;" horiz-adv-x="563" d="M176 43v1348q0 27 10.5 35t36.5 8h119q28 0 37.5 -7.5t9.5 -35.5v-1348q0 -28 -9.5 -35.5t-37.5 -7.5h-119q-26 0 -36.5 8t-10.5 35zM211 1615.5q1 8.5 18 20.5l295 217q9 7 14 9t14 0t17 -13l95 -131q23 -23 -5 -35l-348 -155q-31 -12 -51 8l-39 59q-11 12 -10 20.5z " />
<glyph unicode="&#xce;" horiz-adv-x="563" d="M-57 1575q-17 21 0 33l260 209q45 36 84 36q48 0 90 -36l250 -209q25 -19 4 -43l-33 -39q-2 -3 -4 -4.5t-4 -2.5t-5 -0.5t-4.5 0.5t-5.5 1.5t-6.5 2.5t-7.5 3.5t-8 3.5l-268 127l-267 -131q-21 -11 -38 6zM176 43v1348q0 27 10.5 35t36.5 8h119q28 0 37.5 -7.5t9.5 -35.5 v-1348q0 -28 -9.5 -35.5t-37.5 -7.5h-119q-26 0 -36.5 8t-10.5 35z" />
<glyph unicode="&#xcf;" horiz-adv-x="563" d="M-25 1649q0 45 38 82.5t85 37.5q48 0 85.5 -36.5t37.5 -83.5t-38 -84t-85 -37t-85 37.5t-38 83.5zM176 43v1348q0 27 10.5 35t36.5 8h119q28 0 37.5 -7.5t9.5 -35.5v-1348q0 -28 -9.5 -35.5t-37.5 -7.5h-119q-26 0 -36.5 8t-10.5 35zM352 1649q0 45 38 82.5t85 37.5 q48 0 85.5 -36.5t37.5 -83.5t-37 -84t-84 -37q-49 0 -87 37t-38 84z" />
<glyph unicode="&#xd0;" horiz-adv-x="1396" d="M20 682v94q0 21 5.5 29t27.5 8h101v512q0 60 25 85.5t85 25.5l375 2q313 0 479 -189t166 -522q0 -163 -37.5 -294.5t-112.5 -229t-195.5 -150.5t-279.5 -53h-395q-60 0 -85 25.5t-25 85.5v534h-101q-22 0 -27.5 7.5t-5.5 29.5zM371 193h262q98 0 173 26.5t123.5 72 t79.5 113.5t43.5 145.5t12.5 172.5q0 522 -438 522h-256v-432h303q22 0 27.5 -8t5.5 -29v-94q0 -22 -5.5 -29.5t-27.5 -7.5h-303v-452z" />
<glyph unicode="&#xd1;" horiz-adv-x="1433" d="M154 43v1280q0 59 24.5 86t85.5 27h62q46 0 68.5 -18t54.5 -70l444 -744l174 -299h6v1088q0 27 10.5 35t36.5 8h113q28 0 37.5 -7.5t9.5 -35.5v-1280q0 -59 -25 -86t-86 -27h-61q-46 0 -68.5 18t-54.5 70l-450 752l-168 290h-7v-1087q0 -28 -9.5 -35.5t-37.5 -7.5h-112 q-26 0 -36.5 8t-10.5 35zM399.5 1611q-4.5 5 1.5 23q87 152 222 152q51 0 135 -40t119 -40q30 0 53.5 16t34.5 41q7 17 14.5 19.5t24.5 -2.5l79 -23q34 -6 25 -31q-38 -82 -87.5 -122.5t-129.5 -40.5q-49 0 -138 36.5t-135 36.5q-25 0 -46.5 -15.5t-34.5 -39.5 q-14 -24 -43 -12l-70 30q-20 7 -24.5 12z" />
<glyph unicode="&#xd2;" horiz-adv-x="1458" d="M113 715q0 174 47 315.5t130 234t195 142t244 49.5q298 0 457.5 -193.5t159.5 -539.5q0 -363 -158.5 -554.5t-464.5 -191.5q-301 0 -455.5 186t-154.5 552zM326 723q0 -131 20 -228.5t65 -173t123.5 -114.5t190.5 -39q90 0 161 30t116 80.5t74.5 122t41.5 148.5t12 166 q0 93 -9.5 168.5t-36 149t-69.5 123t-114 80t-166 30.5q-101 0 -180 -43t-128.5 -117.5t-75 -172t-25.5 -210.5zM422 1718l94 131q8 11 17 13t14 0t14 -9l295 -217q17 -12 18 -20.5t-10 -20.5l-39 -59q-20 -20 -51 -8l-348 155q-27 12 -4 35z" />
<glyph unicode="&#xd3;" horiz-adv-x="1458" d="M113 715q0 174 47 315.5t130 234t195 142t244 49.5q298 0 457.5 -193.5t159.5 -539.5q0 -363 -158.5 -554.5t-464.5 -191.5q-301 0 -455.5 186t-154.5 552zM326 723q0 -131 20 -228.5t65 -173t123.5 -114.5t190.5 -39q90 0 161 30t116 80.5t74.5 122t41.5 148.5t12 166 q0 93 -9.5 168.5t-36 149t-69.5 123t-114 80t-166 30.5q-101 0 -180 -43t-128.5 -117.5t-75 -172t-25.5 -210.5zM627 1615.5q1 8.5 18 20.5l295 217q9 7 14 9t14 0t17 -13l94 -131q23 -23 -4 -35l-348 -155q-31 -12 -51 8l-39 59q-11 12 -10 20.5z" />
<glyph unicode="&#xd4;" horiz-adv-x="1458" d="M113 715q0 174 47 315.5t130 234t195 142t244 49.5q298 0 457.5 -193.5t159.5 -539.5q0 -363 -158.5 -554.5t-464.5 -191.5q-301 0 -455.5 186t-154.5 552zM326 723q0 -131 20 -228.5t65 -173t123.5 -114.5t190.5 -39q90 0 161 30t116 80.5t74.5 122t41.5 148.5t12 166 q0 93 -9.5 168.5t-36 149t-69.5 123t-114 80t-166 30.5q-101 0 -180 -43t-128.5 -117.5t-75 -172t-25.5 -210.5zM387 1575q-17 21 0 33l260 209q45 36 84 36q48 0 90 -36l250 -209q25 -19 4 -43l-33 -39q-2 -3 -4 -4.5t-4 -2.5t-5 -0.5t-4.5 0.5t-5.5 1.5t-6.5 2.5t-7.5 3.5 t-8 3.5l-268 127l-266 -131q-22 -11 -39 6z" />
<glyph unicode="&#xd5;" horiz-adv-x="1458" d="M113 715q0 174 47 315.5t130 234t195 142t244 49.5q298 0 457.5 -193.5t159.5 -539.5q0 -363 -158.5 -554.5t-464.5 -191.5q-301 0 -455.5 186t-154.5 552zM326 723q0 -131 20 -228.5t65 -173t123.5 -114.5t190.5 -39q90 0 161 30t116 80.5t74.5 122t41.5 148.5t12 166 q0 93 -9.5 168.5t-36 149t-69.5 123t-114 80t-166 30.5q-101 0 -180 -43t-128.5 -117.5t-75 -172t-25.5 -210.5zM383.5 1624q-4.5 5 1.5 23q87 151 221 151q50 0 134 -40t120 -40q30 0 53.5 16t34.5 42q7 16 14.5 18.5t24.5 -2.5l80 -23q34 -6 25 -30q-38 -82 -88 -123 t-130 -41q-48 0 -137 37t-135 37q-25 0 -47 -16t-35 -40q-14 -24 -43 -12l-69 31q-20 7 -24.5 12z" />
<glyph unicode="&#xd6;" horiz-adv-x="1458" d="M113 715q0 174 47 315.5t130 234t195 142t244 49.5q298 0 457.5 -193.5t159.5 -539.5q0 -363 -158.5 -554.5t-464.5 -191.5q-301 0 -455.5 186t-154.5 552zM326 723q0 -131 20 -228.5t65 -173t123.5 -114.5t190.5 -39q90 0 161 30t116 80.5t74.5 122t41.5 148.5t12 166 q0 93 -9.5 168.5t-36 149t-69.5 123t-114 80t-166 30.5q-101 0 -180 -43t-128.5 -117.5t-75 -172t-25.5 -210.5zM426 1659q0 45 38 83t85 38t85 -37t38 -84t-38 -84t-85 -37t-85 37.5t-38 83.5zM803 1659q0 45 38 83t85 38t85 -37t38 -84t-37 -84t-84 -37q-49 0 -87 37 t-38 84z" />
<glyph unicode="&#xd7;" horiz-adv-x="1218" d="M129.5 352q-1.5 8 13.5 27l328 328l-319 319q-16 19 -14.5 26.5t16.5 22.5l86 86q14 14 22 15.5t27 -13.5l319 -319l326 325q19 15 27 13.5t22 -15.5l90 -90q15 -15 16.5 -22.5t-14.5 -26.5l-325 -326l319 -319q15 -19 13.5 -27t-17.5 -22l-84 -86q-15 -15 -22.5 -16.5 t-26.5 14.5l-320 317l-327 -325q-19 -16 -26.5 -14.5t-22.5 16.5l-91 90q-14 14 -15.5 22z" />
<glyph unicode="&#xd8;" horiz-adv-x="1458" d="M113 715q0 174 47 315.5t130 234t195 142t244 49.5q234 0 387 -125l96 127q19 25 43 4l41 -28q11 -11 11.5 -16t-9.5 -23l-106 -140q154 -192 154 -532q0 -363 -158.5 -554.5t-464.5 -191.5q-250 0 -397 129l-82 -108q-16 -20 -39 -4l-43 26q-20 14 -2 41l92 123 q-139 189 -139 531zM326 723q0 -229 63 -358l608 806q-95 95 -262 95q-101 0 -180 -43t-128.5 -117.5t-75 -172t-25.5 -210.5zM451 272q96 -104 282 -104q90 0 159.5 30t114 80.5t72.5 122t39.5 148.5t11.5 166q0 235 -67 366z" />
<glyph unicode="&#xd9;" horiz-adv-x="1400" d="M152 1391q0 27 10.5 35t36.5 8h123q28 0 37.5 -7.5t9.5 -35.5v-760q0 -84 6 -144.5t22.5 -116t46 -91.5t76 -63.5t112.5 -39.5t156 -12q142 0 250 22v1205q0 27 10.5 35t36.5 8h123q26 0 32.5 -7t6.5 -36v-1192q0 -86 -37.5 -135t-130.5 -66q-149 -23 -303 -23 q-174 0 -289 32.5t-191 109.5t-109 200.5t-33 309.5zM418 1718l94 131q8 11 17 13t14 0t14 -9l295 -217q17 -12 18 -20.5t-10 -20.5l-39 -59q-20 -20 -51 -8l-348 155q-27 12 -4 35z" />
<glyph unicode="&#xda;" horiz-adv-x="1400" d="M152 1391q0 27 10.5 35t36.5 8h123q28 0 37.5 -7.5t9.5 -35.5v-760q0 -84 6 -144.5t22.5 -116t46 -91.5t76 -63.5t112.5 -39.5t156 -12q142 0 250 22v1205q0 27 10.5 35t36.5 8h123q26 0 32.5 -7t6.5 -36v-1192q0 -86 -37.5 -135t-130.5 -66q-149 -23 -303 -23 q-174 0 -289 32.5t-191 109.5t-109 200.5t-33 309.5zM576 1615.5q1 8.5 18 20.5l295 217q9 7 14 9t14 0t17 -13l94 -131q23 -23 -4 -35l-348 -155q-31 -12 -51 8l-39 59q-11 12 -10 20.5z" />
<glyph unicode="&#xdb;" horiz-adv-x="1400" d="M152 1391q0 27 10.5 35t36.5 8h123q28 0 37.5 -7.5t9.5 -35.5v-760q0 -84 6 -144.5t22.5 -116t46 -91.5t76 -63.5t112.5 -39.5t156 -12q142 0 250 22v1205q0 27 10.5 35t36.5 8h123q26 0 32.5 -7t6.5 -36v-1192q0 -86 -37.5 -135t-130.5 -66q-149 -23 -303 -23 q-174 0 -289 32.5t-191 109.5t-109 200.5t-33 309.5zM362 1575q-17 21 0 33l261 209q45 36 84 36q48 0 90 -36l250 -209q25 -19 4 -43l-33 -39q-2 -3 -4 -4.5t-4 -2.5t-5 -0.5t-4.5 0.5t-5.5 1.5t-6.5 2.5t-7.5 3.5t-8 3.5l-268 127l-267 -131q-22 -11 -39 6z" />
<glyph unicode="&#xdc;" horiz-adv-x="1400" d="M152 1391q0 27 10.5 35t36.5 8h123q28 0 37.5 -7.5t9.5 -35.5v-760q0 -84 6 -144.5t22.5 -116t46 -91.5t76 -63.5t112.5 -39.5t156 -12q142 0 250 22v1205q0 27 10.5 35t36.5 8h123q26 0 32.5 -7t6.5 -36v-1192q0 -86 -37.5 -135t-130.5 -66q-149 -23 -303 -23 q-174 0 -289 32.5t-191 109.5t-109 200.5t-33 309.5zM393 1628q0 45 38 83t85 38t85 -37t38 -84t-38 -84t-85 -37t-85 37.5t-38 83.5zM770 1628q0 45 38 83t85 38t85 -37t38 -84t-37 -84t-84 -37q-49 0 -87 37t-38 84z" />
<glyph unicode="&#xdd;" horiz-adv-x="1183" d="M24 1427q4 9 17 9h174q18 0 26.5 -5.5t18.5 -23.5l174 -332l162 -321h8l170 336l166 317q16 29 45 29h162q11 0 15 -9t-1 -16l-461 -844v-534q0 -22 -6.5 -27.5t-27.5 -5.5h-136q-21 0 -28.5 5.5t-7.5 27.5v534l-469 844q-5 7 -1 16zM494 1615.5q1 8.5 18 20.5l295 217 q9 7 14 9t14 0t17 -13l94 -131q23 -23 -4 -35l-348 -155q-31 -12 -51 8l-39 59q-11 12 -10 20.5z" />
<glyph unicode="&#xde;" horiz-adv-x="1255" d="M154 20v1381q0 22 7.5 27.5t28.5 5.5h142q22 0 29.5 -5.5t7.5 -27.5v-205h372q198 0 324.5 -119.5t126.5 -310.5q0 -51 -11 -104.5t-42 -116t-80 -110.5t-133.5 -80.5t-192.5 -32.5h-360l-2 -289q0 -33 -27 -33h-172l-10 6q-1 0 -2 1t-2 1zM373 508h323q141 0 209 65 t68 179q0 34 -7.5 66t-27 66t-50.5 59.5t-82 41.5t-116 16h-317v-493z" />
<glyph unicode="&#xdf;" horiz-adv-x="1146" d="M135 1006q0 220 114 344.5t312 124.5q107 0 189 -31.5t129 -84.5t70.5 -116.5t23.5 -134.5q0 -35 -8.5 -73.5t-26.5 -78.5t-51.5 -74t-77.5 -51v-6q101 -25 173.5 -135t72.5 -241q0 -161 -73.5 -277t-191.5 -169t-262 -48q-17 0 -21.5 4t-4.5 21v102q0 16 4 22.5t20 6.5 q146 0 236 84.5t90 236.5q0 55 -13.5 104.5t-44 94t-87 70.5t-134.5 26q-34 0 -51.5 13.5t-17.5 47.5v35q0 68 63 68q108 0 158.5 58.5t50.5 146.5q0 37 -11.5 72.5t-35 68t-67 52.5t-101.5 20q-62 0 -107.5 -24.5t-69.5 -65.5t-35 -86t-11 -95v-1005q0 -22 -7.5 -27.5 t-29.5 -5.5h-127q-21 0 -29 5.5t-8 27.5z" />
<glyph unicode="&#xe0;" horiz-adv-x="1116" d="M92 319q0 57 13.5 107.5t47 99t84.5 83.5t130.5 56t179.5 21h233v37q0 49 -9.5 83t-34.5 62t-71.5 42t-115.5 14q-127 0 -283 -41q-20 -7 -30.5 -4.5t-14.5 20.5l-26 100q-10 30 18 39q152 60 371 60q399 0 399 -365v-627q0 -44 -35 -59q-157 -70 -409 -70 q-104 0 -183 18.5t-128.5 49t-80.5 75.5t-43 93t-12 106zM295 319q0 -95 62.5 -135.5t179.5 -40.5q140 0 241 35v336h-219q-264 0 -264 -195zM322 1520q-17 24 14 32l158 43q31 7 43 -20l135 -324q10 -20 7.5 -27t-20.5 -12l-65 -24q-17 -5 -26 -2t-21 20z" />
<glyph unicode="&#xe1;" horiz-adv-x="1116" d="M92 319q0 57 13.5 107.5t47 99t84.5 83.5t130.5 56t179.5 21h233v37q0 49 -9.5 83t-34.5 62t-71.5 42t-115.5 14q-127 0 -283 -41q-20 -7 -30.5 -4.5t-14.5 20.5l-26 100q-10 30 18 39q152 60 371 60q399 0 399 -365v-627q0 -44 -35 -59q-157 -70 -409 -70 q-104 0 -183 18.5t-128.5 49t-80.5 75.5t-43 93t-12 106zM295 319q0 -95 62.5 -135.5t179.5 -40.5q140 0 241 35v336h-219q-264 0 -264 -195zM459 1224q-2 7 8 27l135 324q12 27 43 20l158 -43q31 -8 14 -32l-225 -314q-12 -17 -21 -20t-26 2l-66 24q-18 5 -20 12z" />
<glyph unicode="&#xe2;" horiz-adv-x="1116" d="M92 319q0 57 13.5 107.5t47 99t84.5 83.5t130.5 56t179.5 21h233v37q0 49 -9.5 83t-34.5 62t-71.5 42t-115.5 14q-127 0 -283 -41q-20 -7 -30.5 -4.5t-14.5 20.5l-26 100q-10 30 18 39q152 60 371 60q399 0 399 -365v-627q0 -44 -35 -59q-157 -70 -409 -70 q-104 0 -183 18.5t-128.5 49t-80.5 75.5t-43 93t-12 106zM238 1257l270 273q39 39 84 39q28 0 47 -7.5t43 -31.5l258 -268q27 -27 2 -48l-39 -34q-17 -14 -45 4l-266 186l-266 -192q-24 -15 -43 4l-43 45q-14 14 -2 30zM295 319q0 -95 62.5 -135.5t179.5 -40.5q140 0 241 35 v336h-219q-264 0 -264 -195z" />
<glyph unicode="&#xe3;" horiz-adv-x="1116" d="M92 319q0 57 13.5 107.5t47 99t84.5 83.5t130.5 56t179.5 21h233v37q0 49 -9.5 83t-34.5 62t-71.5 42t-115.5 14q-127 0 -283 -41q-20 -7 -30.5 -4.5t-14.5 20.5l-26 100q-10 30 18 39q152 60 371 60q399 0 399 -365v-627q0 -44 -35 -59q-157 -70 -409 -70 q-104 0 -183 18.5t-128.5 49t-80.5 75.5t-43 93t-12 106zM225 1316.5q-4 4.5 2 22.5q87 152 222 152q50 0 133.5 -40t119.5 -40q30 0 54 16t35 41q7 17 14 19.5t24 -2.5l80 -23q34 -6 25 -30q-38 -82 -87.5 -123t-129.5 -41q-49 0 -138 36.5t-135 36.5q-25 0 -47.5 -15.5 t-34.5 -39.5q-14 -24 -43 -12l-69 31q-21 7 -25 11.5zM295 319q0 -95 62.5 -135.5t179.5 -40.5q140 0 241 35v336h-219q-264 0 -264 -195z" />
<glyph unicode="&#xe4;" horiz-adv-x="1116" d="M92 319q0 57 13.5 107.5t47 99t84.5 83.5t130.5 56t179.5 21h233v37q0 49 -9.5 83t-34.5 62t-71.5 42t-115.5 14q-127 0 -283 -41q-20 -7 -30.5 -4.5t-14.5 20.5l-26 100q-10 30 18 39q152 60 371 60q399 0 399 -365v-627q0 -44 -35 -59q-157 -70 -409 -70 q-104 0 -183 18.5t-128.5 49t-80.5 75.5t-43 93t-12 106zM281 1372q0 45 37.5 83t84.5 38t85 -37t38 -84t-38 -84t-85 -37t-84.5 37.5t-37.5 83.5zM295 319q0 -95 62.5 -135.5t179.5 -40.5q140 0 241 35v336h-219q-264 0 -264 -195zM657 1372q0 45 38 83t85 38t85 -37 t38 -84t-37 -84t-84 -37q-49 0 -87 37t-38 84z" />
<glyph unicode="&#xe5;" horiz-adv-x="1116" d="M92 319q0 57 13.5 107.5t47 99t84.5 83.5t130.5 56t179.5 21h233v37q0 49 -9.5 83t-34.5 62t-71.5 42t-115.5 14q-127 0 -283 -41q-20 -7 -30.5 -4.5t-14.5 20.5l-26 100q-10 30 18 39q152 60 371 60q399 0 399 -365v-627q0 -44 -35 -59q-157 -70 -409 -70 q-104 0 -183 18.5t-128.5 49t-80.5 75.5t-43 93t-12 106zM295 319q0 -95 62.5 -135.5t179.5 -40.5q140 0 241 35v336h-219q-264 0 -264 -195zM391 1384q0 86 60.5 142.5t148.5 56.5t148.5 -56.5t60.5 -142.5t-60 -142t-149 -56t-149 55.5t-60 142.5zM494 1384 q0 -47 29.5 -76.5t76.5 -29.5t77 29.5t30 76.5t-30 77t-77 30t-76.5 -30t-29.5 -77z" />
<glyph unicode="&#xe6;" horiz-adv-x="1767" d="M92 299q0 50 10.5 96t39 94.5t73.5 83.5t120.5 57.5t172.5 22.5h250q49 271 -232 271q-132 0 -276 -41q-20 -7 -30.5 -4.5t-14.5 20.5l-27 100q-10 29 19 39q152 60 364 60q244 0 336 -144q63 69 150.5 106.5t185.5 37.5q211 0 323.5 -115.5t120.5 -312.5 q4 -96 -44.5 -136t-125.5 -40h-557q2 -105 26.5 -175.5t70 -105.5t95.5 -48t120 -13q64 0 130.5 17t110.5 42q31 15 43 -12l49 -97q14 -32 -12 -47q-129 -78 -336 -78q-174 0 -319 101q-86 -52 -209 -76.5t-232 -24.5q-102 0 -177 21t-116 51.5t-65 76.5t-30.5 85t-6.5 88z M295 299q0 -162 201 -162q31 0 76 4t117.5 20.5t121.5 43.5q-60 118 -63 289h-216q-44 0 -82.5 -8.5t-75 -29t-58 -61t-21.5 -96.5zM958 653h529q0 40 -6.5 77t-24.5 74.5t-46 64.5t-74 44t-105 17q-123 0 -194 -78t-79 -199z" />
<glyph unicode="&#xe7;" horiz-adv-x="987" d="M92 526q0 260 131 416t355 156q175 0 305 -72q31 -15 12 -47l-47 -98q-5 -11 -7.5 -14t-12 -5.5t-23.5 6.5q-117 50 -223 50q-59 0 -107.5 -21t-81.5 -57.5t-55.5 -86.5t-32.5 -106.5t-10 -120.5q0 -65 8 -118t28 -102t52 -82t83 -52.5t118 -19.5q65 0 131.5 16.5 t111.5 40.5q21 8 28.5 5t14.5 -17l48 -99q19 -31 -13 -47q-104 -59 -301 -71l-31 -95q107 -7 154 -50t47 -107t-57.5 -116t-159.5 -52q-119 0 -180 34q-24 9 -15 35l17 43q7 16 14.5 18.5t20.5 -3.5q58 -21 118 -21q101 0 101 66q0 33 -32 48t-79 15h-13.5h-11.5h-9 t-7.5 0.5t-6 1t-5.5 1t-4 2t-4 3.5q-3 3 -4.5 5.5t-2.5 5t-1 6.5t-0.5 5.5t0.5 6.5t1.5 7t2.5 8t2 8l43 125q-200 17 -305 154.5t-105 391.5z" />
<glyph unicode="&#xe8;" horiz-adv-x="1110" d="M92 532q0 174 64 304t171.5 196t243.5 66q226 0 338.5 -118.5t112.5 -328.5q0 -176 -170 -176h-557q4 -168 89 -245.5t222 -77.5q64 0 131 17t111 42q31 15 43 -12l49 -97q14 -32 -12 -47q-129 -78 -336 -78q-242 0 -371 136t-129 419zM303 635h528q0 65 -11.5 115 t-39.5 92.5t-80 65t-127 22.5q-119 0 -192 -88.5t-78 -206.5zM332 1520q-17 24 14 32l158 43q31 7 43 -20l135 -324q10 -20 8 -27t-20 -12l-66 -24q-17 -5 -26 -2t-21 20z" />
<glyph unicode="&#xe9;" horiz-adv-x="1110" d="M92 532q0 174 64 304t171.5 196t243.5 66q226 0 338.5 -118.5t112.5 -328.5q0 -176 -170 -176h-557q4 -168 89 -245.5t222 -77.5q64 0 131 17t111 42q31 15 43 -12l49 -97q14 -32 -12 -47q-129 -78 -336 -78q-242 0 -371 136t-129 419zM303 635h528q0 65 -11.5 115 t-39.5 92.5t-80 65t-127 22.5q-119 0 -192 -88.5t-78 -206.5zM459 1224q-2 7 8 27l135 324q12 27 43 20l158 -43q31 -8 14 -32l-225 -314q-12 -17 -21 -20t-26 2l-66 24q-18 5 -20 12z" />
<glyph unicode="&#xea;" horiz-adv-x="1110" d="M92 532q0 174 64 304t171.5 196t243.5 66q226 0 338.5 -118.5t112.5 -328.5q0 -176 -170 -176h-557q4 -168 89 -245.5t222 -77.5q64 0 131 17t111 42q31 15 43 -12l49 -97q14 -32 -12 -47q-129 -78 -336 -78q-242 0 -371 136t-129 419zM223 1257l271 273q39 39 84 39 q28 0 47 -7.5t43 -31.5l258 -268q27 -27 2 -48l-39 -34q-17 -14 -45 4l-266 186l-267 -192q-24 -15 -43 4l-43 45q-14 14 -2 30zM303 635h528q0 65 -11.5 115t-39.5 92.5t-80 65t-127 22.5q-119 0 -192 -88.5t-78 -206.5z" />
<glyph unicode="&#xeb;" horiz-adv-x="1110" d="M92 532q0 174 64 304t171.5 196t243.5 66q226 0 338.5 -118.5t112.5 -328.5q0 -176 -170 -176h-557q4 -168 89 -245.5t222 -77.5q64 0 131 17t111 42q31 15 43 -12l49 -97q14 -32 -12 -47q-129 -78 -336 -78q-242 0 -371 136t-129 419zM270 1372q0 45 38 83t85 38t85 -37 t38 -84t-38 -84t-85 -37t-85 37.5t-38 83.5zM303 635h528q0 65 -11.5 115t-39.5 92.5t-80 65t-127 22.5q-119 0 -192 -88.5t-78 -206.5zM647 1372q0 45 38 83t85 38t85 -37t38 -84t-37 -84t-84 -37q-49 0 -87 37t-38 84z" />
<glyph unicode="&#xec;" horiz-adv-x="561" d="M23 1520q-17 24 14 32l158 43q31 7 43 -20l135 -324q10 -20 7.5 -27t-20.5 -12l-65 -24q-17 -5 -26 -2t-21 20zM180 33v1009q0 22 8 27.5t29 5.5h127q22 0 29.5 -5.5t7.5 -27.5v-1009q0 -22 -7.5 -27.5t-29.5 -5.5h-127q-21 0 -29 5.5t-8 27.5z" />
<glyph unicode="&#xed;" horiz-adv-x="561" d="M180 33v1009q0 22 8 27.5t29 5.5h127q22 0 29.5 -5.5t7.5 -27.5v-1009q0 -22 -7.5 -27.5t-29.5 -5.5h-127q-21 0 -29 5.5t-8 27.5zM211 1224q-2 7 8 27l135 324q12 27 43 20l158 -43q31 -8 14 -32l-225 -314q-12 -17 -21 -20t-26 2l-66 24q-18 5 -20 12z" />
<glyph unicode="&#xee;" horiz-adv-x="561" d="M-68 1257l271 273q39 39 84 39q28 0 47 -7.5t43 -31.5l258 -268q27 -27 2 -48l-39 -34q-17 -14 -45 4l-266 186l-267 -192q-24 -15 -43 4l-43 45q-14 14 -2 30zM180 33v1009q0 22 8 27.5t29 5.5h127q22 0 29.5 -5.5t7.5 -27.5v-1009q0 -22 -7.5 -27.5t-29.5 -5.5h-127 q-21 0 -29 5.5t-8 27.5z" />
<glyph unicode="&#xef;" horiz-adv-x="561" d="M-29 1372q0 45 38 83t85 38t85 -37t38 -84t-38 -84t-85 -37t-85 37.5t-38 83.5zM180 33v1009q0 22 8 27.5t29 5.5h127q22 0 29.5 -5.5t7.5 -27.5v-1009q0 -22 -7.5 -27.5t-29.5 -5.5h-127q-21 0 -29 5.5t-8 27.5zM348 1372q0 45 38 83t85 38t85 -37t38 -84t-37 -84 t-84 -37q-49 0 -87 37t-38 84z" />
<glyph unicode="&#xf0;" horiz-adv-x="1132" d="M92 477q0 92 28 178.5t82.5 159t146 116.5t208.5 44q126 0 227 -39l11 6q-61 160 -152 254l-119 -104q-19 -12 -26.5 -10.5t-22.5 16.5l-24 26q-9 9 -13 15.5t-2 14.5t13 17l114 101q-94 73 -174 123q-14 8 -17 19t-1 14.5t8 13.5l31 51q9 15 18 22.5t19.5 7t13 -1.5 l12.5 -5q113 -55 213 -136l133 117q18 13 26.5 11.5t22.5 -19.5l23 -25q2 -2 5 -6l4.5 -6t3.5 -5t2.5 -4.5t1.5 -4t0.5 -4t-1 -3.5t-2.5 -4l-4.5 -4.5l-5.5 -5.5l-127 -112q133 -134 202.5 -320.5t69.5 -392.5q0 -59 -5.5 -114t-19.5 -117t-37 -115t-61 -102.5t-87 -84 t-119.5 -55t-155.5 -20.5q-108 0 -191 29t-133.5 75.5t-82.5 112.5t-44 132.5t-12 143.5zM293 485q0 -49 4 -88.5t19.5 -89.5t42.5 -83t77 -56t119 -23t122 23.5t85 61.5t52.5 91t28 106t7.5 112q0 135 -21 209q-115 63 -251 63q-76 0 -133.5 -28.5t-89.5 -76.5t-47 -103.5 t-15 -117.5z" />
<glyph unicode="&#xf1;" horiz-adv-x="1163" d="M133 33v876q0 80 30.5 120.5t112.5 51.5q156 17 250 17q265 0 384.5 -121t119.5 -397v-547q0 -22 -7.5 -27.5t-29.5 -5.5h-127q-21 0 -29 5.5t-8 27.5v540q0 91 -14.5 153t-50.5 107t-98 66t-156 21q-86 0 -176 -15v-872q0 -22 -7.5 -27.5t-29.5 -5.5h-127q-21 0 -29 5.5 t-8 27.5zM174 1316.5q-4 4.5 2 22.5q87 152 221 152q51 0 135 -40t119 -40q30 0 53.5 16t34.5 41q7 17 14.5 19.5t24.5 -2.5l80 -23q34 -6 25 -30q-38 -82 -87.5 -123t-129.5 -41q-48 0 -138 36.5t-135 36.5q-25 0 -47.5 -15.5t-34.5 -39.5q-14 -24 -43 -12l-69 31 q-21 7 -25 11.5z" />
<glyph unicode="&#xf2;" horiz-adv-x="1153" d="M92 537q0 262 137 411.5t349 149.5q235 0 359 -145t124 -410q0 -276 -124.5 -421t-365.5 -145q-236 0 -357.5 141.5t-121.5 418.5zM293 543q0 -93 14 -163t45 -124.5t86.5 -82.5t134.5 -28q63 0 112.5 21.5t81.5 57.5t53 87.5t29.5 106.5t8.5 119q0 66 -6.5 120 t-25.5 106.5t-49 88t-79.5 57t-115.5 21.5q-141 0 -215 -109t-74 -278zM334 1520q-17 24 14 32l158 43q31 7 43 -20l135 -324q10 -20 8 -27t-20 -12l-66 -24q-17 -5 -26 -2t-21 20z" />
<glyph unicode="&#xf3;" horiz-adv-x="1153" d="M92 537q0 262 137 411.5t349 149.5q235 0 359 -145t124 -410q0 -276 -124.5 -421t-365.5 -145q-236 0 -357.5 141.5t-121.5 418.5zM293 543q0 -93 14 -163t45 -124.5t86.5 -82.5t134.5 -28q63 0 112.5 21.5t81.5 57.5t53 87.5t29.5 106.5t8.5 119q0 66 -6.5 120 t-25.5 106.5t-49 88t-79.5 57t-115.5 21.5q-141 0 -215 -109t-74 -278zM477.5 1224q-2.5 7 7.5 27l136 324q12 27 43 20l157 -43q32 -8 15 -32l-226 -314q-12 -17 -21 -20t-26 2l-65 24q-18 5 -20.5 12z" />
<glyph unicode="&#xf4;" horiz-adv-x="1153" d="M92 537q0 262 137 411.5t349 149.5q235 0 359 -145t124 -410q0 -276 -124.5 -421t-365.5 -145q-236 0 -357.5 141.5t-121.5 418.5zM233 1257l271 273q39 39 84 39q28 0 47 -7.5t43 -31.5l258 -268q27 -27 2 -48l-39 -34q-17 -14 -45 4l-266 186l-266 -192q-24 -15 -43 4 l-43 45q-15 15 -3 30zM293 543q0 -93 14 -163t45 -124.5t86.5 -82.5t134.5 -28q63 0 112.5 21.5t81.5 57.5t53 87.5t29.5 106.5t8.5 119q0 66 -6.5 120t-25.5 106.5t-49 88t-79.5 57t-115.5 21.5q-141 0 -215 -109t-74 -278z" />
<glyph unicode="&#xf5;" horiz-adv-x="1153" d="M92 537q0 262 137 411.5t349 149.5q235 0 359 -145t124 -410q0 -276 -124.5 -421t-365.5 -145q-236 0 -357.5 141.5t-121.5 418.5zM223 1316.5q-4 4.5 2 22.5q87 152 221 152q50 0 134 -40t120 -40q30 0 53.5 16t34.5 41q7 17 14.5 19.5t24.5 -2.5l80 -23q34 -6 25 -30 q-38 -82 -87.5 -123t-129.5 -41q-49 0 -138 36.5t-135 36.5q-25 0 -47.5 -15.5t-34.5 -39.5q-14 -24 -43 -12l-69 31q-21 7 -25 11.5zM293 543q0 -93 14 -163t45 -124.5t86.5 -82.5t134.5 -28q63 0 112.5 21.5t81.5 57.5t53 87.5t29.5 106.5t8.5 119q0 66 -6.5 120 t-25.5 106.5t-49 88t-79.5 57t-115.5 21.5q-141 0 -215 -109t-74 -278z" />
<glyph unicode="&#xf6;" horiz-adv-x="1153" d="M92 537q0 262 137 411.5t349 149.5q235 0 359 -145t124 -410q0 -276 -124.5 -421t-365.5 -145q-236 0 -357.5 141.5t-121.5 418.5zM260 1372q0 45 38 83t85 38t85 -37t38 -84t-38 -84t-85 -37t-85 37.5t-38 83.5zM293 543q0 -93 14 -163t45 -124.5t86.5 -82.5t134.5 -28 q63 0 112.5 21.5t81.5 57.5t53 87.5t29.5 106.5t8.5 119q0 66 -6.5 120t-25.5 106.5t-49 88t-79.5 57t-115.5 21.5q-141 0 -215 -109t-74 -278zM637 1372q0 45 38 83t85 38t85 -37t38 -84t-37 -84t-84 -37q-49 0 -87 37t-38 84z" />
<glyph unicode="&#xf7;" horiz-adv-x="1218" d="M106 645v121q0 21 5.5 29t27.5 8h940q22 0 27.5 -8t5.5 -29v-121q0 -22 -5.5 -29.5t-27.5 -7.5h-940q-22 0 -27.5 7.5t-5.5 29.5zM455 309q0 68 46 116t113 48q72 0 118 -46.5t46 -115.5t-47.5 -115t-116.5 -46q-68 0 -113.5 46t-45.5 113zM455 1079q0 68 46 115t113 47 q72 0 118 -46.5t46 -115.5q0 -68 -47.5 -114.5t-116.5 -46.5q-68 0 -113.5 46t-45.5 115z" />
<glyph unicode="&#xf8;" horiz-adv-x="1153" d="M92 537q0 262 137 411.5t349 149.5q200 0 321 -109l76 88q15 15 37 2l37 -37q11 -7 11 -13.5t-11 -18.5l-84 -97q96 -146 96 -370q0 -276 -124.5 -421t-365.5 -145q-204 0 -325 109l-68 -78q-18 -18 -33 -2l-39 35q-22 16 0 35l74 86q-88 131 -88 375zM293 543 q0 -140 29 -219l454 526q-67 80 -194 80q-141 0 -215 -109t-74 -278zM371 229q66 -84 202 -84q63 0 112.5 21.5t81.5 57.5t53 87.5t29.5 106.5t8.5 119q0 134 -31 219z" />
<glyph unicode="&#xf9;" horiz-adv-x="1142" d="M133 498v546q0 22 7.5 27.5t29.5 5.5h127q21 0 29 -5.5t8 -27.5v-540q0 -94 11.5 -153.5t43.5 -106t91.5 -66.5t152.5 -20q92 0 176 14v872q0 22 7.5 27.5t29.5 5.5h127q21 0 29 -5.5t8 -27.5v-876q0 -148 -144 -172q-87 -16 -250 -16q-263 0 -373 119t-110 399z M330 1520q-17 24 14 32l158 43q31 7 43 -20l135 -324q10 -20 8 -27t-20 -12l-66 -24q-17 -5 -26 -2t-21 20z" />
<glyph unicode="&#xfa;" horiz-adv-x="1142" d="M133 498v546q0 22 7.5 27.5t29.5 5.5h127q21 0 29 -5.5t8 -27.5v-540q0 -94 11.5 -153.5t43.5 -106t91.5 -66.5t152.5 -20q92 0 176 14v872q0 22 7.5 27.5t29.5 5.5h127q21 0 29 -5.5t8 -27.5v-876q0 -148 -144 -172q-87 -16 -250 -16q-263 0 -373 119t-110 399z M486 1224q-2 7 8 27l135 324q12 27 43 20l157 -43q32 -8 15 -32l-226 -314q-12 -17 -21 -20t-26 2l-65 24q-18 5 -20 12z" />
<glyph unicode="&#xfb;" horiz-adv-x="1142" d="M133 498v546q0 22 7.5 27.5t29.5 5.5h127q21 0 29 -5.5t8 -27.5v-540q0 -94 11.5 -153.5t43.5 -106t91.5 -66.5t152.5 -20q92 0 176 14v872q0 22 7.5 27.5t29.5 5.5h127q21 0 29 -5.5t8 -27.5v-876q0 -148 -144 -172q-87 -16 -250 -16q-263 0 -373 119t-110 399z M238 1257l270 273q39 39 84 39q28 0 47 -7.5t43 -31.5l258 -268q27 -27 2 -48l-39 -34q-17 -14 -45 4l-266 186l-266 -192q-24 -15 -43 4l-43 45q-14 14 -2 30z" />
<glyph unicode="&#xfc;" horiz-adv-x="1142" d="M133 498v546q0 22 7.5 27.5t29.5 5.5h127q21 0 29 -5.5t8 -27.5v-540q0 -94 11.5 -153.5t43.5 -106t91.5 -66.5t152.5 -20q92 0 176 14v872q0 22 7.5 27.5t29.5 5.5h127q21 0 29 -5.5t8 -27.5v-876q0 -148 -144 -172q-87 -16 -250 -16q-263 0 -373 119t-110 399z M279 1372q0 45 37.5 83t84.5 38t85 -37t38 -84t-38 -84t-85 -37t-84.5 37.5t-37.5 83.5zM655 1372q0 45 38 83t85 38t85 -37t38 -84t-37 -84t-84 -37q-49 0 -87 37t-38 84z" />
<glyph unicode="&#xfd;" horiz-adv-x="1021" d="M23 1053q-6 22 18 22h158q16 0 20.5 -3.5t9.5 -16.5l156 -506l111 -379h12l123 381l168 504q4 9 5.5 12t7.5 5.5t17 2.5h152q24 0 18 -22l-405 -1225q-46 -138 -124 -197t-202 -59q-85 0 -168 22q-33 9 -24 35l24 103q4 18 12 21.5t25 -1.5q66 -14 101 -14 q75 0 117.5 29.5t66.5 103.5l47 141h-43q-20 0 -31 1.5t-25 9t-24.5 25t-19.5 46.5zM451 1224q-2 7 8 27l135 324q12 27 43 20l158 -43q31 -8 14 -32l-225 -314q-12 -17 -21 -20t-26 2l-66 24q-18 5 -20 12z" />
<glyph unicode="&#xfe;" horiz-adv-x="1157" d="M133 -381v1845q0 22 7.5 27.5t29.5 5.5h129q21 0 29 -5.5t8 -27.5v-389q121 23 246 23q123 0 217 -43t151 -119.5t86 -176.5t29 -220q0 -115 -30.5 -215.5t-88 -178.5t-150 -123t-208.5 -45q-130 0 -252 31v-389q0 -22 -7.5 -27.5t-29.5 -5.5h-129q-21 0 -29 5.5t-8 27.5 zM336 182q115 -30 219 -30q301 0 301 387q0 203 -79 295t-228 92q-135 0 -213 -35v-709z" />
<glyph unicode="&#xff;" horiz-adv-x="1021" d="M23 1053q-6 22 18 22h158q16 0 20.5 -3.5t9.5 -16.5l156 -506l111 -379h12l123 381l168 504q4 9 5.5 12t7.5 5.5t17 2.5h152q24 0 18 -22l-405 -1225q-46 -138 -124 -197t-202 -59q-85 0 -168 22q-33 9 -24 35l24 103q4 18 12 21.5t25 -1.5q66 -14 101 -14 q75 0 117.5 29.5t66.5 103.5l47 141h-43q-20 0 -31 1.5t-25 9t-24.5 25t-19.5 46.5zM197 1372q0 45 37.5 83t84.5 38t85 -37t38 -84t-38 -84t-85 -37t-84.5 37.5t-37.5 83.5zM573 1372q0 45 38 83t85 38t85 -37t38 -84t-37 -84t-84 -37q-49 0 -87 37t-38 84z" />
<glyph unicode="&#x100;" horiz-adv-x="1288" d="M35 43l454 1305q19 54 41 71.5t76 18.5h68q59 0 82 -18t41 -72l456 -1305q7 -17 0 -30t-26 -13h-154q-19 0 -27 1t-15.5 8.5t-12.5 23.5l-96 291h-555l-97 -291q-6 -18 -16.5 -25.5t-32.5 -7.5h-158q-43 0 -28 43zM362 1620v86q0 21 5.5 29t27.5 8h498q22 0 27.5 -8 t5.5 -29v-86q0 -22 -5.5 -29.5t-27.5 -7.5h-498q-22 0 -27.5 7.5t-5.5 29.5zM422 510h438l-125 395l-92 291h-10l-86 -281z" />
<glyph unicode="&#x101;" horiz-adv-x="1116" d="M92 319q0 57 13.5 107.5t47 99t84.5 83.5t130.5 56t179.5 21h233v37q0 49 -9.5 83t-34.5 62t-71.5 42t-115.5 14q-127 0 -283 -41q-20 -7 -30.5 -4.5t-14.5 20.5l-26 100q-10 30 18 39q152 60 371 60q399 0 399 -365v-627q0 -44 -35 -59q-157 -70 -409 -70 q-104 0 -183 18.5t-128.5 49t-80.5 75.5t-43 93t-12 106zM291 1303v86q0 21 5.5 28.5t27.5 7.5h497q22 0 27.5 -7.5t5.5 -28.5v-86q0 -22 -5.5 -29.5t-27.5 -7.5h-497q-22 0 -27.5 7.5t-5.5 29.5zM295 319q0 -95 62.5 -135.5t179.5 -40.5q140 0 241 35v336h-219 q-264 0 -264 -195z" />
<glyph unicode="&#x102;" horiz-adv-x="1288" d="M35 43l454 1305q19 54 41 71.5t76 18.5h68q59 0 82 -18t41 -72l456 -1305q7 -17 0 -30t-26 -13h-154q-19 0 -27 1t-15.5 8.5t-12.5 23.5l-96 291h-555l-97 -291q-6 -18 -16.5 -25.5t-32.5 -7.5h-158q-43 0 -28 43zM289 1751q-17 23 6 41l45 39q6 4 10.5 6t7.5 3t6.5 -0.5 t5.5 -2.5t7.5 -5t9.5 -7q136 -139 250 -139q112 0 252 145q6 6 11 9t8 4.5t7 0.5t5 -1.5t6 -4t6 -4.5l45 -37q24 -22 8 -43q-88 -116 -179.5 -170.5t-176.5 -54.5q-182 0 -340 221zM422 510h438l-125 395l-92 291h-10l-86 -281z" />
<glyph unicode="&#x103;" horiz-adv-x="1116" d="M92 319q0 57 13.5 107.5t47 99t84.5 83.5t130.5 56t179.5 21h233v37q0 49 -9.5 83t-34.5 62t-71.5 42t-115.5 14q-127 0 -283 -41q-20 -7 -30.5 -4.5t-14.5 20.5l-26 100q-10 30 18 39q152 60 371 60q399 0 399 -365v-627q0 -44 -35 -59q-157 -70 -409 -70 q-104 0 -183 18.5t-128.5 49t-80.5 75.5t-43 93t-12 106zM248 1427q-17 23 6 41l45 39q6 4 10.5 6t7.5 3t6.5 -0.5t5.5 -2.5t7.5 -5t9.5 -7q136 -139 250 -139q112 0 252 145q6 6 11 9t8 4.5t7 0.5t5 -1.5t6 -4t6 -4.5l45 -36q24 -22 8 -43q-88 -116 -179.5 -171t-176.5 -55 q-182 0 -340 221zM295 319q0 -95 62.5 -135.5t179.5 -40.5q140 0 241 35v336h-219q-264 0 -264 -195z" />
<glyph unicode="&#x104;" horiz-adv-x="1288" d="M35 43l454 1305q19 54 41 71.5t76 18.5h68q59 0 82 -18t41 -72l456 -1305q7 -17 0 -30t-26 -13h-94q-65 -71 -98.5 -137.5t-33.5 -112.5q0 -39 25 -53t78 -14q22 0 100 16q17 6 23 4t10 -18l14 -43q4 -18 1 -24t-15 -11q-34 -16 -89 -28.5t-106 -12.5q-100 0 -148 41.5 t-50 109.5q0 80 50.5 164t129.5 129l2 2q-4 2 -8 21l-96 291h-555l-97 -291q-6 -18 -16.5 -25.5t-32.5 -7.5h-158q-43 0 -28 43zM422 510h438l-125 395l-92 291h-10l-86 -281z" />
<glyph unicode="&#x105;" horiz-adv-x="1116" d="M92 319q0 57 13.5 107.5t47 99t84.5 83.5t130.5 56t179.5 21h233v37q0 49 -9.5 83t-34.5 62t-71.5 42t-115.5 14q-127 0 -283 -41q-20 -7 -30.5 -4.5t-14.5 20.5l-26 100q-10 30 18 39q152 60 371 60q399 0 399 -365v-627q0 -40 -27 -55q-63 -70 -94 -134t-31 -110 q0 -39 25 -53t78 -14q22 0 100 16q17 6 23 4t10 -18l14 -43q4 -18 1 -24t-15 -11q-34 -16 -89 -28.5t-106 -12.5q-100 0 -148 42t-50 110q-1 55 24 114t68 107q-109 -19 -227 -19q-104 0 -183 18.5t-128.5 49t-80.5 75.5t-43 93t-12 106zM295 319q0 -95 62.5 -135.5 t179.5 -40.5q140 0 241 35v336h-219q-264 0 -264 -195z" />
<glyph unicode="&#x106;" horiz-adv-x="1241" d="M113 696q0 342 175 550t460 208q218 0 380 -84q30 -15 11 -51l-52 -107q-9 -15 -14.5 -18.5t-25.5 2.5q-142 59 -291 59q-88 0 -160 -31.5t-120.5 -85t-82 -125.5t-48.5 -151.5t-15 -165.5q0 -520 438 -520q153 0 315 70q39 16 54 -19l43 -98q9 -19 8.5 -30t-3.5 -14 t-16 -13q-156 -95 -438 -95q-298 0 -458 177.5t-160 541.5zM584 1615.5q1 8.5 18 20.5l295 217q9 7 14 9t14 0t17 -13l94 -131q23 -23 -4 -35l-348 -155q-31 -12 -51 8l-39 59q-11 12 -10 20.5z" />
<glyph unicode="&#x107;" horiz-adv-x="987" d="M92 526q0 260 131 416t355 156q175 0 305 -72q31 -15 12 -47l-47 -98q-5 -11 -7.5 -14t-12 -5.5t-23.5 6.5q-117 50 -223 50q-59 0 -107.5 -21t-81.5 -57.5t-55.5 -86.5t-32.5 -106.5t-10 -120.5q0 -65 8 -118t28 -102t52 -82t83 -52.5t118 -19.5q65 0 131.5 16.5 t111.5 40.5q21 8 28.5 5t14.5 -17l48 -99q19 -31 -13 -47q-130 -74 -350 -74q-224 0 -343.5 139.5t-119.5 409.5zM457 1224q-2 7 8 27l135 324q12 27 43 20l158 -43q31 -8 14 -32l-225 -314q-12 -17 -21 -20t-26 2l-66 24q-18 5 -20 12z" />
<glyph unicode="&#x108;" horiz-adv-x="1241" d="M113 696q0 342 175 550t460 208q218 0 380 -84q30 -15 11 -51l-52 -107q-9 -15 -14.5 -18.5t-25.5 2.5q-142 59 -291 59q-88 0 -160 -31.5t-120.5 -85t-82 -125.5t-48.5 -151.5t-15 -165.5q0 -520 438 -520q153 0 315 70q39 16 54 -19l43 -98q9 -19 8.5 -30t-3.5 -14 t-16 -13q-156 -95 -438 -95q-298 0 -458 177.5t-160 541.5zM389 1575q-17 21 0 33l260 209q45 36 84 36q48 0 90 -36l250 -209q25 -19 4 -43l-33 -39q-2 -3 -4 -4.5t-4 -2.5t-5 -0.5t-4.5 0.5t-5.5 1.5t-6.5 2.5t-7.5 3.5t-8 3.5l-268 127l-266 -131q-22 -11 -39 6z" />
<glyph unicode="&#x109;" horiz-adv-x="987" d="M92 526q0 260 131 416t355 156q175 0 305 -72q31 -15 12 -47l-47 -98q-5 -11 -7.5 -14t-12 -5.5t-23.5 6.5q-117 50 -223 50q-59 0 -107.5 -21t-81.5 -57.5t-55.5 -86.5t-32.5 -106.5t-10 -120.5q0 -65 8 -118t28 -102t52 -82t83 -52.5t118 -19.5q65 0 131.5 16.5 t111.5 40.5q21 8 28.5 5t14.5 -17l48 -99q19 -31 -13 -47q-130 -74 -350 -74q-224 0 -343.5 139.5t-119.5 409.5zM213 1266l270 272q39 39 84 39q28 0 47 -7.5t43 -31.5l258 -268q26 -26 3 -47l-39 -35q-17 -14 -45 4l-267 186l-266 -192q-24 -15 -43 4l-43 45q-15 15 -2 31 z" />
<glyph unicode="&#x10a;" horiz-adv-x="1241" d="M113 696q0 342 175 550t460 208q218 0 380 -84q30 -15 11 -51l-52 -107q-9 -15 -14.5 -18.5t-25.5 2.5q-142 59 -291 59q-88 0 -160 -31.5t-120.5 -85t-82 -125.5t-48.5 -151.5t-15 -165.5q0 -520 438 -520q153 0 315 70q39 16 54 -19l43 -98q9 -19 8.5 -30t-3.5 -14 t-16 -13q-156 -95 -438 -95q-298 0 -458 177.5t-160 541.5zM610 1671q0 51 38 89t91 38q51 0 90 -38t39 -89t-39 -89t-90 -38q-53 0 -91 38t-38 89z" />
<glyph unicode="&#x10b;" horiz-adv-x="987" d="M92 526q0 260 131 416t355 156q175 0 305 -72q31 -15 12 -47l-47 -98q-5 -11 -7.5 -14t-12 -5.5t-23.5 6.5q-117 50 -223 50q-59 0 -107.5 -21t-81.5 -57.5t-55.5 -86.5t-32.5 -106.5t-10 -120.5q0 -65 8 -118t28 -102t52 -82t83 -52.5t118 -19.5q65 0 131.5 16.5 t111.5 40.5q21 8 28.5 5t14.5 -17l48 -99q19 -31 -13 -47q-130 -74 -350 -74q-224 0 -343.5 139.5t-119.5 409.5zM449 1376q0 52 37.5 89.5t91.5 37.5q51 0 90 -38t39 -89t-39 -89t-90 -38q-54 0 -91.5 37.5t-37.5 89.5z" />
<glyph unicode="&#x10c;" horiz-adv-x="1241" d="M113 696q0 342 175 550t460 208q218 0 380 -84q30 -15 11 -51l-52 -107q-9 -15 -14.5 -18.5t-25.5 2.5q-142 59 -291 59q-88 0 -160 -31.5t-120.5 -85t-82 -125.5t-48.5 -151.5t-15 -165.5q0 -520 438 -520q153 0 315 70q39 16 54 -19l43 -98q9 -19 8.5 -30t-3.5 -14 t-16 -13q-156 -95 -438 -95q-298 0 -458 177.5t-160 541.5zM377 1761q-13 16 2 31l33 47q18 18 43 6l276 -131l266 129q20 9 26 9.5t19 -5.5l39 -43q27 -24 -2 -47l-258 -203q-43 -34 -90 -34q-39 0 -84 34z" />
<glyph unicode="&#x10d;" horiz-adv-x="987" d="M92 526q0 260 131 416t355 156q175 0 305 -72q31 -15 12 -47l-47 -98q-5 -11 -7.5 -14t-12 -5.5t-23.5 6.5q-117 50 -223 50q-59 0 -107.5 -21t-81.5 -57.5t-55.5 -86.5t-32.5 -106.5t-10 -120.5q0 -65 8 -118t28 -102t52 -82t83 -52.5t118 -19.5q65 0 131.5 16.5 t111.5 40.5q21 8 28.5 5t14.5 -17l48 -99q19 -31 -13 -47q-130 -74 -350 -74q-224 0 -343.5 139.5t-119.5 409.5zM205 1493q-15 18 2 31l45 41q19 19 43 4l264 -189l266 187q28 18 45 4l39 -35q13 -12 13.5 -20.5t-15.5 -26.5l-258 -268q-24 -24 -43 -31.5t-47 -7.5 q-45 0 -84 39z" />
<glyph unicode="&#x10e;" horiz-adv-x="1396" d="M154 111v1214q0 60 25 85.5t85 25.5l375 2q313 0 479 -189t166 -522q0 -163 -37.5 -294.5t-112.5 -229t-195.5 -150.5t-279.5 -53h-395q-60 0 -85 25.5t-25 85.5zM274 1761q-13 16 2 31l33 47q18 18 43 6l277 -131l266 129q20 9 26 9.5t19 -5.5l39 -43q27 -24 -2 -47 l-258 -203q-43 -34 -90 -34q-39 0 -84 34zM369 193h266q98 0 173 26.5t123.5 72t79.5 113.5t43.5 145.5t12.5 172.5q0 522 -438 522h-260v-1052z" />
<glyph unicode="&#x10f;" horiz-adv-x="1411" d="M92 520q0 118 29.5 219.5t88.5 183t157 128.5t225 47q126 0 229 -27v393q0 22 7.5 27.5t29.5 5.5h129q21 0 29 -5.5t8 -27.5v-1372q0 -30 -27 -39q-177 -76 -426 -76q-479 0 -479 543zM301 520q0 -196 77 -283t226 -87q55 0 118 9t99 25v711q-111 29 -215 29 q-139 0 -222 -97t-83 -307zM1163 1028l31 391q5 37 37 37h178q22 0 32 -12t5 -25l-131 -385q-8 -25 -14.5 -31t-28.5 -6h-68q-23 0 -33 8t-8 23z" />
<glyph unicode="&#x110;" horiz-adv-x="1396" d="M20 682v94q0 21 5.5 29t27.5 8h101v512q0 60 25 85.5t85 25.5l375 2q313 0 479 -189t166 -522q0 -163 -37.5 -294.5t-112.5 -229t-195.5 -150.5t-279.5 -53h-395q-60 0 -85 25.5t-25 85.5v534h-101q-22 0 -27.5 7.5t-5.5 29.5zM371 193h262q98 0 173 26.5t123.5 72 t79.5 113.5t43.5 145.5t12.5 172.5q0 522 -438 522h-256v-432h303q22 0 27.5 -8t5.5 -29v-94q0 -22 -5.5 -29.5t-27.5 -7.5h-303v-452z" />
<glyph unicode="&#x111;" horiz-adv-x="1157" d="M92 520q0 118 29.5 219.5t88.5 183t157 128.5t225 47q126 0 229 -27v143h-332q-18 0 -22 6t-4 25v60q0 19 4 24.5t22 5.5h332v129q0 22 7.5 27.5t29.5 5.5h129q21 0 29 -5.5t8 -27.5v-129h96q18 0 22.5 -6t4.5 -24v-60q0 -19 -4.5 -25t-22.5 -6h-96v-1122q0 -30 -27 -39 q-177 -76 -426 -76q-479 0 -479 543zM301 520q0 -196 77 -283t226 -87q55 0 118 9t99 25v711q-111 29 -215 29q-139 0 -222 -97t-83 -307z" />
<glyph unicode="&#x112;" horiz-adv-x="1204" d="M154 360v713q0 74 20 137.5t61.5 115t111.5 81t163 29.5h561q27 0 35 -10.5t8 -36.5v-99q0 -28 -7.5 -36.5t-35.5 -8.5h-561q-77 0 -111 -33.5t-34 -107.5v-252h639q25 0 32.5 -9.5t7.5 -37.5v-86q0 -25 -7.5 -36t-32.5 -11h-639v-340q0 -139 145 -139h569q28 0 35.5 -10 t7.5 -38v-98q0 -26 -8 -36.5t-35 -10.5h-569q-356 0 -356 360zM416 1616v86q0 21 5.5 29t27.5 8h497q22 0 27.5 -8t5.5 -29v-86q0 -22 -5.5 -29.5t-27.5 -7.5h-497q-22 0 -27.5 7.5t-5.5 29.5z" />
<glyph unicode="&#x113;" horiz-adv-x="1110" d="M92 532q0 174 64 304t171.5 196t243.5 66q226 0 338.5 -118.5t112.5 -328.5q0 -176 -170 -176h-557q4 -168 89 -245.5t222 -77.5q64 0 131 17t111 42q31 15 43 -12l49 -97q14 -32 -12 -47q-129 -78 -336 -78q-242 0 -371 136t-129 419zM303 635h528q0 65 -11.5 115 t-39.5 92.5t-80 65t-127 22.5q-119 0 -192 -88.5t-78 -206.5zM305 1313v86q0 21 5.5 29t27.5 8h498q21 0 26.5 -8t5.5 -29v-86q0 -22 -5 -29.5t-27 -7.5h-498q-22 0 -27.5 7.5t-5.5 29.5z" />
<glyph unicode="&#x114;" horiz-adv-x="1204" d="M154 360v713q0 74 20 137.5t61.5 115t111.5 81t163 29.5h561q27 0 35 -10.5t8 -36.5v-99q0 -28 -7.5 -36.5t-35.5 -8.5h-561q-77 0 -111 -33.5t-34 -107.5v-252h639q25 0 32.5 -9.5t7.5 -37.5v-86q0 -25 -7.5 -36t-32.5 -11h-639v-340q0 -139 145 -139h569q28 0 35.5 -10 t7.5 -38v-98q0 -26 -8 -36.5t-35 -10.5h-569q-356 0 -356 360zM352 1751q-17 23 6 41l45 39q6 4 10.5 6t7.5 3.5t7 -0.5t5.5 -2.5t8 -5.5t9.5 -7q136 -139 249 -139q112 0 252 145q6 6 11 9t8 4.5t7 0.5t5 -1.5t6 -4t6 -4.5l45 -37q24 -22 9 -43q-88 -116 -180 -170.5 t-177 -54.5q-182 0 -340 221z" />
<glyph unicode="&#x115;" horiz-adv-x="1110" d="M92 532q0 174 64 304t171.5 196t243.5 66q226 0 338.5 -118.5t112.5 -328.5q0 -176 -170 -176h-557q4 -168 89 -245.5t222 -77.5q64 0 131 17t111 42q31 15 43 -12l49 -97q14 -32 -12 -47q-129 -78 -336 -78q-242 0 -371 136t-129 419zM219 1419q-17 23 6 41l45 39 q6 4 10.5 6t7.5 3t6.5 -0.5t5.5 -2.5t7.5 -5t9.5 -7q136 -139 250 -139q112 0 252 145q6 6 11 9t8 4.5t7 0.5t5 -1.5t6 -4t6 -4.5l45 -37q24 -22 8 -43q-88 -116 -179.5 -170.5t-176.5 -54.5q-182 0 -340 221zM303 635h528q0 65 -11.5 115t-39.5 92.5t-80 65t-127 22.5 q-119 0 -192 -88.5t-78 -206.5z" />
<glyph unicode="&#x116;" horiz-adv-x="1204" d="M154 360v713q0 74 20 137.5t61.5 115t111.5 81t163 29.5h561q27 0 35 -10.5t8 -36.5v-99q0 -28 -7.5 -36.5t-35.5 -8.5h-561q-77 0 -111 -33.5t-34 -107.5v-252h639q25 0 32.5 -9.5t7.5 -37.5v-86q0 -25 -7.5 -36t-32.5 -11h-639v-340q0 -139 145 -139h569q28 0 35.5 -10 t7.5 -38v-98q0 -26 -8 -36.5t-35 -10.5h-569q-356 0 -356 360zM539 1659q0 51 37.5 89t91.5 38q51 0 90 -38t39 -89t-39 -89t-90 -38q-54 0 -91.5 38t-37.5 89z" />
<glyph unicode="&#x117;" horiz-adv-x="1110" d="M92 532q0 174 64 304t171.5 196t243.5 66q226 0 338.5 -118.5t112.5 -328.5q0 -176 -170 -176h-557q4 -168 89 -245.5t222 -77.5q64 0 131 17t111 42q31 15 43 -12l49 -97q14 -32 -12 -47q-129 -78 -336 -78q-242 0 -371 136t-129 419zM303 635h528q0 65 -11.5 115 t-39.5 92.5t-80 65t-127 22.5q-119 0 -192 -88.5t-78 -206.5zM440 1372q0 52 38 89.5t91 37.5q51 0 90 -38t39 -89t-39 -89t-90 -38q-53 0 -91 37.5t-38 89.5z" />
<glyph unicode="&#x118;" horiz-adv-x="1204" d="M154 360v713q0 74 20 137.5t61.5 115t111.5 81t163 29.5h561q27 0 35 -10.5t8 -36.5v-99q0 -28 -7.5 -36.5t-35.5 -8.5h-561q-77 0 -111 -33.5t-34 -107.5v-252h639q25 0 32.5 -9.5t7.5 -37.5v-86q0 -25 -7.5 -36t-32.5 -11h-639v-340q0 -139 145 -139h569q28 0 35.5 -10 t7.5 -38v-98q0 -36 -20 -45q-64 -69 -96.5 -135.5t-32.5 -112.5q0 -39 24.5 -53t77.5 -14q23 0 101 16q17 6 22.5 4t9.5 -18l15 -43q9 -25 -15 -35q-89 -41 -194 -41q-100 0 -148.5 41.5t-50.5 109.5q-2 74 42 152t116 127h-463q-356 0 -356 360z" />
<glyph unicode="&#x119;" horiz-adv-x="1110" d="M92 532q0 174 64 304t171.5 196t243.5 66q226 0 338.5 -118.5t112.5 -328.5q0 -176 -170 -176h-557q4 -168 89 -245.5t222 -77.5q64 0 131 17t111 42q31 15 43 -12l49 -97q12 -34 -8 -45q-63 -70 -94 -133.5t-31 -109.5q0 -39 24.5 -53.5t77.5 -14.5q23 0 101 16 q17 6 22.5 4t9.5 -18l15 -43q9 -25 -15 -35q-89 -41 -194 -41q-100 0 -148.5 42t-50.5 110q-3 101 80 207q-86 -11 -137 -11q-242 0 -371 136t-129 419zM303 635h528q0 65 -11.5 115t-39.5 92.5t-80 65t-127 22.5q-119 0 -192 -88.5t-78 -206.5z" />
<glyph unicode="&#x11a;" horiz-adv-x="1204" d="M154 360v713q0 74 20 137.5t61.5 115t111.5 81t163 29.5h561q27 0 35 -10.5t8 -36.5v-99q0 -28 -7.5 -36.5t-35.5 -8.5h-561q-77 0 -111 -33.5t-34 -107.5v-252h639q25 0 32.5 -9.5t7.5 -37.5v-86q0 -25 -7.5 -36t-32.5 -11h-639v-340q0 -139 145 -139h569q28 0 35.5 -10 t7.5 -38v-98q0 -26 -8 -36.5t-35 -10.5h-569q-356 0 -356 360zM330 1761q-13 16 2 31l33 47q18 18 43 6l276 -131l266 129q20 9 26 9.5t19 -5.5l39 -43q27 -24 -2 -47l-258 -203q-43 -34 -90 -34q-39 0 -84 34z" />
<glyph unicode="&#x11b;" horiz-adv-x="1110" d="M92 532q0 174 64 304t171.5 196t243.5 66q226 0 338.5 -118.5t112.5 -328.5q0 -176 -170 -176h-557q4 -168 89 -245.5t222 -77.5q64 0 131 17t111 42q31 15 43 -12l49 -97q14 -32 -12 -47q-129 -78 -336 -78q-242 0 -371 136t-129 419zM205 1489q-15 18 2 31l45 41 q19 19 43 4l264 -189l266 187q28 18 45 4l39 -35q13 -12 13.5 -20.5t-15.5 -26.5l-258 -268q-24 -24 -43 -31.5t-47 -7.5q-45 0 -84 39zM303 635h528q0 65 -11.5 115t-39.5 92.5t-80 65t-127 22.5q-119 0 -192 -88.5t-78 -206.5z" />
<glyph unicode="&#x11c;" horiz-adv-x="1347" d="M113 700q0 346 169.5 550t462.5 204q236 0 398 -84q29 -14 10 -51l-51 -117q-8 -15 -14.5 -18.5t-26.5 2.5q-142 59 -311 59q-91 0 -163.5 -31t-120 -82.5t-78.5 -123t-44.5 -149t-13.5 -163.5q0 -92 10.5 -165.5t39 -143t75 -115.5t122 -74t175.5 -28q163 0 266 41v438 q-18 2 -53 2q-167 4 -310 -61q-23 -12 -34 -11.5t-21 17.5l-43 104q-8 17 -5.5 28.5t19.5 21.5q67 42 164 67t191 25t149 -8q87 -17 118.5 -56t31.5 -127v-508q0 -37 -31 -59q-95 -60 -227.5 -83.5t-235.5 -23.5q-298 0 -458 179t-160 544zM373 1575q-17 21 0 33l260 209 q45 36 84 36q48 0 90 -36l250 -209q25 -19 4 -43l-33 -39q-2 -3 -4 -4.5t-4 -2.5t-5 -0.5t-4.5 0.5t-5.5 1.5t-6.5 2.5t-7.5 3.5t-8 3.5l-268 127l-266 -131q-22 -11 -39 6z" />
<glyph unicode="&#x11d;" horiz-adv-x="1157" d="M92 522q0 128 30.5 231.5t91 181t158.5 119.5t226 42q232 0 401 -70q27 -9 27 -41v-895q0 -136 -32 -232.5t-100 -160t-162.5 -99.5t-231.5 -55q-18 -2 -25.5 2t-11.5 21l-17 129q0 26 23 29q185 26 267.5 88t82.5 192v10q-137 -39 -262 -39q-233 0 -349 147.5 t-116 399.5zM262 1257l270 273q39 39 84 39q28 0 48 -8t43 -31l258 -268q27 -27 2 -48l-39 -34q-17 -14 -45 4l-267 186l-266 -192q-24 -15 -43 4l-43 45q-14 14 -2 30zM297 535q0 -190 74 -287.5t211 -97.5q131 0 241 34v711q-100 31 -219 31q-144 0 -225.5 -94t-81.5 -297 z" />
<glyph unicode="&#x11e;" horiz-adv-x="1347" d="M113 700q0 346 169.5 550t462.5 204q236 0 398 -84q29 -14 10 -51l-51 -117q-8 -15 -14.5 -18.5t-26.5 2.5q-142 59 -311 59q-91 0 -163.5 -31t-120 -82.5t-78.5 -123t-44.5 -149t-13.5 -163.5q0 -92 10.5 -165.5t39 -143t75 -115.5t122 -74t175.5 -28q163 0 266 41v438 q-18 2 -53 2q-167 4 -310 -61q-23 -12 -34 -11.5t-21 17.5l-43 104q-8 17 -5.5 28.5t19.5 21.5q67 42 164 67t191 25t149 -8q87 -17 118.5 -56t31.5 -127v-508q0 -37 -31 -59q-95 -60 -227.5 -83.5t-235.5 -23.5q-298 0 -458 179t-160 544zM377 1751q-17 23 6 41l45 39 q6 4 10.5 6t7.5 3t6.5 -0.5t5.5 -2.5t7.5 -5t9.5 -7q136 -139 250 -139q112 0 252 145q6 6 11 9t8 4.5t7 0.5t5 -1.5t6 -4t6 -4.5l45 -37q24 -22 8 -43q-88 -116 -179.5 -170.5t-176.5 -54.5q-182 0 -340 221z" />
<glyph unicode="&#x11f;" horiz-adv-x="1157" d="M92 522q0 128 30.5 231.5t91 181t158.5 119.5t226 42q232 0 401 -70q27 -9 27 -41v-895q0 -136 -32 -232.5t-100 -160t-162.5 -99.5t-231.5 -55q-18 -2 -25.5 2t-11.5 21l-17 129q0 26 23 29q185 26 267.5 88t82.5 192v10q-137 -39 -262 -39q-233 0 -349 147.5 t-116 399.5zM289 1436q-17 23 6 41l45 39l12 7.5t9 1.5t6.5 -2t8.5 -6t11 -8q136 -139 250 -139q111 0 252 146q6 6 11 9t8 4.5t7 0.5t5 -1.5t6 -4t6 -4.5l45 -37q24 -22 8 -43q-88 -116 -179.5 -171t-176.5 -55q-182 0 -340 222zM297 535q0 -190 74 -287.5t211 -97.5 q131 0 241 34v711q-100 31 -219 31q-144 0 -225.5 -94t-81.5 -297z" />
<glyph unicode="&#x120;" horiz-adv-x="1347" d="M113 700q0 346 169.5 550t462.5 204q236 0 398 -84q29 -14 10 -51l-51 -117q-8 -15 -14.5 -18.5t-26.5 2.5q-142 59 -311 59q-91 0 -163.5 -31t-120 -82.5t-78.5 -123t-44.5 -149t-13.5 -163.5q0 -92 10.5 -165.5t39 -143t75 -115.5t122 -74t175.5 -28q163 0 266 41v438 q-18 2 -53 2q-167 4 -310 -61q-23 -12 -34 -11.5t-21 17.5l-43 104q-8 17 -5.5 28.5t19.5 21.5q67 42 164 67t191 25t149 -8q87 -17 118.5 -56t31.5 -127v-508q0 -37 -31 -59q-95 -60 -227.5 -83.5t-235.5 -23.5q-298 0 -458 179t-160 544zM612 1659q0 51 38 89t91 38 q51 0 90 -38t39 -89t-39 -89t-90 -38q-53 0 -91 38t-38 89z" />
<glyph unicode="&#x121;" horiz-adv-x="1157" d="M92 522q0 128 30.5 231.5t91 181t158.5 119.5t226 42q232 0 401 -70q27 -9 27 -41v-895q0 -136 -32 -232.5t-100 -160t-162.5 -99.5t-231.5 -55q-18 -2 -25.5 2t-11.5 21l-17 129q0 26 23 29q185 26 267.5 88t82.5 192v10q-137 -39 -262 -39q-233 0 -349 147.5 t-116 399.5zM297 535q0 -190 74 -287.5t211 -97.5q131 0 241 34v711q-100 31 -219 31q-144 0 -225.5 -94t-81.5 -297zM496 1384q0 52 38 89.5t91 37.5q51 0 90 -38t39 -89t-39 -89t-90 -38q-53 0 -91 37.5t-38 89.5z" />
<glyph unicode="&#x122;" horiz-adv-x="1347" d="M113 700q0 346 169.5 550t462.5 204q236 0 398 -84q29 -14 10 -51l-51 -117q-8 -15 -14.5 -18.5t-26.5 2.5q-142 59 -311 59q-91 0 -163.5 -31t-120 -82.5t-78.5 -123t-44.5 -149t-13.5 -163.5q0 -92 10.5 -165.5t39 -143t75 -115.5t122 -74t175.5 -28q163 0 266 41v438 q-18 2 -53 2q-167 4 -310 -61q-23 -12 -34 -11.5t-21 17.5l-43 104q-8 17 -5.5 28.5t19.5 21.5q67 42 164 67t191 25t149 -8q87 -17 118.5 -56t31.5 -127v-508q0 -37 -31 -59q-95 -60 -227.5 -83.5t-235.5 -23.5q-298 0 -458 179t-160 544zM606 -569l31 391q5 37 37 37h178 q22 0 32 -12t5 -25l-131 -385q-8 -25 -14.5 -31t-28.5 -6h-68q-23 0 -33 8t-8 23z" />
<glyph unicode="&#x123;" horiz-adv-x="1157" d="M92 522q0 128 30.5 231.5t91 181t158.5 119.5t226 42q232 0 401 -70q27 -9 27 -41v-895q0 -136 -32 -232.5t-100 -160t-162.5 -99.5t-231.5 -55q-18 -2 -25.5 2t-11.5 21l-17 129q0 26 23 29q185 26 267.5 88t82.5 192v10q-137 -39 -262 -39q-233 0 -349 147.5 t-116 399.5zM297 535q0 -190 74 -287.5t211 -97.5q131 0 241 34v711q-100 31 -219 31q-144 0 -225.5 -94t-81.5 -297zM487 1233l107 350q8 20 14.5 26.5t24.5 6.5h69q20 0 29.5 -7.5t7.5 -21.5l-28 -354q0 -13 -8 -23t-25 -10h-158q-19 0 -28.5 11t-4.5 22z" />
<glyph unicode="&#x124;" horiz-adv-x="1421" d="M154 43v1348q0 27 10.5 35t36.5 8h118q28 0 38 -7.5t10 -35.5v-545h688v545q0 27 10.5 35t36.5 8h119q28 0 37.5 -7.5t9.5 -35.5v-1348q0 -28 -9.5 -35.5t-37.5 -7.5h-119q-26 0 -36.5 8t-10.5 35v621h-688v-621q0 -28 -10 -35.5t-38 -7.5h-118q-26 0 -36.5 8t-10.5 35z M362 1585q-17 21 0 33l261 209q46 37 84 37q47 0 90 -37l250 -209q25 -19 4 -43l-33 -39q-2 -3 -4 -4.5t-4 -2.5t-5 -0.5t-4.5 0.5t-5.5 1.5t-6.5 2.5t-7.5 3.5t-8 3.5l-268 127l-267 -131q-22 -11 -39 6z" />
<glyph unicode="&#x125;" horiz-adv-x="1163" d="M-100 1575q-17 21 0 33l260 209q45 36 84 36q48 0 90 -36l250 -209q25 -19 4 -43l-33 -39q-2 -3 -4 -4.5t-4 -2.5t-5 -0.5t-4.5 0.5t-5.5 1.5t-6.5 2.5t-7.5 3.5t-8 3.5l-268 127l-267 -131q-21 -11 -38 6zM133 33v1431q0 22 8 27.5t29 5.5h127q22 0 29.5 -5.5t7.5 -27.5 v-409q114 43 266 43q432 0 432 -490v-575q0 -22 -8 -27.5t-29 -5.5h-129q-22 0 -29.5 5.5t-7.5 27.5v573q0 316 -264 316q-145 0 -231 -37v-852q0 -22 -7.5 -27.5t-29.5 -5.5h-127q-21 0 -29 5.5t-8 27.5z" />
<glyph unicode="&#x126;" horiz-adv-x="1421" d="M35 1135v59q0 19 4 25t22 6h93v176q0 22 7.5 27.5t28.5 5.5h144q22 0 29.5 -5.5t7.5 -27.5v-176h686v176q0 22 8 27.5t29 5.5h137q22 0 29.5 -5.5t7.5 -27.5v-176h75q18 0 22.5 -6t4.5 -25v-59q0 -19 -4.5 -25t-22.5 -6h-75v-1071q0 -22 -7.5 -27.5t-29.5 -5.5h-137 q-21 0 -29 5.5t-8 27.5v629h-686v-629q0 -22 -7.5 -27.5t-29.5 -5.5h-144q-21 0 -28.5 5.5t-7.5 27.5v1071h-93q-18 0 -22 6t-4 25zM371 846h686v258h-686v-258z" />
<glyph unicode="&#x127;" horiz-adv-x="1163" d="M25 1239v59q0 19 4 25t22 6h82v135q0 22 8 27.5t29 5.5h127q22 0 29.5 -5.5t7.5 -27.5v-135h409q18 0 22.5 -6t4.5 -25v-59q0 -19 -4.5 -25t-22.5 -6h-409v-217q114 43 266 43q432 0 432 -489v-512q0 -22 -8 -27.5t-29 -5.5h-129q-22 0 -29.5 5.5t-7.5 27.5v510 q0 315 -264 315q-145 0 -231 -37v-788q0 -22 -7.5 -27.5t-29.5 -5.5h-127q-21 0 -29 5.5t-8 27.5v1175h-82q-18 0 -22 6t-4 25z" />
<glyph unicode="&#x128;" horiz-adv-x="563" d="M-73.5 1611q-4.5 5 1.5 23q87 152 222 152q50 0 134 -40t119 -40q30 0 54 16t35 41q7 17 14 19.5t24 -2.5l80 -23q34 -6 25 -31q-38 -82 -87.5 -122.5t-129.5 -40.5q-48 0 -138 36.5t-135 36.5q-25 0 -47.5 -15.5t-34.5 -39.5q-14 -24 -43 -12l-69 30q-20 7 -24.5 12z M176 43v1348q0 27 10.5 35t36.5 8h119q28 0 37.5 -7.5t9.5 -35.5v-1348q0 -28 -9.5 -35.5t-37.5 -7.5h-119q-26 0 -36.5 8t-10.5 35z" />
<glyph unicode="&#x129;" horiz-adv-x="561" d="M-69.5 1325q-4.5 5 1.5 23q87 151 222 151q50 0 134 -40t120 -40q30 0 53.5 16t34.5 42q7 16 14.5 18.5t24.5 -2.5l79 -23q34 -6 25 -30q-38 -82 -87.5 -123t-129.5 -41q-48 0 -137 37t-135 37q-25 0 -47 -16t-35 -40q-14 -24 -43 -12l-70 31q-20 7 -24.5 12zM180 33 v1009q0 22 8 27.5t29 5.5h127q22 0 29.5 -5.5t7.5 -27.5v-1009q0 -22 -7.5 -27.5t-29.5 -5.5h-127q-21 0 -29 5.5t-8 27.5z" />
<glyph unicode="&#x12a;" horiz-adv-x="563" d="M-2 1640v86q0 21 5.5 29t27.5 8h497q22 0 27.5 -8t5.5 -29v-86q0 -22 -5.5 -29t-27.5 -7h-497q-22 0 -27.5 7t-5.5 29zM176 43v1348q0 27 10.5 35t36.5 8h119q28 0 37.5 -7.5t9.5 -35.5v-1348q0 -28 -9.5 -35.5t-37.5 -7.5h-119q-26 0 -36.5 8t-10.5 35z" />
<glyph unicode="&#x12b;" horiz-adv-x="561" d="M0 1241v86q0 21 5.5 29t27.5 8h497q22 0 27.5 -8t5.5 -29v-86q0 -22 -5.5 -29.5t-27.5 -7.5h-497q-22 0 -27.5 7.5t-5.5 29.5zM180 33v1009q0 22 8 27.5t29 5.5h127q22 0 29.5 -5.5t7.5 -27.5v-1009q0 -22 -7.5 -27.5t-29.5 -5.5h-127q-21 0 -29 5.5t-8 27.5z" />
<glyph unicode="&#x12c;" horiz-adv-x="563" d="M-66 1731q-17 22 7 41l45 38q6 4 10.5 6t7.5 3t6.5 -0.5t5.5 -2.5t7.5 -5t9.5 -7q136 -139 250 -139q112 0 252 145q5 5 9 8t8 4.5t6 2.5t5.5 -0.5t4 -2t5 -3.5t5.5 -4l45 -37q24 -22 8 -43q-88 -116 -180 -171t-177 -55q-182 0 -340 222zM176 43v1348q0 27 10.5 35 t36.5 8h119q28 0 37.5 -7.5t9.5 -35.5v-1348q0 -28 -9.5 -35.5t-37.5 -7.5h-119q-26 0 -36.5 8t-10.5 35z" />
<glyph unicode="&#x12d;" horiz-adv-x="561" d="M-63 1411q-17 23 6 41l45 39q6 4 10.5 6t7.5 3t6.5 -0.5t5.5 -2.5t7.5 -5t9.5 -7q136 -139 250 -139q112 0 252 145q6 6 11 9t8 4.5t7 0.5t5 -1.5t6 -4t6 -4.5l45 -37q24 -22 8 -43q-88 -116 -180 -170.5t-177 -54.5q-181 0 -339 221zM180 33v1009q0 22 8 27.5t29 5.5 h127q22 0 29.5 -5.5t7.5 -27.5v-1009q0 -22 -7.5 -27.5t-29.5 -5.5h-127q-21 0 -29 5.5t-8 27.5z" />
<glyph unicode="&#x12e;" horiz-adv-x="563" d="M86 -281q-2 75 43 154.5t117 126.5h-23q-26 0 -36.5 8t-10.5 35v1348q0 27 10.5 35t36.5 8h119q28 0 37.5 -7.5t9.5 -35.5v-1348q0 -25 -10 -35q0 -2 -4 -6q-65 -71 -98 -137.5t-33 -112.5q0 -39 24.5 -53t77.5 -14q22 0 100 16q17 6 23 4t10 -18l15 -43q9 -25 -15 -35 q-89 -41 -194 -41q-100 0 -148.5 41.5t-50.5 109.5z" />
<glyph unicode="&#x12f;" horiz-adv-x="520" d="M76 -274q-1 72 41 148t110 126h-16q-21 0 -29 5.5t-8 27.5v1009q0 22 8 27.5t29 5.5h127q22 0 29.5 -5.5t7.5 -27.5v-1009q0 -27 -19 -33q-62 -68 -92.5 -131.5t-30.5 -110.5q0 -39 25 -53t78 -14q22 0 100 16q17 6 23 4t10 -18l14 -43q4 -18 1 -24t-15 -11 q-34 -16 -89 -28.5t-106 -12.5q-100 0 -148 42t-50 110zM143 1356q0 56 38.5 94.5t94.5 38.5t95 -39t39 -94t-39 -94t-95 -39t-94.5 38.5t-38.5 94.5z" />
<glyph unicode="&#x130;" horiz-adv-x="563" d="M150 1753q0 51 38 89t91 38q51 0 90 -38t39 -89t-39 -89t-90 -38q-53 0 -91 38t-38 89zM176 43v1348q0 27 10.5 35t36.5 8h119q28 0 37.5 -7.5t9.5 -35.5v-1348q0 -28 -9.5 -35.5t-37.5 -7.5h-119q-26 0 -36.5 8t-10.5 35z" />
<glyph unicode="&#x131;" horiz-adv-x="561" d="M180 33v1009q0 22 8 27.5t29 5.5h127q22 0 29.5 -5.5t7.5 -27.5v-1009q0 -22 -7.5 -27.5t-29.5 -5.5h-127q-21 0 -29 5.5t-8 27.5z" />
<glyph unicode="&#x132;" horiz-adv-x="1591" d="M156 43v1348q0 27 10.5 35t36.5 8h119q28 0 37.5 -7.5t9.5 -35.5v-1348q0 -28 -9.5 -35.5t-37.5 -7.5h-119q-26 0 -36.5 8t-10.5 35zM453.5 105q-0.5 10 7.5 26l53 107q15 28 49 10q163 -78 342 -78q173 0 248.5 98.5t75.5 304.5l-2 818q0 27 10.5 35t36.5 8h119 q28 0 37.5 -7.5t9.5 -35.5q0 -266 -1 -474.5t-1 -353.5q0 -283 -131.5 -434.5t-407.5 -151.5q-103 0 -219.5 24.5t-206.5 76.5q-12 9 -15.5 13t-4 14z" />
<glyph unicode="&#x133;" horiz-adv-x="1032" d="M133 1356q0 56 38.5 94.5t94.5 38.5t94.5 -38.5t38.5 -94.5t-38.5 -94.5t-94.5 -38.5t-94.5 38.5t-38.5 94.5zM164 33v1009q0 22 8 27.5t29 5.5h127q22 0 29.5 -5.5t7.5 -27.5v-1009q0 -22 -7.5 -27.5t-29.5 -5.5h-127q-21 0 -29 5.5t-8 27.5zM430 -311q-4 16 1.5 23 t21.5 14q54 26 93.5 60t62 69.5t36 81.5t17.5 86.5t4 93.5v925q0 22 7.5 27.5t28.5 5.5h129q22 0 29.5 -5.5t7.5 -27.5v-882q0 -116 -18 -208.5t-49 -156.5t-78 -113.5t-98.5 -79.5t-116.5 -53q-27 -9 -37 17zM633 1356q0 56 38.5 94.5t94.5 38.5t94.5 -38.5t38.5 -94.5 t-38.5 -94.5t-94.5 -38.5t-94.5 38.5t-38.5 94.5z" />
<glyph unicode="&#x134;" horiz-adv-x="1161" d="M13 105q-1 10 7 26l54 107q15 28 49 10q163 -78 342 -78q173 0 248 98.5t75 304.5l-2 818q0 27 11 35t37 8h118q28 0 37.5 -7.5t9.5 -35.5q0 -266 -1 -474.5t-1 -353.5q0 -586 -538 -586q-103 0 -219.5 24.5t-206.5 76.5q-12 9 -15.5 13t-4.5 14zM545 1575q-17 21 0 33 l260 209q45 36 84 36q48 0 90 -36l250 -209q25 -19 4 -43l-33 -39q-2 -3 -4 -4.5t-4 -2.5t-5 -0.5t-4.5 0.5t-5.5 1.5t-6.5 2.5t-7.5 3.5t-8 3.5l-268 127l-266 -131q-22 -11 -39 6z" />
<glyph unicode="&#x135;" horiz-adv-x="628" d="M-27 1257l271 273q39 39 84 39q28 0 47 -7.5t43 -31.5l258 -268q27 -27 2 -48l-39 -34q-17 -14 -45 4l-266 186l-267 -192q-24 -15 -43 4l-43 45q-14 14 -2 30zM-2 -311q-4 16 1 23t21 14q54 26 93.5 60t62 69.5t36 81.5t17.5 86.5t4 93.5v925q0 22 8 27.5t29 5.5h129 q22 0 29.5 -5.5t7.5 -27.5v-882q0 -116 -18 -208.5t-49 -156.5t-78 -113.5t-98.5 -79.5t-116.5 -53q-27 -9 -37 17z" />
<glyph unicode="&#x136;" horiz-adv-x="1308" d="M154 43v1348q0 27 10.5 35t36.5 8h114q28 0 37.5 -7.5t9.5 -35.5v-668l9 -4l213 268l346 420q27 27 69 27h175q18 0 23.5 -10.5t-5.5 -22.5l-395 -481l493 -875q11 -20 5.5 -32.5t-25.5 -12.5h-148q-38 0 -53 6.5t-31 34.5l-389 702l-287 -356v-344q0 -28 -9.5 -35.5 t-37.5 -7.5h-114q-26 0 -36.5 8t-10.5 35zM522 -508l31 391q5 37 37 37h178q22 0 32 -12t5 -25l-131 -385q-8 -25 -14.5 -31t-28.5 -6h-68q-23 0 -33 8t-8 23z" />
<glyph unicode="&#x137;" horiz-adv-x="1032" d="M131 33v1431q0 22 8 27.5t29 5.5h127q22 0 29.5 -5.5t7.5 -27.5v-858l8 -4l385 457q13 16 39 16h180q10 0 13 -9.5t-3 -16.5l-272 -328l315 -696q6 -7 3 -16t-19 -9h-152q-22 0 -31.5 5t-15.5 18l-239 536l-211 -242v-284q0 -22 -7.5 -27.5t-29.5 -5.5h-127 q-21 0 -29 5.5t-8 27.5zM356 -569l31 391q5 37 37 37h178q22 0 32 -12t5 -25l-131 -385q-8 -25 -14.5 -31t-28.5 -6h-68q-23 0 -33 8t-8 23z" />
<glyph unicode="&#x138;" horiz-adv-x="1019" d="M131 33v1009q0 22 8 27.5t29 5.5h127q22 0 29.5 -5.5t7.5 -27.5v-442l10 -4l385 463q13 16 39 16h178q10 0 13 -9.5t-3 -16.5l-333 -394l376 -630q6 -7 3 -16t-19 -9h-162q-22 0 -30.5 5t-16.5 18l-278 485l-162 -191v-284q0 -22 -7.5 -27.5t-29.5 -5.5h-127 q-21 0 -29 5.5t-8 27.5z" />
<glyph unicode="&#x139;" horiz-adv-x="1142" d="M154 360v1035q0 27 10.5 35t36.5 8h116q28 0 38 -7.5t10 -35.5v-1047q0 -155 157 -155h568q21 0 26.5 -8t5.5 -29v-117q0 -23 -5 -31t-27 -8h-586q-97 0 -167.5 29t-109 81t-56 113.5t-17.5 136.5zM193 1615.5q1 8.5 18 20.5l295 217q9 7 14 9t14 0t17 -13l94 -131 q23 -23 -4 -35l-348 -155q-31 -12 -51 8l-39 59q-11 12 -10 20.5z" />
<glyph unicode="&#x13a;" horiz-adv-x="585" d="M154 188v1276q0 22 7 27.5t29 5.5h132q22 0 29 -5.5t7 -27.5v-1220q0 -54 15 -72t53 -18q28 0 74 4q18 2 23.5 -2t6.5 -21l13 -90q2 -20 -1.5 -26.5t-21.5 -16.5q-55 -25 -168 -25q-107 0 -152.5 49.5t-45.5 161.5zM176.5 1615.5q1.5 8.5 18.5 20.5l294 217q27 20 46 -4 l94 -131q23 -23 -4 -35l-349 -155q-31 -12 -51 8l-39 59q-11 12 -9.5 20.5z" />
<glyph unicode="&#x13b;" horiz-adv-x="1142" d="M154 360v1035q0 27 10.5 35t36.5 8h116q28 0 38 -7.5t10 -35.5v-1047q0 -155 157 -155h568q21 0 26.5 -8t5.5 -29v-117q0 -23 -5 -31t-27 -8h-586q-97 0 -167.5 29t-109 81t-56 113.5t-17.5 136.5zM532 -569l31 391q5 37 37 37h178q22 0 32 -12t5 -25l-131 -385 q-8 -25 -14.5 -31t-28.5 -6h-68q-23 0 -33 8t-8 23z" />
<glyph unicode="&#x13c;" horiz-adv-x="585" d="M141 -569l31 391q5 37 37 37h178q22 0 32 -12t5 -25l-131 -385q-8 -25 -14.5 -31t-28.5 -6h-68q-23 0 -33 8t-8 23zM154 188v1276q0 22 7 27.5t29 5.5h132q22 0 29 -5.5t7 -27.5v-1220q0 -54 15 -72t53 -18q28 0 74 4q18 2 23.5 -2t6.5 -21l13 -90q2 -20 -1.5 -26.5 t-21.5 -16.5q-55 -25 -168 -25q-107 0 -152.5 49.5t-45.5 161.5z" />
<glyph unicode="&#x13d;" horiz-adv-x="1142" d="M154 360v1035q0 27 10.5 35t36.5 8h116q28 0 38 -7.5t10 -35.5v-1047q0 -155 157 -155h568q21 0 26.5 -8t5.5 -29v-117q0 -23 -5 -31t-27 -8h-586q-97 0 -167.5 29t-109 81t-56 113.5t-17.5 136.5zM731 1004l31 391q5 37 37 37h178q22 0 32 -12t5 -25l-131 -385 q-8 -25 -14.5 -31t-28.5 -6h-68q-23 0 -33 8t-8 23z" />
<glyph unicode="&#x13e;" horiz-adv-x="747" d="M154 188v1276q0 22 7 27.5t29 5.5h132q22 0 29 -5.5t7 -27.5v-1220q0 -54 15 -72t53 -18q28 0 74 4q18 2 23.5 -2t6.5 -21l13 -90q2 -20 -1.5 -26.5t-21.5 -16.5q-55 -25 -168 -25q-107 0 -152.5 49.5t-45.5 161.5zM508 1028l31 391q5 37 36 37h179q22 0 32 -12t5 -25 l-132 -385q-8 -25 -14.5 -31t-28.5 -6h-67q-23 0 -33 8t-8 23z" />
<glyph unicode="&#x13f;" horiz-adv-x="1142" d="M154 360v1035q0 27 10.5 35t36.5 8h116q28 0 38 -7.5t10 -35.5v-1047q0 -155 157 -155h568q21 0 26.5 -8t5.5 -29v-117q0 -23 -5 -31t-27 -8h-586q-97 0 -167.5 29t-109 81t-56 113.5t-17.5 136.5zM682 770q0 52 38 89.5t91 37.5q51 0 90 -38t39 -89t-39 -89t-90 -38 q-53 0 -91 37.5t-38 89.5z" />
<glyph unicode="&#x140;" horiz-adv-x="735" d="M154 188v1276q0 22 7 27.5t29 5.5h132q22 0 29 -5.5t7 -27.5v-1220q0 -54 15 -72t53 -18q28 0 74 4q18 2 23.5 -2t6.5 -21l13 -90q2 -20 -1.5 -26.5t-21.5 -16.5q-55 -25 -168 -25q-107 0 -152.5 49.5t-45.5 161.5zM492 791q0 51 38 89t91 38q51 0 90 -38t39 -89t-39 -89 t-90 -38q-53 0 -91 38t-38 89z" />
<glyph unicode="&#x141;" horiz-adv-x="1142" d="M-52 613q4 11 23 22l183 104v668q0 22 8 28.5t28 6.5h138q22 0 29.5 -6.5t7.5 -28.5v-545l217 125q39 24 59 -12l41 -62q17 -31 -23 -57l-294 -170v-334q0 -155 157 -155h568q21 0 26.5 -8t5.5 -29v-117q0 -23 -5 -31t-27 -8h-586q-97 0 -167.5 29t-109 81.5t-56 114 t-17.5 136.5v198l-99 -55q-40 -24 -61 10l-39 60q-11 24 -7 35z" />
<glyph unicode="&#x142;" horiz-adv-x="585" d="M-50 582q4 11 23 22l181 103v757q0 22 7 27.5t29 5.5h132q22 0 29 -5.5t7 -27.5v-639l131 76q40 24 60 -12l35 -58q17 -31 -23 -57l-203 -117v-413q0 -54 15 -72t53 -18q28 0 74 4q18 2 23.5 -2t6.5 -21l13 -90q2 -20 -1.5 -26.5t-21.5 -16.5q-55 -25 -168 -25 q-107 0 -152.5 49.5t-45.5 161.5v351l-103 -58q-40 -24 -61 11l-33 55q-11 24 -7 35z" />
<glyph unicode="&#x143;" horiz-adv-x="1433" d="M154 43v1280q0 59 24.5 86t85.5 27h62q46 0 68.5 -18t54.5 -70l444 -744l174 -299h6v1088q0 27 10.5 35t36.5 8h113q28 0 37.5 -7.5t9.5 -35.5v-1280q0 -59 -25 -86t-86 -27h-61q-46 0 -68.5 18t-54.5 70l-450 752l-168 290h-7v-1087q0 -28 -9.5 -35.5t-37.5 -7.5h-112 q-26 0 -36.5 8t-10.5 35zM615 1615.5q1 8.5 18 20.5l295 217q9 7 14 9t14 0t17 -13l94 -131q23 -23 -4 -35l-348 -155q-31 -12 -51 8l-39 59q-11 12 -10 20.5z" />
<glyph unicode="&#x144;" horiz-adv-x="1163" d="M133 33v876q0 80 30.5 120.5t112.5 51.5q156 17 250 17q265 0 384.5 -121t119.5 -397v-547q0 -22 -7.5 -27.5t-29.5 -5.5h-127q-21 0 -29 5.5t-8 27.5v540q0 91 -14.5 153t-50.5 107t-98 66t-156 21q-86 0 -176 -15v-872q0 -22 -7.5 -27.5t-29.5 -5.5h-127q-21 0 -29 5.5 t-8 27.5zM420 1224q-2 7 8 27l135 324q12 27 43 20l158 -43q31 -8 14 -32l-225 -314q-12 -17 -21 -20t-26 2l-66 24q-18 5 -20 12z" />
<glyph unicode="&#x145;" horiz-adv-x="1433" d="M154 43v1280q0 59 24.5 86t85.5 27h62q46 0 68.5 -18t54.5 -70l444 -744l174 -299h6v1088q0 27 10.5 35t36.5 8h113q28 0 37.5 -7.5t9.5 -35.5v-1280q0 -59 -25 -86t-86 -27h-61q-46 0 -68.5 18t-54.5 70l-450 752l-168 290h-7v-1087q0 -28 -9.5 -35.5t-37.5 -7.5h-112 q-26 0 -36.5 8t-10.5 35zM518 -508l31 391q5 37 37 37h178q22 0 32 -12t5 -25l-131 -385q-8 -25 -14.5 -31t-28.5 -6h-68q-23 0 -33 8t-8 23z" />
<glyph unicode="&#x146;" horiz-adv-x="1163" d="M133 33v876q0 80 30.5 120.5t112.5 51.5q156 17 250 17q265 0 384.5 -121t119.5 -397v-547q0 -22 -7.5 -27.5t-29.5 -5.5h-127q-21 0 -29 5.5t-8 27.5v540q0 91 -14.5 153t-50.5 107t-98 66t-156 21q-86 0 -176 -15v-872q0 -22 -7.5 -27.5t-29.5 -5.5h-127q-21 0 -29 5.5 t-8 27.5zM428 -569l31 391q5 37 37 37h178q22 0 32 -12t5 -25l-131 -385q-8 -25 -14.5 -31t-28.5 -6h-68q-23 0 -33 8t-8 23z" />
<glyph unicode="&#x147;" horiz-adv-x="1433" d="M154 43v1280q0 59 24.5 86t85.5 27h62q46 0 68.5 -18t54.5 -70l444 -744l174 -299h6v1088q0 27 10.5 35t36.5 8h113q28 0 37.5 -7.5t9.5 -35.5v-1280q0 -59 -25 -86t-86 -27h-61q-46 0 -68.5 18t-54.5 70l-450 752l-168 290h-7v-1087q0 -28 -9.5 -35.5t-37.5 -7.5h-112 q-26 0 -36.5 8t-10.5 35zM401 1761q-13 16 2 31l33 47q18 18 43 6l277 -131l266 129q20 9 26 9.5t19 -5.5l39 -43q27 -24 -2 -47l-258 -203q-43 -34 -90 -34q-39 0 -84 34z" />
<glyph unicode="&#x148;" horiz-adv-x="1163" d="M133 33v876q0 80 30.5 120.5t112.5 51.5q156 17 250 17q265 0 384.5 -121t119.5 -397v-547q0 -22 -7.5 -27.5t-29.5 -5.5h-127q-21 0 -29 5.5t-8 27.5v540q0 91 -14.5 153t-50.5 107t-98 66t-156 21q-86 0 -176 -15v-872q0 -22 -7.5 -27.5t-29.5 -5.5h-127q-21 0 -29 5.5 t-8 27.5zM205 1483q-14 17 2 30l45 41q20 20 43 5l264 -189l266 186q28 19 45 5l39 -35q13 -12 13.5 -20.5t-15.5 -26.5l-258 -269q-24 -24 -43 -31.5t-47 -7.5q-45 0 -84 39z" />
<glyph unicode="&#x149;" horiz-adv-x="1316" d="M-2 1026l31 391q5 37 37 37h178q22 0 32 -12t5 -25l-131 -385q-8 -24 -15 -30.5t-29 -6.5h-67q-23 0 -33 8t-8 23zM287 33v876q0 80 30.5 120.5t112.5 51.5q156 17 250 17q265 0 384.5 -121t119.5 -397v-547q0 -22 -7.5 -27.5t-29.5 -5.5h-127q-21 0 -29 5.5t-8 27.5v540 q0 91 -14.5 153t-50.5 107t-98 66t-156 21q-87 0 -177 -15v-872q0 -22 -7 -27.5t-29 -5.5h-127q-21 0 -29 5.5t-8 27.5z" />
<glyph unicode="&#x14a;" horiz-adv-x="1433" d="M154 33v1308q0 58 24.5 85.5t79.5 27.5h68q63 0 94 -25.5t72 -95.5l399 -676l170 -301h12v1045q0 22 8 27.5t29 5.5h133q22 0 29.5 -5.5t7.5 -27.5v-1548q0 -60 -10.5 -105t-37 -84.5t-77.5 -60.5t-125 -21q-59 0 -129 21q-16 4 -18 14t4 23l14 102q3 15 8.5 21t12.5 5.5 t16 -1.5q10 -1 29.5 -3t29.5 -2q33 0 51 6t26 25t9.5 36t1.5 58v78l-542 909l-176 308h-7v-1149q0 -22 -7 -27.5t-29 -5.5h-134q-21 0 -28.5 5.5t-7.5 27.5z" />
<glyph unicode="&#x14b;" horiz-adv-x="1163" d="M133 33v876q0 151 143 172q156 17 250 17q265 0 384.5 -121t119.5 -397v-727q0 -60 -10.5 -105t-37 -84.5t-77.5 -60.5t-125 -21q-58 0 -129 21q-16 4 -18 14t4 23l14 102q3 15 8.5 21t12.5 5.5t16 -1.5q11 -1 28 -3t27 -2q33 0 51 6t26 25t9.5 36t1.5 58q0 15 -1 187 t-1 499q0 91 -14.5 153t-50.5 107t-98 66t-156 21q-86 0 -176 -15v-872q0 -22 -7.5 -27.5t-29.5 -5.5h-127q-21 0 -29 5.5t-8 27.5z" />
<glyph unicode="&#x14c;" horiz-adv-x="1458" d="M113 715q0 174 47 315.5t130 234t195 142t244 49.5q298 0 457.5 -193.5t159.5 -539.5q0 -363 -158.5 -554.5t-464.5 -191.5q-301 0 -455.5 186t-154.5 552zM326 723q0 -131 20 -228.5t65 -173t123.5 -114.5t190.5 -39q90 0 161 30t116 80.5t74.5 122t41.5 148.5t12 166 q0 93 -9.5 168.5t-36 149t-69.5 123t-114 80t-166 30.5q-101 0 -180 -43t-128.5 -117.5t-75 -172t-25.5 -210.5zM451 1626v86q0 15 1.5 21.5t8.5 11t22 4.5h498q22 0 27.5 -8t5.5 -29v-86q0 -22 -5.5 -29.5t-27.5 -7.5h-498q-22 0 -27 7.5t-5 29.5z" />
<glyph unicode="&#x14d;" horiz-adv-x="1153" d="M92 537q0 262 137 411.5t349 149.5q235 0 359 -145t124 -410q0 -276 -124.5 -421t-365.5 -145q-236 0 -357.5 141.5t-121.5 418.5zM293 543q0 -93 14 -163t45 -124.5t86.5 -82.5t134.5 -28q63 0 112.5 21.5t81.5 57.5t53 87.5t29.5 106.5t8.5 119q0 66 -6.5 120 t-25.5 106.5t-49 88t-79.5 57t-115.5 21.5q-141 0 -215 -109t-74 -278zM293 1245v86q0 21 5.5 29t27.5 8h497q22 0 27.5 -8t5.5 -29v-86q0 -22 -5.5 -29.5t-27.5 -7.5h-497q-22 0 -27.5 7.5t-5.5 29.5z" />
<glyph unicode="&#x14e;" horiz-adv-x="1458" d="M113 715q0 174 47 315.5t130 234t195 142t244 49.5q298 0 457.5 -193.5t159.5 -539.5q0 -363 -158.5 -554.5t-464.5 -191.5q-301 0 -455.5 186t-154.5 552zM326 723q0 -131 20 -228.5t65 -173t123.5 -114.5t190.5 -39q90 0 161 30t116 80.5t74.5 122t41.5 148.5t12 166 q0 93 -9.5 168.5t-36 149t-69.5 123t-114 80t-166 30.5q-101 0 -180 -43t-128.5 -117.5t-75 -172t-25.5 -210.5zM397 1751q-17 23 6 41l46 39q6 4 10.5 6t7.5 3t6.5 -0.5t5.5 -2.5t7.5 -5t9.5 -7q136 -139 249 -139q112 0 252 145q6 6 11 9t8 4.5t7 0.5t5 -1.5t6 -4t6 -4.5 l45 -37q24 -22 9 -43q-88 -116 -180 -170.5t-177 -54.5q-182 0 -340 221z" />
<glyph unicode="&#x14f;" horiz-adv-x="1153" d="M92 537q0 262 137 411.5t349 149.5q235 0 359 -145t124 -410q0 -276 -124.5 -421t-365.5 -145q-236 0 -357.5 141.5t-121.5 418.5zM227 1411q-17 23 6 41l46 39q6 4 10.5 6t7.5 3t6.5 -0.5t5.5 -2.5t7.5 -5t9.5 -7q136 -139 249 -139q112 0 252 145q6 6 11 9t8 4.5t7 0.5 t5 -1.5t6 -4t6 -4.5l45 -37q24 -22 9 -43q-88 -116 -180 -170.5t-177 -54.5q-182 0 -340 221zM293 543q0 -93 14 -163t45 -124.5t86.5 -82.5t134.5 -28q63 0 112.5 21.5t81.5 57.5t53 87.5t29.5 106.5t8.5 119q0 66 -6.5 120t-25.5 106.5t-49 88t-79.5 57t-115.5 21.5 q-141 0 -215 -109t-74 -278z" />
<glyph unicode="&#x150;" horiz-adv-x="1458" d="M113 715q0 174 47 315.5t130 234t195 142t244 49.5q298 0 457.5 -193.5t159.5 -539.5q0 -363 -158.5 -554.5t-464.5 -191.5q-301 0 -455.5 186t-154.5 552zM326 723q0 -131 20 -228.5t65 -173t123.5 -114.5t190.5 -39q90 0 161 30t116 80.5t74.5 122t41.5 148.5t12 166 q0 93 -9.5 168.5t-36 149t-69.5 123t-114 80t-166 30.5q-101 0 -180 -43t-128.5 -117.5t-75 -172t-25.5 -210.5zM432.5 1634.5q1.5 8.5 18.5 20.5l288 215q9 7 14 9t14 0t17 -13l99 -119q23 -23 -4 -35l-338 -156q-31 -12 -52 9l-47 49q-11 12 -9.5 20.5zM832 1634.5 q1 8.5 18 20.5l289 215q9 7 14 9t14 0t17 -13l98 -119q23 -23 -4 -35l-338 -156q-21 -7 -30.5 -4.5t-20.5 13.5l-47 49q-11 12 -10 20.5z" />
<glyph unicode="&#x151;" horiz-adv-x="1153" d="M92 537q0 262 137 411.5t349 149.5q235 0 359 -145t124 -410q0 -276 -124.5 -421t-365.5 -145q-236 0 -357.5 141.5t-121.5 418.5zM293 543q0 -93 14 -163t45 -124.5t86.5 -82.5t134.5 -28q63 0 112.5 21.5t81.5 57.5t53 87.5t29.5 106.5t8.5 119q0 66 -6.5 120 t-25.5 106.5t-49 88t-79.5 57t-115.5 21.5q-141 0 -215 -109t-74 -278zM340 1224q-2 7 8 27l135 324q12 27 43 20l158 -43q31 -8 14 -32l-225 -314q-12 -17 -21 -20t-26 2l-66 24q-18 5 -20 12zM633 1224q-2 7 8 27l135 324q12 27 43 20l158 -43q31 -8 14 -32l-225 -314 q-12 -17 -21 -20t-26 2l-66 24q-18 5 -20 12z" />
<glyph unicode="&#x152;" horiz-adv-x="1869" d="M162 717q0 335 165 537t441 202q152 0 268 -61q77 41 185 41h553q21 0 26.5 -8t5.5 -29v-119q0 -22 -5 -28.5t-27 -6.5h-537q-84 0 -121 -37t-37 -116v-240h621q22 0 27.5 -7.5t5.5 -29.5v-108q0 -21 -5.5 -29t-27.5 -8h-621v-326q0 -151 158 -151h537q22 0 27 -7.5 t5 -29.5v-119q0 -15 -1.5 -21.5t-8.5 -11t-22 -4.5h-553q-107 0 -183 39q-127 -62 -270 -62q-135 0 -241 41t-173.5 109.5t-111.5 165.5t-62 201t-18 223zM375 717q0 -553 393 -553q78 0 131 20q-29 62 -29 168v725q0 91 27 162q-59 21 -129 21q-128 0 -217.5 -70.5 t-132.5 -191t-43 -281.5z" />
<glyph unicode="&#x153;" horiz-adv-x="1880" d="M92 537q0 262 137 411.5t349 149.5q268 0 391 -189q135 189 372 189q226 0 338.5 -118.5t112.5 -328.5q0 -176 -170 -176h-557q4 -168 89 -245.5t222 -77.5q64 0 131 17t111 42q31 15 43 -12l49 -97q14 -32 -12 -47q-129 -78 -336 -78q-283 0 -404 177 q-127 -177 -387 -177q-236 0 -357.5 141.5t-121.5 418.5zM293 543q0 -93 14 -163t45 -124.5t86.5 -82.5t134.5 -28q63 0 112.5 21.5t81.5 57.5t53 87.5t29.5 106.5t8.5 119q0 66 -6.5 120t-25.5 106.5t-49 88t-79.5 57t-115.5 21.5q-141 0 -215 -109t-74 -278zM1073 635h529 q0 65 -12 115t-39.5 92.5t-80 65t-127.5 22.5q-119 0 -192 -88.5t-78 -206.5z" />
<glyph unicode="&#x154;" horiz-adv-x="1296" d="M154 43v1284q0 60 25 85.5t85 25.5h471q195 0 319 -114.5t124 -295.5q0 -121 -61 -211.5t-165 -132.5v-10q78 -23 113 -70t59 -131l119 -432q7 -11 0.5 -26t-29.5 -15h-153q-32 0 -41 29l-105 387q-30 109 -97.5 150.5t-176.5 41.5h-270v-565q0 -28 -9.5 -35.5 t-37.5 -7.5h-123q-26 0 -36.5 8t-10.5 35zM373 791h323q138 0 203.5 64t65.5 165q0 30 -5.5 57.5t-22 58.5t-43.5 54t-73.5 38t-107.5 15h-340v-452zM500 1615.5q1 8.5 18 20.5l295 217q9 7 14 9t14 0t17 -13l94 -131q23 -23 -4 -35l-348 -155q-31 -12 -51 8l-39 59 q-11 12 -10 20.5z" />
<glyph unicode="&#x155;" horiz-adv-x="866" d="M154 33v882q0 87 29 123.5t114 48.5q90 11 149 11q253 0 418 -142q19 -16 4 -34l-86 -113q-7 -11 -14.5 -12.5t-10.5 0.5t-14 10q-117 111 -284 111q-45 0 -105 -11v-874q0 -22 -7.5 -27.5t-29.5 -5.5h-127q-21 0 -28.5 5.5t-7.5 27.5zM326 1224q-2 7 8 27l135 324 q12 27 43 20l158 -43q31 -8 14 -32l-225 -314q-12 -17 -21 -20t-26 2l-66 24q-18 5 -20 12z" />
<glyph unicode="&#x156;" horiz-adv-x="1296" d="M154 43v1284q0 60 25 85.5t85 25.5h471q195 0 319 -114.5t124 -295.5q0 -121 -61 -211.5t-165 -132.5v-10q78 -23 113 -70t59 -131l119 -432q7 -11 0.5 -26t-29.5 -15h-153q-32 0 -41 29l-105 387q-30 109 -97.5 150.5t-176.5 41.5h-270v-565q0 -28 -9.5 -35.5 t-37.5 -7.5h-123q-26 0 -36.5 8t-10.5 35zM373 791h323q138 0 203.5 64t65.5 165q0 30 -5.5 57.5t-22 58.5t-43.5 54t-73.5 38t-107.5 15h-340v-452zM530 -504l31 391q5 37 37 37h178q22 0 32 -12t5 -25l-131 -385q-8 -25 -14.5 -31t-28.5 -6h-68q-23 0 -33 8t-8 23z" />
<glyph unicode="&#x157;" horiz-adv-x="866" d="M98 -569l31 391q5 37 37 37h178q22 0 32 -12t5 -25l-131 -385q-8 -25 -14.5 -31t-28.5 -6h-68q-23 0 -33 8t-8 23zM154 33v882q0 87 29 123.5t114 48.5q90 11 149 11q253 0 418 -142q19 -16 4 -34l-86 -113q-7 -11 -14.5 -12.5t-10.5 0.5t-14 10q-117 111 -284 111 q-45 0 -105 -11v-874q0 -22 -7.5 -27.5t-29.5 -5.5h-127q-21 0 -28.5 5.5t-7.5 27.5z" />
<glyph unicode="&#x158;" horiz-adv-x="1296" d="M154 43v1284q0 60 25 85.5t85 25.5h471q195 0 319 -114.5t124 -295.5q0 -121 -61 -211.5t-165 -132.5v-10q78 -23 113 -70t59 -131l119 -432q7 -11 0.5 -26t-29.5 -15h-153q-32 0 -41 29l-105 387q-30 109 -97.5 150.5t-176.5 41.5h-270v-565q0 -28 -9.5 -35.5 t-37.5 -7.5h-123q-26 0 -36.5 8t-10.5 35zM254 1761q-13 16 2 31l33 47q18 18 43 6l276 -131l266 129q20 9 26.5 9.5t19.5 -5.5l38 -43q27 -24 -2 -47l-258 -203q-43 -34 -90 -34q-39 0 -84 34zM373 791h323q138 0 203.5 64t65.5 165q0 30 -5.5 57.5t-22 58.5t-43.5 54 t-73.5 38t-107.5 15h-340v-452z" />
<glyph unicode="&#x159;" horiz-adv-x="866" d="M80 1483q-14 17 2 30l45 41q20 20 43 5l264 -189l266 186q28 19 45 5l39 -35q13 -12 13.5 -20.5t-15.5 -26.5l-258 -269q-24 -24 -43 -31.5t-47 -7.5q-45 0 -84 39zM154 33v882q0 87 29 123.5t114 48.5q90 11 149 11q253 0 418 -142q19 -16 4 -34l-86 -113 q-7 -11 -14.5 -12.5t-10.5 0.5t-14 10q-117 111 -284 111q-45 0 -105 -11v-874q0 -22 -7.5 -27.5t-29.5 -5.5h-127q-21 0 -28.5 5.5t-7.5 27.5z" />
<glyph unicode="&#x15a;" horiz-adv-x="1181" d="M82 125l55 125q12 23 37 14q224 -96 410 -96q321 0 321 213q0 49 -19 86.5t-63.5 70t-95.5 58t-137 59.5q-123 48 -202 88.5t-142 91t-91 110.5t-28 136q0 175 115 276t333 101q109 0 231.5 -22t213.5 -60q24 -12 14 -35l-47 -131q-6 -16 -12.5 -19t-16.5 3 q-204 72 -391 72q-112 0 -169.5 -47.5t-57.5 -120.5q0 -26 8 -48.5t19.5 -40.5t38 -38t48.5 -34t68 -35.5t79.5 -36.5t98.5 -42h1l1 -1h1q173 -74 246 -123q161 -110 172 -282q1 -14 1 -28q0 -104 -39.5 -184t-109 -129t-159 -74t-193.5 -25q-319 0 -529 105q-25 9 -10 43z M414 1615.5q1 8.5 18 20.5l295 217q9 7 14 9t14 0t17 -13l94 -131q23 -23 -4 -35l-348 -155q-31 -12 -51 8l-39 59q-11 12 -10 20.5z" />
<glyph unicode="&#x15b;" horiz-adv-x="968" d="M78 109l43 96q8 18 16.5 21.5t32.5 -5.5q165 -74 328 -74q95 0 145.5 37.5t50.5 104.5q0 64 -56 104t-185 86q-180 66 -256 133t-76 185q0 138 98 219.5t275 81.5q171 0 323 -60q13 -6 18.5 -18.5t0.5 -24.5l-43 -108q-9 -21 -35 -10q-82 30 -140.5 40.5t-130.5 10.5 q-83 0 -126.5 -34t-43.5 -85q0 -60 47.5 -94.5t184.5 -87.5q60 -21 99.5 -38t89 -46.5t79 -61.5t50 -79.5t20.5 -104.5q0 -105 -53.5 -178.5t-139.5 -107.5t-196 -34q-253 0 -406 84q-32 16 -14 48zM334 1224q-2 7 8 27l135 324q12 27 43 20l158 -43q31 -8 14 -32l-225 -314 q-12 -17 -21 -20t-26 2l-66 24q-18 5 -20 12z" />
<glyph unicode="&#x15c;" horiz-adv-x="1181" d="M82 125l55 125q12 23 37 14q224 -96 410 -96q321 0 321 213q0 49 -19 86.5t-63.5 70t-95.5 58t-137 59.5q-123 48 -202 88.5t-142 91t-91 110.5t-28 136q0 175 115 276t333 101q109 0 231.5 -22t213.5 -60q24 -12 14 -35l-47 -131q-6 -16 -12.5 -19t-16.5 3 q-204 72 -391 72q-112 0 -169.5 -47.5t-57.5 -120.5q0 -26 8 -48.5t19.5 -40.5t38 -38t48.5 -34t68 -35.5t79.5 -36.5t98.5 -42h1l1 -1h1q173 -74 246 -123q161 -110 172 -282q1 -14 1 -28q0 -104 -39.5 -184t-109 -129t-159 -74t-193.5 -25q-319 0 -529 105q-25 9 -10 43z M281 1595q-17 21 0 33l260 209q46 37 84 37q47 0 90 -37l250 -209q25 -19 4 -43l-33 -39q-2 -3 -4 -4.5t-4 -2.5t-5 -0.5t-4.5 0.5t-5.5 1.5t-6.5 2.5t-7.5 3.5t-8 3.5l-268 127l-267 -131q-22 -11 -39 6z" />
<glyph unicode="&#x15d;" horiz-adv-x="968" d="M78 109l43 96q8 18 16.5 21.5t32.5 -5.5q165 -74 328 -74q95 0 145.5 37.5t50.5 104.5q0 64 -56 104t-185 86q-180 66 -256 133t-76 185q0 138 98 219.5t275 81.5q171 0 323 -60q13 -6 18.5 -18.5t0.5 -24.5l-43 -108q-9 -21 -35 -10q-82 30 -140.5 40.5t-130.5 10.5 q-83 0 -126.5 -34t-43.5 -85q0 -60 47.5 -94.5t184.5 -87.5q60 -21 99.5 -38t89 -46.5t79 -61.5t50 -79.5t20.5 -104.5q0 -105 -53.5 -178.5t-139.5 -107.5t-196 -34q-253 0 -406 84q-32 16 -14 48zM125 1278l270 272q39 39 84 39q28 0 47 -7.5t43 -31.5l258 -268 q26 -26 2 -47l-38 -35q-18 -15 -46 4l-266 187l-266 -193q-24 -15 -43 4l-43 45q-15 15 -2 31z" />
<glyph unicode="&#x15e;" horiz-adv-x="1181" d="M82 125l55 125q12 23 37 14q224 -96 410 -96q321 0 321 213q0 49 -19 86.5t-63.5 70t-95.5 58t-137 59.5q-123 48 -202 88.5t-142 91t-91 110.5t-28 136q0 175 115 276t333 101q109 0 231.5 -22t213.5 -60q24 -12 14 -35l-47 -131q-6 -16 -12.5 -19t-16.5 3 q-204 72 -391 72q-112 0 -169.5 -47.5t-57.5 -120.5q0 -26 8 -48.5t19.5 -40.5t38 -38t48.5 -34t68 -35.5t79.5 -36.5t98.5 -42h1l1 -1h1q173 -74 246 -123q161 -110 172 -282q1 -14 1 -28q0 -104 -39.5 -184t-109 -129t-159 -74t-193.5 -25h-27l-31 -92q107 -7 154 -50 t47 -107t-57.5 -116t-159.5 -52q-119 0 -180 34q-24 9 -15 35l17 43q7 16 14 18.5t20 -3.5q59 -21 119 -21q101 0 101 66q0 33 -32 48t-79 15h-13.5h-11.5h-9t-7.5 0.5t-6 1t-5.5 1t-4 2t-4 3.5q-3 3 -4.5 5.5t-2.5 5t-1 6.5t-0.5 5.5t0.5 6.5t1.5 7t2.5 8t2 8l45 129 q-246 18 -402 98q-25 9 -10 43z" />
<glyph unicode="&#x15f;" horiz-adv-x="968" d="M78 109l43 96q8 18 16.5 21.5t32.5 -5.5q165 -74 328 -74q95 0 145.5 37.5t50.5 104.5q0 64 -56 104t-185 86q-180 66 -256 133t-76 185q0 138 98 219.5t275 81.5q171 0 323 -60q13 -6 18.5 -18.5t0.5 -24.5l-43 -108q-9 -21 -35 -10q-82 30 -140.5 40.5t-130.5 10.5 q-83 0 -126.5 -34t-43.5 -85q0 -60 47.5 -94.5t184.5 -87.5q60 -21 99.5 -38t89 -46.5t79 -61.5t50 -79.5t20.5 -104.5q0 -105 -53.5 -178.5t-139.5 -107.5t-196 -34h-2l-31 -92q107 -7 154 -50t47 -107t-57.5 -116t-159.5 -52q-120 0 -181 34q-23 9 -14 35l16 43 q7 16 14.5 18.5t20.5 -3.5q59 -21 119 -21q100 0 100 66q0 33 -31.5 48t-78.5 15h-15h-13h-9.5t-8 0.5t-6 1.5t-6 2.5t-4.5 3.5q-3 3 -4.5 5.5t-2.5 5t-1 6.5t-0.5 5.5t0.5 6.5t1.5 7t2.5 8t2 8l43 127q-193 19 -301 79q-32 16 -14 48z" />
<glyph unicode="&#x160;" horiz-adv-x="1181" d="M82 125l55 125q12 23 37 14q224 -96 410 -96q321 0 321 213q0 49 -19 86.5t-63.5 70t-95.5 58t-137 59.5q-123 48 -202 88.5t-142 91t-91 110.5t-28 136q0 175 115 276t333 101q109 0 231.5 -22t213.5 -60q24 -12 14 -35l-47 -131q-6 -16 -12.5 -19t-16.5 3 q-204 72 -391 72q-112 0 -169.5 -47.5t-57.5 -120.5q0 -26 8 -48.5t19.5 -40.5t38 -38t48.5 -34t68 -35.5t79.5 -36.5t98.5 -42h1l1 -1h1q173 -74 246 -123q161 -110 172 -282q1 -14 1 -28q0 -104 -39.5 -184t-109 -129t-159 -74t-193.5 -25q-319 0 -529 105q-25 9 -10 43z M272 1761q-13 16 2 31l33 47q18 18 43 6l277 -131l266 129q20 9 26 9.5t19 -5.5l39 -43q27 -24 -2 -47l-258 -203q-43 -34 -90 -34q-39 0 -84 34z" />
<glyph unicode="&#x161;" horiz-adv-x="968" d="M78 109l43 96q8 18 16.5 21.5t32.5 -5.5q165 -74 328 -74q95 0 145.5 37.5t50.5 104.5q0 64 -56 104t-185 86q-180 66 -256 133t-76 185q0 138 98 219.5t275 81.5q171 0 323 -60q13 -6 18.5 -18.5t0.5 -24.5l-43 -108q-9 -21 -35 -10q-82 30 -140.5 40.5t-130.5 10.5 q-83 0 -126.5 -34t-43.5 -85q0 -60 47.5 -94.5t184.5 -87.5q60 -21 99.5 -38t89 -46.5t79 -61.5t50 -79.5t20.5 -104.5q0 -105 -53.5 -178.5t-139.5 -107.5t-196 -34q-253 0 -406 84q-32 16 -14 48zM125 1495q-15 18 2 31l45 41q19 19 43 4l264 -189l266 187q28 19 46 4 l38 -35q13 -12 13.5 -20.5t-15.5 -26.5l-258 -268q-24 -24 -43 -31.5t-47 -7.5q-45 0 -84 39z" />
<glyph unicode="&#x162;" horiz-adv-x="1136" d="M31 1282v115q0 15 1.5 21.5t8.5 11t22 4.5h1010q22 0 27.5 -8t5.5 -29v-115q0 -21 -5.5 -28t-27.5 -7h-401v-1204q0 -28 -9.5 -35.5t-37.5 -7.5h-123q-26 0 -36.5 8t-10.5 35v1204h-392q-22 0 -27 7t-5 28zM406 -569l30 391q5 37 37 37h178q22 0 32 -12t5 -25l-131 -385 q-8 -25 -14.5 -31t-28.5 -6h-68q-23 0 -32.5 8t-7.5 23z" />
<glyph unicode="&#x163;" horiz-adv-x="770" d="M31 948v68q0 18 6.5 26.5t25.5 12.5l158 32l35 197q3 15 9 23t11.5 11t22.5 9l76 29q18 5 26.5 -1t8.5 -28v-252h215q21 0 26.5 -8t5.5 -25v-94q0 -19 -5 -26t-27 -7h-215v-639q0 -66 30 -94t97 -28q59 0 155 14q19 4 26 -0.5t9 -17.5l21 -107q4 -11 1 -21.5t-20 -15.5 q-90 -29 -227 -29q-159 0 -226 68.5t-67 218.5v651h-146q-21 0 -26.5 8t-5.5 25zM205 -569l31 391q5 37 36 37h179q22 0 31.5 -12t4.5 -25l-131 -385q-8 -25 -14.5 -31t-28.5 -6h-67q-23 0 -33 8t-8 23z" />
<glyph unicode="&#x164;" horiz-adv-x="1136" d="M31 1282v115q0 15 1.5 21.5t8.5 11t22 4.5h1010q22 0 27.5 -8t5.5 -29v-115q0 -21 -5.5 -28t-27.5 -7h-401v-1204q0 -28 -9.5 -35.5t-37.5 -7.5h-123q-26 0 -36.5 8t-10.5 35v1204h-392q-22 0 -27 7t-5 28zM211 1761q-13 16 2 31l33 47q18 18 43 6l276 -131l266 129 q20 9 26.5 9.5t19.5 -5.5l38 -43q27 -24 -2 -47l-258 -203q-43 -34 -90 -34q-39 0 -84 34z" />
<glyph unicode="&#x165;" horiz-adv-x="868" d="M31 948v68q0 18 6.5 26.5t25.5 12.5l158 32l35 197q3 15 9 23t11.5 11t22.5 9l76 29q18 5 26.5 -1t8.5 -28v-252h215q21 0 26.5 -8t5.5 -25v-94q0 -19 -5 -26t-27 -7h-215v-639q0 -66 30 -94t97 -28q59 0 155 14q19 4 26 -0.5t9 -17.5l21 -107q4 -11 1 -21.5t-20 -15.5 q-90 -29 -227 -29q-159 0 -226 68.5t-67 218.5v651h-146q-21 0 -26.5 8t-5.5 25zM639 1192l31 391q5 37 37 37h178q22 0 32 -12t5 -25l-131 -385q-8 -25 -14.5 -31t-28.5 -6h-68q-23 0 -33 8t-8 23z" />
<glyph unicode="&#x166;" horiz-adv-x="1136" d="M31 1282v115q0 15 1.5 21.5t8.5 11t22 4.5h1010q22 0 27.5 -8t5.5 -29v-115q0 -21 -5.5 -28t-27.5 -7h-403v-366h344q18 0 22 -6t4 -25v-78q0 -19 -4 -25t-22 -6h-344v-708q0 -22 -6.5 -27.5t-26.5 -5.5h-145q-21 0 -29 5.5t-8 27.5v708h-338q-18 0 -22.5 6t-4.5 25v78 q0 19 4.5 25t22.5 6h338v366h-392q-22 0 -27 7t-5 28z" />
<glyph unicode="&#x167;" horiz-adv-x="770" d="M31 948v68q0 18 6.5 26.5t25.5 12.5l158 32l35 197q3 15 9 23t11.5 11t22.5 9l76 29q18 5 26.5 -1t8.5 -28v-252h215q21 0 26.5 -8t5.5 -25v-94q0 -19 -5 -26t-27 -7h-215v-235h237q18 0 22.5 -6t4.5 -25v-76q0 -18 -4.5 -24t-22.5 -6h-237v-267q0 -66 30 -94t97 -28 q59 0 155 14q19 4 26 -0.5t9 -17.5l21 -107q4 -11 1 -21.5t-20 -15.5q-90 -29 -227 -29q-159 0 -226 68.5t-67 218.5v279h-137q-18 0 -22.5 6t-4.5 24v76q0 19 4.5 25t22.5 6h137v235h-146q-21 0 -26.5 8t-5.5 25z" />
<glyph unicode="&#x168;" horiz-adv-x="1400" d="M152 1391q0 27 10.5 35t36.5 8h123q28 0 37.5 -7.5t9.5 -35.5v-760q0 -84 6 -144.5t22.5 -116t46 -91.5t76 -63.5t112.5 -39.5t156 -12q142 0 250 22v1205q0 27 10.5 35t36.5 8h123q26 0 32.5 -7t6.5 -36v-1192q0 -86 -37.5 -135t-130.5 -66q-149 -23 -303 -23 q-174 0 -289 32.5t-191 109.5t-109 200.5t-33 309.5zM358.5 1597q-4.5 5 1.5 23q87 152 222 152q50 0 134 -40t120 -40q30 0 53.5 16t34.5 41q7 16 14.5 18.5t24.5 -2.5l79 -22q34 -6 25 -31q-38 -82 -87.5 -123t-129.5 -41q-48 0 -137 37t-135 37q-25 0 -47.5 -15.5 t-34.5 -39.5q-14 -25 -43 -13l-70 31q-20 7 -24.5 12z" />
<glyph unicode="&#x169;" horiz-adv-x="1142" d="M133 498v546q0 22 7.5 27.5t29.5 5.5h127q21 0 29 -5.5t8 -27.5v-540q0 -94 11.5 -153.5t43.5 -106t91.5 -66.5t152.5 -20q92 0 176 14v872q0 22 7.5 27.5t29.5 5.5h127q21 0 29 -5.5t8 -27.5v-876q0 -148 -144 -172q-87 -16 -250 -16q-263 0 -373 119t-110 399z M221 1316.5q-4 4.5 2 22.5q87 152 221 152q51 0 134.5 -40t119.5 -40q30 0 53.5 16t34.5 41q7 17 14.5 19.5t24.5 -2.5l80 -23q34 -6 25 -30q-38 -82 -87.5 -123t-129.5 -41q-49 0 -138 36.5t-135 36.5q-25 0 -47.5 -15.5t-34.5 -39.5q-14 -24 -43 -12l-69 31 q-21 7 -25 11.5z" />
<glyph unicode="&#x16a;" horiz-adv-x="1400" d="M152 1391q0 27 10.5 35t36.5 8h123q28 0 37.5 -7.5t9.5 -35.5v-760q0 -84 6 -144.5t22.5 -116t46 -91.5t76 -63.5t112.5 -39.5t156 -12q142 0 250 22v1205q0 27 10.5 35t36.5 8h123q26 0 32.5 -7t6.5 -36v-1192q0 -86 -37.5 -135t-130.5 -66q-149 -23 -303 -23 q-174 0 -289 32.5t-191 109.5t-109 200.5t-33 309.5zM422 1616v86q0 21 5.5 29t27.5 8h497q22 0 27.5 -8t5.5 -29v-86q0 -22 -5.5 -29.5t-27.5 -7.5h-497q-22 0 -27.5 7.5t-5.5 29.5z" />
<glyph unicode="&#x16b;" horiz-adv-x="1142" d="M133 498v546q0 22 7.5 27.5t29.5 5.5h127q21 0 29 -5.5t8 -27.5v-540q0 -94 11.5 -153.5t43.5 -106t91.5 -66.5t152.5 -20q92 0 176 14v872q0 22 7.5 27.5t29.5 5.5h127q21 0 29 -5.5t8 -27.5v-876q0 -148 -144 -172q-87 -16 -250 -16q-263 0 -373 119t-110 399z M299 1298v86q0 21 5.5 29t27.5 8h497q22 0 27.5 -8t5.5 -29v-86q0 -22 -5.5 -29t-27.5 -7h-497q-22 0 -27.5 7t-5.5 29z" />
<glyph unicode="&#x16c;" horiz-adv-x="1400" d="M152 1391q0 27 10.5 35t36.5 8h123q28 0 37.5 -7.5t9.5 -35.5v-760q0 -84 6 -144.5t22.5 -116t46 -91.5t76 -63.5t112.5 -39.5t156 -12q142 0 250 22v1205q0 27 10.5 35t36.5 8h123q26 0 32.5 -7t6.5 -36v-1192q0 -86 -37.5 -135t-130.5 -66q-149 -23 -303 -23 q-174 0 -289 32.5t-191 109.5t-109 200.5t-33 309.5zM371 1731q-17 23 6 41l45 38q6 4 10.5 6t7.5 3t6.5 -0.5t5.5 -2.5t7.5 -5t9.5 -7q136 -139 250 -139q112 0 252 145q5 5 9 8t8 4.5t6 2.5t5.5 -0.5t4 -2t5 -3.5t5.5 -4l45 -37q24 -22 8 -43q-88 -116 -179.5 -171 t-176.5 -55q-182 0 -340 222z" />
<glyph unicode="&#x16d;" horiz-adv-x="1142" d="M133 498v546q0 22 7.5 27.5t29.5 5.5h127q21 0 29 -5.5t8 -27.5v-540q0 -94 11.5 -153.5t43.5 -106t91.5 -66.5t152.5 -20q92 0 176 14v872q0 22 7.5 27.5t29.5 5.5h127q21 0 29 -5.5t8 -27.5v-876q0 -148 -144 -172q-87 -16 -250 -16q-263 0 -373 119t-110 399z M227 1411q-17 23 6 41l46 39q6 4 10.5 6t7.5 3t6.5 -0.5t5.5 -2.5t7.5 -5t9.5 -7q136 -139 249 -139q112 0 252 145q6 6 11 9t8 4.5t7 0.5t5 -1.5t6 -4t6 -4.5l45 -37q24 -22 9 -43q-88 -116 -180 -170.5t-177 -54.5q-182 0 -340 221z" />
<glyph unicode="&#x16e;" horiz-adv-x="1400" d="M152 1391q0 27 10.5 35t36.5 8h123q28 0 37.5 -7.5t9.5 -35.5v-760q0 -84 6 -144.5t22.5 -116t46 -91.5t76 -63.5t112.5 -39.5t156 -12q142 0 250 22v1205q0 27 10.5 35t36.5 8h123q26 0 32.5 -7t6.5 -36v-1192q0 -86 -37.5 -135t-130.5 -66q-149 -23 -303 -23 q-174 0 -289 32.5t-191 109.5t-109 200.5t-33 309.5zM506 1688q0 86 60 142t149 56t149 -56t60 -142t-60.5 -142.5t-148.5 -56.5q-89 0 -149 56t-60 143zM608 1688q0 -47 30 -77t77 -30t76.5 30t29.5 77t-29.5 76.5t-76.5 29.5t-77 -29.5t-30 -76.5z" />
<glyph unicode="&#x16f;" horiz-adv-x="1142" d="M133 498v546q0 22 7.5 27.5t29.5 5.5h127q21 0 29 -5.5t8 -27.5v-540q0 -94 11.5 -153.5t43.5 -106t91.5 -66.5t152.5 -20q92 0 176 14v872q0 22 7.5 27.5t29.5 5.5h127q21 0 29 -5.5t8 -27.5v-876q0 -148 -144 -172q-87 -16 -250 -16q-263 0 -373 119t-110 399z M373 1384q0 86 60.5 142.5t148.5 56.5t148.5 -56.5t60.5 -142.5t-60 -142t-149 -56t-149 55.5t-60 142.5zM475 1384q0 -47 30 -76.5t77 -29.5t76.5 29.5t29.5 76.5t-29.5 77t-76.5 30t-77 -30t-30 -77z" />
<glyph unicode="&#x170;" horiz-adv-x="1400" d="M152 1391q0 27 10.5 35t36.5 8h123q28 0 37.5 -7.5t9.5 -35.5v-760q0 -84 6 -144.5t22.5 -116t46 -91.5t76 -63.5t112.5 -39.5t156 -12q142 0 250 22v1205q0 27 10.5 35t36.5 8h123q26 0 32.5 -7t6.5 -36v-1192q0 -86 -37.5 -135t-130.5 -66q-149 -23 -303 -23 q-174 0 -289 32.5t-191 109.5t-109 200.5t-33 309.5zM393.5 1634.5q1.5 8.5 18.5 20.5l288 215q9 7 14 9t14 0t17 -13l99 -119q23 -23 -4 -35l-338 -156q-21 -7 -30.5 -4.5t-20.5 13.5l-48 49q-11 12 -9.5 20.5zM793 1634.5q1 8.5 18 20.5l289 215q9 7 14 9t14 0t17 -13 l98 -119q23 -23 -4 -35l-338 -156q-21 -7 -30.5 -4.5t-20.5 13.5l-47 49q-11 12 -10 20.5z" />
<glyph unicode="&#x171;" horiz-adv-x="1142" d="M133 498v546q0 22 7.5 27.5t29.5 5.5h127q21 0 29 -5.5t8 -27.5v-540q0 -94 11.5 -153.5t43.5 -106t91.5 -66.5t152.5 -20q92 0 176 14v872q0 22 7.5 27.5t29.5 5.5h127q21 0 29 -5.5t8 -27.5v-876q0 -148 -144 -172q-87 -16 -250 -16q-263 0 -373 119t-110 399z M320 1224q-2 7 8 27l135 324q12 27 43 20l158 -43q31 -8 14 -32l-225 -314q-12 -17 -21 -20t-26 2l-66 24q-18 5 -20 12zM613 1224q-2 7 8 27l135 324q12 27 43 20l157 -43q32 -8 15 -32l-226 -314q-12 -17 -21 -20t-26 2l-65 24q-18 5 -20 12z" />
<glyph unicode="&#x172;" horiz-adv-x="1400" d="M152 1391q0 27 10.5 35t36.5 8h123q28 0 37.5 -7.5t9.5 -35.5v-760q0 -84 6 -144.5t22.5 -116t46 -91.5t76 -63.5t112.5 -39.5t156 -12q142 0 250 22v1205q0 27 10.5 35t36.5 8h123q26 0 32.5 -7t6.5 -36v-1192q0 -86 -37.5 -135t-130.5 -66q-114 -19 -248 -23 q-106 -126 -106 -221q0 -39 24.5 -53t77.5 -14q23 0 101 16q17 6 23 4t10 -18l14 -43q4 -18 1 -24t-15 -11q-34 -16 -89 -28.5t-106 -12.5q-100 0 -148.5 41.5t-50.5 109.5q-2 66 33.5 136.5t95.5 119.5q-200 8 -316.5 73.5t-171 204t-54.5 372.5z" />
<glyph unicode="&#x173;" horiz-adv-x="1142" d="M133 498v546q0 22 7.5 27.5t29.5 5.5h127q21 0 29 -5.5t8 -27.5v-540q0 -94 11.5 -153.5t43.5 -106t91.5 -66.5t152.5 -20q92 0 176 14v872q0 22 7.5 27.5t29.5 5.5h127q21 0 29 -5.5t8 -27.5v-876q0 -115 -84 -156q-119 -136 -119 -235q0 -39 24.5 -53.5t77.5 -14.5 q18 0 101 17q22 6 26 1q3 -4 6 -16l15 -43q9 -25 -15 -35q-89 -41 -194 -41q-100 0 -148.5 42t-50.5 110q-1 60 29 125t82 117q-51 -6 -144 -6q-263 0 -373 119t-110 399z" />
<glyph unicode="&#x174;" horiz-adv-x="1712" d="M33 1407q-10 29 18 29h166q33 0 39 -27l150 -829l57 -330h12l66 325l157 758q9 48 36 75.5t85 27.5h88q50 0 75.5 -27t37.5 -76l151 -747l66 -336h12l62 338l151 821q6 27 39 27h160q24 0 18 -29l-276 -1323q-10 -50 -37.5 -67t-79.5 -17h-100q-42 0 -65 25t-34 75 l-161 770l-64 326h-8l-66 -328l-163 -768q-11 -50 -34 -75t-65 -25h-100q-52 0 -79.5 17t-37.5 67zM514 1575q-17 21 0 33l260 209q45 36 84 36q48 0 90 -36l250 -209q25 -19 4 -43l-33 -39q-2 -3 -4 -4.5t-4 -2.5t-5 -0.5t-4.5 0.5t-5.5 1.5t-6.5 2.5t-7.5 3.5t-8 3.5 l-268 127l-266 -131q-22 -11 -39 6z" />
<glyph unicode="&#x175;" horiz-adv-x="1538" d="M43 1057q-6 22 18 22h156q16 0 21 -4t10 -16l102 -553l56 -297h12l78 268l131 475q9 27 17.5 42.5t33 29.5t61.5 14h70q45 0 64.5 -22t33.5 -70l123 -436l90 -320h13l55 316l102 553q5 12 10 16t21 4h156q24 0 18 -22l-213 -969q-12 -58 -41 -78t-74 -20h-82 q-53 0 -72.5 17t-37.5 73l-111 377l-92 348h-8l-94 -361l-111 -364q-13 -47 -36 -68.5t-74 -21.5h-89q-43 0 -68 20t-38 78zM418 1257l270 273q39 39 84 39q28 0 47 -7.5t43 -31.5l258 -268q27 -27 2 -48l-39 -34q-17 -14 -45 4l-266 186l-266 -192q-24 -15 -43 4l-43 45 q-14 14 -2 30z" />
<glyph unicode="&#x176;" horiz-adv-x="1183" d="M24 1427q4 9 17 9h174q18 0 26.5 -5.5t18.5 -23.5l174 -332l162 -321h8l170 336l166 317q16 29 45 29h162q11 0 15 -9t-1 -16l-461 -844v-534q0 -22 -6.5 -27.5t-27.5 -5.5h-136q-21 0 -28.5 5.5t-7.5 27.5v534l-469 844q-5 7 -1 16zM254 1575q-17 21 0 33l260 209 q45 36 84 36q48 0 90 -36l250 -209q25 -19 4 -43l-33 -39q-2 -3 -4 -4.5t-4 -2.5t-5 -0.5t-4.5 0.5t-5.5 1.5t-6.5 2.5t-7.5 3.5t-8 3.5l-268 127l-266 -131q-22 -11 -39 6z" />
<glyph unicode="&#x177;" horiz-adv-x="1021" d="M23 1053q-6 22 18 22h158q16 0 20.5 -3.5t9.5 -16.5l156 -506l111 -379h12l123 381l168 504q4 9 5.5 12t7.5 5.5t17 2.5h152q24 0 18 -22l-405 -1225q-46 -138 -124 -197t-202 -59q-85 0 -168 22q-33 9 -24 35l24 103q4 18 12 21.5t25 -1.5q66 -14 101 -14 q75 0 117.5 29.5t66.5 103.5l47 141h-43q-20 0 -31 1.5t-25 9t-24.5 25t-19.5 46.5zM164 1268l270 272q39 39 84 39q28 0 47 -7.5t43 -31.5l258 -268q26 -26 2 -47l-39 -35q-17 -14 -45 4l-266 186l-266 -192q-24 -15 -43 4l-43 45q-15 15 -2 31z" />
<glyph unicode="&#x178;" horiz-adv-x="1183" d="M24 1427q4 9 17 9h174q18 0 26.5 -5.5t18.5 -23.5l174 -332l162 -321h8l170 336l166 317q16 29 45 29h162q11 0 15 -9t-1 -16l-461 -844v-534q0 -22 -6.5 -27.5t-27.5 -5.5h-136q-21 0 -28.5 5.5t-7.5 27.5v534l-469 844q-5 7 -1 16zM287 1686q0 45 38 82.5t85 37.5 t84.5 -36.5t37.5 -83.5t-37.5 -84t-84.5 -37t-85 37.5t-38 83.5zM664 1686q0 45 37.5 82.5t84.5 37.5q48 0 85.5 -36.5t37.5 -83.5t-37 -84t-84 -37q-49 0 -86.5 37t-37.5 84z" />
<glyph unicode="&#x179;" horiz-adv-x="1263" d="M61 100v33q0 40 11.5 66t38.5 57l833 991l-4 6h-739q-22 0 -27.5 7t-5.5 28v111q0 21 5.5 29t27.5 8h848q62 0 90 -24t28 -83v-43q0 -66 -57 -133l-803 -958l4 -13h842q22 0 27.5 -7.5t5.5 -29.5v-108q0 -22 -5.5 -29.5t-27.5 -7.5h-979q-113 0 -113 100zM502 1615.5 q1 8.5 18 20.5l295 217q9 7 14 9t14 0t17 -13l94 -131q23 -23 -4 -35l-348 -155q-31 -12 -51 8l-39 59q-11 12 -10 20.5z" />
<glyph unicode="&#x17a;" horiz-adv-x="956" d="M41 78v33q0 70 43 118l602 676l-2 6h-559q-22 0 -28.5 7t-6.5 26v98q0 16 7 24.5t28 8.5h694q54 0 75 -18.5t21 -65.5v-37q0 -61 -36 -102l-609 -684l2 -4h607q21 0 27.5 -8.5t6.5 -24.5v-98q0 -19 -6 -26t-28 -7h-750q-88 0 -88 78zM406 1224q-2 7 8 27l135 324 q12 27 43 20l158 -43q31 -8 14 -32l-225 -314q-12 -17 -21 -20t-26 2l-66 24q-18 5 -20 12z" />
<glyph unicode="&#x17b;" horiz-adv-x="1263" d="M61 100v33q0 40 11.5 66t38.5 57l833 991l-4 6h-739q-22 0 -27.5 7t-5.5 28v111q0 21 5.5 29t27.5 8h848q62 0 90 -24t28 -83v-43q0 -66 -57 -133l-803 -958l4 -13h842q22 0 27.5 -7.5t5.5 -29.5v-108q0 -22 -5.5 -29.5t-27.5 -7.5h-979q-113 0 -113 100zM541 1659 q0 51 37.5 89t91.5 38q51 0 90 -38t39 -89t-39 -89t-90 -38q-54 0 -91.5 38t-37.5 89z" />
<glyph unicode="&#x17c;" horiz-adv-x="956" d="M41 78v33q0 70 43 118l602 676l-2 6h-559q-22 0 -28.5 7t-6.5 26v98q0 16 7 24.5t28 8.5h694q54 0 75 -18.5t21 -65.5v-37q0 -61 -36 -102l-609 -684l2 -4h607q21 0 27.5 -8.5t6.5 -24.5v-98q0 -19 -6 -26t-28 -7h-750q-88 0 -88 78zM381 1368q0 52 37.5 89.5t91.5 37.5 q51 0 90 -38t39 -89t-39 -89t-90 -38q-54 0 -91.5 37.5t-37.5 89.5z" />
<glyph unicode="&#x17d;" horiz-adv-x="1263" d="M61 100v33q0 40 11.5 66t38.5 57l833 991l-4 6h-739q-22 0 -27.5 7t-5.5 28v111q0 21 5.5 29t27.5 8h848q62 0 90 -24t28 -83v-43q0 -66 -57 -133l-803 -958l4 -13h842q22 0 27.5 -7.5t5.5 -29.5v-108q0 -22 -5.5 -29.5t-27.5 -7.5h-979q-113 0 -113 100zM328 1761 q-13 16 2 31l32 47q19 19 44 6l276 -131l266 129q20 9 26 9.5t19 -5.5l39 -43q27 -24 -2 -47l-258 -203q-43 -34 -90 -34q-39 0 -84 34z" />
<glyph unicode="&#x17e;" horiz-adv-x="956" d="M41 78v33q0 70 43 118l602 676l-2 6h-559q-22 0 -28.5 7t-6.5 26v98q0 16 7 24.5t28 8.5h694q54 0 75 -18.5t21 -65.5v-37q0 -61 -36 -102l-609 -684l2 -4h607q21 0 27.5 -8.5t6.5 -24.5v-98q0 -19 -6 -26t-28 -7h-750q-88 0 -88 78zM145 1495q-15 18 2 31l46 41 q19 19 43 4l264 -189l266 187q28 18 45 4l39 -35q13 -12 13.5 -20.5t-15.5 -26.5l-258 -268q-24 -24 -43 -31.5t-47 -7.5q-45 0 -84 39z" />
<glyph unicode="&#x192;" horiz-adv-x="1060" d="M-30.5 -144.5q0.5 6.5 1 8l4.5 13.5l29 103q9 24 35 18q66 -12 117 -12q72 0 107.5 56t58.5 167q20 94 50.5 297t33.5 223h-168q-21 0 -25 8t-2 25v76q0 39 39 39h178q3 12 9.5 61.5t11.5 75.5q9 58 22.5 106.5t41 104.5t65 93.5t98.5 63t137 25.5q123 0 203 -25 q15 -4 16.5 -14.5t-2.5 -21.5l-16 -107q-1 -12 -13 -17.5t-26 -0.5q-77 14 -133 14q-94 0 -138 -48.5t-65 -162.5q-8 -37 -14.5 -86t-8.5 -59h224q19 0 24.5 -7t5.5 -26l-2 -84q-2 -16 -10 -24.5t-29 -8.5h-233q-9 -51 -37 -245.5t-47 -278.5q-12 -54 -20.5 -87t-22 -75.5 t-26.5 -68t-32.5 -55t-43 -46t-54.5 -31.5t-70 -21.5t-87 -6.5q-102 0 -170 26q-8 3 -12.5 6t-4 9.5z" />
<glyph unicode="&#x1a0;" horiz-adv-x="1552" d="M113 715q0 174 47 315.5t130 234t195 142t244 49.5q297 0 457 -192q85 5 122.5 55t37.5 172v80q0 23 9 30t29 7h93q19 0 26.5 -7t7.5 -30v-86q0 -309 -239 -363q74 -168 74 -399q0 -363 -158.5 -554.5t-464.5 -191.5q-301 0 -455.5 186t-154.5 552zM326 723 q0 -131 20 -228.5t65 -173t123.5 -114.5t190.5 -39q90 0 161 30t116 80.5t74.5 122t41.5 148.5t12 166q0 93 -9.5 168.5t-36 149t-69.5 123t-114 80t-166 30.5q-101 0 -180 -43t-128.5 -117.5t-75 -172t-25.5 -210.5z" />
<glyph unicode="&#x1a1;" horiz-adv-x="1296" d="M92 537q0 262 137 411.5t349 149.5q267 0 391 -191q84 6 120.5 56.5t36.5 171.5v79q0 23 9.5 30t29.5 7h92q20 0 27.5 -7.5t7.5 -29.5v-86q0 -322 -260 -368q29 -106 29 -217q0 -276 -124.5 -421t-365.5 -145q-236 0 -357.5 141.5t-121.5 418.5zM293 543q0 -93 14 -163 t45 -124.5t86.5 -82.5t134.5 -28q63 0 112.5 21.5t81.5 57.5t53 87.5t29.5 106.5t8.5 119q0 66 -6.5 120t-25.5 106.5t-49 88t-79.5 57t-115.5 21.5q-141 0 -215 -109t-74 -278z" />
<glyph unicode="&#x1af;" horiz-adv-x="1599" d="M154 627v774q0 22 4 27.5t16 5.5h168q9 0 14 -1.5t9 -9t4 -22.5v-770q0 -84 6 -144.5t22.5 -116t46 -91.5t76 -63.5t112.5 -39.5t156 -12q142 0 250 22v1215q0 22 5 27.5t20 5.5h164q12 0 16 -5.5t4 -27.5v-137h13q100 0 137 47t37 180v80q0 23 9.5 30t29.5 7h92 q19 0 26.5 -7t7.5 -30v-86q0 -183 -77 -279t-258 -96h-17v-911q0 -86 -37.5 -135t-130.5 -66q-149 -23 -303 -23q-174 0 -289 32.5t-191 109.5t-109 200.5t-33 309.5z" />
<glyph unicode="&#x1b0;" horiz-adv-x="1357" d="M133 498v546q0 22 7.5 27.5t29.5 5.5h127q21 0 29 -5.5t8 -27.5v-540q0 -94 11.5 -153.5t43.5 -106t91.5 -66.5t152.5 -20q92 0 176 14v872q0 22 7.5 27.5t29.5 5.5h127q21 0 29 -5.5t8 -27.5v-137h14q88 0 126 48.5t38 179.5v79q0 23 9.5 30t29.5 7h92q20 0 27.5 -7.5 t7.5 -29.5v-86q0 -374 -326 -374h-18v-586q0 -148 -144 -172q-87 -16 -250 -16q-263 0 -373 119t-110 399z" />
<glyph unicode="&#x1fc;" horiz-adv-x="1767" d="M39 29l407 1185q13 37 28 65.5t43 59.5t63 51t90 33t123 13h843q22 0 27.5 -8t5.5 -29v-117q0 -22 -5.5 -28.5t-27.5 -6.5h-501q-84 0 -121 -37t-37 -116v-242h598q22 0 27.5 -7.5t5.5 -29.5v-108q0 -21 -5.5 -29t-27.5 -8h-598v-326q0 -151 158 -151h516q22 0 27 -7.5 t5 -29.5v-119q0 -15 -1.5 -21.5t-8.5 -11t-22 -4.5h-533q-175 0 -257 82t-93 246h-408l-100 -301q-9 -27 -39 -27h-164q-28 0 -18 29zM410 498h358v579q0 136 29 178q-83 0 -120 -22.5t-56 -73.5l-74 -225zM932 1615.5q1 8.5 18 20.5l295 217q9 7 14 9t14 0t17 -13l94 -131 q23 -23 -4 -35l-348 -155q-31 -12 -51 8l-39 59q-11 12 -10 20.5z" />
<glyph unicode="&#x1fd;" horiz-adv-x="1789" d="M125 299q0 50 10.5 96t39 94.5t73.5 83.5t120.5 57.5t172.5 22.5h250q49 271 -232 271q-133 0 -276 -41q-20 -7 -30.5 -4.5t-14.5 20.5l-27 100q-10 30 18 39q152 60 365 60q244 0 336 -144q63 69 150.5 106.5t185.5 37.5q211 0 323.5 -115.5t120.5 -312.5 q4 -96 -44.5 -136t-125.5 -40h-557q2 -105 26.5 -175.5t69.5 -105.5t95 -48t120 -13q64 0 131 17t111 42q31 15 43 -12l49 -97q14 -32 -12 -47q-129 -78 -336 -78q-174 0 -319 101q-86 -52 -209 -76.5t-232 -24.5q-102 0 -177 21t-116 51.5t-65 76.5t-30.5 85t-6.5 88z M328 299q0 -162 200 -162q31 0 76.5 4t118 20.5t121.5 43.5q-61 120 -64 289h-215q-44 0 -82.5 -8.5t-75 -29t-58 -61t-21.5 -96.5zM858.5 1224q-2.5 7 7.5 27l135 324q12 27 43 20l158 -43q32 -8 15 -32l-226 -314q-12 -17 -21 -20t-26 2l-65 24q-18 5 -20.5 12zM991 653 h529q0 40 -6.5 77t-24.5 74.5t-46 64.5t-74 44t-105 17q-123 0 -194 -78t-79 -199z" />
<glyph unicode="&#x1fe;" horiz-adv-x="1458" d="M113 715q0 174 47 315.5t130 234t195 142t244 49.5q234 0 387 -125l96 127q19 25 43 4l41 -28q11 -11 11.5 -16t-9.5 -23l-106 -140q154 -192 154 -532q0 -363 -158.5 -554.5t-464.5 -191.5q-250 0 -397 129l-82 -108q-16 -20 -39 -4l-43 26q-20 14 -2 41l92 123 q-139 189 -139 531zM326 723q0 -229 63 -358l608 806q-95 95 -262 95q-101 0 -180 -43t-128.5 -117.5t-75 -172t-25.5 -210.5zM451 272q96 -104 282 -104q90 0 159.5 30t114 80.5t72.5 122t39.5 148.5t11.5 166q0 235 -67 366zM631 1615.5q1 8.5 18 20.5l295 217q9 7 14 9 t14 0t17 -13l94 -131q23 -23 -4 -35l-348 -155q-31 -12 -51 8l-39 59q-11 12 -10 20.5z" />
<glyph unicode="&#x1ff;" horiz-adv-x="1153" d="M92 537q0 262 137 411.5t349 149.5q200 0 321 -109l76 88q15 15 37 2l37 -37q11 -7 11 -13.5t-11 -18.5l-84 -97q96 -146 96 -370q0 -276 -124.5 -421t-365.5 -145q-204 0 -325 109l-68 -78q-18 -18 -33 -2l-39 35q-22 16 0 35l74 86q-88 131 -88 375zM293 543 q0 -140 29 -219l454 526q-67 80 -194 80q-141 0 -215 -109t-74 -278zM371 229q66 -84 202 -84q63 0 112.5 21.5t81.5 57.5t53 87.5t29.5 106.5t8.5 119q0 134 -31 219zM512 1224q-2 7 8 27l135 324q12 27 43 20l158 -43q31 -8 14 -32l-225 -314q-12 -17 -21 -20t-26 2 l-66 24q-18 5 -20 12z" />
<glyph unicode="&#x218;" horiz-adv-x="1181" d="M82 125l55 125q12 23 37 14q224 -96 410 -96q321 0 321 213q0 49 -19 86.5t-63.5 70t-95.5 58t-137 59.5q-123 48 -202 88.5t-142 91t-91 110.5t-28 136q0 175 115 276t333 101q109 0 231.5 -22t213.5 -60q24 -12 14 -35l-47 -131q-6 -16 -12.5 -19t-16.5 3 q-204 72 -391 72q-112 0 -169.5 -47.5t-57.5 -120.5q0 -26 8 -48.5t19.5 -40.5t38 -38t48.5 -34t68 -35.5t79.5 -36.5t98.5 -42h1l1 -1h1q173 -74 246 -123q161 -110 172 -282q1 -14 1 -28q0 -104 -39.5 -184t-109 -129t-159 -74t-193.5 -25q-319 0 -529 105q-25 9 -10 43z M459 -569l30 391q5 37 37 37h179q22 0 31.5 -12t4.5 -25l-131 -385q-8 -25 -14.5 -31t-28.5 -6h-67q-23 0 -33 8t-8 23z" />
<glyph unicode="&#x219;" horiz-adv-x="968" d="M78 109l43 96q8 18 16.5 21.5t32.5 -5.5q165 -74 328 -74q95 0 145.5 37.5t50.5 104.5q0 64 -56 104t-185 86q-180 66 -256 133t-76 185q0 138 98 219.5t275 81.5q171 0 323 -60q13 -6 18.5 -18.5t0.5 -24.5l-43 -108q-9 -21 -35 -10q-82 30 -140.5 40.5t-130.5 10.5 q-83 0 -126.5 -34t-43.5 -85q0 -60 47.5 -94.5t184.5 -87.5q60 -21 99.5 -38t89 -46.5t79 -61.5t50 -79.5t20.5 -104.5q0 -105 -53.5 -178.5t-139.5 -107.5t-196 -34q-253 0 -406 84q-32 16 -14 48zM346 -569l31 391q5 37 37 37h178q22 0 32 -12t5 -25l-131 -385 q-8 -25 -14.5 -31t-28.5 -6h-68q-23 0 -33 8t-8 23z" />
<glyph unicode="&#x259;" horiz-adv-x="1110" d="M92 426q0 176 170 176h557q-4 168 -89 246t-222 78q-64 0 -131 -17.5t-111 -42.5q-30 -15 -43 13l-49 96q-14 32 12 47q129 78 336 78q242 0 371 -136t129 -419q0 -131 -37 -238.5t-101.5 -178.5t-152 -109.5t-188.5 -38.5q-226 0 -338.5 118t-112.5 328zM283 442 q0 -65 11.5 -115t39.5 -92.5t80 -65t127 -22.5q82 0 143.5 44.5t91.5 109.5t35 141h-528z" />
<glyph unicode="&#x2b9;" horiz-adv-x="401" d="M113 956l262 580q12 27 43 20l174 -26q32 -8 14 -33l-389 -582q-12 -17 -22 -21t-27 1l-43 23q-28 9 -12 38z" />
<glyph unicode="&#x2c6;" horiz-adv-x="1173" d="M231 1257l271 273q39 39 84 39q28 0 47 -7.5t43 -31.5l258 -268q27 -27 2 -48l-39 -34q-17 -14 -45 4l-266 186l-267 -192q-24 -15 -43 4l-43 45q-14 14 -2 30z" />
<glyph unicode="&#x2c7;" horiz-adv-x="1173" d="M231 1483q-14 17 2 30l46 41q20 20 43 5l264 -189l266 186q28 19 45 5l39 -35q13 -12 13.5 -20.5t-15.5 -26.5l-258 -269q-24 -24 -43 -31.5t-47 -7.5q-45 0 -84 39z" />
<glyph unicode="&#x2d8;" horiz-adv-x="1173" d="M238 1411q-17 23 6 41l45 39q6 4 10.5 6t7.5 3t6.5 -0.5t5.5 -2.5t7.5 -5t9.5 -7q136 -139 250 -139q112 0 252 145q6 6 11 9t8 4.5t7 0.5t5 -1.5t6 -4t6 -4.5l45 -37q24 -22 8 -43q-88 -116 -179.5 -170.5t-176.5 -54.5q-182 0 -340 221z" />
<glyph unicode="&#x2d9;" horiz-adv-x="1097" d="M414 1372q0 52 38 89.5t91 37.5q51 0 90 -38t39 -89t-39 -89t-90 -38q-53 0 -91 37.5t-38 89.5z" />
<glyph unicode="&#x2da;" horiz-adv-x="1097" d="M381 1384q0 86 60.5 142.5t148.5 56.5t148.5 -56.5t60.5 -142.5t-60 -142t-149 -56t-149 55.5t-60 142.5zM483 1384q0 -47 30 -76.5t77 -29.5t76.5 29.5t29.5 76.5t-29.5 77t-76.5 30t-77 -30t-30 -77z" />
<glyph unicode="&#x2db;" horiz-adv-x="1007" d="M350 -279q0 80 50.5 164t129.5 129q23 13 35 13h68q26 -3 6 -23q-65 -71 -98 -137.5t-33 -112.5q0 -39 24.5 -53t77.5 -14q23 0 101 16q17 6 22.5 4t9.5 -18l15 -43q9 -25 -15 -35q-89 -41 -194 -41q-100 0 -148.5 41.5t-50.5 109.5z" />
<glyph unicode="&#x2dc;" horiz-adv-x="1167" d="M234 1316q-4 5 2 23q87 152 221 152q50 0 134.5 -40t119.5 -40q30 0 53.5 16t34.5 41q7 17 14.5 19.5t24.5 -2.5l80 -23q33 -6 24 -30q-38 -82 -87.5 -123t-129.5 -41q-49 0 -138 36.5t-134 36.5q-25 0 -47.5 -15.5t-34.5 -39.5q-14 -24 -43 -12l-70 31q-20 6 -24 11z " />
<glyph unicode="&#x2dd;" horiz-adv-x="1122" d="M340 1224q-2 7 8 27l135 324q12 27 43 20l158 -43q31 -8 14 -32l-225 -314q-12 -17 -21 -20t-26 2l-66 24q-18 5 -20 12zM633 1224q-2 7 8 27l135 324q12 27 43 20l158 -43q31 -8 14 -32l-225 -314q-12 -17 -21 -20t-26 2l-66 24q-18 5 -20 12z" />
<glyph unicode="&#x384;" horiz-adv-x="989" d="M418 1224.5q-2 6.5 8 26.5l135 324q12 27 43 20l158 -43q31 -8 14 -32l-225 -314q-12 -17 -21 -20t-26 2l-66 24q-18 6 -20 12.5z" />
<glyph unicode="&#x385;" horiz-adv-x="1132" d="M160 1372q0 51 38.5 89t92.5 38q52 0 89.5 -37t37.5 -90q0 -51 -38 -89t-89 -38q-54 0 -92.5 38t-38.5 89zM434 1231l70 336q4 10 6.5 14t11 8t23.5 4l164 -22q29 -3 20 -31l-164 -338q-11 -19 -19 -23.5t-26 -0.5l-55 14q-15 4 -20.5 6t-9.5 10t-1 23zM717 1372 q0 52 37.5 89.5t91.5 37.5t91.5 -36.5t37.5 -90.5q0 -52 -37.5 -89.5t-91.5 -37.5t-91.5 37.5t-37.5 89.5z" />
<glyph unicode="&#x386;" horiz-adv-x="1302" d="M-59 1122.5q-2 6.5 8 26.5l135 324q12 27 43 20l158 -43q32 -8 14 -33l-225 -313q-12 -17 -21 -20.5t-26 1.5l-66 25q-18 6 -20 12.5zM41 13q-7 13 0 30l455 1305q19 54 40.5 71.5t75.5 18.5h68q59 0 82 -18t41 -72l457 -1305q6 -18 -1 -30.5t-26 -12.5h-154q-19 0 -27 1 t-15.5 8.5t-12.5 23.5l-96 291h-555l-97 -291q-6 -18 -16.5 -25.5t-32.5 -7.5h-157q-22 0 -29 13zM428 510h438l-125 395l-92 291h-10l-86 -281z" />
<glyph unicode="&#x387;" horiz-adv-x="559" d="M119 936q0 68 46.5 115t113.5 47q71 0 117 -46t46 -116q0 -68 -47 -115t-116 -47q-68 0 -114 46.5t-46 115.5z" />
<glyph unicode="&#x388;" horiz-adv-x="1142" d="M-301 1122.5q-2 6.5 8 26.5l135 324q12 27 43 20l158 -43q32 -8 14 -33l-225 -313q-12 -17 -21 -20.5t-26 1.5l-66 25q-18 6 -20 12.5zM139 360v713q0 74 20.5 137.5t61.5 115t111.5 81t163.5 29.5h561q27 0 35 -10.5t8 -36.5v-99q0 -28 -7.5 -36.5t-35.5 -8.5h-561 q-78 0 -112 -33.5t-34 -107.5v-252h639q25 0 33 -10t8 -37v-86q0 -25 -8 -36t-33 -11h-639v-340q0 -65 35.5 -102t110.5 -37h569q28 0 35.5 -10t7.5 -38v-98q0 -26 -8 -36.5t-35 -10.5h-569q-101 0 -173 29t-111 81t-56 113t-17 137z" />
<glyph unicode="&#x389;" horiz-adv-x="1386" d="M-327 1122.5q-2 6.5 8 26.5l135 324q12 27 43 20l157 -43q33 -8 15 -33l-226 -313q-12 -17 -21 -20.5t-26 1.5l-65 25q-18 6 -20 12.5zM135 43v1348q0 27 10.5 35t36.5 8h119q28 0 37.5 -7.5t9.5 -35.5v-545h688v545q0 27 10.5 35t36.5 8h119q28 0 37.5 -7.5t9.5 -35.5 v-1348q0 -28 -9.5 -35.5t-37.5 -7.5h-119q-26 0 -36.5 8t-10.5 35v621h-688v-621q0 -28 -9.5 -35.5t-37.5 -7.5h-119q-26 0 -36.5 8t-10.5 35z" />
<glyph unicode="&#x38a;" horiz-adv-x="589" d="M-270 1122.5q-2 6.5 8 26.5l135 324q12 27 43 20l158 -43q32 -8 14 -33l-225 -313q-12 -17 -21 -20.5t-26 1.5l-66 25q-18 6 -20 12.5zM193 43v1348q0 27 10.5 35t36.5 8h118q28 0 38 -7.5t10 -35.5v-1348q0 -28 -10 -35.5t-38 -7.5h-118q-26 0 -36.5 8t-10.5 35z" />
<glyph unicode="&#x38c;" horiz-adv-x="1478" d="M-223 1122.5q-2 6.5 8 26.5l135 324q12 27 43 20l158 -43q32 -8 14 -33l-225 -313q-12 -17 -21 -20.5t-26 1.5l-66 25q-18 6 -20 12.5zM119 715q0 174 47 315.5t130 234t195 142t244 49.5q298 0 457.5 -193.5t159.5 -539.5q0 -363 -158.5 -554.5t-464.5 -191.5 q-301 0 -455.5 186t-154.5 552zM332 723q0 -131 20 -228.5t65 -173t123.5 -114.5t190.5 -39q90 0 161 30t116.5 80.5t75 122t41.5 148.5t12 166q0 93 -9.5 168.5t-36 149t-70 123t-114.5 80t-166 30.5q-101 0 -180 -43t-128.5 -117.5t-75 -172t-25.5 -210.5z" />
<glyph unicode="&#x38e;" horiz-adv-x="1236" d="M-399 1122.5q-2 6.5 8 26.5l135 324q12 27 43 20l158 -43q32 -8 14 -33l-225 -313q-12 -17 -21 -20.5t-26 1.5l-66 25q-18 6 -20 12.5zM3 1427q4 9 17 9h175q18 0 26.5 -5.5t18.5 -23.5l174 -332l161 -321h9l170 336l166 317q16 29 45 29h161q11 0 15.5 -9t-0.5 -16 l-461 -844v-534q0 -22 -6.5 -27.5t-28.5 -5.5h-135q-21 0 -29 5.5t-8 27.5v534l-469 844q-5 7 -1 16z" />
<glyph unicode="&#x38f;" horiz-adv-x="1523" d="M-163.5 1122.5q-2.5 6.5 7.5 26.5l136 324q12 27 43 20l157 -43q33 -8 15 -33l-226 -313q-12 -17 -21 -20.5t-26 1.5l-65 25q-18 6 -20.5 12.5zM92 37v108q0 21 7.5 29t29.5 8h209l4 6q-207 175 -207 547q0 207 77.5 370.5t222.5 257t333 93.5q194 0 337 -90.5 t217.5 -253t74.5 -377.5q0 -346 -213 -547l4 -6h207q22 0 29.5 -8t7.5 -29v-108q0 -21 -7.5 -29t-29.5 -8h-391q-52 0 -78.5 21t-26.5 73v41q0 38 15.5 58t68.5 61q109 83 154 201.5t45 277.5q0 247 -105 389t-309 142q-193 0 -303.5 -145t-110.5 -382q0 -148 43 -264.5 t158 -208.5q59 -46 72.5 -65.5t13.5 -57.5v-39q0 -102 -96 -102h-416q-22 0 -29.5 8t-7.5 29z" />
<glyph unicode="&#x390;" horiz-adv-x="571" d="M-131 1372q0 51 38.5 89t92.5 38q52 0 89.5 -37t37.5 -90q0 -51 -38 -89t-89 -38q-54 0 -92.5 38t-38.5 89zM143 1231l70 336q4 10 6.5 14t11 8t23.5 4l164 -22q29 -3 20 -31l-164 -338q-11 -19 -19 -23.5t-26 -0.5l-55 14q-15 4 -20.5 6t-9.5 10t-1 23zM154 188v854 q0 23 5.5 28t26.5 5h131q22 0 29.5 -5.5t7.5 -27.5v-798q0 -54 15 -72t53 -18q28 0 74 4q18 2 23.5 -2t6.5 -21l13 -90q2 -20 -1.5 -26.5t-21.5 -16.5q-55 -25 -168 -25q-107 0 -150.5 49.5t-43.5 161.5zM426 1372q0 52 38 89.5t91 37.5q54 0 91.5 -36.5t37.5 -90.5 q0 -52 -38 -89.5t-91 -37.5t-91 37.5t-38 89.5z" />
<glyph unicode="&#x391;" horiz-adv-x="1288" d="M35 43l454 1305q19 54 41 71.5t76 18.5h68q59 0 82 -18t41 -72l456 -1305q7 -17 0 -30t-26 -13h-154q-19 0 -27 1t-15.5 8.5t-12.5 23.5l-96 291h-555l-97 -291q-6 -18 -16.5 -25.5t-32.5 -7.5h-158q-43 0 -28 43zM422 510h438l-125 395l-92 291h-10l-86 -281z" />
<glyph unicode="&#x392;" horiz-adv-x="1339" d="M154 111v1214q0 60 25 85.5t85 25.5l457 2q99 0 178.5 -20t140 -61.5t93 -110.5t32.5 -161q0 -91 -46 -166.5t-118 -115.5v-15q75 -28 127 -85.5t75.5 -126t23.5 -146.5q0 -189 -136.5 -309.5t-336.5 -120.5h-490q-60 0 -85 25.5t-25 85.5zM367 195h364q63 0 112.5 16 t80 41.5t50 59.5t27 66t7.5 66q0 113 -71.5 180.5t-203.5 67.5h-366v-497zM367 870h362q36 0 70 8.5t68.5 29t55.5 62t21 99.5q0 82 -54 129t-147 47h-376v-375z" />
<glyph unicode="&#x393;" horiz-adv-x="1122" d="M154 43v1030q0 75 18 137.5t57.5 114.5t111 81.5t169.5 29.5h547q27 0 35 -10.5t8 -36.5v-97q0 -28 -7.5 -37.5t-35.5 -9.5h-547q-78 0 -111.5 -32.5t-33.5 -106.5v-1063q0 -28 -10 -35.5t-38 -7.5h-116q-26 0 -36.5 8t-10.5 35z" />
<glyph unicode="&#x394;" horiz-adv-x="1284" d="M37 90v23q0 34 16 77l436 1158q19 54 41 71.5t76 18.5h68q59 0 82 -18t41 -72l424 -1141q22 -49 22 -94v-23q0 -45 -23.5 -67.5t-58.5 -22.5h-1034q-51 0 -70.5 22.5t-19.5 67.5zM274 197l7 -7h725l4 7l-252 694l-115 330h-8l-115 -338z" />
<glyph unicode="&#x395;" horiz-adv-x="1204" d="M154 360v713q0 74 20 137.5t61.5 115t111.5 81t163 29.5h561q27 0 35 -10.5t8 -36.5v-99q0 -28 -7.5 -36.5t-35.5 -8.5h-561q-77 0 -111 -33.5t-34 -107.5v-252h639q25 0 32.5 -9.5t7.5 -37.5v-86q0 -25 -7.5 -36t-32.5 -11h-639v-340q0 -139 145 -139h569q28 0 35.5 -10 t7.5 -38v-98q0 -26 -8 -36.5t-35 -10.5h-569q-356 0 -356 360z" />
<glyph unicode="&#x396;" horiz-adv-x="1263" d="M61 100v33q0 40 11.5 66t38.5 57l833 991l-4 6h-739q-22 0 -27.5 7t-5.5 28v111q0 21 5.5 29t27.5 8h848q62 0 90 -24t28 -83v-43q0 -66 -57 -133l-803 -958l4 -13h842q22 0 27.5 -7.5t5.5 -29.5v-108q0 -22 -5.5 -29.5t-27.5 -7.5h-979q-113 0 -113 100z" />
<glyph unicode="&#x397;" horiz-adv-x="1421" d="M154 43v1348q0 27 10.5 35t36.5 8h118q28 0 38 -7.5t10 -35.5v-545h688v545q0 27 10.5 35t36.5 8h119q28 0 37.5 -7.5t9.5 -35.5v-1348q0 -28 -9.5 -35.5t-37.5 -7.5h-119q-26 0 -36.5 8t-10.5 35v621h-688v-621q0 -28 -10 -35.5t-38 -7.5h-118q-26 0 -36.5 8t-10.5 35z " />
<glyph unicode="&#x398;" horiz-adv-x="1478" d="M113 715q0 174 49 315.5t134 234t198.5 142t244.5 49.5q300 0 463.5 -194t163.5 -539q0 -361 -163 -553.5t-470 -192.5q-303 0 -461.5 186.5t-158.5 551.5zM326 723q0 -555 409 -555q88 0 159 30t118.5 81t79 121.5t45.5 148.5t14 166q0 90 -11.5 167.5t-41 150 t-74.5 123t-116 80.5t-163 30q-96 0 -175.5 -43t-132.5 -117t-82 -173t-29 -210zM442 692v109q0 22 5.5 29.5t27.5 7.5h535q22 0 27 -7.5t5 -29.5v-109q0 -15 -1.5 -21.5t-8.5 -11t-22 -4.5h-535q-22 0 -27.5 8t-5.5 29z" />
<glyph unicode="&#x399;" horiz-adv-x="563" d="M176 43v1348q0 27 10.5 35t36.5 8h119q28 0 37.5 -7.5t9.5 -35.5v-1348q0 -28 -9.5 -35.5t-37.5 -7.5h-119q-26 0 -36.5 8t-10.5 35z" />
<glyph unicode="&#x39a;" horiz-adv-x="1308" d="M154 43v1348q0 27 10.5 35t36.5 8h114q28 0 37.5 -7.5t9.5 -35.5v-668l9 -4l213 268l346 420q27 27 69 27h175q18 0 23.5 -10.5t-5.5 -22.5l-395 -481l493 -875q11 -20 5.5 -32.5t-25.5 -12.5h-148q-38 0 -53 6.5t-31 34.5l-389 702l-287 -356v-344q0 -28 -9.5 -35.5 t-37.5 -7.5h-114q-26 0 -36.5 8t-10.5 35z" />
<glyph unicode="&#x39b;" horiz-adv-x="1302" d="M35 43l454 1305q19 54 41 71.5t76 18.5h68q59 0 82 -18t41 -72l456 -1305q7 -17 0 -30t-26 -13h-154q-19 0 -27 1t-15.5 8.5t-12.5 23.5l-283 872l-92 291h-10l-86 -281l-277 -882q-6 -18 -16.5 -25.5t-32.5 -7.5h-158q-43 0 -28 43z" />
<glyph unicode="&#x39c;" horiz-adv-x="1675" d="M154 43v1280q0 58 23.5 85.5t86.5 27.5h64q49 0 75 -17t48 -71l264 -668l119 -311h8l116 305l267 674q22 54 48 71t75 17h63q63 0 87 -27.5t24 -85.5v-1280q0 -28 -9.5 -35.5t-37.5 -7.5h-109q-26 0 -36.5 8t-10.5 35v1014h-12l-117 -305l-197 -494q-21 -56 -42 -73 t-74 -17h-78q-53 0 -74.5 17.5t-42.5 72.5l-199 485l-114 289h-13v-989q0 -28 -9.5 -35.5t-37.5 -7.5h-108q-26 0 -36.5 8t-10.5 35z" />
<glyph unicode="&#x39d;" horiz-adv-x="1433" d="M154 43v1280q0 59 24.5 86t85.5 27h62q46 0 68.5 -18t54.5 -70l444 -744l174 -299h6v1088q0 27 10.5 35t36.5 8h113q28 0 37.5 -7.5t9.5 -35.5v-1280q0 -59 -25 -86t-86 -27h-61q-46 0 -68.5 18t-54.5 70l-450 752l-168 290h-7v-1087q0 -28 -9.5 -35.5t-37.5 -7.5h-112 q-26 0 -36.5 8t-10.5 35z" />
<glyph unicode="&#x39e;" horiz-adv-x="1216" d="M82 37v127q0 22 5.5 29.5t27.5 7.5h987q22 0 27.5 -7.5t5.5 -29.5v-127q0 -21 -5.5 -29t-27.5 -8h-987q-22 0 -27.5 8t-5.5 29zM94 1276v123q0 21 5.5 29t27.5 8h956q22 0 27.5 -8t5.5 -29v-123q0 -22 -5.5 -28.5t-27.5 -6.5h-956q-22 0 -27.5 6.5t-5.5 28.5zM168 709 v108q0 22 5.5 29.5t27.5 7.5h809q22 0 27 -7.5t5 -29.5v-108q0 -15 -1.5 -21.5t-8.5 -11t-22 -4.5h-809q-22 0 -27.5 8t-5.5 29z" />
<glyph unicode="&#x39f;" horiz-adv-x="1458" d="M113 715q0 174 47 315.5t130 234t195 142t244 49.5q298 0 457.5 -193.5t159.5 -539.5q0 -363 -158.5 -554.5t-464.5 -191.5q-301 0 -455.5 186t-154.5 552zM326 723q0 -131 20 -228.5t65 -173t123.5 -114.5t190.5 -39q90 0 161 30t116 80.5t74.5 122t41.5 148.5t12 166 q0 93 -9.5 168.5t-36 149t-69.5 123t-114 80t-166 30.5q-101 0 -180 -43t-128.5 -117.5t-75 -172t-25.5 -210.5z" />
<glyph unicode="&#x3a0;" horiz-adv-x="1417" d="M154 33v1263q0 69 36 104.5t95 35.5h848q62 0 96.5 -35t34.5 -105v-1263q0 -22 -7.5 -27.5t-29.5 -5.5h-137q-21 0 -29 5.5t-8 27.5v1214h-686v-1214q0 -22 -7.5 -27.5t-29.5 -5.5h-140q-21 0 -28.5 5.5t-7.5 27.5z" />
<glyph unicode="&#x3a1;" horiz-adv-x="1255" d="M154 43v1284q0 60 25 85.5t85 25.5h477q198 0 324.5 -119.5t126.5 -310.5q0 -51 -11 -104.5t-42 -116.5t-80 -111t-133.5 -80.5t-192.5 -32.5h-371v-520q0 -28 -9.5 -35.5t-37.5 -7.5h-114q-26 0 -36.5 8t-10.5 35zM365 750h331q141 0 209 64.5t68 178.5q0 34 -7.5 66 t-27 66.5t-50.5 59.5t-82 41.5t-116 16.5h-325v-493z" />
<glyph unicode="&#x3a3;" horiz-adv-x="1187" d="M61 86v39q0 63 64 143l387 477l-362 396q-36 38 -49 64.5t-13 66.5v53q0 111 115 111h870q22 0 27.5 -8t5.5 -29v-117q0 -21 -5.5 -28t-27.5 -7h-747l-4 -8l348 -362q68 -68 71 -123q3 -53 -63 -131l-348 -422l4 -8h780q22 0 27.5 -7.5t5.5 -29.5v-119q0 -22 -5.5 -29.5 t-27.5 -7.5h-964q-40 0 -64.5 20.5t-24.5 65.5z" />
<glyph unicode="&#x3a4;" horiz-adv-x="1136" d="M31 1282v115q0 15 1.5 21.5t8.5 11t22 4.5h1010q22 0 27.5 -8t5.5 -29v-115q0 -21 -5.5 -28t-27.5 -7h-401v-1204q0 -28 -9.5 -35.5t-37.5 -7.5h-123q-26 0 -36.5 8t-10.5 35v1204h-392q-22 0 -27 7t-5 28z" />
<glyph unicode="&#x3a5;" horiz-adv-x="1183" d="M24 1427q4 9 17 9h174q18 0 26.5 -5.5t18.5 -23.5l174 -332l162 -321h8l170 336l166 317q16 29 45 29h162q11 0 15 -9t-1 -16l-461 -844v-534q0 -22 -6.5 -27.5t-27.5 -5.5h-136q-21 0 -28.5 5.5t-7.5 27.5v534l-469 844q-5 7 -1 16z" />
<glyph unicode="&#x3a6;" horiz-adv-x="1716" d="M113 737q0 260 173 424.5t459 194.5v45q0 22 8 27.5t29 5.5h140q22 0 29 -5.5t7 -27.5v-45q312 -26 479 -187.5t167 -431.5q0 -173 -83.5 -307.5t-228 -212.5t-334.5 -98v-86q0 -22 -7 -27.5t-29 -5.5h-140q-21 0 -29 5.5t-8 27.5v86q-305 29 -468.5 190t-163.5 428z M315 737q0 -183 108.5 -302.5t321.5 -139.5v887q-201 -24 -315.5 -146.5t-114.5 -298.5zM958 293q218 17 330.5 137.5t112.5 306.5q0 122 -45 215.5t-146 156t-252 75.5v-891z" />
<glyph unicode="&#x3a7;" horiz-adv-x="1169" d="M21.5 9q-3.5 9 3.5 20l438 706l-412 674q-6 7 -1.5 17t20.5 10h161q29 0 40.5 -5.5t21.5 -25.5l295 -498l293 498q10 19 22.5 25t38.5 6h154q16 0 19.5 -10t-3.5 -21l-407 -664l440 -712q12 -29 -19 -29h-168q-26 0 -38 6.5t-23 24.5l-315 538l-318 -538 q-11 -18 -23 -24.5t-38 -6.5h-162q-16 0 -19.5 9z" />
<glyph unicode="&#x3a8;" horiz-adv-x="1646" d="M123 981v420q0 22 8 27.5t29 5.5h139q22 0 29.5 -5.5t7.5 -27.5v-457q0 -174 92.5 -277.5t282.5 -115.5v850q0 22 8 27.5t29 5.5h137q22 0 29.5 -5.5t7.5 -27.5v-852q188 18 288.5 116t100.5 275v461q0 22 8 27.5t29 5.5h139q22 0 29.5 -5.5t7.5 -27.5v-424 q0 -185 -78.5 -321t-212 -208t-311.5 -86v-329q0 -22 -7.5 -27.5t-29.5 -5.5h-137q-21 0 -29 5.5t-8 27.5v329q-284 17 -436 176.5t-152 442.5z" />
<glyph unicode="&#x3a9;" horiz-adv-x="1523" d="M92 37v108q0 21 7.5 29t29.5 8h209l4 6q-207 175 -207 547q0 207 77.5 370.5t222.5 257t333 93.5q194 0 337 -90.5t217.5 -253t74.5 -377.5q0 -346 -213 -547l4 -6h207q22 0 29.5 -8t7.5 -29v-108q0 -21 -7.5 -29t-29.5 -8h-391q-52 0 -78.5 21t-26.5 73v41q0 38 15.5 58 t68.5 61q109 83 154 201.5t45 277.5q0 247 -105 389t-309 142q-193 0 -303.5 -145t-110.5 -382q0 -148 43 -264.5t158 -208.5q59 -46 72.5 -65.5t13.5 -57.5v-39q0 -102 -96 -102h-416q-22 0 -29.5 8t-7.5 29z" />
<glyph unicode="&#x3aa;" horiz-adv-x="563" d="M-27 1667q0 45 38 83t85 38t85 -37t38 -84t-38 -84t-85 -37t-85 37.5t-38 83.5zM176 43v1348q0 27 10.5 35t36.5 8h119q28 0 37.5 -7.5t9.5 -35.5v-1348q0 -28 -9.5 -35.5t-37.5 -7.5h-119q-26 0 -36.5 8t-10.5 35zM350 1667q0 45 38 83t85 38t85 -37t38 -84t-37 -84 t-84 -37q-49 0 -87 37t-38 84z" />
<glyph unicode="&#x3ab;" horiz-adv-x="1183" d="M24 1427q4 9 17 9h174q18 0 26.5 -5.5t18.5 -23.5l174 -332l162 -321h8l170 336l166 317q16 29 45 29h162q11 0 15 -9t-1 -16l-461 -844v-534q0 -22 -6.5 -27.5t-27.5 -5.5h-136q-21 0 -28.5 5.5t-7.5 27.5v534l-469 844q-5 7 -1 16zM289 1630q0 45 38 83t85 38t85 -37 t38 -84t-38 -84t-85 -37t-85 37.5t-38 83.5zM666 1630q0 45 37.5 83t84.5 38t85 -37t38 -84t-36.5 -84t-83.5 -37q-49 0 -87 37t-38 84z" />
<glyph unicode="&#x3ac;" horiz-adv-x="1157" d="M92 520q0 95 17 177.5t56 157.5t98.5 128t150 84t204.5 31q174 0 355 -45q34 -10 42.5 -23.5t8.5 -40.5v-899q0 -30 -27 -39q-95 -40 -212 -57t-214 -17q-479 0 -479 543zM301 520q0 -198 73.5 -284t229.5 -86q146 0 217 32v715q-89 27 -215 27q-139 0 -222 -97t-83 -307 zM518.5 1224.5q-2.5 6.5 7.5 26.5l136 324q12 27 43 20l157 -43q32 -8 15 -32l-226 -314q-12 -17 -21 -20t-26 2l-65 24q-18 6 -20.5 12.5z" />
<glyph unicode="&#x3ad;" horiz-adv-x="952" d="M94 283q0 95 60.5 175.5t144.5 102.5v4q-91 22 -135.5 82.5t-46.5 140.5q0 132 103 221t298 89q193 0 326 -74q30 -15 14 -47l-47 -98q-6 -15 -11.5 -18t-29.5 5q-137 56 -246 56q-105 0 -155 -41t-50 -88q0 -75 57.5 -105t190.5 -41q41 -5 58.5 -17t17.5 -42v-41 q0 -33 -20.5 -45.5t-55.5 -14.5q-128 -6 -199.5 -54t-70.5 -134q0 -65 53.5 -111.5t181.5 -46.5q62 0 147 23.5t128 48.5q21 8 28.5 5t14.5 -17l43 -88q22 -31 -10 -47q-83 -45 -185 -67t-184 -22q-207 0 -313.5 84t-106.5 222zM383 1224.5q-2 6.5 8 26.5l135 324 q12 27 43 20l158 -43q31 -8 14 -32l-225 -314q-12 -17 -21 -20t-26 2l-66 24q-18 6 -20 12.5z" />
<glyph unicode="&#x3ae;" horiz-adv-x="1163" d="M133 33v876q0 151 143 172q156 17 250 17q265 0 384.5 -121t119.5 -397v-547q0 -22 -7.5 -27.5t-29.5 -5.5h-127q-21 0 -29 5.5t-8 27.5v540q0 91 -14.5 153t-50.5 107t-98 66t-156 21q-86 0 -176 -15v-872q0 -22 -7.5 -27.5t-29.5 -5.5h-127q-21 0 -29 5.5t-8 27.5z M449 1224.5q-2 6.5 8 26.5l135 324q12 27 43 20l158 -43q31 -8 14 -32l-225 -314q-12 -17 -21 -20t-26 2l-66 24q-18 6 -20 12.5z" />
<glyph unicode="&#x3af;" horiz-adv-x="571" d="M154 188v854q0 23 5.5 28t26.5 5h131q22 0 29.5 -5.5t7.5 -27.5v-798q0 -54 15 -72t53 -18q28 0 74 4q18 2 23.5 -2t6.5 -21l13 -90q2 -20 -1.5 -26.5t-21.5 -16.5q-55 -25 -168 -25q-107 0 -150.5 49.5t-43.5 161.5zM168 1224.5q-2 6.5 8 26.5l135 324q12 27 43 20 l158 -43q31 -8 14 -32l-225 -314q-12 -17 -21 -20t-26 2l-66 24q-18 6 -20 12.5z" />
<glyph unicode="&#x3b0;" horiz-adv-x="1185" d="M133 430v612q0 22 8 27.5t29 5.5h127q22 0 29.5 -5.5t7.5 -27.5v-632q0 -126 62 -195.5t188 -69.5q142 0 205 73.5t63 193.5v630q0 22 8 27.5t29 5.5h127q22 0 29.5 -5.5t7.5 -27.5v-583q0 -238 -118 -360t-335 -122q-240 0 -353.5 114.5t-113.5 338.5zM209 1372 q0 51 38.5 89t92.5 38q52 0 89.5 -37t37.5 -90q0 -51 -38 -89t-89 -38q-54 0 -92.5 38t-38.5 89zM483 1231l70 336q4 10 6.5 14t11 8t23.5 4l164 -22q29 -3 20 -31l-164 -338q-11 -19 -19 -23.5t-26 -0.5l-55 14q-15 4 -20.5 6t-9.5 10t-1 23zM766 1372q0 52 38 89.5 t91 37.5q54 0 91.5 -36.5t37.5 -90.5q0 -52 -38 -89.5t-91 -37.5t-91 37.5t-38 89.5z" />
<glyph unicode="&#x3b1;" horiz-adv-x="1157" d="M92 520q0 95 17 177.5t56 157.5t98.5 128t150 84t204.5 31q174 0 355 -45q34 -10 42.5 -23.5t8.5 -40.5v-899q0 -30 -27 -39q-95 -40 -212 -57t-214 -17q-479 0 -479 543zM301 520q0 -198 73.5 -284t229.5 -86q146 0 217 32v715q-89 27 -215 27q-139 0 -222 -97t-83 -307 z" />
<glyph unicode="&#x3b2;" horiz-adv-x="1144" d="M133 96v934q0 221 113.5 346t312.5 125q106 0 188.5 -31.5t131 -84.5t72.5 -117t24 -135q0 -49 -15.5 -101t-57 -104.5t-101.5 -77.5v-6q115 -28 183.5 -136.5t68.5 -244.5q0 -230 -139.5 -358t-362.5 -128q-108 0 -212.5 19t-176.5 51q-19 10 -24 19.5t-5 29.5zM336 178 q89 -31 233 -31q136 0 208.5 81t72.5 216q0 282 -279 301q-37 5 -53 17t-16 45v35q0 61 63 67q209 21 209 211q0 37 -11.5 73t-35 69t-67 53t-101.5 20q-62 0 -107.5 -24.5t-69.5 -66t-35 -86.5t-11 -95v-885z" />
<glyph unicode="&#x3b3;" horiz-adv-x="1028" d="M10 1032q-4 17 0.5 24t22.5 13q67 25 117 25q66 0 91 -26t52 -105l119 -371l104 -340h6l117 350l154 445q9 28 34 28h152q25 0 16 -33l-377 -1032v-385q0 -22 -8.5 -29.5t-29.5 -7.5h-125q-24 0 -31.5 7t-7.5 30v385l-295 871q-7 18 -9.5 22.5t-14 10t-31.5 4.5 q-17 -3 -26 -0.5t-13 14.5z" />
<glyph unicode="&#x3b4;" horiz-adv-x="1153" d="M94 475q0 148 75 288.5t210 209.5v6q-67 44 -100 96t-33 127q0 138 92.5 219.5t259.5 81.5q174 0 324 -59q13 -6 18 -18.5t0 -24.5l-43 -109q-9 -21 -35 -10q-82 30 -140 40.5t-130 10.5q-74 0 -112 -34t-38 -85q0 -59 45.5 -92.5t184.5 -93.5q53 -21 103 -51.5t103 -79 t92 -105.5t64 -135t25 -165q0 -231 -129.5 -373t-358.5 -142q-227 0 -352 132.5t-125 365.5zM297 494q0 -74 16 -135t48 -110t87.5 -76.5t129.5 -27.5q134 0 207 98.5t73 243.5q0 63 -14.5 119.5t-45.5 110t-87 97t-133 71.5q-80 -13 -146 -77.5t-100.5 -148.5t-34.5 -165z " />
<glyph unicode="&#x3b5;" horiz-adv-x="952" d="M94 283q0 95 60.5 175.5t144.5 102.5v4q-91 22 -135.5 82.5t-46.5 140.5q0 132 103 221t298 89q193 0 326 -74q30 -15 14 -47l-47 -98q-6 -15 -11.5 -18t-29.5 5q-137 56 -246 56q-105 0 -155 -41t-50 -88q0 -75 57.5 -105t190.5 -41q41 -5 58.5 -17t17.5 -42v-41 q0 -33 -20.5 -45.5t-55.5 -14.5q-128 -6 -199.5 -54t-70.5 -134q0 -65 53.5 -111.5t181.5 -46.5q62 0 147 23.5t128 48.5q21 8 28.5 5t14.5 -17l43 -88q22 -31 -10 -47q-83 -45 -185 -67t-184 -22q-207 0 -313.5 84t-106.5 222z" />
<glyph unicode="&#x3b6;" horiz-adv-x="915" d="M90 430q0 166 164 390t498 491l-2 6h-560q-22 0 -28 7t-6 26v98q0 16 6.5 24.5t27.5 8.5h691q53 0 74.5 -22t21.5 -70v-33q0 -68 -49 -107q-177 -147 -305.5 -276.5t-197 -225.5t-99.5 -166t-31 -122q0 -83 50.5 -124t193.5 -95q159 -63 237 -107t102.5 -78t24.5 -84 q0 -115 -203 -309q-24 -24 -43 -8l-75 59q-20 15 -2 39q9 15 39.5 51.5t54.5 69t24 47.5q0 31 -49 64t-162 75q-222 84 -309.5 163t-87.5 208z" />
<glyph unicode="&#x3b7;" horiz-adv-x="1163" d="M133 33v876q0 151 143 172q156 17 250 17q265 0 384.5 -121t119.5 -397v-547q0 -22 -7.5 -27.5t-29.5 -5.5h-127q-21 0 -29 5.5t-8 27.5v540q0 91 -14.5 153t-50.5 107t-98 66t-156 21q-86 0 -176 -15v-872q0 -22 -7.5 -27.5t-29.5 -5.5h-127q-21 0 -29 5.5t-8 27.5z" />
<glyph unicode="&#x3b8;" horiz-adv-x="1153" d="M92 739q0 377 124.5 567.5t356.5 190.5q488 0 488 -754q0 -766 -490 -766q-241 0 -360 186.5t-119 575.5zM285 686q5 -282 71.5 -414.5t218.5 -132.5q147 0 219 141.5t72 405.5h-581zM285 850h581q-5 229 -78.5 354t-216.5 125q-134 0 -207.5 -129.5t-78.5 -349.5z" />
<glyph unicode="&#x3b9;" horiz-adv-x="571" d="M154 188v854q0 23 5.5 28t26.5 5h131q22 0 29.5 -5.5t7.5 -27.5v-798q0 -54 15 -72t53 -18q28 0 74 4q18 2 23.5 -2t6.5 -21l13 -90q2 -20 -1.5 -26.5t-21.5 -16.5q-55 -25 -168 -25q-107 0 -150.5 49.5t-43.5 161.5z" />
<glyph unicode="&#x3ba;" horiz-adv-x="1019" d="M131 33v1009q0 22 8 27.5t29 5.5h127q22 0 29.5 -5.5t7.5 -27.5v-442l10 -4l385 463q13 16 39 16h178q10 0 13 -9.5t-3 -16.5l-333 -394l376 -630q6 -7 3 -16t-19 -9h-162q-22 0 -30.5 5t-16.5 18l-278 485l-162 -191v-284q0 -22 -7.5 -27.5t-29.5 -5.5h-127 q-21 0 -29 5.5t-8 27.5z" />
<glyph unicode="&#x3bb;" horiz-adv-x="1153" d="M123 33v444q0 214 113.5 340.5t343.5 126.5q128 0 237 -31v82q0 157 -97 240.5t-317 107.5q-23 3 -20 23l20 131q6 24 31 21q143 -13 247.5 -47.5t182.5 -98t117 -164.5t39 -241v-934q0 -22 -8 -27.5t-29 -5.5h-129q-22 0 -29.5 5.5t-7.5 27.5v704q-95 31 -213 31 q-148 0 -214 -69t-66 -224v-442q0 -22 -7.5 -27.5t-29.5 -5.5h-127q-21 0 -29 5.5t-8 27.5z" />
<glyph unicode="&#x3bc;" horiz-adv-x="1142" d="M133 -381v1425q0 22 7.5 27.5t29.5 5.5h127q21 0 29 -5.5t8 -27.5v-671q0 -62 8.5 -97t38.5 -64.5t90.5 -41.5t161.5 -12q92 0 176 14v872q0 22 7.5 27.5t29.5 5.5h127q21 0 29 -5.5t8 -27.5v-876q0 -148 -144 -172q-87 -16 -250 -16q-69 0 -153 12t-131 35v-408 q0 -22 -7.5 -27.5t-29.5 -5.5h-125q-21 0 -29 5.5t-8 27.5z" />
<glyph unicode="&#x3bd;" horiz-adv-x="1034" d="M33 1053q-6 22 18 22h156q16 0 21 -4t10 -16l174 -527l106 -350h12l103 346l168 531q4 9 5.5 12t7.5 5.5t17 2.5h152q24 0 18 -22l-319 -967q-20 -57 -41.5 -76.5t-73.5 -19.5h-90q-44 0 -68.5 18t-46.5 76z" />
<glyph unicode="&#x3be;" horiz-adv-x="866" d="M82 420q0 71 26.5 145t83.5 137t132 86v9q-205 78 -205 303q0 176 121.5 286.5t330.5 110.5q193 0 326 -74q30 -15 14 -47l-43 -98q-5 -14 -11 -17t-30 5q-134 55 -249 55t-185.5 -55t-70.5 -168q0 -34 6 -62t20 -48.5t29.5 -35.5t43 -25.5t51.5 -17.5t63.5 -11t71 -6.5 t81.5 -4.5q78 -3 78 -72v-31q0 -63 -78 -67q-98 -4 -167 -18.5t-124 -47t-82.5 -89t-27.5 -138.5q0 -43 19 -79t45.5 -61t73 -49.5t84 -39.5t95.5 -35q53 -18 90.5 -33.5t79.5 -38.5t68 -46.5t43.5 -56t17.5 -69.5q0 -121 -184 -297q-24 -24 -43 -8l-82 63q-20 15 -2 39 q8 13 32.5 44.5t42 58t17.5 41.5q0 76 -211 145q-63 22 -108 40.5t-102.5 54.5t-93.5 77t-61.5 105t-25.5 141z" />
<glyph unicode="&#x3bf;" horiz-adv-x="1153" d="M92 537q0 262 137 411.5t349 149.5q235 0 359 -145t124 -410q0 -276 -124.5 -421t-365.5 -145q-236 0 -357.5 141.5t-121.5 418.5zM293 543q0 -93 14 -163t45 -124.5t86.5 -82.5t134.5 -28q63 0 112.5 21.5t81.5 57.5t53 87.5t29.5 106.5t8.5 119q0 66 -6.5 120 t-25.5 106.5t-49 88t-79.5 57t-115.5 21.5q-141 0 -215 -109t-74 -278z" />
<glyph unicode="&#x3c0;" horiz-adv-x="1183" d="M133 33v954q0 31 22 59.5t68 28.5h735q48 0 70.5 -28t22.5 -60v-954q0 -22 -7.5 -27.5t-29.5 -5.5h-127q-21 0 -29 5.5t-8 27.5v868h-516v-868q0 -22 -7.5 -27.5t-29.5 -5.5h-127q-21 0 -29 5.5t-8 27.5z" />
<glyph unicode="&#x3c1;" horiz-adv-x="1179" d="M133 -381v997q0 107 26.5 191.5t70.5 138t105 88.5t125.5 49.5t137.5 14.5q232 0 360.5 -144.5t128.5 -416.5q0 -158 -55.5 -283t-169.5 -201t-270 -76q-167 0 -256 33l-2 -391q0 -22 -7.5 -27.5t-29.5 -5.5h-127q-21 0 -29 5.5t-8 27.5zM336 184q81 -32 219 -32 q324 0 324 385q0 389 -297 389q-65 0 -114 -23t-77 -64.5t-41.5 -92.5t-13.5 -113v-449z" />
<glyph unicode="&#x3c2;" horiz-adv-x="964" d="M92 553q0 244 131.5 394.5t354.5 150.5q175 0 305 -72q29 -16 12 -47l-47 -98q-5 -11 -7.5 -14t-12 -5.5t-23.5 6.5q-122 52 -223 50q-59 -2 -107.5 -23t-81.5 -55t-55.5 -80.5t-32.5 -98t-10 -108.5q0 -131 45.5 -199t173.5 -125q226 -100 290 -143.5t64 -108.5 q0 -120 -184 -296q-25 -25 -43 -9l-82 66q-20 15 -2 39q8 13 32.5 44t42 57.5t17.5 41.5q0 28 -38.5 50.5t-154.5 72.5q-7 3 -10 4q-106 45 -175.5 95.5t-108.5 113.5t-54.5 132.5t-15.5 164.5z" />
<glyph unicode="&#x3c3;" horiz-adv-x="1200" d="M92 526q0 106 25 195t69.5 154t106 110.5t135 67.5t156.5 22h532q15 0 22.5 -5t9 -11t1.5 -17v-106q0 -19 -5.5 -26t-27.5 -7h-164l-6 -10q117 -133 117 -361q0 -263 -131 -409t-361 -146q-238 0 -358.5 141.5t-120.5 407.5zM293 532q0 -190 69 -289.5t222 -99.5 q135 0 205.5 105t70.5 278q0 381 -282 381q-132 0 -208.5 -103t-76.5 -272z" />
<glyph unicode="&#x3c4;" horiz-adv-x="843" d="M31 936v102q0 14 1.5 20.5t8.5 11.5t22 5h676q15 0 22.5 -5t9 -11t1.5 -17v-106q0 -19 -5.5 -26t-27.5 -7h-266v-627q0 -66 30 -94t97 -28q60 0 156 14q19 4 26 -0.5t9 -17.5l20 -107q4 -11 1 -21.5t-19 -15.5q-90 -29 -228 -29q-159 0 -226 68.5t-67 218.5v639h-209 q-21 0 -26.5 8t-5.5 25z" />
<glyph unicode="&#x3c5;" horiz-adv-x="1185" d="M133 430v612q0 22 8 27.5t29 5.5h127q22 0 29.5 -5.5t7.5 -27.5v-632q0 -126 62 -195.5t188 -69.5q142 0 205 73.5t63 193.5v630q0 22 8 27.5t29 5.5h127q22 0 29.5 -5.5t7.5 -27.5v-583q0 -238 -118 -360t-335 -122q-240 0 -353.5 114.5t-113.5 338.5z" />
<glyph unicode="&#x3c6;" horiz-adv-x="1441" d="M92 539q0 107 31 200.5t81.5 158t108.5 107.5t119 62q13 6 23.5 4t17.5 -18l51 -101q6 -18 1.5 -27t-23.5 -20q-213 -115 -213 -370q0 -75 16.5 -137.5t53 -116.5t101 -89t152.5 -45v785q0 73 32 107t89 42q93 13 152 13q123 0 214 -39.5t145 -112.5t80 -168.5t26 -214.5 q0 -249 -141.5 -407t-391.5 -175v-358q0 -22 -7.5 -27.5t-29.5 -5.5h-131q-21 0 -29 5.5t-8 27.5v358q-260 17 -390 167.5t-130 394.5zM817 147q92 8 159 44t104.5 93t55 122.5t17.5 142.5q0 193 -69.5 282t-223.5 89q-25 0 -43 -2v-771z" />
<glyph unicode="&#x3c7;" horiz-adv-x="987" d="M25 35l354 532l-309 473q-7 10 -4.5 22.5t18.5 12.5h156q37 0 53 -26l205 -334l211 334q16 26 49 26h149q18 0 22 -11t-3 -17l-318 -469l357 -545q8 -11 5 -22t-20 -11h-168q-24 0 -33 6t-18 21l-242 391l-247 -389q-9 -11 -14 -16t-15 -9t-25 -4h-149q-32 0 -14 35z" />
<glyph unicode="&#x3c8;" horiz-adv-x="1482" d="M133 524v518q0 22 8 27.5t29 5.5h129q22 0 29.5 -5.5t7.5 -27.5v-516q0 -338 305 -368v884q0 22 8 27.5t29 5.5h127q22 0 29.5 -5.5t7.5 -27.5v-886q164 16 234.5 107t70.5 245v534q0 22 8 27.5t29 5.5h129q22 0 29.5 -5.5t7.5 -27.5v-528q0 -497 -508 -534v-361 q0 -22 -7.5 -27.5t-29.5 -5.5h-127q-21 0 -29 5.5t-8 27.5v361q-274 28 -391 162.5t-117 381.5z" />
<glyph unicode="&#x3c9;" horiz-adv-x="1626" d="M92 514q0 216 91 368.5t247 196.5q15 4 22 -2t13 -20l37 -99q6 -24 2 -31.5t-23 -13.5q-93 -41 -140.5 -143.5t-47.5 -253.5q0 -173 57 -269.5t166 -96.5q92 0 144.5 56t52.5 150v336q0 22 8.5 28.5t28.5 6.5h127q21 0 28.5 -6.5t7.5 -28.5v-336q0 -94 52.5 -150 t144.5 -56q106 0 164.5 100.5t58.5 288.5q0 131 -51 230t-143 140q-38 13 -21 45l43 103q4 9 6.5 13t10.5 9t18 0q158 -45 248 -190t90 -369q0 -137 -34.5 -244t-92.5 -171.5t-129.5 -97t-151.5 -32.5q-117 0 -189.5 38t-119.5 126h-8q-93 -164 -309 -164q-188 0 -298 131 t-110 408z" />
<glyph unicode="&#x3ca;" horiz-adv-x="571" d="M-47 1372q0 45 38 83t85 38t85 -37t38 -84t-38 -84t-85 -37t-85 37.5t-38 83.5zM154 188v854q0 23 5.5 28t26.5 5h131q22 0 29.5 -5.5t7.5 -27.5v-798q0 -54 15 -72t53 -18q28 0 74 4q18 2 23.5 -2t6.5 -21l13 -90q2 -20 -1.5 -26.5t-21.5 -16.5q-55 -25 -168 -25 q-107 0 -150.5 49.5t-43.5 161.5zM330 1372q0 45 38 83t85 38t84.5 -37t37.5 -84t-36.5 -84t-83.5 -37q-49 0 -87 37t-38 84z" />
<glyph unicode="&#x3cb;" horiz-adv-x="1185" d="M133 430v612q0 22 8 27.5t29 5.5h127q22 0 29.5 -5.5t7.5 -27.5v-632q0 -126 62 -195.5t188 -69.5q142 0 205 73.5t63 193.5v630q0 22 8 27.5t29 5.5h127q22 0 29.5 -5.5t7.5 -27.5v-583q0 -238 -118 -360t-335 -122q-240 0 -353.5 114.5t-113.5 338.5zM289 1372 q0 45 38 83t85 38t85 -37t38 -84t-38 -84t-85 -37t-85 37.5t-38 83.5zM666 1372q0 45 37.5 83t84.5 38t85 -37t38 -84t-36.5 -84t-83.5 -37q-49 0 -87 37t-38 84z" />
<glyph unicode="&#x3cc;" horiz-adv-x="1153" d="M92 537q0 262 137 411.5t349 149.5q235 0 359 -145t124 -410q0 -276 -124.5 -421t-365.5 -145q-236 0 -357.5 141.5t-121.5 418.5zM293 543q0 -93 14 -163t45 -124.5t86.5 -82.5t134.5 -28q63 0 112.5 21.5t81.5 57.5t53 87.5t29.5 106.5t8.5 119q0 66 -6.5 120 t-25.5 106.5t-49 88t-79.5 57t-115.5 21.5q-141 0 -215 -109t-74 -278zM512 1224.5q-2 6.5 8 26.5l135 324q12 27 43 20l158 -43q31 -8 14 -32l-225 -314q-12 -17 -21 -20t-26 2l-66 24q-18 6 -20 12.5z" />
<glyph unicode="&#x3cd;" horiz-adv-x="1185" d="M133 430v612q0 22 8 27.5t29 5.5h127q22 0 29.5 -5.5t7.5 -27.5v-632q0 -126 62 -195.5t188 -69.5q142 0 205 73.5t63 193.5v630q0 22 8 27.5t29 5.5h127q22 0 29.5 -5.5t7.5 -27.5v-583q0 -238 -118 -360t-335 -122q-240 0 -353.5 114.5t-113.5 338.5zM514.5 1224.5 q-2.5 6.5 7.5 26.5l135 324q12 27 43 20l158 -43q31 -8 14 -32l-225 -314q-12 -17 -21 -20t-26 2l-65 24q-18 6 -20.5 12.5z" />
<glyph unicode="&#x3ce;" horiz-adv-x="1626" d="M92 514q0 216 91 368.5t247 196.5q15 4 22 -2t13 -20l37 -99q6 -24 2 -31.5t-23 -13.5q-93 -41 -140.5 -143.5t-47.5 -253.5q0 -173 57 -269.5t166 -96.5q92 0 144.5 56t52.5 150v336q0 22 8.5 28.5t28.5 6.5h127q21 0 28.5 -6.5t7.5 -28.5v-336q0 -94 52.5 -150 t144.5 -56q106 0 164.5 100.5t58.5 288.5q0 131 -51 230t-143 140q-38 13 -21 45l43 103q4 9 6.5 13t10.5 9t18 0q158 -45 248 -190t90 -369q0 -137 -34.5 -244t-92.5 -171.5t-129.5 -97t-151.5 -32.5q-117 0 -189.5 38t-119.5 126h-8q-93 -164 -309 -164q-188 0 -298 131 t-110 408zM725 1224.5q-2 6.5 8 26.5l135 324q12 27 43 20l158 -43q31 -8 14 -32l-225 -314q-12 -17 -21 -20t-26 2l-66 24q-18 6 -20 12.5z" />
<glyph unicode="&#x401;" horiz-adv-x="1204" d="M154 360v713q0 74 20 137.5t61.5 115t111.5 81t163 29.5h561q27 0 35 -10.5t8 -36.5v-99q0 -28 -7.5 -36.5t-35.5 -8.5h-561q-77 0 -111 -33.5t-34 -107.5v-252h639q25 0 32.5 -9.5t7.5 -37.5v-86q0 -25 -7.5 -36t-32.5 -11h-639v-340q0 -139 145 -139h569q28 0 35.5 -10 t7.5 -38v-98q0 -26 -8 -36.5t-35 -10.5h-569q-356 0 -356 360zM360 1665q0 45 38 83t85 38t85 -37t38 -84t-38 -84t-85 -37t-85 37.5t-38 83.5zM737 1665q0 45 38 83t85 38t85 -37t38 -84t-37 -84t-84 -37q-49 0 -87 37t-38 84z" />
<glyph unicode="&#x402;" horiz-adv-x="1609" d="M31 1280v117q0 15 1.5 21.5t8.5 11t22 4.5h1133q22 0 27.5 -7t5.5 -28v-117q0 -21 -5.5 -28t-27.5 -7l-528 -2v-330q183 52 350 52q235 0 367.5 -131.5t132.5 -364.5q0 -64 -11.5 -130t-42 -151t-98.5 -167.5t-166 -143.5q-12 -8 -23 -7.5t-20 15.5l-72 107q-10 23 11 35 q104 63 158.5 175.5t54.5 264.5q0 155 -90.5 238.5t-235.5 83.5q-149 0 -315 -58v-700q0 -22 -6.5 -27.5t-26.5 -5.5h-146q-21 0 -28.5 5.5t-7.5 27.5v1212h-390q-22 0 -27 7t-5 28z" />
<glyph unicode="&#x403;" horiz-adv-x="1122" d="M154 43v1030q0 75 18 137.5t57.5 114.5t111 81.5t169.5 29.5h547q27 0 35 -10.5t8 -36.5v-97q0 -28 -7.5 -37.5t-35.5 -9.5h-547q-78 0 -111.5 -32.5t-33.5 -106.5v-1063q0 -28 -10 -35.5t-38 -7.5h-116q-26 0 -36.5 8t-10.5 35zM506 1615.5q1 8.5 18 20.5l295 217 q9 7 14 9t14 0t17 -13l94 -131q23 -23 -4 -35l-348 -155q-31 -12 -51 8l-39 59q-11 12 -10 20.5z" />
<glyph unicode="&#x404;" horiz-adv-x="1241" d="M113 709q0 336 175 540.5t460 204.5q218 0 380 -84q30 -15 11 -51l-52 -107q-9 -15 -14.5 -18.5t-25.5 2.5q-142 59 -291 59q-181 0 -289.5 -117t-126.5 -298h578q22 0 27 -7.5t5 -29.5v-109q0 -15 -1.5 -21.5t-8.5 -11t-22 -4.5h-588q11 -481 438 -481q153 0 315 70 q39 16 54 -19l43 -98q9 -19 8.5 -30t-3.5 -14t-16 -13q-156 -95 -438 -95q-299 0 -458.5 182.5t-159.5 549.5z" />
<glyph unicode="&#x405;" horiz-adv-x="1181" d="M82 125l55 125q12 23 37 14q224 -96 410 -96q321 0 321 213q0 49 -19 86.5t-63.5 70t-95.5 58t-137 59.5q-123 48 -202 88.5t-142 91t-91 110.5t-28 136q0 175 115 276t333 101q109 0 231.5 -22t213.5 -60q24 -12 14 -35l-47 -131q-6 -16 -12.5 -19t-16.5 3 q-204 72 -391 72q-112 0 -169.5 -47.5t-57.5 -120.5q0 -26 8 -48.5t19.5 -40.5t38 -38t48.5 -34t68 -35.5t79.5 -36.5t98.5 -42h1l1 -1h1q173 -74 246 -123q161 -110 172 -282q1 -14 1 -28q0 -104 -39.5 -184t-109 -129t-159 -74t-193.5 -25q-319 0 -529 105q-25 9 -10 43z " />
<glyph unicode="&#x406;" horiz-adv-x="563" d="M176 43v1348q0 27 10.5 35t36.5 8h119q28 0 37.5 -7.5t9.5 -35.5v-1348q0 -28 -9.5 -35.5t-37.5 -7.5h-119q-26 0 -36.5 8t-10.5 35z" />
<glyph unicode="&#x407;" horiz-adv-x="563" d="M-31 1661q0 45 38 83t85 38t85 -37t38 -84t-38 -84t-85 -37t-85 37.5t-38 83.5zM176 43v1348q0 27 10.5 35t36.5 8h119q28 0 37.5 -7.5t9.5 -35.5v-1348q0 -28 -9.5 -35.5t-37.5 -7.5h-119q-26 0 -36.5 8t-10.5 35zM346 1661q0 45 38 83t85 38t85 -37t38 -84t-37 -84 t-84 -37q-49 0 -87 37t-38 84z" />
<glyph unicode="&#x408;" horiz-adv-x="1161" d="M13 105q-1 10 7 26l54 107q15 28 49 10q163 -78 342 -78q173 0 248 98.5t75 304.5l-2 818q0 27 11 35t37 8h118q28 0 37.5 -7.5t9.5 -35.5q0 -266 -1 -474.5t-1 -353.5q0 -586 -538 -586q-103 0 -219.5 24.5t-206.5 76.5q-12 9 -15.5 13t-4.5 14z" />
<glyph unicode="&#x409;" horiz-adv-x="2048" d="M13 119q0 4 1.5 7.5t2 6t3 5l3.5 3.5t4.5 3t4.5 2.5t4.5 2t4.5 1.5q49 20 85 47t63 62t45.5 83.5t32 107.5t22.5 139t16.5 172t16.5 212q1 13 1.5 20t1 18.5t1.5 20.5l20 264q11 140 131 140h512q62 0 96.5 -35t34.5 -105v-405h359q93 0 169 -17.5t127 -45.5t89 -68 t58.5 -79t33.5 -86t16.5 -82t3.5 -73q0 -125 -64.5 -226.5t-173.5 -157.5t-239 -56h-483q-60 0 -85.5 25.5t-25.5 85.5v1136h-362l-15 -200q-28 -395 -50 -539q-43 -269 -147 -394q-87 -105 -239 -145q-19 -5 -31.5 1t-19.5 30l-25 98q-1 6 -2 11.5t-1 9.5zM1120 195h357 q78 0 135.5 25t87.5 66t43.5 83t13.5 86q0 114 -71.5 186t-202.5 72h-363v-518z" />
<glyph unicode="&#x40a;" horiz-adv-x="2109" d="M154 33v1368q0 22 7.5 27.5t28.5 5.5h144q22 0 29.5 -5.5t7.5 -27.5v-533h596v535q0 22 8 27.5t29 5.5h141q22 0 29.5 -5.5t7.5 -27.5v-535h358q93 0 169 -17t127 -43.5t89 -65t59 -76.5t34 -84t16.5 -80.5t3.5 -71.5q0 -125 -64.5 -224t-173 -152.5t-239.5 -53.5h-484 q-60 0 -85 25.5t-25 85.5v579h-596v-657q0 -22 -7.5 -27.5t-29.5 -5.5h-144q-21 0 -28.5 5.5t-7.5 27.5zM1182 195h356q78 0 135.5 23.5t87.5 62.5t44 79.5t14 83.5q0 113 -71.5 179.5t-203.5 66.5h-362v-495z" />
<glyph unicode="&#x40b;" horiz-adv-x="1607" d="M31 1282v115q0 15 1.5 21.5t8.5 11t22 4.5h1119q21 0 26.5 -8t5.5 -29v-115q0 -21 -5 -28t-27 -7h-514v-334q76 24 175.5 39t164.5 15q240 0 361.5 -122.5t121.5 -357.5v-454q0 -22 -8 -27.5t-29 -5.5h-135q-22 0 -29.5 5.5t-7.5 27.5v444q0 314 -309 314 q-57 0 -143.5 -17t-161.5 -43v-698q0 -22 -6.5 -27.5t-26.5 -5.5h-143q-21 0 -29 5.5t-8 27.5v1214h-392q-22 0 -27 7t-5 28z" />
<glyph unicode="&#x40c;" horiz-adv-x="1280" d="M154 33v1368q0 22 7.5 27.5t28.5 5.5h138q22 0 29 -5.5t3 -27.5v-541h254q37 0 68 6.5t67 26t65 62.5t46 108l88 346q6 29 41 29h129q23 0 29.5 -15t-0.5 -26l-88 -367q-40 -174 -168 -252v-10q52 -18 87.5 -41.5t58 -58t35 -66.5t26.5 -86l127 -475q7 -11 0.5 -26 t-29.5 -15h-143q-32 0 -41 29l-121 452q-30 109 -90 150t-170 41h-271l2 -639q0 -22 -7 -27.5t-29 -5.5h-136q-21 0 -28.5 5.5t-7.5 27.5zM475.5 1622q1.5 8 18.5 20l294 218q9 6 14.5 8.5t14.5 0t17 -13.5l94 -131q23 -23 -4 -34l-349 -156q-31 -12 -51 8l-39 60 q-11 12 -9.5 20z" />
<glyph unicode="&#x40e;" horiz-adv-x="1181" d="M35 1409q-5 11 0.5 19t21.5 8h164q21 0 29.5 -7.5t13.5 -23.5l205 -520l135 -355h14l138 375l190 504q6 17 14.5 22t26.5 5h152q16 0 21 -9t-1 -20l-450 -1194q-56 -150 -138 -203t-225 -53q-80 0 -160 23q-21 6 -25.5 11.5t-0.5 22.5l22 117q4 17 11.5 20t27.5 1 q99 -11 133 -9q64 5 100.5 30t61.5 89l51 131h-37q-22 0 -33.5 1.5t-26 9t-26 25t-22.5 46.5zM264 1718q-17 23 6 41l45 39q6 4 10.5 6t7.5 3t6.5 -0.5t5.5 -2.5t7.5 -5t9.5 -7q136 -139 250 -139q112 0 252 145q6 6 11 9t8 4.5t7 0.5t5 -1.5t6 -4t6 -4.5l45 -37 q24 -22 9 -43q-88 -116 -180 -170.5t-177 -54.5q-182 0 -340 221z" />
<glyph unicode="&#x40f;" horiz-adv-x="1417" d="M154 139v1264q0 22 7.5 27.5t28.5 5.5h140q22 0 29.5 -5.5t7.5 -27.5v-1217h686v1217q0 22 8 27.5t29 5.5h137q22 0 29.5 -5.5t7.5 -27.5v-1264q0 -139 -129 -139h-310l-20 -287q0 -35 -27 -35h-129q-26 0 -26 35l-17 287h-321q-59 0 -95 35t-36 104z" />
<glyph unicode="&#x410;" horiz-adv-x="1288" d="M35 43l454 1305q19 54 41 71.5t76 18.5h68q59 0 82 -18t41 -72l456 -1305q7 -17 0 -30t-26 -13h-154q-19 0 -27 1t-15.5 8.5t-12.5 23.5l-96 291h-555l-97 -291q-6 -18 -16.5 -25.5t-32.5 -7.5h-158q-43 0 -28 43zM422 510h438l-125 395l-92 291h-10l-86 -281z" />
<glyph unicode="&#x411;" horiz-adv-x="1296" d="M154 111v1183q0 70 34.5 105t96.5 35h755q22 0 27.5 -8t5.5 -29v-115q0 -21 -5.5 -28t-27.5 -7h-671v-356h358q93 0 169.5 -17.5t127 -45.5t88.5 -68t59 -79.5t34 -86t16.5 -82t3.5 -72.5q0 -125 -64.5 -226.5t-173.5 -157.5t-239 -56h-484q-60 0 -85 25.5t-25 85.5z M369 195h356q78 0 135.5 25t87.5 66t44 83t14 86q0 114 -72 186t-203 72h-362v-518z" />
<glyph unicode="&#x412;" horiz-adv-x="1339" d="M154 111v1214q0 60 25 85.5t85 25.5l457 2q99 0 178.5 -20t140 -61.5t93 -110.5t32.5 -161q0 -91 -46 -166.5t-118 -115.5v-15q75 -28 127 -85.5t75.5 -126t23.5 -146.5q0 -189 -136.5 -309.5t-336.5 -120.5h-490q-60 0 -85 25.5t-25 85.5zM367 195h364q63 0 112.5 16 t80 41.5t50 59.5t27 66t7.5 66q0 113 -71.5 180.5t-203.5 67.5h-366v-497zM367 870h362q36 0 70 8.5t68.5 29t55.5 62t21 99.5q0 82 -54 129t-147 47h-376v-375z" />
<glyph unicode="&#x413;" horiz-adv-x="1122" d="M154 43v1030q0 75 18 137.5t57.5 114.5t111 81.5t169.5 29.5h547q27 0 35 -10.5t8 -36.5v-97q0 -28 -7.5 -37.5t-35.5 -9.5h-547q-78 0 -111.5 -32.5t-33.5 -106.5v-1063q0 -28 -10 -35.5t-38 -7.5h-116q-26 0 -36.5 8t-10.5 35z" />
<glyph unicode="&#x414;" horiz-adv-x="1484" d="M18 94q-10 88 70 96l74 5q65 77 90.5 165t52.5 291l84 645q11 73 46 106.5t106 33.5h606q72 0 104.5 -34t32.5 -106v-1106l74 -4q22 -2 37.5 -10t22.5 -15t10.5 -22.5t3.5 -20.5v-20l-25 -403q-2 -35 -29 -35h-114q-24 0 -27 35l-14 305h-975l-25 -305q-3 -35 -26 -35 h-119q-27 0 -29 35zM395 193h678v1054h-487l-51 -413q-30 -246 -51.5 -368.5t-38 -169.5t-50.5 -103z" />
<glyph unicode="&#x415;" horiz-adv-x="1204" d="M154 360v713q0 74 20 137.5t61.5 115t111.5 81t163 29.5h561q27 0 35 -10.5t8 -36.5v-99q0 -28 -7.5 -36.5t-35.5 -8.5h-561q-77 0 -111 -33.5t-34 -107.5v-252h639q25 0 32.5 -9.5t7.5 -37.5v-86q0 -25 -7.5 -36t-32.5 -11h-639v-340q0 -139 145 -139h569q28 0 35.5 -10 t7.5 -38v-98q0 -26 -8 -36.5t-35 -10.5h-569q-356 0 -356 360z" />
<glyph unicode="&#x416;" horiz-adv-x="1984" d="M65 15q-6 15 1 26l127 475q14 54 26.5 86t35 66.5t57.5 58t87 41.5v10q-128 78 -168 252l-88 367q-7 11 -0.5 26t29.5 15h129q35 0 41 -29l88 -346q17 -65 46 -108t65 -62.5t67 -26t68 -6.5h213v541q-4 22 3 27.5t30 5.5h137q21 0 29 -5.5t8 -27.5v-541h213q37 0 68 6.5 t66.5 26t64.5 62.5t46 108l88 346q6 29 41 29h129q23 0 29.5 -15t-0.5 -26l-88 -367q-40 -174 -168 -252v-10q52 -18 87.5 -41.5t58 -58t35 -66.5t26.5 -86l127 -475q7 -11 0.5 -26t-29.5 -15h-143q-32 0 -41 29l-121 452q-30 109 -90 150t-170 41h-229v-639q0 -22 -8 -27.5 t-29 -5.5h-135q-22 0 -29.5 5.5t-7.5 27.5l2 639h-230q-112 0 -172 -40.5t-88 -150.5l-120 -452q-9 -29 -41 -29h-144q-23 0 -29 15z" />
<glyph unicode="&#x417;" horiz-adv-x="1206" d="M41 92q-2 10 10 39l43 90q15 34 56 19q76 -31 178.5 -53.5t191.5 -22.5q373 0 373 276q0 96 -82.5 163t-247.5 67h-112q-42 0 -58 13.5t-16 51.5v41q0 70 65 70h117q139 0 215 63t76 168q0 94 -77.5 141.5t-205.5 47.5q-176 0 -356 -78q-39 -15 -53 18l-35 92 q-9 30 -7 38t17 20q173 102 445 102q221 0 354 -95t133 -269q0 -116 -66.5 -203t-173.5 -125v-10q121 -18 204 -111t83 -221q0 -195 -153 -321t-410 -126q-119 0 -254.5 24t-233.5 73q-18 8 -20 18z" />
<glyph unicode="&#x418;" horiz-adv-x="1441" d="M154 113v1290q0 22 7.5 27.5t28.5 5.5h138q22 0 29.5 -5.5t7.5 -27.5v-1108h6l168 289l450 764q32 52 54.5 70t68.5 18h66q61 0 85.5 -27t24.5 -86v-1290q0 -22 -8 -27.5t-29 -5.5h-137q-22 0 -29.5 5.5t-7.5 27.5v1116h-6l-180 -315l-438 -746q-32 -52 -54.5 -70 t-68.5 -18h-66q-61 0 -85.5 27t-24.5 86z" />
<glyph unicode="&#x419;" horiz-adv-x="1441" d="M154 113v1290q0 22 7.5 27.5t28.5 5.5h138q22 0 29.5 -5.5t7.5 -27.5v-1108h6l168 289l450 764q32 52 54.5 70t68.5 18h66q61 0 85.5 -27t24.5 -86v-1290q0 -22 -8 -27.5t-29 -5.5h-137q-22 0 -29.5 5.5t-7.5 27.5v1116h-6l-180 -315l-438 -746q-32 -52 -54.5 -70 t-68.5 -18h-66q-61 0 -85.5 27t-24.5 86zM365 1718q-17 23 6 41l45 39q6 4 10.5 6t7.5 3t6.5 -0.5t5.5 -2.5t7.5 -5t9.5 -7q136 -139 250 -139q112 0 252 145q6 6 11 9t8 4.5t7 0.5t5 -1.5t6 -4t6 -4.5l45 -37q24 -22 8 -43q-88 -116 -179.5 -170.5t-176.5 -54.5 q-182 0 -340 221z" />
<glyph unicode="&#x41a;" horiz-adv-x="1280" d="M154 33v1368q0 22 7.5 27.5t28.5 5.5h138q22 0 29 -5.5t3 -27.5v-541h254q37 0 68 6.5t67 26t65 62.5t46 108l88 346q6 29 41 29h129q23 0 29.5 -15t-0.5 -26l-88 -367q-40 -174 -168 -252v-10q52 -18 87.5 -41.5t58 -58t35 -66.5t26.5 -86l127 -475q7 -11 0.5 -26 t-29.5 -15h-143q-32 0 -41 29l-121 452q-30 109 -90 150t-170 41h-271l2 -639q0 -22 -7 -27.5t-29 -5.5h-136q-21 0 -28.5 5.5t-7.5 27.5z" />
<glyph unicode="&#x41b;" horiz-adv-x="1394" d="M13 119q0 4 1.5 7.5t2 6t3 5l3.5 3.5t4.5 3t4.5 2.5t4.5 2t4.5 1.5q49 20 85 47t63 62t45.5 83.5t32 107.5t22.5 139t16.5 172t16.5 212q1 13 1.5 20t1 18.5t1.5 20.5l20 264q11 140 131 140h633q62 0 96.5 -35t34.5 -105v-1263q0 -22 -7.5 -27.5t-29.5 -5.5h-141 q-21 0 -29 5.5t-8 27.5v1214h-483l-15 -200q-28 -395 -50 -539q-43 -269 -147 -394q-87 -105 -239 -145q-19 -5 -31.5 1t-19.5 30l-25 98q-1 6 -2 11.5t-1 9.5z" />
<glyph unicode="&#x41c;" horiz-adv-x="1675" d="M154 43v1280q0 58 23.5 85.5t86.5 27.5h64q49 0 75 -17t48 -71l264 -668l119 -311h8l116 305l267 674q22 54 48 71t75 17h63q63 0 87 -27.5t24 -85.5v-1280q0 -28 -9.5 -35.5t-37.5 -7.5h-109q-26 0 -36.5 8t-10.5 35v1014h-12l-117 -305l-197 -494q-21 -56 -42 -73 t-74 -17h-78q-53 0 -74.5 17.5t-42.5 72.5l-199 485l-114 289h-13v-989q0 -28 -9.5 -35.5t-37.5 -7.5h-108q-26 0 -36.5 8t-10.5 35z" />
<glyph unicode="&#x41d;" horiz-adv-x="1421" d="M154 43v1348q0 27 10.5 35t36.5 8h118q28 0 38 -7.5t10 -35.5v-545h688v545q0 27 10.5 35t36.5 8h119q28 0 37.5 -7.5t9.5 -35.5v-1348q0 -28 -9.5 -35.5t-37.5 -7.5h-119q-26 0 -36.5 8t-10.5 35v621h-688v-621q0 -28 -10 -35.5t-38 -7.5h-118q-26 0 -36.5 8t-10.5 35z " />
<glyph unicode="&#x41e;" horiz-adv-x="1458" d="M113 715q0 174 47 315.5t130 234t195 142t244 49.5q298 0 457.5 -193.5t159.5 -539.5q0 -363 -158.5 -554.5t-464.5 -191.5q-301 0 -455.5 186t-154.5 552zM326 723q0 -131 20 -228.5t65 -173t123.5 -114.5t190.5 -39q90 0 161 30t116 80.5t74.5 122t41.5 148.5t12 166 q0 93 -9.5 168.5t-36 149t-69.5 123t-114 80t-166 30.5q-101 0 -180 -43t-128.5 -117.5t-75 -172t-25.5 -210.5z" />
<glyph unicode="&#x41f;" horiz-adv-x="1417" d="M154 33v1263q0 69 36 104.5t95 35.5h848q62 0 96.5 -35t34.5 -105v-1263q0 -22 -7.5 -27.5t-29.5 -5.5h-137q-21 0 -29 5.5t-8 27.5v1214h-686v-1214q0 -22 -7.5 -27.5t-29.5 -5.5h-140q-21 0 -28.5 5.5t-7.5 27.5z" />
<glyph unicode="&#x420;" horiz-adv-x="1255" d="M154 43v1284q0 60 25 85.5t85 25.5h477q198 0 324.5 -119.5t126.5 -310.5q0 -51 -11 -104.5t-42 -116.5t-80 -111t-133.5 -80.5t-192.5 -32.5h-371v-520q0 -28 -9.5 -35.5t-37.5 -7.5h-114q-26 0 -36.5 8t-10.5 35zM365 750h331q141 0 209 64.5t68 178.5q0 34 -7.5 66 t-27 66.5t-50.5 59.5t-82 41.5t-116 16.5h-325v-493z" />
<glyph unicode="&#x421;" horiz-adv-x="1241" d="M113 696q0 342 175 550t460 208q218 0 380 -84q30 -15 11 -51l-52 -107q-9 -15 -14.5 -18.5t-25.5 2.5q-142 59 -291 59q-88 0 -160 -31.5t-120.5 -85t-82 -125.5t-48.5 -151.5t-15 -165.5q0 -520 438 -520q153 0 315 70q39 16 54 -19l43 -98q9 -19 8.5 -30t-3.5 -14 t-16 -13q-156 -95 -438 -95q-298 0 -458 177.5t-160 541.5z" />
<glyph unicode="&#x422;" horiz-adv-x="1136" d="M31 1282v115q0 15 1.5 21.5t8.5 11t22 4.5h1010q22 0 27.5 -8t5.5 -29v-115q0 -21 -5.5 -28t-27.5 -7h-401v-1204q0 -28 -9.5 -35.5t-37.5 -7.5h-123q-26 0 -36.5 8t-10.5 35v1204h-392q-22 0 -27 7t-5 28z" />
<glyph unicode="&#x423;" horiz-adv-x="1181" d="M35 1409q-5 11 0.5 19t21.5 8h164q21 0 29.5 -7.5t13.5 -23.5l205 -520l135 -355h14l138 375l190 504q6 17 14.5 22t26.5 5h152q16 0 21 -9t-1 -20l-450 -1194q-56 -150 -138 -203t-225 -53q-80 0 -160 23q-21 6 -25.5 11.5t-0.5 22.5l22 117q4 17 11.5 20t27.5 1 q99 -11 133 -9q64 5 100.5 30t61.5 89l51 131h-37q-22 0 -33.5 1.5t-26 9t-26 25t-22.5 46.5z" />
<glyph unicode="&#x424;" horiz-adv-x="1716" d="M113 737q0 260 173 424.5t459 194.5v45q0 22 8 27.5t29 5.5h140q22 0 29 -5.5t7 -27.5v-45q312 -26 479 -187.5t167 -431.5q0 -173 -83.5 -307.5t-228 -212.5t-334.5 -98v-86q0 -22 -7 -27.5t-29 -5.5h-140q-21 0 -29 5.5t-8 27.5v86q-305 29 -468.5 190t-163.5 428z M315 737q0 -183 108.5 -302.5t321.5 -139.5v887q-201 -24 -315.5 -146.5t-114.5 -298.5zM958 293q218 17 330.5 137.5t112.5 306.5q0 122 -45 215.5t-146 156t-252 75.5v-891z" />
<glyph unicode="&#x425;" horiz-adv-x="1169" d="M21.5 9q-3.5 9 3.5 20l438 706l-412 674q-6 7 -1.5 17t20.5 10h161q29 0 40.5 -5.5t21.5 -25.5l295 -498l293 498q10 19 22.5 25t38.5 6h154q16 0 19.5 -10t-3.5 -21l-407 -664l440 -712q12 -29 -19 -29h-168q-26 0 -38 6.5t-23 24.5l-315 538l-318 -538 q-11 -18 -23 -24.5t-38 -6.5h-162q-16 0 -19.5 9z" />
<glyph unicode="&#x426;" horiz-adv-x="1454" d="M154 139v1264q0 22 7.5 27.5t28.5 5.5h140q22 0 29.5 -5.5t7.5 -27.5v-1217h686v1217q0 22 8 27.5t29 5.5h137q22 0 29.5 -5.5t7.5 -27.5v-1210l65 -5q26 -2 42 -9.5t22 -21t7 -22.5t1 -26v-7l-25 -407q-1 -21 -8.5 -28t-19.5 -7h-115q-24 0 -27 35l-14 305h-907 q-59 0 -95 35t-36 104z" />
<glyph unicode="&#x427;" horiz-adv-x="1294" d="M74 1014v389q0 22 7.5 27.5t29.5 5.5h135q21 0 29 -5.5t8 -27.5v-369q0 -165 94.5 -239t304.5 -74q139 0 250 27v655q0 22 7.5 27.5t29.5 5.5h135q21 0 29 -5.5t8 -27.5v-1370q0 -22 -8 -27.5t-29 -5.5h-135q-22 0 -29.5 5.5t-7.5 27.5v530q-116 -22 -266 -22 q-294 0 -443 115.5t-149 357.5z" />
<glyph unicode="&#x428;" horiz-adv-x="1994" d="M154 139v1264q0 22 7.5 27.5t28.5 5.5h146q22 0 29.5 -5.5t7.5 -27.5v-1217h530v1217q0 22 8 27.5t29 5.5h135q22 0 29.5 -5.5t7.5 -27.5v-1217h516v1217q0 22 8 27.5t29 5.5h139q22 0 29.5 -5.5t7.5 -27.5v-1264q0 -69 -34 -104t-87 -35h-1448q-54 0 -86 35t-32 104z " />
<glyph unicode="&#x429;" horiz-adv-x="2031" d="M154 139v1264q0 22 7.5 27.5t28.5 5.5h146q22 0 29.5 -5.5t7.5 -27.5v-1217h530v1217q0 22 8 27.5t29 5.5h135q22 0 29.5 -5.5t7.5 -27.5v-1217h516v1217q0 22 8 27.5t29 5.5h139q22 0 29.5 -5.5t7.5 -27.5v-1204l66 -4q13 -2 23 -4.5t17.5 -7l12.5 -7.5t8.5 -10.5 t5.5 -10t3 -12t1 -11v-12.5v-11l-24 -414q-2 -35 -29 -35h-115q-23 0 -26 35l-15 305h-1497q-54 0 -86 35t-32 104z" />
<glyph unicode="&#x42a;" horiz-adv-x="1671" d="M10 1282v115q0 21 5.5 29t27.5 8h573q62 0 97 -35t35 -105v-403h354q93 0 169 -17.5t127 -45.5t89 -68t58.5 -79t33.5 -86t16.5 -82t3.5 -73q0 -125 -64.5 -226.5t-173.5 -157.5t-239 -56h-479q-60 0 -85.5 25.5t-25.5 85.5v1136h-489q-22 0 -27.5 7t-5.5 28zM748 195 h352q78 0 135.5 25t87.5 66t43.5 83t13.5 86q0 114 -71.5 186t-202.5 72h-358v-518z" />
<glyph unicode="&#x42b;" horiz-adv-x="1728" d="M154 111v1292q0 22 7.5 27.5t28.5 5.5h142q22 0 29.5 -5.5t7.5 -27.5v-512h358q93 0 169.5 -17.5t127 -45.5t88.5 -68t59 -79.5t34 -86t16.5 -82t3.5 -72.5q0 -125 -64.5 -226.5t-173.5 -157.5t-239 -56h-484q-60 0 -85 25.5t-25 85.5zM369 195h356q78 0 135.5 25 t87.5 66t44 83t14 86q0 114 -72 186t-203 72h-362v-518zM1360 33v1368q0 22 8 27.5t29 5.5h141q22 0 29.5 -5.5t7.5 -27.5v-1368q0 -22 -7.5 -27.5t-29.5 -5.5h-141q-21 0 -29 5.5t-8 27.5z" />
<glyph unicode="&#x42c;" horiz-adv-x="1296" d="M154 111v1292q0 22 7.5 27.5t28.5 5.5h142q22 0 29.5 -5.5t7.5 -27.5v-512h358q93 0 169.5 -17.5t127 -45.5t88.5 -68t59 -79.5t34 -86t16.5 -82t3.5 -72.5q0 -125 -64.5 -226.5t-173.5 -157.5t-239 -56h-484q-60 0 -85 25.5t-25 85.5zM369 195h356q78 0 135.5 25 t87.5 66t44 83t14 86q0 114 -72 186t-203 72h-362v-518z" />
<glyph unicode="&#x42d;" horiz-adv-x="1251" d="M63.5 91q-2.5 6 8.5 38l43 98q15 34 53 19q162 -70 315 -70q95 0 167.5 23.5t120.5 65t79.5 104t47 133t20.5 160.5h-584q-22 0 -27.5 7.5t-5.5 28.5v109q0 22 5.5 29.5t27.5 7.5h584q-9 90 -36 163t-74 129.5t-121.5 87.5t-170.5 31q-169 0 -311 -59q-29 -12 -41 16 l-45 107q-9 25 -6 34.5t16 16.5q162 84 401 84q289 0 449 -178t160 -524q0 -383 -160.5 -579t-458.5 -196q-282 0 -438 95q-16 13 -18.5 19z" />
<glyph unicode="&#x42e;" horiz-adv-x="1892" d="M154 33v1368q0 22 7.5 27.5t28.5 5.5h136q22 0 29 -5.5t7 -27.5v-555h246q29 280 188 445t406 165q274 0 426 -199.5t152 -539.5q0 -346 -156.5 -543t-435.5 -197q-126 0 -225 37.5t-163.5 100t-108.5 152t-64 186t-25 209.5h-240v-629q0 -22 -7 -27.5t-29 -5.5h-136 q-21 0 -28.5 5.5t-7.5 27.5zM815 717q0 -252 92.5 -401.5t280.5 -149.5q97 0 170.5 41.5t118 116.5t66.5 173.5t22 219.5q0 124 -19.5 221t-61.5 172t-113.5 115.5t-168.5 40.5q-127 0 -215.5 -72t-130 -193.5t-41.5 -283.5z" />
<glyph unicode="&#x42f;" horiz-adv-x="1312" d="M69 15q-6 15 1 26l110 410q22 80 64 131.5t123 81.5q-111 48 -171.5 140.5t-60.5 219.5q0 181 123 297.5t320 116.5h471q60 0 85 -25.5t25 -85.5v-1294q0 -22 -8 -27.5t-29 -5.5h-143q-22 0 -29.5 5.5t-7.5 27.5v575h-270q-112 0 -179.5 -41.5t-97.5 -150.5l-104 -387 q-9 -29 -41 -29h-152q-23 0 -29 15zM348 1016q0 -99 65 -162t203 -63h324v452h-340q-61 0 -107.5 -15.5t-73.5 -39t-43.5 -55t-22 -59.5t-5.5 -58z" />
<glyph unicode="&#x430;" horiz-adv-x="1116" d="M92 319q0 57 13.5 107.5t47 99t84.5 83.5t130.5 56t179.5 21h233v37q0 49 -9.5 83t-34.5 62t-71.5 42t-115.5 14q-127 0 -283 -41q-20 -7 -30.5 -4.5t-14.5 20.5l-26 100q-10 30 18 39q152 60 371 60q399 0 399 -365v-627q0 -44 -35 -59q-157 -70 -409 -70 q-104 0 -183 18.5t-128.5 49t-80.5 75.5t-43 93t-12 106zM295 319q0 -95 62.5 -135.5t179.5 -40.5q140 0 241 35v336h-219q-264 0 -264 -195z" />
</font>
</defs>
</svg>
