<?xml version="1.0" standalone="no"?>
<!DOCTYPE svg PUBLIC "-//W3C//DTD SVG 1.1//EN" "http://www.w3.org/Graphics/SVG/1.1/DTD/svg11.dtd" >
<svg xmlns="http://www.w3.org/2000/svg" xmlns:xlink="http://www.w3.org/1999/xlink" version="1.1">
<metadata></metadata>
<defs>
<font id="pf_beausans_prosemibold" horiz-adv-x="3723" >
<font-face units-per-em="2048" ascent="1536" descent="-512" />
<missing-glyph horiz-adv-x="573" />
<glyph unicode="fj" horiz-adv-x="1212" d="M1079 158q0 -115 -19.5 -207.5t-52 -156t-82 -113t-102 -79.5t-118.5 -53q-38 -12 -48 17l-51 143q-2 8 -2 14v9t6.5 8t8 6t12.5 8q65 30 108 69.5t64.5 90t29 100.5t7.5 117v760h-402v-856q0 -22 -8.5 -28.5t-30.5 -6.5h-159q-24 0 -31.5 6t-7.5 29v856h-148 q-15 0 -22.5 5t-9 11t-1.5 17v77q0 21 5.5 29t27.5 12l148 35v86q0 357 415 357q157 0 338 -43q30 -8 21 -41l-27 -119q-6 -29 -37 -23q-122 27 -262 27q-64 0 -107.5 -13t-65 -37t-30 -50t-8.5 -60v-86h602q24 0 31.5 -6t7.5 -29v-882z" />
<glyph unicode="ffj" horiz-adv-x="1808" d="M1040 1075h594q24 0 31.5 -6t7.5 -29v-882q0 -115 -19 -207.5t-51.5 -156t-81.5 -113t-101.5 -79.5t-119.5 -53q-38 -10 -47 19l-51 143q-6 17 -1.5 24.5t24.5 18.5q65 32 108 72t64.5 89.5t29 98.5t7.5 115v762h-394v-858q0 -22 -7 -27.5t-29 -5.5h-162q-22 0 -30.5 6.5 t-8.5 28.5v856h-367v-858q0 -22 -8 -27.5t-31 -5.5h-159q-24 0 -31.5 6t-7.5 29v856h-148q-22 0 -27.5 7t-5.5 26v77q0 19 5.5 27t27.5 14l148 33v88q2 71 24 128.5t68.5 104.5t128 73t194.5 26q152 0 314 -39q99 74 291 74q169 0 329 -43q21 -4 24.5 -16t-3.5 -25l-25 -119 q-6 -29 -39 -20q-150 24 -252 24q-64 0 -108 -13t-66 -37t-30.5 -50t-8.5 -60v-96zM436 1075h367v99q0 58 12 110q-160 12 -178 12q-61 0 -103 -13t-62.5 -37t-28 -49t-7.5 -56v-66z" />
<glyph unicode="ff" horiz-adv-x="1366" d="M1356 1327q-9 -24 -37 -18q-83 12 -143 12q-125 0 -125 -111v-135h245q22 0 27.5 -6.5t5.5 -26.5v-118q0 -19 -5.5 -26t-27.5 -7h-245v-856q0 -22 -8.5 -28.5t-30.5 -6.5h-162q-22 0 -30.5 6.5t-8.5 28.5v856h-373v-856q0 -22 -8.5 -28.5t-30.5 -6.5h-159q-24 0 -31.5 6 t-7.5 29v856h-148q-15 0 -22.5 5t-9 11t-1.5 17v77q0 21 5.5 29t27.5 12l148 35v68q0 354 415 354q181 -8 293 -35q79 64 219 64q146 0 236 -31q29 -7 18 -39zM438 1075h373v129q0 42 6 80q-82 16 -168 16q-64 0 -107.5 -12.5t-65 -36t-30 -48.5t-8.5 -58v-70z" />
<glyph unicode="fi" horiz-adv-x="1212" d="M1079 35q0 -22 -8.5 -28.5t-32.5 -6.5h-159q-24 0 -31.5 6t-7.5 29v856h-402v-856q0 -22 -8.5 -28.5t-30.5 -6.5h-159q-24 0 -31.5 6t-7.5 29v856h-148q-15 0 -22.5 5t-9 11t-1.5 17v77q0 21 5.5 29t27.5 12l148 35v84q0 357 415 357q168 0 338 -45q30 -8 21 -41 l-27 -119q-6 -29 -37 -23q-131 29 -262 29q-64 0 -107.5 -13t-65 -37.5t-30 -51t-8.5 -60.5v-82h604q23 0 30 -7.5t7 -27.5v-1005z" />
<glyph unicode="fl" horiz-adv-x="1314" d="M438 35q0 -22 -8.5 -28.5t-30.5 -6.5h-159q-24 0 -31.5 6t-7.5 29v858h-148q-15 0 -22.5 5t-9 11t-1.5 17v75q0 21 5.5 29t27.5 12l148 35v86q0 357 415 357q156 0 302 -35l129 26q24 2 31 -3.5t7 -28.5v-1198q0 -55 15 -74t57 -19q29 0 74 5q18 2 25 -3t8 -22l14 -115 q4 -18 0 -25t-25 -18q-67 -28 -186 -28q-117 0 -169 55t-52 184v1082q-91 16 -197 16q-64 0 -107.5 -13t-65 -36.5t-30 -49.5t-8.5 -59v-86h246q22 0 27.5 -7t5.5 -26v-114q0 -21 -5.5 -28t-27.5 -7h-246v-858z" />
<glyph unicode="ffi" horiz-adv-x="1808" d="M1473 0q-23 0 -31 5.5t-8 27.5v858h-394v-858q0 -22 -7 -27.5t-29 -5.5h-162q-22 0 -30.5 6.5t-8.5 28.5v856h-367v-858q0 -22 -8 -27.5t-31 -5.5h-159q-24 0 -31.5 6t-7.5 29v856h-148q-22 0 -27.5 7t-5.5 26v77q0 19 5.5 27t27.5 14l148 33v80q11 336 415 336 q152 0 314 -39q99 74 291 74q182 -6 329 -43q19 -4 23 -14t-2 -27l-25 -119q-4 -16 -11.5 -19.5t-27.5 -3.5q-115 27 -252 27q-64 0 -108 -13t-66 -37t-30.5 -50t-8.5 -60v-92h596q23 0 30 -7.5t7 -27.5v-1007q0 -22 -7 -27.5t-32 -5.5h-161zM436 1075h367v94q0 57 12 109 q-77 12 -172 12q-64 0 -107 -12.5t-63.5 -36t-28.5 -48t-8 -56.5v-62z" />
<glyph unicode="ffl" horiz-adv-x="1904" d="M1436 1313q-98 18 -189 18q-62 0 -104 -13t-63 -37t-29.5 -50t-8.5 -60v-96h234q22 0 27.5 -7.5t5.5 -27.5v-114q0 -21 -5.5 -28t-27.5 -7h-236v-858q0 -22 -7 -27.5t-29 -5.5h-162q-22 0 -30.5 6.5t-8.5 28.5v856h-367v-858q0 -22 -8 -27.5t-31 -5.5h-159q-24 0 -31.5 6 t-7.5 29v856h-148q-22 0 -27.5 7t-5.5 26v77q0 19 5.5 27t27.5 14l148 33v86q11 336 415 336q154 0 314 -39q99 74 286 74q171 -6 293 -37l129 27q24 2 31.5 -4t7.5 -29v-1210q0 -55 15 -74t57 -19q38 0 74 4q18 2 24.5 -2.5t7.5 -21.5l15 -115q4 -18 0 -25t-25 -18 q-67 -28 -186 -28q-117 0 -169 55t-52 184v1094zM436 1075h367v101q0 58 12 108q-104 14 -178 14q-61 0 -103 -13t-62.5 -37t-28 -49t-7.5 -56v-68z" />
<glyph unicode="ft" horiz-adv-x="1435" d="M1413 47q4 -11 1 -21.5t-21 -17.5q-90 -31 -248 -31q-163 0 -234 70.5t-71 220.5v625h-402v-858q0 -22 -8.5 -28.5t-30.5 -6.5h-161q-22 0 -30.5 6.5t-8.5 28.5v858h-148q-15 0 -22.5 5t-9 11t-1.5 17v75q0 20 6.5 28.5t28.5 12.5l146 33v133q0 147 77.5 229.5 t239.5 82.5q134 0 229 -29q30 -9 19 -39l-27 -131q-6 -27 -37 -21q-72 13 -135 13q-127 0 -127 -113v-125h408l31 197q4 22 12 29.5t31 15.5l120 41q37 10 37 -31v-252h219q15 0 22.5 -5t9 -11t1.5 -17v-114q0 -21 -5.5 -28t-27.5 -7h-219v-594q0 -64 29 -89.5t94 -25.5 q54 0 156 15q32 6 35 -21z" />
<glyph unicode=" "  horiz-adv-x="573" />
<glyph unicode="&#x09;" horiz-adv-x="573" />
<glyph unicode="&#xa0;" horiz-adv-x="573" />
<glyph unicode="!" horiz-adv-x="583" d="M375 487q0 -22 -10 -29t-37 -7h-78q-40 0 -43 32l-45 912q-3 39 39 39h180q24 0 33.5 -11.5t7.5 -27.5zM457 143q0 -68 -47.5 -114.5t-116.5 -46.5t-116.5 46t-47.5 115q0 66 48.5 114t115.5 48q69 0 116.5 -47t47.5 -115z" />
<glyph unicode="&#x22;" horiz-adv-x="845" d="M676 897q-4 -23 -13.5 -30t-35.5 -7h-72q-40 0 -43 33l-51 506q-2 18 8.5 28.5t32.5 10.5h184q26 0 34.5 -11t6.5 -28zM332 897q-4 -23 -13.5 -30t-35.5 -7h-70q-25 0 -34 7t-11 26l-49 506q-5 18 5.5 28.5t33.5 10.5h184q26 0 34.5 -11t6.5 -28z" />
<glyph unicode="#" horiz-adv-x="1263" d="M1182 801q-5 -19 -11.5 -26t-23.5 -7h-170l-70 -338h170q31 0 25 -33l-19 -82q-6 -30 -32 -30h-172l-54 -258q-3 -13 -5.5 -17.5t-8.5 -7t-20 -2.5h-99q-19 0 -25.5 5.5t-2.5 23.5l51 256h-269l-53 -258q-5 -18 -10 -22.5t-23 -4.5h-98q-19 0 -27 6t-4 23l54 256h-168 q-32 0 -23 30l17 84q4 14 6 19t8.5 8.5t19.5 3.5h168l70 338h-172q-19 0 -24 7t-3 26l19 82q4 11 6.5 16t10 9.5t20.5 4.5h174l53 258q4 17 11 22t24 5h94q22 0 29.5 -5.5t3.5 -23.5l-54 -256h271l53 258q5 18 11 22.5t24 4.5h94q20 0 27.5 -5.5t3.5 -23.5l-53 -256h168 q18 0 23 -7t3 -25zM547 768l-72 -338h270l70 338h-268z" />
<glyph unicode="$" horiz-adv-x="1263" d="M596 -203q0 -20 -6 -24t-24 -4h-7h-37h-6.5h-6h-5t-4.5 0.5t-4 1.5t-3.5 2.5t-2 3.5t-2 5t-1 6.5t-0.5 8.5v191q-197 23 -344 106q-25 12 -10 47q51 126 53 135q12 27 41 17q130 -57 260 -80v446q-158 70 -234.5 152t-76.5 211q-2 139 77.5 236t233.5 128v173q0 11 1 17 t8.5 8.5t9 2.5h16.5h37q28 0 32 -5q5 -6 5 -23v-1762zM666 1559v9t1.5 7t2 5t3.5 3.5t3.5 2t5 1t5.5 0.5h7h8h33q28 0 32 -5q5 -6 5 -23v-168q141 -16 256 -72q24 -9 14 -41l-49 -137q-6 -18 -14 -21.5t-21 2.5q-116 35 -186 47v-395q63 -28 107 -52t93.5 -60t79.5 -74.5 t50 -92.5t20 -118q0 -164 -95.5 -262.5t-254.5 -124.5v-193q0 -20 -6 -24t-24 -4h-7h-33h-6q-13 0 -18 1t-8.5 7t-3.5 20v1762zM897 373q0 54 -30.5 93.5t-94.5 76.5v-332q60 20 92.5 62.5t32.5 99.5zM406 1034q0 -81 81 -135v260q-81 -44 -81 -125z" />
<glyph unicode="%" horiz-adv-x="1925" d="M1835 416q0 -198 -95 -313t-282 -115q-185 0 -279 113t-94 313q0 199 95.5 314.5t281.5 115.5q190 0 281.5 -112.5t91.5 -315.5zM1640 414q0 76 -15.5 134t-58 98t-108.5 40q-176 0 -176 -270q0 -120 42 -196.5t138 -76.5q64 0 105.5 40t57 98t15.5 133zM840 963 q0 -198 -95 -313t-282 -115q-185 0 -279 113t-94 313q0 199 95.5 314.5t281.5 115.5q190 0 281.5 -112.5t91.5 -315.5zM645 961q0 76 -15.5 134t-58 98t-108.5 40q-176 0 -176 -270q0 -120 42 -196.5t138 -76.5q64 0 105.5 40t57 98t15.5 133zM629 -18q-11 -19 -23 -27 t-35 -8h-84q-41 0 -20 35l842 1417q8 15 12 20.5t12 9t21 3.5h96q14 0 20 -8.5t-2 -28.5z" />
<glyph unicode="&#x26;" horiz-adv-x="1536" d="M1423 700q6 -25 -26 -28q-66 -12 -118.5 -39.5t-91 -70.5t-64 -84t-54.5 -101q20 -24 83 -96t93 -107q71 -83 119 -135q5 -5 6.5 -14.5t-4.5 -17t-18 -7.5h-183q-46 0 -67 27q-37 37 -70 75q-15 16 -33 37t-29.5 34t-13.5 15q-182 -213 -424 -213q-180 0 -284.5 98 t-104.5 269q0 143 85 263.5t220 201.5q-61 73 -101 156t-40 157q0 151 105.5 244.5t259.5 93.5q153 0 253.5 -85.5t100.5 -221.5q0 -232 -266 -397q66 -87 174 -211q139 246 344 299q46 13 102 16q21 0 27 -18zM551 182q71 0 145.5 50t120.5 122q-50 59 -140.5 171.5 t-101.5 125.5q-208 -137 -208 -291q0 -178 184 -178zM801 1128q0 55 -34.5 96.5t-96.5 41.5q-65 0 -103.5 -39t-38.5 -101q0 -97 109 -223q164 98 164 225z" />
<glyph unicode="'" horiz-adv-x="501" d="M332 897q-4 -23 -13.5 -30t-35.5 -7h-70q-25 0 -34 7t-11 26l-49 506q-3 39 39 39h184q26 0 34.5 -11t6.5 -28z" />
<glyph unicode="(" horiz-adv-x="647" d="M596 -63q16 -22 -2 -37l-88 -62q-15 -11 -23.5 -9t-21.5 15q-84 84 -148.5 167t-120.5 184t-86 217.5t-30 242.5q0 445 383 828q23 23 47 4l86 -60q19 -14 4 -32q-134 -165 -200 -339t-66 -388q0 -225 65.5 -398t200.5 -333z" />
<glyph unicode=")" horiz-adv-x="659" d="M82 -66q135 165 200.5 337t65.5 386q0 225 -66.5 400t-199.5 336q-15 20 4 32l86 62q18 12 26.5 11t20.5 -13q83 -85 146.5 -169t120 -186.5t86.5 -220t30 -243.5q0 -448 -383 -820q-13 -14 -21 -16t-26 8l-86 60q-20 14 -4 36z" />
<glyph unicode="*" horiz-adv-x="1009" d="M874 1104q13 -36 -18 -39l-244 -61l162 -187q16 -18 14 -28t-20 -21l-82 -61q-21 -17 -29.5 -15t-19.5 23q-10 14 -68 110t-61 105l-129 -219q-17 -33 -45 -11q-5 2 -46 34t-42 36q-17 10 -18.5 19t12.5 26l161 191l-233 59q-20 6 -24 12.5t1 30.5l31 98q9 34 45 19 l228 -97l-25 252q-2 14 6.5 21.5t26.5 7.5h108q20 0 25.5 -5.5t3.5 -23.5l-23 -254l226 99q24 9 32 4.5t13 -23.5z" />
<glyph unicode="+" horiz-adv-x="1263" d="M1141 637q0 -24 -6 -31.5t-29 -7.5h-358v-373q0 -23 -7.5 -29t-31.5 -6h-152q-22 0 -30.5 6.5t-8.5 28.5v373h-360q-23 0 -29 7.5t-6 31.5v135q0 24 6.5 32.5t28.5 8.5h360v371q0 22 8.5 28.5t30.5 6.5h152q24 0 31.5 -6t7.5 -29v-371h358q22 0 28.5 -8.5t6.5 -32.5v-135 z" />
<glyph unicode="," horiz-adv-x="538" d="M297 -225q-6 -24 -13 -30.5t-30 -6.5h-86q-23 0 -33.5 8t-9.5 25l29 505q4 41 41 41h213q49 0 38 -41z" />
<glyph unicode="-" horiz-adv-x="768" d="M666 512q0 -22 -6.5 -30.5t-28.5 -8.5h-494q-22 0 -28.5 8.5t-6.5 30.5v168q0 24 6 31.5t29 7.5h494q23 0 29 -7.5t6 -31.5v-168z" />
<glyph unicode="." horiz-adv-x="581" d="M465 145q0 -72 -49.5 -121t-124.5 -49q-71 0 -121.5 49.5t-50.5 120.5q0 72 50.5 122t121.5 50q75 0 124.5 -49t49.5 -123z" />
<glyph unicode="/" horiz-adv-x="919" d="M256 -164q-9 -33 -53 -33h-142q-41 0 -30 35l643 1723q8 32 49 32h147q40 0 27 -34z" />
<glyph unicode="0" horiz-adv-x="1263" d="M1192 690q0 -161 -34 -290.5t-102 -224.5t-176.5 -146.5t-250.5 -51.5q-186 0 -312 89t-185.5 245.5t-59.5 374.5q0 217 60.5 375t188 248t312.5 90q145 0 253.5 -50t174.5 -144.5t98.5 -222.5t32.5 -292zM950 686q0 84 -9.5 157t-33 139.5t-59.5 113.5t-92 74.5 t-127 27.5q-70 0 -124.5 -27.5t-90 -74t-58 -112.5t-32 -138t-9.5 -156t9 -156t32 -139t58.5 -114t91 -75t127.5 -28q87 0 151 41.5t99 114.5t51 160t16 192z" />
<glyph unicode="1" horiz-adv-x="1263" d="M1038 39q0 -24 -6 -31.5t-28 -7.5h-713q-23 0 -29 7.5t-6 31.5v127q0 24 6 31.5t29 7.5h231v944l-227 -37q-22 -4 -28.5 2.5t-6.5 26.5v116q0 20 6.5 30.5t28.5 17.5l321 90q38 10 70 8.5t53 -23.5t21 -61v-1114h244q22 0 28 -7.5t6 -31.5v-127z" />
<glyph unicode="2" horiz-adv-x="1263" d="M1098 39q0 -24 -6 -31.5t-29 -7.5h-768q-94 0 -132 36.5t-38 133.5q0 70 47 160t135 180q130 132 324 250q128 78 174.5 132t46.5 124q0 76 -61.5 122t-180.5 46q-167 0 -313 -107q-19 -12 -29.5 -12t-23.5 16l-80 113q-19 28 8 49q204 156 455 156q97 0 181 -23 t149.5 -67.5t103 -116.5t37.5 -164q0 -74 -23 -136t-69 -115t-104 -96.5t-140 -90.5q-130 -74 -232 -172.5t-143 -212.5h676q23 0 29 -7.5t6 -31.5v-127z" />
<glyph unicode="3" horiz-adv-x="1263" d="M840 725q117 -23 186.5 -110t69.5 -207q0 -190 -142 -310.5t-374 -120.5q-301 0 -474 140q-20 17 -4 45l76 119q19 32 60 8q138 -99 321 -99q144 0 216.5 65t72.5 179q0 82 -67 139.5t-195 57.5h-58q-36 0 -49.5 12t-13.5 49v68q0 38 11.5 52.5t41.5 14.5h55 q115 0 177.5 50.5t62.5 138.5q0 44 -20 78t-54 53.5t-74 29t-85 9.5q-82 0 -167 -25t-147 -69q-40 -24 -59 8l-70 108q-20 26 4 45q83 71 209 109.5t250 38.5q127 0 228 -37.5t165 -119t64 -197.5q0 -105 -60 -191t-157 -121v-10z" />
<glyph unicode="4" horiz-adv-x="1263" d="M1194 330q0 -23 -7.5 -30t-31.5 -7h-137v-258q0 -22 -8.5 -28.5t-32.5 -6.5h-160q-22 0 -29.5 6.5t-7.5 28.5v256h-602q-53 0 -85 22.5t-32 83.5v35q0 75 48 139l571 740q22 29 37 45t45.5 32.5t64.5 16.5h78q63 0 88 -26.5t25 -92.5v-797h137q24 0 31.5 -6.5t7.5 -29.5 v-123zM778 1083l-6 7l-453 -592l5 -9h454v594z" />
<glyph unicode="5" horiz-adv-x="1263" d="M1149 459q0 -226 -150 -356t-395 -130q-319 0 -491 144q-23 23 -9 43l82 125q22 31 62 4q146 -99 342 -99q148 0 232.5 70t84.5 189q0 111 -74.5 168t-185.5 57q-34 0 -65.5 -3.5t-51 -6.5t-51 -13.5t-41.5 -14.5t-48.5 -20t-47.5 -20q-50 -20 -102 -2l-47 16 q-36 12 -51 36.5t-11 70.5l51 520q7 69 45 104t95 35h694q24 0 31.5 -8t7.5 -33v-127q0 -24 -8 -32.5t-31 -8.5h-610l-37 -338q120 50 303 50q206 0 341.5 -115.5t135.5 -304.5z" />
<glyph unicode="6" horiz-adv-x="1263" d="M944 432q0 108 -67.5 173t-198.5 65q-174 0 -346 -49q-2 -35 -2 -64q0 -167 92 -270t240 -103q131 0 206.5 64t75.5 184zM1188 446q0 -117 -44 -209t-119 -147.5t-168 -84t-198 -28.5q-278 0 -424.5 170.5t-146.5 475.5q0 169 38.5 308t117.5 246.5t211 167.5t307 60 q165 0 256 -39q19 -5 24 -13.5t-4 -33.5l-39 -131q-6 -18 -17.5 -22t-31.5 3q-91 27 -186 27q-176 0 -282.5 -99.5t-133.5 -271.5q64 22 158 35.5t176 13.5q105 0 194.5 -25t160 -75.5t111 -134.5t40.5 -193z" />
<glyph unicode="7" horiz-adv-x="1263" d="M1008 1378q102 0 102 -88v-57q0 -62 -33 -121l-581 -1075q-12 -23 -24.5 -30t-41.5 -7h-176q-19 0 -28 14.5t1 34.5l607 1120h-697q-23 0 -30 8.5t-7 32.5v125q0 25 7 34t30 9h871z" />
<glyph unicode="8" horiz-adv-x="1263" d="M909 737q120 -35 182 -131t62 -211q0 -79 -33.5 -152.5t-96.5 -133.5t-166 -96t-230 -36q-255 0 -391 113.5t-136 300.5q0 115 69 212t175 134v6q-50 19 -88 52t-59.5 71t-32 75t-10.5 71q0 121 64 211.5t171 136t240 45.5q214 0 342.5 -104.5t128.5 -270.5 q0 -46 -18 -98.5t-63.5 -106.5t-109.5 -82v-6zM907 410q0 107 -79 167t-201 60q-117 0 -199 -64.5t-82 -169.5q0 -96 68 -160.5t213 -64.5q76 0 133 21t87.5 56t45 73.5t14.5 81.5zM862 1001q0 89 -60 143t-177 54q-112 0 -173 -59t-61 -144q0 -77 67 -126.5t167 -49.5 q95 0 166 53.5t71 128.5z" />
<glyph unicode="9" horiz-adv-x="1263" d="M317 950q0 -106 72 -171.5t193 -65.5q174 0 346 49q4 23 4 65q0 161 -98 267t-234 106q-117 0 -200 -67.5t-83 -182.5zM74 936q0 117 44 209t118.5 147.5t167.5 84t198 28.5q275 0 423.5 -170.5t148.5 -474.5q0 -134 -24 -250t-76 -215t-130 -169t-191.5 -109.5 t-254.5 -39.5q-163 0 -254 39q-19 7 -24 14.5t1 32.5l41 132q6 34 45 22q32 -11 88 -21t101 -10q175 0 281 99t136 272q-139 -49 -319 -49q-105 0 -196.5 25t-165 75.5t-116 134.5t-42.5 193z" />
<glyph unicode=":" horiz-adv-x="579" d="M463 918q0 -71 -50 -120.5t-122 -49.5t-122 49t-50 121q0 69 50 119t122 50q73 0 122.5 -48.5t49.5 -120.5zM463 152q0 -72 -50 -121t-122 -49t-122 48t-50 120q0 69 50 119t122 50q74 0 123 -47.5t49 -119.5z" />
<glyph unicode=";" horiz-adv-x="569" d="M483 918q0 -71 -50 -120.5t-122 -49.5q-73 0 -122.5 49t-49.5 121t49.5 120.5t122.5 48.5q72 0 122 -48.5t50 -120.5zM307 -223q-8 -25 -15.5 -32t-29.5 -7h-84q-48 0 -45 35l31 503q4 41 41 41h211q27 0 35.5 -12.5t3.5 -28.5z" />
<glyph unicode="&#x3c;" horiz-adv-x="1263" d="M426 709l670 -297q29 -17 36 -28t7 -40v-139q0 -42 -37 -25l-918 420q-30 14 -43.5 27.5t-17.5 36.5v69q0 33 13.5 48t47.5 30l916 424q25 8 32 1t7 -30v-131q0 -25 -6.5 -38t-28.5 -23z" />
<glyph unicode="=" horiz-adv-x="1263" d="M1100 829q0 -24 -6 -31t-29 -7h-866q-23 0 -29 7t-6 31v129q0 24 6 31.5t29 7.5h866q23 0 29 -7.5t6 -31.5v-129zM1102 442q0 -24 -6 -31.5t-29 -7.5h-868q-22 0 -28.5 7.5t-6.5 29.5v131q0 22 5.5 29.5t27.5 7.5h870q23 0 29 -7.5t6 -31.5v-127z" />
<glyph unicode="&#x3e;" horiz-adv-x="1263" d="M160 1014q-22 10 -28.5 23t-6.5 38v131q0 23 7 30t32 -1l915 -424q35 -15 48.5 -30t13.5 -48v-69q-4 -23 -18 -36.5t-44 -27.5l-917 -420q-37 -17 -37 25v139q0 29 7 40t36 28l670 297z" />
<glyph unicode="?" horiz-adv-x="1124" d="M567 1448q133 0 235 -37.5t165 -120.5t63 -203q0 -54 -17 -103.5t-50 -94.5t-64.5 -78t-77.5 -74q-10 -9 -38.5 -34t-38.5 -35t-33.5 -32.5t-33 -34.5t-25 -32t-21.5 -35.5t-11.5 -34.5t-5.5 -38v-43q0 -31 -30 -31h-174q-31 0 -31 31v57q0 36 6.5 68.5t23.5 63t30 52 t42 50.5t43.5 43t50 45t46.5 41q50 45 77 73.5t50.5 73.5t23.5 92q0 26 -10 51t-32.5 49t-67 39t-105.5 15q-160 0 -311 -103q-17 -12 -29 -11.5t-22 16.5l-74 120q-16 29 10 47q94 70 215 109t221 39zM659 137q0 -70 -48 -118t-119 -48q-72 0 -121 47t-49 119 q0 69 51 117.5t123 48.5q27 0 54 -9t52 -27.5t41 -52t16 -77.5z" />
<glyph unicode="@" horiz-adv-x="2013" d="M1335 520q0 -131 123 -131q106 0 163.5 88t57.5 232q0 280 -168.5 450t-455.5 170q-159 0 -293.5 -52t-226.5 -141t-143.5 -210.5t-51.5 -259.5q0 -192 85.5 -341t241 -232t355.5 -83q138 0 266 47q13 5 20.5 6t14 -3.5t10.5 -16.5l31 -88q6 -18 0 -27.5t-25 -17.5 q-133 -64 -323 -64q-194 0 -355 60.5t-270.5 168t-170 259t-60.5 330.5q0 176 69 330.5t187.5 263.5t284.5 172t354 63q368 0 584 -211t216 -567q0 -220 -118.5 -356t-309.5 -136q-101 0 -167.5 35.5t-85.5 93.5q-50 -38 -121 -64t-135 -26q-153 0 -230.5 67t-77.5 197 q0 60 20 111.5t60.5 93.5t111.5 66t165 24h170v19q0 65 -32 99t-122 34q-93 0 -219 -31q-23 -6 -34 -2t-15 23l-21 90q-6 17 -0.5 27t27.5 20q130 43 289 43q168 0 246.5 -74.5t78.5 -220.5v-328zM1135 664h-148q-26 0 -46 -2t-45.5 -9.5t-42.5 -21t-28.5 -39t-11.5 -60.5 q0 -106 141 -106q95 0 181 59v179z" />
<glyph unicode="A" horiz-adv-x="1308" d="M913 313h-520l-90 -278q-6 -19 -17.5 -27t-35.5 -8h-189q-43 0 -28 43l442 1296q20 59 46.5 79t84.5 20h88q63 0 90 -19.5t47 -79.5l445 -1296q15 -43 -27 -43h-188q-26 0 -38 5.5t-19 27.5zM455 526h393l-107 344l-86 291h-10l-84 -284z" />
<glyph unicode="B" horiz-adv-x="1359" d="M1024 786q111 -43 167 -140t56 -214q0 -190 -138 -311t-341 -121h-500q-64 0 -89 27t-25 90v1202q0 62 25 89.5t89 27.5l475 2q131 0 228 -35.5t156 -117.5t59 -204q0 -90 -45.5 -165t-116.5 -115v-15zM989 449q0 101 -64 162t-182 61h-340v-447h338q69 0 120 21t77.5 56 t38.5 71.5t12 75.5zM403 879h332q26 0 50 4t50.5 16t46 31t32 51t12.5 74q0 73 -48 116t-130 43h-345v-335z" />
<glyph unicode="C" horiz-adv-x="1269" d="M778 209q136 0 316 70q30 9 40 4t17 -25l53 -117q13 -30 10.5 -40t-20.5 -21q-175 -103 -453 -103q-628 0 -628 723q0 339 178 546.5t467 207.5q228 0 387 -86q18 -8 21.5 -18.5t-7.5 -40.5l-57 -119q-8 -22 -15.5 -26.5t-31.5 3.5q-149 58 -287 58q-99 0 -176 -43 t-124 -117t-71 -167t-24 -198q0 -491 405 -491z" />
<glyph unicode="D" horiz-adv-x="1409" d="M268 0q-64 0 -89 27t-25 90v1202q0 62 25 89.5t89 27.5l379 2q163 0 288 -52.5t203.5 -148t118 -224t39.5 -286.5q0 -126 -21.5 -233.5t-70 -199.5t-120.5 -156.5t-178 -101t-238 -36.5h-400zM1038 723q0 109 -20 194t-65.5 154t-127.5 106t-198 37h-221v-991h227 q115 0 195.5 37t125.5 106.5t64.5 156.5t19.5 200z" />
<glyph unicode="E" horiz-adv-x="1224" d="M1145 47q0 -25 -9 -36t-34 -11h-584q-103 0 -177 30t-113.5 84t-56.5 115.5t-17 137.5v700q0 74 20.5 138t62 117t114 83.5t167.5 30.5h572q25 0 32.5 -10t7.5 -37v-129q0 -27 -7.5 -36.5t-32.5 -9.5h-545q-76 0 -109 -33.5t-33 -101.5v-215h619q26 0 33.5 -9.5 t7.5 -39.5v-113q0 -26 -8 -36.5t-33 -10.5h-619v-299q0 -133 142 -133h557q28 0 35.5 -9.5t7.5 -39.5v-127z" />
<glyph unicode="F" horiz-adv-x="1196" d="M403 43q0 -29 -8.5 -36t-38.5 -7h-155q-25 0 -36 9t-11 34v1024q0 60 11 111.5t37 100t67 82.5t104.5 54.5t144.5 20.5h576q28 0 35.5 -10t7.5 -37v-127q0 -27 -8.5 -37.5t-34.5 -10.5h-549q-76 0 -109 -32.5t-33 -100.5v-239h615q26 0 33.5 -9t7.5 -38v-117 q0 -25 -8 -36t-33 -11h-615v-588z" />
<glyph unicode="G" horiz-adv-x="1374" d="M766 205q130 0 231 37v385q-16 2 -53 2q-130 0 -264 -58q-24 -12 -35.5 -11t-21.5 20l-48 129q-8 17 -4.5 28t21.5 21q69 41 165.5 65.5t190.5 24.5q90 0 154 -12q89 -17 121 -61t32 -140v-477q0 -52 -38 -74q-101 -61 -235 -84t-241 -23q-312 0 -470 183t-158 545 q0 344 170.5 546.5t474.5 202.5q242 0 401 -86q18 -8 21 -18.5t-9 -40.5l-55 -127q-11 -22 -18 -25.5t-31 2.5q-149 58 -303 58q-103 0 -180.5 -41.5t-122.5 -115t-66.5 -163.5t-21.5 -197q0 -89 10.5 -160t38 -135t71 -107t112.5 -68t161 -25z" />
<glyph unicode="H" horiz-adv-x="1445" d="M1292 43q0 -29 -8.5 -36t-38.5 -7h-155q-26 0 -37 9t-11 34v602h-636v-602q0 -28 -9.5 -35.5t-40.5 -7.5h-155q-25 0 -36 9t-11 34v1348q0 25 11 34t36 9h155q31 0 40.5 -7.5t9.5 -35.5v-531h636v531q0 25 11 34t37 9h155q30 0 38.5 -7t8.5 -36v-1348z" />
<glyph unicode="I" horiz-adv-x="606" d="M430 43q0 -28 -9.5 -35.5t-39.5 -7.5h-156q-26 0 -36.5 9t-10.5 34v1348q0 25 10.5 34t36.5 9h156q30 0 39.5 -7.5t9.5 -35.5v-1348z" />
<glyph unicode="J" horiz-adv-x="1179" d="M471 -23q-103 0 -224.5 25.5t-211.5 77.5q-18 11 -20.5 18.5t8.5 34.5l61 131q7 16 19 18t30 -6q160 -73 332 -73q168 0 236.5 95t68.5 288l-2 805q0 27 10.5 35t36.5 8h158q28 0 37.5 -7.5t9.5 -35.5q0 -206 -1 -463t-1 -369q0 -582 -547 -582z" />
<glyph unicode="K" horiz-adv-x="1343" d="M834 918l487 -871q27 -47 -21 -47h-182q-30 0 -42 2t-24 11t-24 30l-366 668l-261 -320v-348q0 -29 -8.5 -36t-38.5 -7h-153q-25 0 -36 9t-11 34v1348q0 25 11 34t36 9h153q30 0 38.5 -7t8.5 -36v-623l9 -4l204 260l312 381q26 29 80 29h208q19 0 25 -11t-6 -24z" />
<glyph unicode="L" horiz-adv-x="1159" d="M154 1393q0 25 10.5 34t36.5 9h153q30 0 39.5 -7.5t9.5 -35.5v-1026q0 -146 150 -146h549q23 0 29 -7.5t6 -31.5v-143q0 -22 -6.5 -30.5t-28.5 -8.5h-588q-83 0 -146.5 20.5t-103.5 54t-65 82t-35 99.5t-10 111v1026z" />
<glyph unicode="M" horiz-adv-x="1716" d="M1325 989h-12l-109 -278l-182 -453q-24 -55 -45.5 -72.5t-71.5 -17.5h-92q-50 0 -72 17.5t-43 72.5l-180 432l-110 275h-13v-922q0 -28 -9.5 -35.5t-37.5 -7.5h-147q-26 0 -36.5 8t-10.5 35v1268q0 66 25.5 95.5t92.5 29.5h84q54 0 80 -18.5t49 -74.5l244 -600l127 -317 h8l127 319l242 598q23 55 50.5 74t82.5 19h78q65 0 92 -28.5t27 -92.5v-1272q0 -28 -9.5 -35.5t-37.5 -7.5h-146q-25 0 -35 8t-10 35v946z" />
<glyph unicode="N" horiz-adv-x="1468" d="M399 1061v-1018q0 -29 -8.5 -36t-38.5 -7h-151q-25 0 -36 9t-11 34v1268q0 67 26 96t92 29h72q51 0 76 -18t59 -72l408 -678l174 -295h8v1020q0 26 10 34.5t37 8.5h152q27 0 37 -8.5t10 -34.5v-1270q0 -63 -26.5 -93t-92.5 -30h-72q-51 0 -75 17t-60 71l-409 680 l-172 293h-9z" />
<glyph unicode="O" horiz-adv-x="1472" d="M1360 723q0 -361 -158.5 -553.5t-472.5 -192.5q-307 0 -461.5 187t-154.5 551q0 172 46 312t128 234t196.5 144.5t251.5 50.5q305 0 465 -193t160 -540zM1102 715q0 87 -9 158.5t-34 140t-64.5 115t-104.5 74.5t-151 28q-92 0 -164 -40t-116 -110t-67 -160.5t-23 -195.5 q0 -99 11 -176.5t37 -143.5t67.5 -110t104.5 -68t146 -24q82 0 146 28t105 75t67.5 114t37.5 139t11 156z" />
<glyph unicode="P" horiz-adv-x="1280" d="M401 43q0 -29 -8.5 -36t-38.5 -7h-153q-25 0 -36 9t-11 34v1278q0 60 25.5 88.5t88.5 28.5h488q204 0 332.5 -122.5t128.5 -316.5q0 -34 -5 -70.5t-19 -82t-36.5 -86.5t-60 -80.5t-86.5 -68.5t-119.5 -46.5t-155.5 -17.5h-334v-504zM958 983q0 39 -11.5 76t-37.5 73 t-78 58t-124 22h-304v-454h308q124 0 185.5 61t61.5 164z" />
<glyph unicode="Q" horiz-adv-x="1472" d="M1360 723q0 -361 -158.5 -553.5t-472.5 -192.5q-307 0 -461.5 187t-154.5 551q0 172 46 312t128 234t196.5 144.5t251.5 50.5q305 0 465 -193t160 -540zM1102 715q0 87 -9 158.5t-34 140t-64.5 115t-104.5 74.5t-151 28q-92 0 -164 -40t-116 -110t-67 -160.5t-23 -195.5 q0 -99 11 -176.5t37 -143.5t67.5 -110t104.5 -68t146 -24q82 0 146 28t105 75t67.5 114t37.5 139t11 156zM676 -305q-22 0 -28.5 8.5t-6.5 28.5v125q0 22 6.5 29.5t28.5 7.5h231q161 0 296.5 -36.5t207.5 -88.5q18 -12 21 -22.5t-7 -29.5l-59 -104q-21 -38 -63 -14 q-172 96 -451 96h-176z" />
<glyph unicode="R" horiz-adv-x="1325" d="M1268 43q5 -15 -2 -29t-25 -14h-182q-47 0 -58 33l-98 379q-30 107 -86.5 146.5t-167.5 39.5h-241v-555q0 -28 -9 -35.5t-39 -7.5h-159q-25 0 -36 9t-11 34v1278q0 62 25 89.5t89 27.5h484q205 0 328.5 -114.5t123.5 -299.5q0 -119 -57.5 -209t-153.5 -129v-8 q68 -29 104 -80t58 -131zM950 1012q0 35 -9.5 66.5t-32.5 63.5t-69.5 51t-111.5 19h-317v-405h303q119 0 178 56.5t59 148.5z" />
<glyph unicode="S" horiz-adv-x="1200" d="M127 1067q0 178 118.5 284.5t344.5 106.5q113 0 235.5 -23t214.5 -63q18 -11 21 -18.5t-4 -28.5l-49 -139q-7 -22 -14.5 -25.5t-24.5 2.5q-204 70 -383 70q-100 0 -151.5 -42t-51.5 -106q0 -71 69.5 -121t243.5 -118q64 -27 99 -42.5t89.5 -43.5t85 -50.5t67.5 -57.5 t56 -70.5t32.5 -83.5t13.5 -103q0 -104 -39.5 -185t-109.5 -131.5t-162.5 -76t-202.5 -25.5q-321 0 -533 115q-27 12 -12 49l61 140q15 30 45 18q229 -96 408 -96q147 0 216 50.5t69 135.5q0 82 -63 132.5t-220 111.5q-121 47 -200 87t-144 91.5t-95 114t-30 141.5z" />
<glyph unicode="T" horiz-adv-x="1150" d="M1124 1253q0 -21 -7 -28.5t-30 -7.5h-389v-1174q0 -29 -8.5 -36t-38.5 -7h-159q-26 0 -37 9t-11 34v1174h-381q-22 0 -28 7t-6 29v142q0 24 6 31.5t28 7.5h1024q23 0 30 -7.5t7 -31.5v-142z" />
<glyph unicode="U" horiz-adv-x="1427" d="M1274 199q0 -82 -37 -131.5t-125 -67.5q-113 -25 -321 -25q-177 0 -294.5 31.5t-196 106.5t-112.5 196.5t-34 304.5l-2 777q0 25 11 34t36 9h159q30 0 39 -7.5t9 -35.5v-781q0 -89 9.5 -151t34 -114.5t68 -83t111 -47.5t162.5 -17q128 0 235 20v1174q0 25 10.5 34t36.5 9 h160q29 0 35 -6.5t6 -36.5v-1192z" />
<glyph unicode="V" horiz-adv-x="1329" d="M659 266h13l94 322l268 819q6 19 16 24t33 5h195q30 0 18 -31l-452 -1311q-18 -54 -43 -73t-76 -21h-111q-56 0 -82 18t-49 76l-450 1311q-12 31 20 31h197q23 0 31.5 -6.5t13.5 -24.5l262 -813z" />
<glyph unicode="W" horiz-adv-x="1765" d="M881 1133l-72 -347l-150 -682q-12 -58 -37 -82t-75 -24h-109q-57 0 -84.5 17.5t-40.5 74.5l-282 1313q-9 33 24 33h199q24 0 34.5 -6.5t14.5 -26.5l131 -739l60 -345h12l69 345l140 663q11 58 37.5 83.5t89.5 25.5h100q54 0 79 -25.5t36 -79.5l137 -667l70 -340h12 l59 342l133 735q9 35 45 35h199q32 0 23 -33l-283 -1311q-13 -58 -40 -76t-85 -18h-104q-51 0 -77.5 23.5t-39.5 82.5l-145 682l-70 347h-10z" />
<glyph unicode="X" horiz-adv-x="1206" d="M600 539l-291 -502q-12 -23 -26 -30t-45 -7h-197q-16 0 -20.5 11t2.5 22l438 706l-408 666q-7 11 -2 21t23 10h192q33 0 46.5 -7t25.5 -30l268 -459l266 459q12 23 25.5 30t46.5 7h184q18 0 23 -11.5t-4 -23.5l-402 -658l439 -710q7 -11 1 -22t-22 -11h-200 q-31 0 -45.5 7t-26.5 30z" />
<glyph unicode="Y" horiz-adv-x="1220" d="M621 776l157 324l154 303q11 20 20.5 26.5t28.5 6.5h199q30 0 18 -29l-459 -854v-516q0 -23 -7.5 -30t-31.5 -7h-170q-21 0 -29.5 7.5t-8.5 29.5v514l-469 854q-6 11 -1 21t21 10h207q22 0 31 -6.5t20 -28.5l160 -314l149 -311h11z" />
<glyph unicode="Z" horiz-adv-x="1273" d="M1184 1272q0 -68 -62 -144l-751 -901l4 -12h788q22 0 28.5 -8.5t6.5 -32.5v-135q0 -24 -6 -31.5t-29 -7.5h-987q-115 0 -115 104v39q0 43 13 74t43 64l778 931l-2 9h-694q-22 0 -28.5 8.5t-6.5 30.5v135q0 24 6.5 32.5t28.5 8.5h866q63 0 91 -24.5t28 -86.5v-53z" />
<glyph unicode="[" horiz-adv-x="681" d="M621 -147q0 -22 -5.5 -29.5t-27.5 -7.5h-414q-22 0 -28.5 9t-6.5 30v1581q0 21 6.5 30t28.5 9h414q22 0 27.5 -7.5t5.5 -27.5v-111q0 -20 -6.5 -26.5t-28.5 -6.5h-215v-1302h217q22 0 27.5 -6.5t5.5 -26.5v-108z" />
<glyph unicode="\" horiz-adv-x="919" d="M897 -162q11 -35 -31 -35h-141q-44 0 -53 35l-641 1721q-7 17 2 25.5t24 8.5h148q23 0 33 -7.5t18 -26.5z" />
<glyph unicode="]" horiz-adv-x="686" d="M598 -145q0 -20 -7.5 -29.5t-29.5 -9.5h-414q-19 0 -24.5 7.5t-5.5 29.5v108q0 20 5.5 26.5t27.5 6.5h217v1302h-217q-22 0 -27.5 7t-5.5 26v109q0 22 5.5 29.5t27.5 7.5h411q22 0 29.5 -9.5t7.5 -29.5v-1581z" />
<glyph unicode="^" horiz-adv-x="1126" d="M1042 813q11 -19 4.5 -28t-24.5 -9h-156q-40 0 -57 31l-248 422h-6l-242 -414q-14 -25 -25.5 -33t-37.5 -8h-160q-20 0 -25.5 11t5.5 24l381 623q16 28 32.5 42.5t42.5 14.5h54q34 0 48 -10.5t34 -40.5z" />
<glyph unicode="_" horiz-adv-x="1024" d="M1059 -240q0 -24 -6 -31.5t-29 -7.5h-1024q-22 0 -27.5 7t-5.5 32v56q0 25 5.5 33t27.5 8h1024q22 0 28.5 -8.5t6.5 -32.5v-56z" />
<glyph unicode="`" horiz-adv-x="1101" d="M682 1251q10 -20 7 -27t-21 -12l-84 -30q-17 -5 -26 -2t-21 20l-230 328q-19 26 15 35l178 47q21 4 30 -2t15 -19z" />
<glyph unicode="a" horiz-adv-x="1140" d="M1008 117q0 -51 -39 -68q-158 -72 -418 -72q-131 0 -223.5 26.5t-142.5 75.5t-71.5 107.5t-21.5 132.5t24.5 138t75.5 116.5t139.5 82.5t207.5 30h229v35q0 42 -9 72.5t-31 56t-65 38.5t-106 13q-69 0 -151.5 -12t-133.5 -29q-23 -6 -33 -2t-14 23l-28 116q-9 34 18 43 q160 60 381 60q211 0 311.5 -93t100.5 -276v-614zM766 504h-197q-33 0 -59.5 -2.5t-61 -12.5t-57 -28t-39 -52t-16.5 -81q0 -158 217 -158q131 0 213 33v301z" />
<glyph unicode="b" horiz-adv-x="1189" d="M1098 549q0 -126 -30.5 -228.5t-92 -180t-162.5 -120.5t-233 -43q-251 0 -416 74q-31 12 -31 49v1360q0 23 8.5 30t32.5 7h160q24 0 31.5 -6.5t7.5 -30.5v-397q118 37 256 37q120 0 211 -41t147 -115.5t83.5 -173.5t27.5 -221zM852 539q0 177 -68.5 266.5t-193.5 89.5 q-109 0 -217 -33v-655q77 -27 196 -27q283 0 283 359z" />
<glyph unicode="c" horiz-adv-x="1009" d="M602 186q126 0 240 54q24 10 32.5 6.5t14.5 -21.5l51 -119q21 -34 -12 -51q-140 -78 -363 -78q-230 0 -351.5 140t-121.5 413q0 260 134.5 415t361.5 155q176 0 311 -72q19 -11 22.5 -20.5t-6.5 -30.5l-51 -121q-8 -18 -17 -21t-34 7q-119 45 -215 45q-55 0 -99.5 -19.5 t-74.5 -52.5t-50 -79t-29 -97.5t-9 -108.5q0 -60 7 -109t26 -94t48.5 -75t76 -48t108.5 -18z" />
<glyph unicode="d" horiz-adv-x="1187" d="M92 522q0 93 18 177t57.5 157.5t97.5 127t142 84t187 30.5q123 0 219 -25v387q0 22 8.5 28.5t32.5 6.5h160q22 0 30.5 -6.5t8.5 -28.5v-1358q0 -36 -58 -63t-142.5 -39t-152 -17.5t-114.5 -5.5q-135 0 -231.5 38.5t-153.5 112t-83 170.5t-26 224zM340 522 q0 -183 69.5 -262.5t208.5 -79.5q44 0 102.5 9t92.5 22v657q-91 25 -197 25q-128 0 -202 -90.5t-74 -280.5z" />
<glyph unicode="e" horiz-adv-x="1130" d="M582 1100q230 0 346 -118.5t116 -334.5q0 -99 -43.5 -139.5t-119.5 -40.5h-545q2 -78 24.5 -134t62.5 -88.5t89 -47.5t111 -15q125 0 239 56q33 14 45 -13l56 -116q14 -32 -15 -48q-139 -84 -346 -84q-252 0 -381 135.5t-129 419.5q0 265 136 416.5t354 151.5zM586 901 q-103 0 -170 -77.5t-72 -184.5h471q0 122 -50.5 192t-178.5 70z" />
<glyph unicode="f" horiz-adv-x="753" d="M743 1315q-6 -27 -36 -21q-83 15 -142 15q-129 0 -129 -113v-121h248q22 0 27.5 -6.5t5.5 -26.5v-118q0 -19 -5.5 -26t-27.5 -7h-248v-856q0 -23 -7.5 -29t-31.5 -6h-159q-22 0 -30.5 6.5t-8.5 28.5v856h-148q-15 0 -22.5 5t-9 11t-1.5 17v77q0 20 6.5 28.5t28.5 12.5 l146 33v129q0 147 77.5 229.5t239.5 82.5q133 0 236 -31q17 -6 20.5 -16t-2.5 -23z" />
<glyph unicode="g" horiz-adv-x="1187" d="M1057 98q0 -138 -34 -237.5t-105 -164t-169 -101.5t-237 -56q-36 -6 -39 23l-20 155q-3 27 24 33q84 13 140.5 30.5t103.5 46.5t69.5 74t22.5 109v13q-118 -37 -254 -37q-157 0 -263.5 70t-155 189.5t-48.5 282.5q0 125 31 227.5t93 179t162.5 119t231.5 42.5 q253 0 414 -72q20 -10 26.5 -20.5t6.5 -28.5v-877zM338 539q0 -176 68 -262.5t194 -86.5q106 0 215 31v647q-99 27 -194 27q-283 0 -283 -356z" />
<glyph unicode="h" horiz-adv-x="1196" d="M1065 35q0 -22 -8.5 -28.5t-32.5 -6.5h-162q-22 0 -30.5 6.5t-8.5 28.5v573q0 143 -56.5 214t-182.5 71q-138 0 -213 -33v-825q0 -23 -7.5 -29t-31.5 -6h-160q-22 0 -30.5 6.5t-8.5 28.5v1427q0 22 8.5 28.5t30.5 6.5h160q24 0 31.5 -6t7.5 -29v-401q116 39 256 39 q222 0 330 -123t108 -352v-590z" />
<glyph unicode="i" horiz-adv-x="585" d="M442 1356q0 -62 -43 -105t-104 -43t-104.5 43t-43.5 105q0 61 43 104t105 43q61 0 104 -42.5t43 -104.5zM412 35q0 -22 -8.5 -28.5t-32.5 -6.5h-158q-22 0 -30.5 6.5t-8.5 28.5v1005q0 22 8.5 28.5t30.5 6.5h158q24 0 32.5 -6.5t8.5 -28.5v-1005z" />
<glyph unicode="j" horiz-adv-x="610" d="M430 158q0 -115 -19 -207.5t-51.5 -156t-81.5 -113t-101.5 -79.5t-119.5 -53q-38 -9 -47 17l-51 143q-4 10 -4.5 16t4.5 11.5t8 8t15 9.5q65 30 108 69.5t64 90t28.5 100.5t7.5 117v909q0 22 8.5 28.5t30.5 6.5h162q24 0 31.5 -6t7.5 -29v-882zM459 1356 q0 -62 -43.5 -105t-104.5 -43q-60 0 -103.5 43.5t-43.5 104.5t43.5 104t103.5 43q62 0 105 -43t43 -104z" />
<glyph unicode="k" horiz-adv-x="1069" d="M725 717l315 -686q12 -31 -22 -31h-184q-42 0 -52 29l-223 499l-190 -217v-276q0 -23 -7.5 -29t-31.5 -6h-160q-22 0 -30.5 6.5t-8.5 28.5v1427q0 22 8.5 28.5t30.5 6.5h160q24 0 31.5 -6t7.5 -29v-819l8 -4l350 416q9 9 12.5 12t12.5 5.5t24 2.5h207q18 0 21.5 -11.5 t-7.5 -21.5z" />
<glyph unicode="l" horiz-adv-x="620" d="M584 49q4 -20 0 -27t-25 -18q-65 -27 -186 -27q-117 0 -169 54.5t-52 185.5v1245q0 22 8 28.5t30 6.5h162q24 0 32.5 -6.5t8.5 -28.5v-1188q0 -54 14.5 -73t55.5 -19q20 0 74 6q18 2 24.5 -2.5t7.5 -21.5z" />
<glyph unicode="m" horiz-adv-x="1863" d="M371 35q0 -23 -7.5 -29t-31.5 -6h-160q-22 0 -30.5 6.5t-8.5 28.5v870q0 80 26.5 117.5t110.5 58.5q34 5 115.5 12t126.5 7q240 0 369 -103q157 103 376 103q243 0 358.5 -133.5t115.5 -368.5v-563q0 -22 -8.5 -28.5t-32.5 -6.5h-158q-22 0 -30.5 6.5t-8.5 28.5v532 q0 170 -60.5 248t-205.5 78q-57 0 -121.5 -13.5t-104.5 -35.5q41 -94 41 -266v-543q0 -22 -8.5 -28.5t-32.5 -6.5h-159q-22 0 -30.5 6.5t-8.5 28.5v547q0 76 -11.5 129t-41 97t-85 65.5t-139.5 21.5q-77 0 -155 -12v-848z" />
<glyph unicode="n" horiz-adv-x="1196" d="M532 895q-98 0 -161 -12v-848q0 -23 -7.5 -29t-31.5 -6h-160q-22 0 -30.5 6.5t-8.5 28.5v876q0 79 28 118t109 52q174 19 269 19q275 0 399.5 -122t124.5 -403v-540q0 -23 -7.5 -29t-31.5 -6h-162q-22 0 -30.5 6.5t-8.5 28.5v545q0 167 -62.5 241t-228.5 74z" />
<glyph unicode="o" horiz-adv-x="1177" d="M1085 543q0 -274 -126.5 -420t-374.5 -146q-246 0 -369 141.5t-123 418.5q0 264 137 413.5t361 149.5q241 0 368 -147t127 -410zM842 537q0 62 -6.5 113.5t-24 99t-45 79.5t-71.5 51t-101 19q-127 0 -193.5 -98.5t-66.5 -257.5q0 -179 58.5 -272t193.5 -93q69 0 120 29 t80 80.5t42.5 113.5t13.5 136z" />
<glyph unicode="p" horiz-adv-x="1187" d="M373 -381q0 -23 -7.5 -29t-31.5 -6h-162q-22 0 -30.5 6.5t-8.5 28.5v1352q0 19 6.5 29t26.5 20q181 78 432 78q129 0 226.5 -43t156 -120t87 -176t28.5 -220q0 -116 -30.5 -216t-88.5 -177.5t-151 -121.5t-210 -44q-126 0 -243 28v-389zM848 541q0 187 -73 269.5 t-212 82.5q-101 0 -190 -29v-651q106 -29 200 -29q275 0 275 357z" />
<glyph unicode="q" horiz-adv-x="1189" d="M1057 -387q0 -22 -8.5 -28.5t-32.5 -6.5h-160q-24 0 -32.5 6.5t-8.5 28.5v403q-115 -36 -256 -36q-120 0 -210.5 40t-146 113t-83 171t-27.5 220q0 127 31 230t92.5 181t162 120.5t232.5 42.5q249 0 414 -74q20 -10 26.5 -20.5t6.5 -28.5v-1362zM338 537q0 -177 68 -265 t194 -88q107 0 215 33v651q-77 27 -194 27q-283 0 -283 -358z" />
<glyph unicode="r" horiz-adv-x="901" d="M389 35q0 -22 -8.5 -28.5t-32.5 -6.5h-158q-22 0 -30 6.5t-8 28.5v878q0 85 29 123.5t114 50.5q90 11 151 11q278 0 451 -144q20 -15 6 -39l-94 -135q-13 -16 -21 -15t-24 13q-126 107 -279 107q-55 0 -96 -8v-842z" />
<glyph unicode="s" horiz-adv-x="987" d="M909 301q0 -159 -111.5 -241.5t-291.5 -82.5q-110 0 -222.5 22.5t-193.5 68.5q-29 14 -14 49l49 114q11 20 20 24t33 -5q71 -34 161.5 -54t162.5 -20q84 0 128 32.5t44 88.5t-49 90t-172 80q-178 66 -256 136t-78 188q0 138 100 223.5t283 85.5q180 0 338 -64 q28 -12 18 -49l-47 -117q-6 -16 -15 -18.5t-26 4.5q-133 49 -270 49q-70 0 -108 -30t-38 -72q0 -54 44.5 -86.5t164.5 -75.5q54 -21 87 -35t79 -37t73.5 -47t54.5 -56.5t39.5 -74t12.5 -90.5z" />
<glyph unicode="t" horiz-adv-x="804" d="M782 47q4 -11 1 -21.5t-19 -17.5q-92 -31 -248 -31q-164 0 -235.5 70t-71.5 221v625h-146q-21 0 -26.5 7.5t-5.5 27.5v84q0 19 6 27t26 12l156 34l27 195q4 23 12.5 31t32.5 16l119 41q36 9 36 -33v-260h220q21 0 26.5 -8t5.5 -25v-114q0 -21 -5 -28t-27 -7h-220v-594 q0 -64 30 -89.5t95 -25.5q51 0 154 15q19 4 26 -1t9 -20z" />
<glyph unicode="u" horiz-adv-x="1175" d="M643 182q93 0 162 13v847q0 23 7.5 29t31.5 6h160q22 0 30 -6.5t8 -28.5v-876q0 -73 -33 -115t-104 -55q-137 -19 -266 -19q-276 0 -391 120t-115 405v540q0 23 7.5 29t31.5 6h160q22 0 30.5 -6.5t8.5 -28.5v-544q0 -86 10.5 -140.5t39.5 -96.5t83 -60.5t139 -18.5z" />
<glyph unicode="v" horiz-adv-x="1075" d="M725 90q-20 -60 -45.5 -80t-79.5 -20h-115q-48 0 -74.5 19t-48.5 81l-331 957q-9 28 22 28h185q23 0 31 -4.5t12 -21.5l157 -486l101 -348h12l100 346l152 486q5 18 11.5 23t29.5 5h180q29 0 20 -26z" />
<glyph unicode="w" horiz-adv-x="1572" d="M782 754l-90 -332l-104 -336q-18 -55 -42 -75.5t-77 -20.5h-96q-47 0 -73 20t-42 82l-219 959q-9 28 22 28h185q21 0 28 -4.5t11 -21.5l90 -480l55 -311h12l76 264l117 416q14 47 37.5 68.5t79.5 21.5h84q46 0 65 -21.5t35 -72.5l113 -389l84 -299h12l53 319l88 484 q4 17 10 20.5t27 3.5l188 2q29 0 23 -28l-221 -959q-16 -61 -44.5 -81.5t-76.5 -20.5h-92q-54 0 -77 18t-42 78l-102 346l-88 322h-9z" />
<glyph unicode="x" horiz-adv-x="1019" d="M506 401l-221 -366q-21 -35 -62 -35h-182q-20 0 -23.5 9.5t7.5 29.5l350 528l-309 473q-8 10 -4.5 22.5t20.5 12.5h190q24 0 36.5 -6.5t23.5 -24.5l180 -313l186 313q11 18 23 24.5t35 6.5h184q21 0 24.5 -11.5t-3.5 -19.5l-318 -469l354 -538q10 -12 6.5 -24.5 t-24.5 -12.5h-195q-27 0 -38 7.5t-23 27.5z" />
<glyph unicode="y" horiz-adv-x="1069" d="M639 -174q-46 -138 -128 -198t-214 -60q-109 0 -180 24q-23 4 -28.5 12t-0.5 27l29 125q4 19 13 23.5t28 -0.5q71 -15 100 -15q73 0 114.5 29t65.5 101l43 129h-49q-22 0 -33.5 2t-25.5 9.5t-24 25t-19 46.5l-307 941q-9 28 22 28h188q23 0 31 -4.5t12 -21.5l140 -471 l106 -371h13l114 375l152 465q5 18 11.5 23t29.5 5h186q30 0 21 -26l-410 -1225v2z" />
<glyph unicode="z" horiz-adv-x="985" d="M936 942q0 -66 -39 -108l-563 -633l4 -6h565q22 0 28.5 -8t6.5 -27v-125q0 -20 -6.5 -27.5t-28.5 -7.5h-768q-92 0 -92 82v43q0 76 45 123l559 629l-2 6h-516q-22 0 -28.5 7.5t-6.5 27.5v122q0 19 6.5 27t28.5 8h709q53 0 75.5 -18t22.5 -66v-49z" />
<glyph unicode="{" horiz-adv-x="784" d="M666 -184q0 -23 -21 -23q-180 5 -281.5 93t-101.5 272v248q0 88 -28 129t-84 47q-9 3 -11.5 4t-7 4.5t-5.5 8t-1 13.5v111q0 14 5 19.5t22 9.5q56 8 83 48t27 128v192q0 185 97 268.5t284 88.5q23 3 23 -21v-131q0 -24 -23 -27q-83 -4 -116 -44t-33 -113v-211 q0 -196 -142 -262v-9q142 -59 142 -262v-262q0 -72 33 -113t114 -47q16 -1 20.5 -6t4.5 -16v-137z" />
<glyph unicode="|" horiz-adv-x="485" d="M354 -264q0 -23 -7.5 -30t-31.5 -7h-135q-21 0 -30 7.5t-9 29.5v1831q0 22 9 29.5t30 7.5h135q24 0 31.5 -7t7.5 -30v-1831z" />
<glyph unicode="}" horiz-adv-x="784" d="M672 612q0 -25 -25 -28q-56 -8 -84 -49t-28 -129v-248q0 -353 -385 -363q-21 0 -21 21v137q0 19 25 22q81 6 114 48t33 114v260q0 199 143 265v6q-143 63 -143 264v211q0 73 -33 113t-116 44q-23 3 -23 27v129q0 23 23 23q187 -5 285 -89t98 -268v-194q0 -86 26.5 -127 t81.5 -49q18 -1 23.5 -7.5t5.5 -21.5v-111z" />
<glyph unicode="~" horiz-adv-x="1263" d="M1124 639q-109 -184 -286 -184q-61 0 -138.5 30t-149.5 60t-120 30q-89 0 -164 -81q-21 -21 -41 -7l-80 62q-21 18 -6 39q67 90 135.5 132t153.5 42q65 0 144 -31t150 -61.5t118 -30.5q44 0 74.5 23t72.5 77q15 21 43 6l88 -61q22 -17 6 -45z" />
<glyph unicode="&#xa1;" horiz-adv-x="583" d="M428 -334q4 -41 -39 -41h-178q-45 0 -41 41l45 903q2 24 11 31.5t38 7.5h78q38 0 41 -33zM463 915q0 -68 -47.5 -114.5t-116.5 -46.5t-116.5 46.5t-47.5 114.5t47.5 115t116.5 47t116.5 -46.5t47.5 -115.5z" />
<glyph unicode="&#xa2;" horiz-adv-x="1263" d="M625 -20q-206 17 -313 155t-107 395q0 238 111.5 388t308.5 176v174q0 17 6.5 22.5t21.5 5.5h64q17 0 21.5 -4.5t4.5 -23.5v-170q157 -10 269 -70q19 -11 22.5 -20.5t-6.5 -30.5l-51 -121q-8 -18 -17 -21t-34 7q-84 34 -183 43v-699q119 9 211 54q24 10 32.5 6.5 t14.5 -21.5l52 -119q20 -34 -13 -51q-112 -63 -297 -75v-175q0 -19 -4.5 -23.5t-21.5 -4.5h-64q-15 0 -21.5 5.5t-6.5 22.5v175zM449 530q0 -283 176 -333v675q-88 -31 -132 -124t-44 -218z" />
<glyph unicode="&#xa3;" horiz-adv-x="1263" d="M764 1180q-108 0 -170 -44.5t-62 -129.5q0 -51 29 -211h369q23 0 29 -7.5t6 -31.5v-88q0 -24 -6 -30.5t-29 -6.5h-350q4 -78 4 -115q-1 -63 -6 -107t-26 -102.5t-58 -99.5h600q22 0 27 -6.5t5 -30.5v-133q0 -24 -5 -30.5t-27 -6.5h-850q-84 0 -84 66v45q0 40 12 61.5 t45 50.5q70 55 94.5 124t30.5 161q5 58 -2 123h-152q-23 0 -28.5 6.5t-5.5 30.5v88q0 22 6 30.5t28 8.5h129q-1 7 -15.5 89.5t-14.5 121.5q0 191 127 285.5t342 94.5q205 0 336 -75q19 -11 21.5 -22t-9.5 -34l-49 -104q-8 -20 -17 -23.5t-34 5.5q-109 47 -240 47z" />
<glyph unicode="&#xa4;" horiz-adv-x="1048" d="M516 1014q136 0 240 -72l108 109q29 29 58 0q71 -71 73 -72q17 -18 16.5 -29.5t-14.5 -29.5l-110 -109q74 -109 74 -242q0 -136 -74 -245l106 -107q19 -17 19 -29.5t-17 -31.5l-71 -74q-29 -29 -60 6l-106 107q-110 -72 -242 -72q-127 0 -227 63l-109 -112 q-17 -17 -29.5 -17t-29.5 17l-76 73q-28 28 6 58l105 104q-84 110 -84 260q0 142 75 248l-92 96q-35 27 -4 58l76 73q18 17 30 17t25 -14l97 -103q107 70 237 70zM516 809q-98 0 -170 -72t-72 -172q0 -101 71.5 -172t170.5 -71q101 0 172.5 71t71.5 172q0 100 -71.5 172 t-172.5 72z" />
<glyph unicode="&#xa5;" horiz-adv-x="1263" d="M188 631q-22 0 -27 7.5t-5 29.5v71q0 15 1.5 21.5t8.5 11t22 4.5h197l-279 572q-6 8 -0.5 18t21.5 10h192q24 0 33.5 -5t16.5 -25l143 -316l117 -285h10l115 285l137 316q9 30 47 30h195q28 0 16 -28l-275 -572h220q21 0 26.5 -8t5.5 -29v-71q0 -22 -5 -29.5t-27 -7.5 h-906zM1094 528q22 0 27 -7.5t5 -28.5v-72q0 -22 -5 -29.5t-27 -7.5h-342v-350q0 -23 -6.5 -28t-30.5 -5h-164q-20 0 -28.5 7t-8.5 26v350h-326q-22 0 -27 7.5t-5 29.5v72q0 21 5 28.5t27 7.5h906z" />
<glyph unicode="&#xa6;" horiz-adv-x="485" d="M354 -264q0 -23 -7.5 -30t-31.5 -7h-135q-21 0 -30 7.5t-9 29.5v821q0 22 8.5 28.5t30.5 6.5h135q24 0 31.5 -6t7.5 -29v-821zM354 735q0 -23 -7.5 -30t-31.5 -7h-135q-21 0 -30 7.5t-9 29.5v824q0 22 8.5 28t30.5 6h135q24 0 31.5 -6t7.5 -28v-824z" />
<glyph unicode="&#xa7;" horiz-adv-x="1193" d="M444 895q-69 -55 -69 -127q0 -56 51.5 -114.5t198.5 -182.5q117 -100 141 -117q59 52 59 113q0 19 -4.5 37.5t-10 33t-20 33.5t-25 31.5t-35.5 36t-40.5 37.5t-51 45.5t-56.5 50.5q-23 22 -72 63.5t-66 59.5zM512 -74q100 0 150.5 37.5t50.5 93.5q0 80 -183 224 q-72 55 -119 93t-102.5 90t-87.5 95t-54 94.5t-22 100.5q0 74 43.5 148.5t116.5 121.5q-59 83 -59 168q0 136 101 226.5t294 90.5q196 0 313 -61q30 -17 15 -47l-45 -103q-6 -18 -14 -21.5t-29 5.5q-108 43 -213 43q-197 0 -197 -115q0 -29 15 -58.5t50 -64.5t64 -60t84 -69 q183 -153 240 -210q117 -120 129 -223q2 -15 2 -29q0 -71 -44.5 -141.5t-117.5 -118.5q70 -94 70 -181q0 -62 -27.5 -117.5t-80 -99.5t-137.5 -70t-192 -26q-187 0 -305 63q-27 18 -12 45l49 107q6 18 13 21t28 -7q112 -45 213 -45z" />
<glyph unicode="&#xa8;" horiz-adv-x="1167" d="M928 1368q0 -52 -40 -91.5t-93 -39.5t-94.5 40.5t-41.5 90.5q0 53 41 93t95 40t93.5 -39.5t39.5 -93.5zM535 1368q0 -51 -41 -91t-95 -40q-53 0 -93 39.5t-40 91.5q0 54 39.5 93.5t93.5 39.5t95 -39.5t41 -93.5z" />
<glyph unicode="&#xa9;" horiz-adv-x="1701" d="M856 225q-184 0 -291.5 133t-107.5 344q0 215 109 346.5t288 131.5q96 0 174.5 -36t120.5 -97q6 -12 4 -17.5t-14 -17.5l-68 -64q-17 -18 -45 10q-77 70 -170 70q-114 0 -173.5 -87t-59.5 -239q0 -150 59 -236.5t172 -86.5q99 0 170 78q13 13 20 15.5t10.5 0.5t14.5 -12 l78 -66q20 -15 2 -33q-54 -67 -124 -102t-169 -35zM1595 717q0 -155 -57 -292.5t-155.5 -235.5t-236 -155t-292.5 -57q-208 0 -378 97t-266.5 266.5t-96.5 376.5q0 155 57 292t155 235t235.5 155t293.5 57q155 0 292.5 -57t236 -155t155.5 -235t57 -292zM1468 717 q0 177 -80 319t-220.5 221.5t-313.5 79.5q-174 0 -315 -79.5t-221 -221.5t-80 -319q0 -134 47 -250t128.5 -197.5t196 -128.5t244.5 -47t243.5 47t195 128.5t128.5 197.5t47 250z" />
<glyph unicode="&#xaa;" horiz-adv-x="786" d="M702 635q0 -40 -34 -55q-108 -50 -291 -50q-322 0 -322 234q0 106 77.5 176t238.5 70h139v10q0 43 -25.5 69.5t-99.5 26.5q-116 0 -190 -22q-2 -1 -9 -3t-9 -2t-7.5 -1t-7.5 0.5t-5.5 3.5t-5.5 7t-4 11l-22 86q-9 28 25 43q101 37 260 37q151 0 221.5 -63t70.5 -187v-391 zM508 866h-117q-143 0 -143 -96q0 -47 34 -65.5t99 -18.5q80 0 127 14v166z" />
<glyph unicode="&#xab;" horiz-adv-x="1075" d="M121 508q0 30 35 92l186 309q15 26 30.5 35.5t51.5 9.5h143q20 0 27.5 -13t-2.5 -32l-240 -405l250 -402q23 -45 -27 -45h-145q-36 0 -52 10t-28 33l-198 322q-31 55 -31 86zM502 508q0 30 35 92l186 309q15 26 30.5 35.5t51.5 9.5h143q20 0 27.5 -13t-2.5 -32l-240 -405 l250 -402q23 -45 -27 -45h-145q-36 0 -52 10t-28 33l-199 322q-30 54 -30 86z" />
<glyph unicode="&#xac;" horiz-adv-x="1263" d="M1141 227q0 -23 -7.5 -30t-31.5 -7h-144q-21 0 -29.5 7.5t-8.5 29.5v371h-760q-23 0 -30 7.5t-7 31.5v135q0 24 7 32.5t30 8.5h946q35 0 35 -41v-545z" />
<glyph unicode="&#xad;" horiz-adv-x="768" d="M666 512q0 -22 -6.5 -30.5t-28.5 -8.5h-494q-22 0 -28.5 8.5t-6.5 30.5v168q0 24 6 31.5t29 7.5h494q23 0 29 -7.5t6 -31.5v-168z" />
<glyph unicode="&#xae;" horiz-adv-x="1157" d="M1051 979q0 -201 -137.5 -337t-335.5 -136q-203 0 -338.5 135.5t-135.5 337.5q0 201 137.5 339t338.5 138q133 0 241 -63t169 -172.5t61 -241.5zM952 979q0 164 -107 275.5t-267 111.5q-161 0 -269 -111t-108 -276q0 -162 108 -272.5t269 -110.5q160 0 267 110t107 273z M485 727q0 -12 -4 -15t-16 -3h-68q-11 0 -14.5 3t-3.5 15v481q0 52 49 52h180q81 0 128.5 -44.5t47.5 -117.5q0 -42 -21.5 -78t-57.5 -57v-2q48 -16 63 -78l41 -154q4 -7 1.5 -13.5t-17.5 -6.5h-70q-7 0 -9.5 0.5t-6 1.5t-5 4.5t-2.5 9.5l-41 139q-10 38 -31 54t-57 16h-86 v-207zM678 1092q0 29 -17.5 50t-60.5 21h-115v-141h111q41 0 61.5 19.5t20.5 50.5z" />
<glyph unicode="&#xaf;" horiz-adv-x="735" d="M666 1227q0 -24 -7 -31.5t-30 -7.5h-520q-23 0 -29 7.5t-6 31.5v100q0 24 6 31.5t29 7.5h520q23 0 30 -7.5t7 -31.5v-100z" />
<glyph unicode="&#xb0;" horiz-adv-x="833" d="M729 1133q0 -134 -89 -220t-222 -86t-221 86t-88 220q0 133 89 219t222 86q132 0 220.5 -86.5t88.5 -218.5zM590 1133q0 74 -48.5 124t-121.5 50q-72 0 -121 -50t-49 -124q0 -75 49 -126t121 -51q73 0 121.5 51t48.5 126z" />
<glyph unicode="&#xb1;" horiz-adv-x="1263" d="M1137 33q0 -21 -7 -28t-30 -7h-942q-23 0 -30 7t-7 28v145q0 21 7 28t30 7h942q23 0 30 -7t7 -28v-145zM1145 737q0 -24 -7 -31.5t-30 -7.5h-356v-370q0 -23 -8.5 -30t-32.5 -7h-150q-21 0 -30 7.5t-9 29.5v370h-360q-23 0 -29 7.5t-6 31.5v135q0 24 6.5 32.5t28.5 8.5 h360v369q0 22 9 29.5t30 7.5h150q24 0 32.5 -7t8.5 -30v-369h356q23 0 30 -8.5t7 -32.5v-135z" />
<glyph unicode="&#xb2;" horiz-adv-x="823" d="M725 768q0 -14 -1.5 -20.5t-9 -11.5t-24.5 -5h-495q-68 0 -96.5 26t-28.5 87q0 46 32.5 103t90.5 110q71 71 202 145q74 41 102.5 69.5t28.5 61.5q0 36 -32.5 57t-96.5 21q-93 0 -192 -61q-14 -8 -22.5 -11.5t-18 -0.5t-17.5 16l-45 78q-21 30 13 51q61 42 139 67t152 25 q137 0 227 -60.5t90 -173.5q0 -86 -56 -147.5t-165 -122.5q-153 -82 -211 -182h397q14 0 22 -1.5t11 -7.5t3.5 -9.5t0.5 -16.5v-86z" />
<glyph unicode="&#xb3;" horiz-adv-x="823" d="M600 1171q60 -22 90.5 -73t30.5 -115q0 -118 -93 -191t-251 -73q-195 0 -309 82q-32 22 -11 49l49 84q10 12 21 12.5t31 -10.5q95 -53 204 -53q83 0 123.5 32.5t40.5 83.5q0 44 -33 72.5t-108 28.5h-47q-29 0 -39 8.5t-10 38.5v43q0 28 10.5 38.5t36.5 10.5h41 q131 0 131 94q0 39 -37 58.5t-88 19.5q-92 0 -188 -47q-4 -2 -11.5 -5t-10.5 -4.5t-8.5 -3.5t-8 -2t-6.5 0.5t-6.5 2t-5 4.5t-5.5 8l-43 80q-20 26 10 49q122 82 310 82q129 0 212 -56.5t83 -164.5q0 -54 -27.5 -100.5t-77.5 -75.5v-7z" />
<glyph unicode="&#xb4;" horiz-adv-x="1021" d="M412 1210q-16 6 -19 15t4 26l140 336q14 32 51 23l172 -47q33 -9 14 -35l-231 -328q-11 -18 -20.5 -21t-26.5 3z" />
<glyph unicode="&#xb5;" horiz-adv-x="1175" d="M332 1077q24 0 31.5 -6t7.5 -29v-659q0 -58 9 -92t37.5 -61t83.5 -37.5t146 -10.5q89 0 158 13v847q0 23 7.5 29t31.5 6h160q22 0 30 -6.5t8 -28.5v-872q0 -81 -33.5 -121.5t-109.5 -52.5q-148 -19 -252 -19q-71 0 -152 10.5t-128 30.5v-399q0 -23 -7.5 -29t-31.5 -6 h-156q-22 0 -30.5 6.5t-8.5 28.5v1423q0 23 7.5 29t31.5 6h160z" />
<glyph unicode="&#xb6;" horiz-adv-x="1114" d="M1001 109q0 -202 -98.5 -304.5t-324.5 -115.5q-9 0 -13 0.5t-8.5 5.5t-7.5 16l-12 121q-3 27 20 33q150 16 203 76t53 178v1294q0 10 9 16.5t20 6.5h133q26 0 26 -23v-1304zM502 672q-173 0 -279 107.5t-106 273.5q0 159 109 271t276 112h178q25 0 25 -25v-715 q0 -24 -25 -24h-178z" />
<glyph unicode="&#xb7;" horiz-adv-x="571" d="M455 608q0 -71 -50 -120.5t-122 -49.5t-122 49t-50 121q0 70 50.5 120t121.5 50q73 0 122.5 -49t49.5 -121z" />
<glyph unicode="&#xb8;" horiz-adv-x="1026" d="M578 -113q119 -7 172 -55.5t53 -114.5q0 -75 -62 -131.5t-182 -56.5q-125 0 -205 39q-24 9 -14 39l20 55q7 17 14.5 19.5t20.5 -3.5q71 -24 131 -24q103 0 103 67q0 33 -33 48.5t-82 15.5q-8 0 -19.5 -0.5t-15.5 0t-10.5 1t-10 3t-7.5 6.5q-7 7 -8 17t0.5 15.5t5.5 22.5 l69 187q5 16 23 16h80q18 0 12 -18z" />
<glyph unicode="&#xb9;" horiz-adv-x="823" d="M688 768q0 -24 -6.5 -30.5t-34.5 -6.5h-454q-26 0 -32.5 6.5t-6.5 30.5v86q0 23 6.5 29t32.5 6h126v500l-126 -23q-37 -9 -37 27v80q0 23 5 32t27 15l211 53q51 13 82 -1t31 -61v-622h135q29 0 35 -5.5t6 -29.5v-86z" />
<glyph unicode="&#xba;" horiz-adv-x="813" d="M758 905q0 -182 -90 -278.5t-265 -96.5q-173 0 -260.5 94.5t-87.5 278.5q0 176 96 274.5t257 98.5q170 0 260 -98t90 -273zM561 903q0 99 -33.5 156t-117.5 57q-79 0 -119.5 -56.5t-40.5 -152.5q0 -105 35.5 -161t117.5 -56q83 0 120.5 59t37.5 154z" />
<glyph unicode="&#xbb;" horiz-adv-x="1075" d="M956 508q0 -29 -32 -86l-197 -322q-12 -23 -28 -33t-52 -10h-145q-50 0 -27 45l250 402l-240 405q-10 19 -2.5 32t27.5 13h143q36 0 51.5 -9.5t30.5 -35.5l187 -309q34 -61 34 -92zM575 508q0 -29 -32 -86l-197 -322q-12 -23 -28 -33t-52 -10h-145q-50 0 -27 45l250 402 l-240 405q-10 19 -2.5 32t27.5 13h143q35 0 51 -10t31 -35l187 -309q34 -61 34 -92z" />
<glyph unicode="&#xbc;" horiz-adv-x="1925" d="M727 584q0 -24 -6.5 -30.5t-34.5 -6.5h-455q-26 0 -32 6.5t-6 30.5v86q0 24 6 29.5t32 5.5h127v499l-127 -22q-36 -9 -36 26v80q0 23 5 32t27 15l211 54q51 13 82 -1t31 -61v-622h135q29 0 35 -5.5t6 -29.5v-86zM621 -18q-11 -19 -23 -27t-35 -8h-84q-41 0 -20 35 l841 1417q12 21 19.5 27t26.5 6h96q14 0 20 -8.5t-2 -28.5zM1733 207q0 -15 -1 -21.5t-9 -12t-25 -5.5h-78v-133q0 -23 -8 -29t-33 -6h-111q-22 0 -30 6.5t-8 28.5v131h-369q-24 0 -40.5 3.5t-31 21t-14.5 49.5v32q0 43 35 86l360 426q18 21 29 31t32.5 20.5t47.5 10.5h59 q45 0 63.5 -17t18.5 -63v-442h78q24 0 29.5 -8.5t5.5 -30.5v-78zM1421 592q-76 -96 -215 -260l2 -8h222l-3 266z" />
<glyph unicode="&#xbd;" horiz-adv-x="1925" d="M698 584q0 -24 -6.5 -30.5t-34.5 -6.5h-454q-26 0 -32.5 6.5t-6.5 30.5v86q0 23 6.5 29t32.5 6h127v499l-127 -22q-37 -9 -37 26v80q0 22 5.5 31.5t27.5 15.5l211 54q112 28 112 -62v-622h135q29 0 35 -5.5t6 -29.5v-86zM588 -18q-11 -19 -23 -27t-35 -8h-84 q-41 0 -20 35l842 1417q8 15 12 20.5t12 9t21 3.5h96q14 0 20 -8.5t-2 -28.5zM1761 37q0 -14 -1.5 -20.5t-9 -11.5t-24.5 -5h-495q-68 0 -96.5 26t-28.5 87q0 46 32.5 103t90.5 110q70 70 203 145q74 41 102.5 69.5t28.5 61.5q0 36 -32.5 57t-96.5 21q-93 0 -193 -62 q-14 -8 -22 -11t-17.5 0t-17.5 16l-45 77q-22 31 12 52q61 42 139 67t152 25q137 0 227 -60.5t90 -173.5q0 -86 -56 -147.5t-165 -122.5q-153 -82 -211 -182h397q14 0 22 -1.5t11 -7.5t3.5 -9.5t0.5 -16.5v-86z" />
<glyph unicode="&#xbe;" horiz-adv-x="1925" d="M676 987q60 -22 90.5 -73t30.5 -115q0 -118 -93 -191t-251 -73q-197 0 -310 81q-32 22 -10 50l49 84q10 12 20.5 12.5t30.5 -10.5q97 -54 205 -54q83 0 123.5 33t40.5 84q0 44 -32.5 72t-108.5 28h-47q-28 0 -38.5 8.5t-10.5 39.5v43q0 28 10.5 38.5t36.5 10.5h41 q131 0 131 94q0 39 -37 58.5t-88 19.5q-93 0 -189 -47q-4 -2 -12.5 -5.5t-11.5 -5t-9 -3.5t-8.5 -1t-6.5 2t-7 4.5t-6 8.5l-43 80q-20 26 10 49q122 82 309 82q129 0 212 -57t83 -165q0 -54 -27.5 -100.5t-76.5 -75.5v-6zM649 -18q-11 -20 -23 -27.5t-34 -7.5h-84 q-42 0 -21 35l842 1417q8 15 12 20.5t12 9t21 3.5h96q14 0 20.5 -8.5t-1.5 -28.5zM1802 207q0 -15 -1 -21.5t-9 -12t-25 -5.5h-77v-133q0 -23 -8 -29t-33 -6h-111q-22 0 -30.5 6.5t-8.5 28.5v131h-369q-24 0 -40.5 3.5t-31 21t-14.5 49.5v32q0 43 35 86l361 426 q18 21 28.5 31t32 20.5t47.5 10.5h60q45 0 63.5 -17t18.5 -63v-442h77q24 0 29.5 -8.5t5.5 -30.5v-78zM1491 592q-76 -96 -215 -260l2 -8h221l-2 266z" />
<glyph unicode="&#xbf;" horiz-adv-x="1112" d="M569 -399q-99 0 -182 22t-147 65t-100 113t-36 160q0 47 15 92.5t33 77.5t56 74t60 62.5t68 62.5q89 74 137.5 134t48.5 124v41q0 17 6 23.5t25 6.5h172q33 0 33 -28v-58q0 -33 -6.5 -63.5t-15.5 -54t-27 -50.5t-31 -43.5t-39.5 -41.5t-40.5 -37t-45 -38t-43 -36 q-73 -66 -109 -118t-36 -120q0 -26 10 -51t32.5 -49t67 -38.5t105.5 -14.5q168 0 307 102q20 12 30 13t23 -15l76 -123q16 -29 -10 -47q-92 -73 -213 -110t-224 -37zM475 911q0 69 49 116.5t121 47.5t120 -46t48 -118q0 -71 -50.5 -118.5t-123.5 -47.5q-61 0 -112.5 41.5 t-51.5 124.5z" />
<glyph unicode="&#xc0;" horiz-adv-x="1308" d="M913 313h-520l-90 -278q-6 -19 -17.5 -27t-35.5 -8h-189q-43 0 -28 43l442 1296q20 59 46.5 79t84.5 20h88q63 0 90 -19.5t47 -79.5l445 -1296q15 -43 -27 -43h-188q-26 0 -38 5.5t-19 27.5zM455 526h393l-107 344l-86 291h-10l-84 -284zM770 1645q16 -11 16.5 -19.5 t-10.5 -21.5l-55 -76q-11 -13 -18.5 -14.5t-28.5 8.5l-369 176q-23 10 -4 35l115 147q18 25 45 -2z" />
<glyph unicode="&#xc1;" horiz-adv-x="1308" d="M913 313h-520l-90 -278q-6 -19 -17.5 -27t-35.5 -8h-189q-43 0 -28 43l442 1296q20 59 46.5 79t84.5 20h88q63 0 90 -19.5t47 -79.5l445 -1296q15 -43 -27 -43h-188q-26 0 -38 5.5t-19 27.5zM455 526h393l-107 344l-86 291h-10l-84 -284zM532 1599q-11 11 -10.5 19.5 t17.5 21.5l307 236q15 12 24 12t23 -16l113 -141q21 -24 -5 -37l-372 -181q-11 -7 -20 -5.5t-19 12.5z" />
<glyph unicode="&#xc2;" horiz-adv-x="1308" d="M913 313h-520l-90 -278q-6 -19 -17.5 -27t-35.5 -8h-189q-43 0 -28 43l442 1296q20 59 46.5 79t84.5 20h88q63 0 90 -19.5t47 -79.5l445 -1296q15 -43 -27 -43h-188q-26 0 -38 5.5t-19 27.5zM455 526h393l-107 344l-86 291h-10l-84 -284zM965 1520q-15 -15 -50 4 l-276 139l-279 -139q-31 -17 -47 4l-41 51q-9 13 -10 18.5t8 18.5l281 225q43 35 88 35q50 0 94 -35l275 -221q32 -23 8 -47z" />
<glyph unicode="&#xc3;" horiz-adv-x="1308" d="M913 313h-520l-90 -278q-6 -19 -17.5 -27t-35.5 -8h-189q-43 0 -28 43l442 1296q20 59 46.5 79t84.5 20h88q63 0 90 -19.5t47 -79.5l445 -1296q15 -43 -27 -43h-188q-26 0 -38 5.5t-19 27.5zM455 526h393l-107 344l-86 291h-10l-84 -284zM788 1534q-50 0 -141 39t-137 39 q-43 0 -92 -62q-11 -14 -17 -16.5t-24 4.5l-74 39q-19 10 -21.5 18t5.5 25q39 79 91 118.5t134 39.5q51 0 137 -38t125 -38q35 0 56 14.5t40 46.5q11 19 17.5 22t23.5 -3l82 -29q23 -7 26.5 -13.5t-3.5 -23.5q-39 -87 -93 -134.5t-135 -47.5z" />
<glyph unicode="&#xc4;" horiz-adv-x="1308" d="M913 313h-520l-90 -278q-6 -19 -17.5 -27t-35.5 -8h-189q-43 0 -28 43l442 1296q20 59 46.5 79t84.5 20h88q63 0 90 -19.5t47 -79.5l445 -1296q15 -43 -27 -43h-188q-26 0 -38 5.5t-19 27.5zM455 526h393l-107 344l-86 291h-10l-84 -284zM981 1649q0 -51 -39.5 -91 t-93.5 -40q-53 0 -94 40.5t-41 90.5q0 53 40.5 93t94.5 40t93.5 -39.5t39.5 -93.5zM588 1649q0 -51 -40.5 -91t-94.5 -40t-94 40t-40 91q0 54 40 93.5t94 39.5t94.5 -39.5t40.5 -93.5z" />
<glyph unicode="&#xc5;" horiz-adv-x="1308" d="M913 313h-520l-90 -278q-6 -19 -17.5 -27t-35.5 -8h-189q-43 0 -28 43l442 1296q20 59 46.5 79t84.5 20h88q63 0 90 -19.5t47 -79.5l445 -1296q15 -43 -27 -43h-188q-26 0 -38 5.5t-19 27.5zM455 526h393l-107 344l-86 291h-10l-84 -284zM758 1673q0 47 -29 76t-74 29 q-47 0 -75.5 -29t-28.5 -76t28.5 -75.5t75.5 -28.5q44 0 73.5 29t29.5 75zM881 1673q0 -93 -65.5 -154t-160.5 -61q-98 0 -162.5 59.5t-64.5 155.5q0 92 65.5 153.5t161.5 61.5q95 0 160.5 -61t65.5 -154z" />
<glyph unicode="&#xc6;" horiz-adv-x="1816" d="M1739 39q0 -23 -5.5 -31t-27.5 -8h-557q-175 0 -257 81t-95 236h-404l-96 -286q-5 -17 -14 -24t-29 -7h-197q-17 0 -21.5 8t1.5 25l395 1157q40 122 124.5 184t248.5 62h883q22 0 27 -8t5 -33v-142q0 -24 -5 -30t-27 -6h-496q-79 0 -114.5 -37t-35.5 -109v-207h584 q22 0 27.5 -8t5.5 -33v-131q0 -23 -5.5 -31t-27.5 -8h-584v-288q0 -142 150 -142h514q22 0 27.5 -8t5.5 -33v-143zM451 516h344v553q0 116 24 160q-81 0 -119 -25t-53 -74l-74 -221z" />
<glyph unicode="&#xc7;" horiz-adv-x="1269" d="M778 209q136 0 316 70q30 9 40 4t17 -25l53 -117q13 -30 10.5 -40t-20.5 -21q-155 -92 -420 -103l-33 -90q119 -7 172.5 -55.5t53.5 -114.5q0 -75 -62 -131.5t-182 -56.5q-125 0 -205 39q-24 9 -14 39l20 55q7 17 14.5 19.5t20.5 -3.5q71 -24 131 -24q103 0 103 67 q0 33 -33 48.5t-82 15.5q-8 0 -20 -0.5t-16 0t-10 1t-10 3t-8 6.5q-7 7 -8 17t0.5 15.5t5.5 22.5l50 132q-549 47 -549 718q0 339 178 546.5t467 207.5q228 0 387 -86q18 -8 21.5 -18.5t-7.5 -40.5l-57 -119q-8 -22 -15.5 -26.5t-31.5 3.5q-149 58 -287 58q-99 0 -176 -43 t-124 -117t-71 -167t-24 -198q0 -491 405 -491z" />
<glyph unicode="&#xc8;" horiz-adv-x="1224" d="M1145 47q0 -25 -9 -36t-34 -11h-584q-103 0 -177 30t-113.5 84t-56.5 115.5t-17 137.5v700q0 74 20.5 138t62 117t114 83.5t167.5 30.5h572q25 0 32.5 -10t7.5 -37v-129q0 -27 -7.5 -36.5t-32.5 -9.5h-545q-76 0 -109 -33.5t-33 -101.5v-215h619q26 0 33.5 -9.5 t7.5 -39.5v-113q0 -26 -8 -36.5t-33 -10.5h-619v-299q0 -133 142 -133h557q28 0 35.5 -9.5t7.5 -39.5v-127zM838 1645q16 -11 16.5 -19.5t-10.5 -21.5l-56 -76q-11 -13 -18.5 -14.5t-28.5 8.5l-368 176q-23 10 -4 35l114 147q18 25 45 -2z" />
<glyph unicode="&#xc9;" horiz-adv-x="1224" d="M1145 47q0 -25 -9 -36t-34 -11h-584q-103 0 -177 30t-113.5 84t-56.5 115.5t-17 137.5v700q0 74 20.5 138t62 117t114 83.5t167.5 30.5h572q25 0 32.5 -10t7.5 -37v-129q0 -27 -7.5 -36.5t-32.5 -9.5h-545q-76 0 -109 -33.5t-33 -101.5v-215h619q26 0 33.5 -9.5 t7.5 -39.5v-113q0 -26 -8 -36.5t-33 -10.5h-619v-299q0 -133 142 -133h557q28 0 35.5 -9.5t7.5 -39.5v-127zM541 1599q-11 11 -10.5 19.5t16.5 21.5l307 236q15 12 24 12t23 -16l113 -141q21 -24 -4 -37l-373 -181q-11 -7 -20 -5.5t-19 12.5z" />
<glyph unicode="&#xca;" horiz-adv-x="1224" d="M1145 47q0 -25 -9 -36t-34 -11h-584q-103 0 -177 30t-113.5 84t-56.5 115.5t-17 137.5v700q0 74 20.5 138t62 117t114 83.5t167.5 30.5h572q25 0 32.5 -10t7.5 -37v-129q0 -27 -7.5 -36.5t-32.5 -9.5h-545q-76 0 -109 -33.5t-33 -101.5v-215h619q26 0 33.5 -9.5 t7.5 -39.5v-113q0 -26 -8 -36.5t-33 -10.5h-619v-299q0 -133 142 -133h557q28 0 35.5 -9.5t7.5 -39.5v-127zM1008 1520q-15 -15 -50 4l-276 139l-279 -139q-31 -17 -47 4l-41 51q-9 13 -10 18.5t8 18.5l281 225q43 35 88 35q50 0 94 -35l275 -221q32 -23 8 -47z" />
<glyph unicode="&#xcb;" horiz-adv-x="1224" d="M1145 47q0 -25 -9 -36t-34 -11h-584q-103 0 -177 30t-113.5 84t-56.5 115.5t-17 137.5v700q0 74 20.5 138t62 117t114 83.5t167.5 30.5h572q25 0 32.5 -10t7.5 -37v-129q0 -27 -7.5 -36.5t-32.5 -9.5h-545q-76 0 -109 -33.5t-33 -101.5v-215h619q26 0 33.5 -9.5 t7.5 -39.5v-113q0 -26 -8 -36.5t-33 -10.5h-619v-299q0 -133 142 -133h557q28 0 35.5 -9.5t7.5 -39.5v-127zM1028 1647q0 -51 -40 -91t-93 -40t-94 40.5t-41 90.5q0 53 40.5 93t94.5 40t93.5 -39.5t39.5 -93.5zM635 1647q0 -51 -40.5 -91t-94.5 -40t-93.5 40t-39.5 91 q0 54 39.5 93.5t93.5 39.5t94.5 -39.5t40.5 -93.5z" />
<glyph unicode="&#xcc;" horiz-adv-x="606" d="M430 43q0 -28 -9.5 -35.5t-39.5 -7.5h-156q-26 0 -36.5 9t-10.5 34v1348q0 25 10.5 34t36.5 9h156q30 0 39.5 -7.5t9.5 -35.5v-1348zM408 1645q16 -11 16.5 -19.5t-10.5 -21.5l-56 -76q-11 -13 -18.5 -14.5t-28.5 8.5l-368 176q-23 10 -4 35l114 147q18 25 45 -2z" />
<glyph unicode="&#xcd;" horiz-adv-x="606" d="M430 43q0 -28 -9.5 -35.5t-39.5 -7.5h-156q-26 0 -36.5 9t-10.5 34v1348q0 25 10.5 34t36.5 9h156q30 0 39.5 -7.5t9.5 -35.5v-1348zM205 1599q-11 11 -10.5 19.5t16.5 21.5l307 236q15 12 24 12t23 -16l113 -141q21 -24 -4 -37l-373 -181q-11 -7 -20 -5.5t-19 12.5z" />
<glyph unicode="&#xce;" horiz-adv-x="606" d="M430 43q0 -28 -9.5 -35.5t-39.5 -7.5h-156q-26 0 -36.5 9t-10.5 34v1348q0 25 10.5 34t36.5 9h156q30 0 39.5 -7.5t9.5 -35.5v-1348zM627 1520q-15 -15 -49 4l-277 139l-278 -139q-31 -17 -48 4l-41 51q-9 13 -10 18.5t8 18.5l281 225q43 35 88 35q50 0 94 -35l275 -221 q32 -23 8 -47z" />
<glyph unicode="&#xcf;" horiz-adv-x="606" d="M430 43q0 -28 -9.5 -35.5t-39.5 -7.5h-156q-26 0 -36.5 9t-10.5 34v1348q0 25 10.5 34t36.5 9h156q30 0 39.5 -7.5t9.5 -35.5v-1348zM639 1655q0 -51 -39.5 -91t-93.5 -40q-53 0 -94 40.5t-41 90.5q0 53 40.5 93t94.5 40t93.5 -39.5t39.5 -93.5zM246 1655 q0 -51 -40.5 -91t-94.5 -40t-94 40t-40 91q0 54 40 93.5t94 39.5t94.5 -39.5t40.5 -93.5z" />
<glyph unicode="&#xd0;" horiz-adv-x="1409" d="M274 0q-65 0 -92.5 27.5t-27.5 89.5v522h-95q-22 0 -28 7.5t-6 31.5v100q0 24 6 31.5t28 7.5h95v502q0 61 27.5 89t92.5 28l373 2q163 0 288 -52.5t203.5 -148t118 -224t39.5 -286.5q0 -126 -21.5 -233.5t-70 -199.5t-120.5 -156.5t-178 -101t-238 -36.5h-394zM1038 723 q0 491 -411 491h-219v-397h278q23 0 29 -7.5t6 -31.5v-100q0 -24 -6 -31.5t-29 -7.5h-278v-416h225q115 0 195.5 37t125.5 106.5t64.5 156.5t19.5 200z" />
<glyph unicode="&#xd1;" horiz-adv-x="1468" d="M399 1061v-1018q0 -29 -8.5 -36t-38.5 -7h-151q-25 0 -36 9t-11 34v1268q0 67 26 96t92 29h72q51 0 76 -18t59 -72l408 -678l174 -295h8v1020q0 26 10 34.5t37 8.5h152q27 0 37 -8.5t10 -34.5v-1270q0 -63 -26.5 -93t-92.5 -30h-72q-51 0 -75 17t-60 71l-409 680 l-172 293h-9zM897 1554q-49 0 -141 39t-138 39q-44 0 -92 -61q-11 -14 -17 -16.5t-24 4.5l-73 38q-20 10 -22.5 18t5.5 25q39 79 91.5 118.5t134.5 39.5q51 0 137 -38t125 -38q35 0 56 15t40 47q10 19 17 21.5t24 -3.5l82 -28q22 -7 25.5 -13.5t-3.5 -23.5 q-39 -87 -92.5 -135t-134.5 -48z" />
<glyph unicode="&#xd2;" horiz-adv-x="1472" d="M1360 723q0 -361 -158.5 -553.5t-472.5 -192.5q-307 0 -461.5 187t-154.5 551q0 172 46 312t128 234t196.5 144.5t251.5 50.5q305 0 465 -193t160 -540zM1102 715q0 87 -9 158.5t-34 140t-64.5 115t-104.5 74.5t-151 28q-92 0 -164 -40t-116 -110t-67 -160.5t-23 -195.5 q0 -99 11 -176.5t37 -143.5t67.5 -110t104.5 -68t146 -24q82 0 146 28t105 75t67.5 114t37.5 139t11 156zM879 1647q16 -11 16.5 -19.5t-10.5 -21.5l-56 -76q-11 -13 -18.5 -14.5t-28.5 8.5l-368 176q-23 10 -4 35l114 147q18 25 45 -2z" />
<glyph unicode="&#xd3;" horiz-adv-x="1472" d="M1360 723q0 -361 -158.5 -553.5t-472.5 -192.5q-307 0 -461.5 187t-154.5 551q0 172 46 312t128 234t196.5 144.5t251.5 50.5q305 0 465 -193t160 -540zM1102 715q0 87 -9 158.5t-34 140t-64.5 115t-104.5 74.5t-151 28q-92 0 -164 -40t-116 -110t-67 -160.5t-23 -195.5 q0 -99 11 -176.5t37 -143.5t67.5 -110t104.5 -68t146 -24q82 0 146 28t105 75t67.5 114t37.5 139t11 156zM631 1604q-11 11 -10.5 19.5t16.5 21.5l307 235q15 12 24 12t23 -16l113 -141q21 -24 -4 -37l-373 -180q-23 -12 -39 6z" />
<glyph unicode="&#xd4;" horiz-adv-x="1472" d="M1360 723q0 -361 -158.5 -553.5t-472.5 -192.5q-307 0 -461.5 187t-154.5 551q0 172 46 312t128 234t196.5 144.5t251.5 50.5q305 0 465 -193t160 -540zM1102 715q0 87 -9 158.5t-34 140t-64.5 115t-104.5 74.5t-151 28q-92 0 -164 -40t-116 -110t-67 -160.5t-23 -195.5 q0 -99 11 -176.5t37 -143.5t67.5 -110t104.5 -68t146 -24q82 0 146 28t105 75t67.5 114t37.5 139t11 156zM1053 1520q-15 -15 -49 4l-277 139l-278 -139q-31 -17 -48 4l-41 51q-9 13 -10 18.5t8 18.5l281 225q43 35 88 35q50 0 94 -35l275 -221q32 -23 8 -47z" />
<glyph unicode="&#xd5;" horiz-adv-x="1472" d="M1360 723q0 -361 -158.5 -553.5t-472.5 -192.5q-307 0 -461.5 187t-154.5 551q0 172 46 312t128 234t196.5 144.5t251.5 50.5q305 0 465 -193t160 -540zM1102 715q0 87 -9 158.5t-34 140t-64.5 115t-104.5 74.5t-151 28q-92 0 -164 -40t-116 -110t-67 -160.5t-23 -195.5 q0 -99 11 -176.5t37 -143.5t67.5 -110t104.5 -68t146 -24q82 0 146 28t105 75t67.5 114t37.5 139t11 156zM883 1561q-50 0 -141.5 38.5t-137.5 38.5q-44 0 -92 -61q-11 -14 -17 -16.5t-24 4.5l-74 39q-19 10 -21.5 18t5.5 25q39 79 91 118t134 39q51 0 137 -37.5t125 -37.5 q35 0 57 15t40 46q10 19 17 21.5t24 -3.5l81 -28q23 -7 26.5 -13.5t-3.5 -23.5q-39 -87 -92.5 -134.5t-134.5 -47.5z" />
<glyph unicode="&#xd6;" horiz-adv-x="1472" d="M1360 723q0 -361 -158.5 -553.5t-472.5 -192.5q-307 0 -461.5 187t-154.5 551q0 172 46 312t128 234t196.5 144.5t251.5 50.5q305 0 465 -193t160 -540zM1102 715q0 87 -9 158.5t-34 140t-64.5 115t-104.5 74.5t-151 28q-92 0 -164 -40t-116 -110t-67 -160.5t-23 -195.5 q0 -99 11 -176.5t37 -143.5t67.5 -110t104.5 -68t146 -24q82 0 146 28t105 75t67.5 114t37.5 139t11 156zM1073 1663q0 -51 -39.5 -91t-93.5 -40q-53 0 -94 40.5t-41 90.5q0 53 40.5 93t94.5 40t93.5 -39.5t39.5 -93.5zM680 1663q0 -51 -40.5 -91t-94.5 -40q-53 0 -93 40 t-40 91q0 54 39.5 93.5t93.5 39.5t94.5 -39.5t40.5 -93.5z" />
<glyph unicode="&#xd7;" horiz-adv-x="1263" d="M172 344q-28 28 -2 53l309 310l-301 301q-16 18 -15.5 28t15.5 25l96 96q18 18 28 18.5t28 -16.5l301 -303l307 307q19 16 28.5 15t24.5 -15l101 -100q17 -17 17 -26.5t-17 -26.5l-306 -308l301 -301q16 -18 15 -27.5t-19 -27.5l-94 -96q-15 -15 -25 -15.5t-28 15.5 l-301 299l-309 -307q-26 -26 -54 2z" />
<glyph unicode="&#xd8;" horiz-adv-x="1472" d="M238 2q-8 -11 -15 -13.5t-11 -0.5t-13 8l-45 31q-11 11 -11.5 18t11.5 25l94 123q-135 185 -135 522q0 172 46 312t128 234t196.5 144.5t251.5 50.5q244 0 395 -127l93 119q22 29 45 6l43 -31q11 -11 11.5 -17t-11.5 -24l-103 -131q152 -196 152 -528 q0 -361 -158.5 -553.5t-472.5 -192.5q-253 0 -405 134zM1102 715q0 203 -58 327l-567 -735q90 -104 264 -104q82 0 145.5 28t103.5 75t65.5 114t36 139t10.5 156zM369 725q0 -205 51 -315l563 731q-87 90 -244 90q-92 0 -164 -40t-116 -110t-67 -160.5t-23 -195.5z" />
<glyph unicode="&#xd9;" horiz-adv-x="1427" d="M1274 199q0 -82 -37 -131.5t-125 -67.5q-113 -25 -321 -25q-177 0 -294.5 31.5t-196 106.5t-112.5 196.5t-34 304.5l-2 777q0 25 11 34t36 9h159q30 0 39 -7.5t9 -35.5v-781q0 -89 9.5 -151t34 -114.5t68 -83t111 -47.5t162.5 -17q128 0 235 20v1174q0 25 10.5 34t36.5 9 h160q29 0 35 -6.5t6 -36.5v-1192zM874 1645q17 -11 17.5 -19.5t-10.5 -21.5l-56 -76q-11 -13 -18.5 -14.5t-28.5 8.5l-368 176q-23 10 -4 35l114 147q18 25 45 -2z" />
<glyph unicode="&#xda;" horiz-adv-x="1427" d="M1274 199q0 -82 -37 -131.5t-125 -67.5q-113 -25 -321 -25q-177 0 -294.5 31.5t-196 106.5t-112.5 196.5t-34 304.5l-2 777q0 25 11 34t36 9h159q30 0 39 -7.5t9 -35.5v-781q0 -89 9.5 -151t34 -114.5t68 -83t111 -47.5t162.5 -17q128 0 235 20v1174q0 25 10.5 34t36.5 9 h160q29 0 35 -6.5t6 -36.5v-1192zM586 1599q-11 11 -10.5 19.5t16.5 21.5l307 236q15 12 24 12t23 -16l113 -141q21 -24 -4 -37l-373 -181q-11 -7 -20 -5.5t-19 12.5z" />
<glyph unicode="&#xdb;" horiz-adv-x="1427" d="M1274 199q0 -82 -37 -131.5t-125 -67.5q-113 -25 -321 -25q-177 0 -294.5 31.5t-196 106.5t-112.5 196.5t-34 304.5l-2 777q0 25 11 34t36 9h159q30 0 39 -7.5t9 -35.5v-781q0 -89 9.5 -151t34 -114.5t68 -83t111 -47.5t162.5 -17q128 0 235 20v1174q0 25 10.5 34t36.5 9 h160q29 0 35 -6.5t6 -36.5v-1192zM1038 1520q-15 -15 -49 4l-276 139l-279 -139q-31 -17 -47 4l-41 51q-9 13 -10 18.5t8 18.5l281 225q43 35 88 35q50 0 94 -35l274 -221q33 -23 9 -47z" />
<glyph unicode="&#xdc;" horiz-adv-x="1427" d="M1274 199q0 -82 -37 -131.5t-125 -67.5q-113 -25 -321 -25q-177 0 -294.5 31.5t-196 106.5t-112.5 196.5t-34 304.5l-2 777q0 25 11 34t36 9h159q30 0 39 -7.5t9 -35.5v-781q0 -89 9.5 -151t34 -114.5t68 -83t111 -47.5t162.5 -17q128 0 235 20v1174q0 25 10.5 34t36.5 9 h160q29 0 35 -6.5t6 -36.5v-1192zM1053 1640q0 -52 -39.5 -91.5t-93.5 -39.5q-53 0 -94.5 40.5t-41.5 90.5q0 53 41 93.5t95 40.5t93.5 -40t39.5 -94zM659 1640q0 -51 -40.5 -91t-94.5 -40t-93.5 39.5t-39.5 91.5q0 54 39.5 94t93.5 40t94.5 -40t40.5 -94z" />
<glyph unicode="&#xdd;" horiz-adv-x="1220" d="M621 776l157 324l154 303q11 20 20.5 26.5t28.5 6.5h199q30 0 18 -29l-459 -854v-516q0 -23 -7.5 -30t-31.5 -7h-170q-21 0 -29.5 7.5t-8.5 29.5v514l-469 854q-6 11 -1 21t21 10h207q22 0 31 -6.5t20 -28.5l160 -314l149 -311h11zM500 1599q-11 11 -10.5 19.5t16.5 21.5 l307 236q15 12 24 12t23 -16l113 -141q21 -24 -4 -37l-373 -181q-11 -7 -20 -5.5t-19 12.5z" />
<glyph unicode="&#xde;" horiz-adv-x="1280" d="M154 1403q0 22 8.5 28.5t30.5 6.5h167q24 0 32.5 -6.5t8.5 -28.5v-201h355q204 0 332.5 -122t128.5 -314q0 -49 -10 -101t-40.5 -115t-78.5 -112t-132.5 -84.5t-193.5 -40.5q-13 0 -40.5 -1t-43.5 -1h-268q0 -46 -1 -138t-1 -138q0 -35 -33 -35h-197q-8 0 -8 4l-2 2 q-14 0 -14 19v1378zM956 748q0 40 -11 76.5t-37 72.5t-78 58t-125 22h-295v-453h301q124 0 184.5 60.5t60.5 163.5z" />
<glyph unicode="&#xdf;" horiz-adv-x="1181" d="M850 823q100 -30 170 -136.5t70 -237.5q0 -126 -43 -225t-117 -159t-167 -90t-198 -26q-26 2 -32.5 6.5t-6.5 24.5v124q0 18 5.5 25.5t23.5 7.5q135 5 212 83.5t77 217.5q0 52 -13 99t-40 88t-77.5 65.5t-117.5 24.5q-38 2 -56 16.5t-18 48.5v49q0 74 70 74 q93 0 138.5 53.5t45.5 137.5q0 34 -10.5 66.5t-32 62t-61 47.5t-92.5 18q-56 0 -97.5 -22t-64 -59t-33 -78.5t-10.5 -88.5v-1001q0 -23 -9 -31t-34 -8h-154q-24 0 -32.5 8t-8.5 31l-2 967q0 222 120 350.5t325 128.5q109 0 194 -30.5t136.5 -83.5t77.5 -119t26 -142 q0 -49 -14.5 -99.5t-53 -102t-96.5 -77.5v-8z" />
<glyph unicode="&#xe0;" horiz-adv-x="1140" d="M1008 117q0 -51 -39 -68q-158 -72 -418 -72q-131 0 -223.5 26.5t-142.5 75.5t-71.5 107.5t-21.5 132.5t24.5 138t75.5 116.5t139.5 82.5t207.5 30h229v35q0 42 -9 72.5t-31 56t-65 38.5t-106 13q-69 0 -151.5 -12t-133.5 -29q-23 -6 -33 -2t-14 23l-28 116q-9 34 18 43 q160 60 381 60q211 0 311.5 -93t100.5 -276v-614zM766 504h-197q-33 0 -59.5 -2.5t-61 -12.5t-57 -28t-39 -52t-16.5 -81q0 -158 217 -158q131 0 213 33v301zM702 1251q10 -20 7 -27t-21 -12l-84 -30q-17 -5 -26 -2t-21 20l-229 328q-19 26 14 35l178 47q21 4 30 -2t15 -19z " />
<glyph unicode="&#xe1;" horiz-adv-x="1140" d="M1008 117q0 -51 -39 -68q-158 -72 -418 -72q-131 0 -223.5 26.5t-142.5 75.5t-71.5 107.5t-21.5 132.5t24.5 138t75.5 116.5t139.5 82.5t207.5 30h229v35q0 42 -9 72.5t-31 56t-65 38.5t-106 13q-69 0 -151.5 -12t-133.5 -29q-23 -6 -33 -2t-14 23l-28 116q-9 34 18 43 q160 60 381 60q211 0 311.5 -93t100.5 -276v-614zM766 504h-197q-33 0 -59.5 -2.5t-61 -12.5t-57 -28t-39 -52t-16.5 -81q0 -158 217 -158q131 0 213 33v301zM492 1210q-16 6 -19 15t4 26l139 336q14 32 52 23l172 -47q33 -9 14 -35l-231 -328q-11 -18 -21 -21t-27 3z" />
<glyph unicode="&#xe2;" horiz-adv-x="1140" d="M1008 117q0 -51 -39 -68q-158 -72 -418 -72q-131 0 -223.5 26.5t-142.5 75.5t-71.5 107.5t-21.5 132.5t24.5 138t75.5 116.5t139.5 82.5t207.5 30h229v35q0 42 -9 72.5t-31 56t-65 38.5t-106 13q-69 0 -151.5 -12t-133.5 -29q-23 -6 -33 -2t-14 23l-28 116q-9 34 18 43 q160 60 381 60q211 0 311.5 -93t100.5 -276v-614zM766 504h-197q-33 0 -59.5 -2.5t-61 -12.5t-57 -28t-39 -52t-16.5 -81q0 -158 217 -158q131 0 213 33v301zM967 1266q28 -28 0 -49l-47 -46q-19 -14 -50 5l-272 192l-270 -197q-27 -15 -47 5l-52 49q-15 18 0 39l269 274 q49 49 98 49q36 0 58 -10t48 -39z" />
<glyph unicode="&#xe3;" horiz-adv-x="1140" d="M1008 117q0 -51 -39 -68q-158 -72 -418 -72q-131 0 -223.5 26.5t-142.5 75.5t-71.5 107.5t-21.5 132.5t24.5 138t75.5 116.5t139.5 82.5t207.5 30h229v35q0 42 -9 72.5t-31 56t-65 38.5t-106 13q-69 0 -151.5 -12t-133.5 -29q-23 -6 -33 -2t-14 23l-28 116q-9 34 18 43 q160 60 381 60q211 0 311.5 -93t100.5 -276v-614zM766 504h-197q-33 0 -59.5 -2.5t-61 -12.5t-57 -28t-39 -52t-16.5 -81q0 -158 217 -158q131 0 213 33v301zM727 1255q-49 0 -140.5 39t-137.5 39q-45 0 -93 -61q-11 -14 -17 -16.5t-24 4.5l-73 38q-20 10 -22.5 18t5.5 25 q39 79 91.5 118.5t134.5 39.5q51 0 137 -38t125 -38q35 0 56 15t40 47q10 19 17 21.5t24 -3.5l82 -28q22 -7 25.5 -13.5t-3.5 -23.5q-39 -87 -92.5 -135t-134.5 -48z" />
<glyph unicode="&#xe4;" horiz-adv-x="1140" d="M1008 117q0 -51 -39 -68q-158 -72 -418 -72q-131 0 -223.5 26.5t-142.5 75.5t-71.5 107.5t-21.5 132.5t24.5 138t75.5 116.5t139.5 82.5t207.5 30h229v35q0 42 -9 72.5t-31 56t-65 38.5t-106 13q-69 0 -151.5 -12t-133.5 -29q-23 -6 -33 -2t-14 23l-28 116q-9 34 18 43 q160 60 381 60q211 0 311.5 -93t100.5 -276v-614zM766 504h-197q-33 0 -59.5 -2.5t-61 -12.5t-57 -28t-39 -52t-16.5 -81q0 -158 217 -158q131 0 213 33v301zM930 1372q0 -52 -40 -91.5t-93 -39.5t-94 40.5t-41 90.5q0 53 40.5 93t94.5 40t93.5 -39.5t39.5 -93.5zM537 1372 q0 -51 -41 -91t-95 -40q-53 0 -93 39.5t-40 91.5q0 54 39.5 93.5t93.5 39.5t95 -39.5t41 -93.5z" />
<glyph unicode="&#xe5;" horiz-adv-x="1140" d="M1008 117q0 -51 -39 -68q-158 -72 -418 -72q-131 0 -223.5 26.5t-142.5 75.5t-71.5 107.5t-21.5 132.5t24.5 138t75.5 116.5t139.5 82.5t207.5 30h229v35q0 42 -9 72.5t-31 56t-65 38.5t-106 13q-69 0 -151.5 -12t-133.5 -29q-23 -6 -33 -2t-14 23l-28 116q-9 34 18 43 q160 60 381 60q211 0 311.5 -93t100.5 -276v-614zM766 504h-197q-33 0 -59.5 -2.5t-61 -12.5t-57 -28t-39 -52t-16.5 -81q0 -158 217 -158q131 0 213 33v301zM711 1393q0 47 -29 75.5t-74 28.5q-47 0 -75.5 -28.5t-28.5 -75.5t28.5 -76t75.5 -29q44 0 73.5 29.5t29.5 75.5z M834 1393q0 -93 -65.5 -154t-160.5 -61q-98 0 -162.5 59.5t-64.5 155.5q0 92 65.5 153.5t161.5 61.5q95 0 160.5 -61t65.5 -154z" />
<glyph unicode="&#xe6;" horiz-adv-x="1781" d="M1235 1100q220 0 338.5 -121t118.5 -328q0 -94 -43.5 -132t-120.5 -38h-543q2 -93 24 -154.5t62.5 -92.5t87 -42.5t111.5 -11.5q125 0 239 56q18 9 27.5 7.5t19.5 -20.5l54 -114q15 -31 -13 -50q-135 -82 -348 -82q-195 0 -321 99q-177 -99 -428 -99q-408 0 -408 326 q0 54 12.5 103t42.5 95.5t76 80.5t118.5 54.5t164.5 20.5h244q8 33 8 68q0 174 -219 174q-134 0 -281 -39q-17 -7 -30 -4.5t-17 23.5l-29 118q-10 31 19 41q166 62 377 62q234 0 329 -133q62 65 147.5 99t180.5 34zM797 223q-53 110 -56 262h-194q-39 0 -73 -7.5t-67.5 -25 t-53 -53.5t-19.5 -88q0 -145 207 -145q157 0 256 57zM1464 655q0 46 -10.5 86.5t-35 78t-71 59.5t-110.5 22q-107 0 -172.5 -69t-73.5 -177h473z" />
<glyph unicode="&#xe7;" horiz-adv-x="1009" d="M602 186q126 0 240 54q24 10 32.5 6.5t14.5 -21.5l51 -119q21 -34 -12 -51q-110 -63 -318 -75l-32 -93q119 -7 172 -55.5t53 -114.5q0 -75 -62 -131.5t-182 -56.5q-125 0 -205 39q-24 9 -14 39l20 55q7 17 14.5 19.5t20.5 -3.5q71 -24 131 -24q103 0 103 67 q0 33 -33 48.5t-82 15.5q-8 0 -19.5 -0.5t-15.5 0t-10.5 1t-10 3t-7.5 6.5q-7 7 -8 17t0.5 15.5t5.5 22.5l49 132q-200 19 -303 156t-103 392q0 260 134.5 415t361.5 155q176 0 311 -72q19 -11 22.5 -20.5t-6.5 -30.5l-51 -121q-8 -18 -17 -21t-34 7q-119 45 -215 45 q-55 0 -99.5 -19.5t-74.5 -52.5t-50 -79t-29 -97.5t-9 -108.5q0 -60 7 -109t26 -94t48.5 -75t76 -48t108.5 -18z" />
<glyph unicode="&#xe8;" horiz-adv-x="1130" d="M582 1100q230 0 346 -118.5t116 -334.5q0 -99 -43.5 -139.5t-119.5 -40.5h-545q2 -78 24.5 -134t62.5 -88.5t89 -47.5t111 -15q125 0 239 56q33 14 45 -13l56 -116q14 -32 -15 -48q-139 -84 -346 -84q-252 0 -381 135.5t-129 419.5q0 265 136 416.5t354 151.5zM586 901 q-103 0 -170 -77.5t-72 -184.5h471q0 122 -50.5 192t-178.5 70zM696 1251q10 -20 7 -27t-21 -12l-84 -30q-17 -5 -26 -2t-21 20l-229 328q-19 26 14 35l178 47q21 4 30 -2t15 -19z" />
<glyph unicode="&#xe9;" horiz-adv-x="1130" d="M582 1100q230 0 346 -118.5t116 -334.5q0 -99 -43.5 -139.5t-119.5 -40.5h-545q2 -78 24.5 -134t62.5 -88.5t89 -47.5t111 -15q125 0 239 56q33 14 45 -13l56 -116q14 -32 -15 -48q-139 -84 -346 -84q-252 0 -381 135.5t-129 419.5q0 265 136 416.5t354 151.5zM586 901 q-103 0 -170 -77.5t-72 -184.5h471q0 122 -50.5 192t-178.5 70zM485 1210q-16 6 -18.5 15t4.5 26l139 336q14 32 52 23l172 -47q33 -9 14 -35l-232 -328q-11 -18 -20.5 -21t-26.5 3z" />
<glyph unicode="&#xea;" horiz-adv-x="1130" d="M582 1100q230 0 346 -118.5t116 -334.5q0 -99 -43.5 -139.5t-119.5 -40.5h-545q2 -78 24.5 -134t62.5 -88.5t89 -47.5t111 -15q125 0 239 56q33 14 45 -13l56 -116q14 -32 -15 -48q-139 -84 -346 -84q-252 0 -381 135.5t-129 419.5q0 265 136 416.5t354 151.5zM958 1266 q28 -28 0 -49l-47 -46q-19 -13 -49 5l-272 192l-271 -197q-27 -15 -47 5l-51 49q-15 18 0 39l268 274q49 49 99 49q36 0 58 -10t48 -39zM586 901q-103 0 -170 -77.5t-72 -184.5h471q0 122 -50.5 192t-178.5 70z" />
<glyph unicode="&#xeb;" horiz-adv-x="1130" d="M582 1100q230 0 346 -118.5t116 -334.5q0 -99 -43.5 -139.5t-119.5 -40.5h-545q2 -78 24.5 -134t62.5 -88.5t89 -47.5t111 -15q125 0 239 56q33 14 45 -13l56 -116q14 -32 -15 -48q-139 -84 -346 -84q-252 0 -381 135.5t-129 419.5q0 265 136 416.5t354 151.5zM586 901 q-103 0 -170 -77.5t-72 -184.5h471q0 122 -50.5 192t-178.5 70zM926 1372q0 -52 -40 -91.5t-93 -39.5t-94.5 40.5t-41.5 90.5q0 53 41 93t95 40t93.5 -39.5t39.5 -93.5zM532 1372q0 -51 -40.5 -91t-94.5 -40q-53 0 -93 39.5t-40 91.5q0 54 39.5 93.5t93.5 39.5t94.5 -39.5 t40.5 -93.5z" />
<glyph unicode="&#xec;" horiz-adv-x="591" d="M416 35q0 -23 -7.5 -29t-31.5 -6h-160q-22 0 -30.5 6.5t-8.5 28.5v1005q0 22 8.5 28.5t30.5 6.5h160q24 0 31.5 -6t7.5 -29v-1005zM401 1251q10 -20 7 -27t-21 -12l-84 -30q-17 -5 -26 -2t-21 20l-229 328q-19 26 14 35l178 47q21 4 30 -2t15 -19z" />
<glyph unicode="&#xed;" horiz-adv-x="591" d="M416 35q0 -23 -7.5 -29t-31.5 -6h-160q-22 0 -30.5 6.5t-8.5 28.5v1005q0 22 8.5 28.5t30.5 6.5h160q24 0 31.5 -6t7.5 -29v-1005zM227 1210q-16 6 -18.5 15t4.5 26l139 336q14 32 51 23l172 -47q34 -9 15 -35l-232 -328q-11 -18 -20.5 -21t-26.5 3z" />
<glyph unicode="&#xee;" horiz-adv-x="591" d="M416 35q0 -23 -7.5 -29t-31.5 -6h-160q-22 0 -30.5 6.5t-8.5 28.5v1005q0 22 8.5 28.5t30.5 6.5h160q24 0 31.5 -6t7.5 -29v-1005zM672 1266q28 -28 0 -49l-47 -46q-19 -14 -50 5l-272 192l-270 -197q-27 -15 -47 5l-52 49q-15 18 0 39l269 274q49 49 98 49 q36 0 58.5 -10t48.5 -39z" />
<glyph unicode="&#xef;" horiz-adv-x="591" d="M416 35q0 -23 -7.5 -29t-31.5 -6h-160q-22 0 -30.5 6.5t-8.5 28.5v1005q0 22 8.5 28.5t30.5 6.5h160q24 0 31.5 -6t7.5 -29v-1005zM633 1368q0 -52 -39.5 -91.5t-93.5 -39.5q-53 0 -94 40.5t-41 90.5q0 53 40.5 93t94.5 40t93.5 -39.5t39.5 -93.5zM240 1368 q0 -51 -41 -91t-95 -40t-93.5 39.5t-39.5 91.5q0 54 39.5 93.5t93.5 39.5t95 -39.5t41 -93.5z" />
<glyph unicode="&#xf0;" horiz-adv-x="1167" d="M793 946q-52 146 -146 244l-129 -105q-24 -21 -45 7l-31 38q-8 12 -8 20t12 19l119 99q-79 64 -164 114q-21 12 -23.5 23t5.5 20l47 78q13 22 26 25t33 -8q100 -42 222 -136l135 113q17 14 26 13.5t21 -17.5l31 -39q12 -17 12 -22t-14 -17l-125 -104 q137 -132 207.5 -317.5t70.5 -393.5q0 -86 -11 -163.5t-45 -163t-87.5 -147t-147 -102t-215.5 -40.5q-80 0 -147 15t-115.5 40.5t-86 63t-61.5 79.5t-39.5 92t-21.5 98.5t-6 102.5q0 95 28.5 182t83.5 160t148 116.5t211 43.5t219 -39zM590 784q-68 0 -119.5 -26t-80 -70 t-42.5 -94.5t-14 -106.5q0 -45 3.5 -81t17.5 -81t38 -75t69 -51t107 -21t110 21.5t77 56t47.5 82.5t25.5 97t7 104q0 97 -19 186q-106 59 -227 59z" />
<glyph unicode="&#xf1;" horiz-adv-x="1196" d="M532 895q-98 0 -161 -12v-848q0 -23 -7.5 -29t-31.5 -6h-160q-22 0 -30.5 6.5t-8.5 28.5v876q0 79 28 118t109 52q174 19 269 19q275 0 399.5 -122t124.5 -403v-540q0 -23 -7.5 -29t-31.5 -6h-162q-22 0 -30.5 6.5t-8.5 28.5v545q0 167 -62.5 241t-228.5 74zM682 1251 q-50 0 -141 39t-138 39q-44 0 -92 -61q-11 -15 -17 -17t-24 4l-73 39q-20 10 -22.5 18t5.5 25q39 79 91.5 118.5t134.5 39.5q51 0 137 -38t125 -38q35 0 56 15t40 47q10 19 17 21.5t24 -3.5l82 -29q22 -7 25.5 -13t-3.5 -23q-39 -87 -92.5 -135t-134.5 -48z" />
<glyph unicode="&#xf2;" horiz-adv-x="1177" d="M1085 543q0 -274 -126.5 -420t-374.5 -146q-246 0 -369 141.5t-123 418.5q0 264 137 413.5t361 149.5q241 0 368 -147t127 -410zM842 537q0 62 -6.5 113.5t-24 99t-45 79.5t-71.5 51t-101 19q-127 0 -193.5 -98.5t-66.5 -257.5q0 -179 58.5 -272t193.5 -93q69 0 120 29 t80 80.5t42.5 113.5t13.5 136zM711 1251q10 -20 6.5 -27t-21.5 -12l-84 -30q-17 -5 -26 -2t-21 20l-229 328q-19 26 14 35l178 47q21 4 30 -2t15 -19z" />
<glyph unicode="&#xf3;" horiz-adv-x="1177" d="M1085 543q0 -274 -126.5 -420t-374.5 -146q-246 0 -369 141.5t-123 418.5q0 264 137 413.5t361 149.5q241 0 368 -147t127 -410zM842 537q0 62 -6.5 113.5t-24 99t-45 79.5t-71.5 51t-101 19q-127 0 -193.5 -98.5t-66.5 -257.5q0 -179 58.5 -272t193.5 -93q69 0 120 29 t80 80.5t42.5 113.5t13.5 136zM500 1210q-16 6 -19 15t4 26l140 336q14 32 51 23l172 -47q33 -9 14 -35l-231 -328q-11 -18 -20.5 -21t-26.5 3z" />
<glyph unicode="&#xf4;" horiz-adv-x="1177" d="M1085 543q0 -274 -126.5 -420t-374.5 -146q-246 0 -369 141.5t-123 418.5q0 264 137 413.5t361 149.5q241 0 368 -147t127 -410zM842 537q0 62 -6.5 113.5t-24 99t-45 79.5t-71.5 51t-101 19q-127 0 -193.5 -98.5t-66.5 -257.5q0 -179 58.5 -272t193.5 -93q69 0 120 29 t80 80.5t42.5 113.5t13.5 136zM967 1266q28 -28 0 -49l-47 -46q-19 -14 -50 5l-272 192l-270 -197q-27 -15 -47 5l-52 49q-15 18 0 39l269 274q49 49 98 49q36 0 58 -10t48 -39z" />
<glyph unicode="&#xf5;" horiz-adv-x="1177" d="M1085 543q0 -274 -126.5 -420t-374.5 -146q-246 0 -369 141.5t-123 418.5q0 264 137 413.5t361 149.5q241 0 368 -147t127 -410zM842 537q0 62 -6.5 113.5t-24 99t-45 79.5t-71.5 51t-101 19q-127 0 -193.5 -98.5t-66.5 -257.5q0 -179 58.5 -272t193.5 -93q69 0 120 29 t80 80.5t42.5 113.5t13.5 136zM731 1255q-49 0 -140 39t-138 39q-45 0 -93 -61q-11 -14 -17 -16.5t-24 4.5l-73 38q-20 10 -22.5 18t5.5 25q39 79 91.5 118.5t134.5 39.5q51 0 137 -38t125 -38q35 0 56 15t40 47q10 19 17 21.5t24 -3.5l82 -28q22 -7 25.5 -13.5t-3.5 -23.5 q-39 -87 -92.5 -135t-134.5 -48z" />
<glyph unicode="&#xf6;" horiz-adv-x="1177" d="M1085 543q0 -274 -126.5 -420t-374.5 -146q-246 0 -369 141.5t-123 418.5q0 264 137 413.5t361 149.5q241 0 368 -147t127 -410zM842 537q0 62 -6.5 113.5t-24 99t-45 79.5t-71.5 51t-101 19q-127 0 -193.5 -98.5t-66.5 -257.5q0 -179 58.5 -272t193.5 -93q69 0 120 29 t80 80.5t42.5 113.5t13.5 136zM918 1372q0 -51 -40 -91t-94 -40q-53 0 -94 40.5t-41 90.5q0 53 40.5 93t94.5 40t94 -39.5t40 -93.5zM524 1372q0 -51 -40.5 -91t-94.5 -40q-53 0 -93 39.5t-40 91.5q0 54 39.5 93.5t93.5 39.5t94.5 -39.5t40.5 -93.5z" />
<glyph unicode="&#xf7;" horiz-adv-x="1263" d="M811 1092q0 -72 -50 -121t-124 -49q-72 0 -121 48.5t-49 121.5q0 72 49 120t121 48q75 0 124.5 -48t49.5 -120zM811 301q0 -72 -50 -121t-124 -49q-72 0 -121 49t-49 121t49 121t121 49q75 0 124.5 -48.5t49.5 -121.5zM1141 637q0 -22 -6.5 -30.5t-28.5 -8.5h-946 q-23 0 -30 7.5t-7 31.5v137q0 22 6.5 30.5t28.5 8.5h948q22 0 28.5 -8.5t6.5 -30.5v-137z" />
<glyph unicode="&#xf8;" horiz-adv-x="1177" d="M1085 543q0 -274 -126.5 -420t-374.5 -146q-210 0 -332 107l-74 -84q-18 -18 -33 -2l-34 33q-20 15 0 35l77 88q-96 134 -96 383q0 264 137 413.5t361 149.5q206 0 332 -111l77 90q17 17 37 2l35 -32q11 -11 11 -17t-11 -18l-86 -96q100 -135 100 -375zM334 543 q0 -115 24 -197l412 475q-62 78 -176 78q-127 0 -193.5 -98.5t-66.5 -257.5zM842 537q0 114 -25 190l-414 -473q58 -76 183 -76q69 0 120 29t80 80.5t42.5 113.5t13.5 136z" />
<glyph unicode="&#xf9;" horiz-adv-x="1175" d="M643 182q93 0 162 13v847q0 23 7.5 29t31.5 6h160q22 0 30 -6.5t8 -28.5v-876q0 -73 -33 -115t-104 -55q-137 -19 -266 -19q-276 0 -391 120t-115 405v540q0 23 7.5 29t31.5 6h160q22 0 30.5 -6.5t8.5 -28.5v-544q0 -86 10.5 -140.5t39.5 -96.5t83 -60.5t139 -18.5z M709 1251q10 -20 6.5 -27t-21.5 -12l-84 -30q-17 -5 -26 -2t-21 20l-229 328q-19 26 14 35l178 47q21 4 30 -2t15 -19z" />
<glyph unicode="&#xfa;" horiz-adv-x="1175" d="M643 182q93 0 162 13v847q0 23 7.5 29t31.5 6h160q22 0 30 -6.5t8 -28.5v-876q0 -73 -33 -115t-104 -55q-137 -19 -266 -19q-276 0 -391 120t-115 405v540q0 23 7.5 29t31.5 6h160q22 0 30.5 -6.5t8.5 -28.5v-544q0 -86 10.5 -140.5t39.5 -96.5t83 -60.5t139 -18.5z M506 1210q-16 6 -18.5 15t4.5 26l139 336q14 32 51 23l172 -47q33 -9 14 -35l-231 -328q-11 -18 -20.5 -21t-26.5 3z" />
<glyph unicode="&#xfb;" horiz-adv-x="1175" d="M643 182q93 0 162 13v847q0 23 7.5 29t31.5 6h160q22 0 30 -6.5t8 -28.5v-876q0 -73 -33 -115t-104 -55q-137 -19 -266 -19q-276 0 -391 120t-115 405v540q0 23 7.5 29t31.5 6h160q22 0 30.5 -6.5t8.5 -28.5v-544q0 -86 10.5 -140.5t39.5 -96.5t83 -60.5t139 -18.5z M975 1266q28 -28 0 -49l-47 -46q-19 -13 -49 5l-273 192l-270 -197q-27 -15 -47 5l-51 49q-15 18 0 39l268 274q49 49 98 49q36 0 58.5 -10t48.5 -39z" />
<glyph unicode="&#xfc;" horiz-adv-x="1175" d="M643 182q93 0 162 13v847q0 23 7.5 29t31.5 6h160q22 0 30 -6.5t8 -28.5v-876q0 -73 -33 -115t-104 -55q-137 -19 -266 -19q-276 0 -391 120t-115 405v540q0 23 7.5 29t31.5 6h160q22 0 30.5 -6.5t8.5 -28.5v-544q0 -86 10.5 -140.5t39.5 -96.5t83 -60.5t139 -18.5z M938 1372q0 -52 -40 -91.5t-93 -39.5t-94 40.5t-41 90.5q0 53 40.5 93t94.5 40t93.5 -39.5t39.5 -93.5zM545 1372q0 -51 -40.5 -91t-94.5 -40t-94 40t-40 91q0 54 40 93.5t94 39.5t94.5 -39.5t40.5 -93.5z" />
<glyph unicode="&#xfd;" horiz-adv-x="1069" d="M639 -174q-46 -138 -128 -198t-214 -60q-109 0 -180 24q-23 4 -28.5 12t-0.5 27l29 125q4 19 13 23.5t28 -0.5q71 -15 100 -15q73 0 114.5 29t65.5 101l43 129h-49q-22 0 -33.5 2t-25.5 9.5t-24 25t-19 46.5l-307 941q-9 28 22 28h188q23 0 31 -4.5t12 -21.5l140 -471 l106 -371h13l114 375l152 465q5 18 11.5 23t29.5 5h186q30 0 21 -26l-410 -1225v2zM481 1210q-16 6 -18.5 15t4.5 26l139 336q14 32 51 23l172 -47q34 -9 15 -35l-232 -328q-11 -18 -20.5 -21t-26.5 3z" />
<glyph unicode="&#xfe;" horiz-adv-x="1187" d="M373 -381q0 -23 -7.5 -29t-31.5 -6h-162q-22 0 -30.5 6.5t-8.5 28.5v1833q0 23 7.5 30t31.5 7h162q24 0 31.5 -7t7.5 -30v-375q120 21 225 21q129 0 226.5 -43t156 -120t87 -176t28.5 -220q0 -116 -30.5 -216t-88.5 -177.5t-151 -121.5t-210 -44q-126 0 -243 28v-389z M848 541q0 187 -73 269.5t-212 82.5q-101 0 -190 -29v-651q106 -29 200 -29q275 0 275 357z" />
<glyph unicode="&#xff;" horiz-adv-x="1069" d="M639 -174q-46 -138 -128 -198t-214 -60q-109 0 -180 24q-23 4 -28.5 12t-0.5 27l29 125q4 19 13 23.5t28 -0.5q71 -15 100 -15q73 0 114.5 29t65.5 101l43 129h-49q-22 0 -33.5 2t-25.5 9.5t-24 25t-19 46.5l-307 941q-9 28 22 28h188q23 0 31 -4.5t12 -21.5l140 -471 l106 -371h13l114 375l152 465q5 18 11.5 23t29.5 5h186q30 0 21 -26l-410 -1225v2zM868 1370q0 -52 -40 -91.5t-93 -39.5t-94 40.5t-41 90.5q0 53 40.5 93t94.5 40t93.5 -39.5t39.5 -93.5zM475 1370q0 -51 -40.5 -91t-94.5 -40t-93.5 39.5t-39.5 91.5q0 54 39.5 93.5 t93.5 39.5t94.5 -39.5t40.5 -93.5z" />
<glyph unicode="&#x100;" horiz-adv-x="1308" d="M913 313h-520l-90 -278q-6 -19 -17.5 -27t-35.5 -8h-189q-43 0 -28 43l442 1296q20 59 46.5 79t84.5 20h88q63 0 90 -19.5t47 -79.5l445 -1296q15 -43 -27 -43h-188q-26 0 -38 5.5t-19 27.5zM455 526h393l-107 344l-86 291h-10l-84 -284zM948 1616q0 -24 -7 -31.5 t-30 -7.5h-520q-23 0 -29 7.5t-6 31.5v100q0 24 6 31.5t29 7.5h520q23 0 30 -7.5t7 -31.5v-100z" />
<glyph unicode="&#x101;" horiz-adv-x="1140" d="M1008 117q0 -51 -39 -68q-158 -72 -418 -72q-131 0 -223.5 26.5t-142.5 75.5t-71.5 107.5t-21.5 132.5t24.5 138t75.5 116.5t139.5 82.5t207.5 30h229v35q0 42 -9 72.5t-31 56t-65 38.5t-106 13q-69 0 -151.5 -12t-133.5 -29q-23 -6 -33 -2t-14 23l-28 116q-9 34 18 43 q160 60 381 60q211 0 311.5 -93t100.5 -276v-614zM766 504h-197q-33 0 -59.5 -2.5t-61 -12.5t-57 -28t-39 -52t-16.5 -81q0 -158 217 -158q131 0 213 33v301zM879 1300q0 -23 -7 -30.5t-30 -7.5h-520q-23 0 -29 7t-6 31v101q0 24 6 31.5t29 7.5h520q23 0 30 -7.5t7 -31.5 v-101z" />
<glyph unicode="&#x102;" horiz-adv-x="1308" d="M913 313h-520l-90 -278q-6 -19 -17.5 -27t-35.5 -8h-189q-43 0 -28 43l442 1296q20 59 46.5 79t84.5 20h88q63 0 90 -19.5t47 -79.5l445 -1296q15 -43 -27 -43h-188q-26 0 -38 5.5t-19 27.5zM455 526h393l-107 344l-86 291h-10l-84 -284zM637 1524q-103 0 -194.5 63.5 t-159.5 163.5q-16 21 6 43l57 53q7 7 12 10t9.5 2t7 -2.5t9 -7t11.5 -8.5q133 -139 252 -139q52 0 104 29.5t150 115.5q12 11 20.5 13t11 0.5t13.5 -9.5l58 -49q12 -11 15 -20.5t1 -13.5t-8 -11q-180 -233 -375 -233z" />
<glyph unicode="&#x103;" horiz-adv-x="1140" d="M1008 117q0 -51 -39 -68q-158 -72 -418 -72q-131 0 -223.5 26.5t-142.5 75.5t-71.5 107.5t-21.5 132.5t24.5 138t75.5 116.5t139.5 82.5t207.5 30h229v35q0 42 -9 72.5t-31 56t-65 38.5t-106 13q-69 0 -151.5 -12t-133.5 -29q-23 -6 -33 -2t-14 23l-28 116q-9 34 18 43 q160 60 381 60q211 0 311.5 -93t100.5 -276v-614zM766 504h-197q-33 0 -59.5 -2.5t-61 -12.5t-57 -28t-39 -52t-16.5 -81q0 -158 217 -158q131 0 213 33v301zM588 1198q-103 0 -195.5 63.5t-159.5 163.5q-15 21 7 43l57 54q7 7 12 10t9.5 2t7 -2.5t9 -7t11.5 -8.5 q134 -140 252 -140q52 0 103.5 29.5t150.5 116.5q12 11 20.5 13t11 0.5t13.5 -9.5l57 -49q27 -23 9 -45q-181 -234 -375 -234z" />
<glyph unicode="&#x104;" horiz-adv-x="1308" d="M1012 16q-4 3 -8 17l-91 280h-520l-90 -278q-6 -19 -17.5 -27t-35.5 -8h-189q-43 0 -28 43l442 1296q20 59 46.5 79t84.5 20h88q63 0 90 -19.5t47 -79.5l445 -1296q15 -43 -27 -43h-116q-129 -135 -129 -240q0 -40 24.5 -56.5t79.5 -16.5q41 0 109 14q17 6 23.5 4 t10.5 -18l17 -56q9 -25 -15 -39q-103 -43 -219 -43q-106 0 -157.5 45.5t-53.5 118.5q0 79 53.5 166.5t135.5 136.5zM455 526h393l-107 344l-86 291h-10l-84 -284z" />
<glyph unicode="&#x105;" horiz-adv-x="1140" d="M1008 117q0 -45 -35 -66q-121 -127 -121 -231q0 -41 24.5 -57.5t79.5 -16.5q41 0 109 14q17 6 24 4t11 -18l16 -55q9 -26 -14 -39q-103 -43 -219 -43q-106 0 -157.5 45.5t-53.5 118.5q-3 107 90 219q-108 -15 -211 -15q-131 0 -223.5 26.5t-142.5 75.5t-71.5 107.5 t-21.5 132.5t24.5 138t75.5 116.5t139.5 82.5t207.5 30h229v35q0 42 -9 72.5t-31 56t-65 38.5t-106 13q-69 0 -151.5 -12t-133.5 -29q-23 -6 -33 -2t-14 23l-28 116q-9 34 18 43q160 60 381 60q211 0 311.5 -93t100.5 -276v-614zM766 504h-197q-33 0 -59.5 -2.5t-61 -12.5 t-57 -28t-39 -52t-16.5 -81q0 -158 217 -158q131 0 213 33v301z" />
<glyph unicode="&#x106;" horiz-adv-x="1269" d="M778 209q136 0 316 70q30 9 40 4t17 -25l53 -117q13 -30 10.5 -40t-20.5 -21q-175 -103 -453 -103q-628 0 -628 723q0 339 178 546.5t467 207.5q228 0 387 -86q18 -8 21.5 -18.5t-7.5 -40.5l-57 -119q-8 -22 -15.5 -26.5t-31.5 3.5q-149 58 -287 58q-99 0 -176 -43 t-124 -117t-71 -167t-24 -198q0 -491 405 -491zM590 1604q-11 11 -10.5 19.5t16.5 21.5l307 235q15 12 24 12t23 -16l113 -141q21 -24 -4 -37l-373 -180q-23 -12 -39 6z" />
<glyph unicode="&#x107;" horiz-adv-x="1009" d="M602 186q126 0 240 54q24 10 32.5 6.5t14.5 -21.5l51 -119q21 -34 -12 -51q-140 -78 -363 -78q-230 0 -351.5 140t-121.5 413q0 260 134.5 415t361.5 155q176 0 311 -72q19 -11 22.5 -20.5t-6.5 -30.5l-51 -121q-8 -18 -17 -21t-34 7q-119 45 -215 45q-55 0 -99.5 -19.5 t-74.5 -52.5t-50 -79t-29 -97.5t-9 -108.5q0 -60 7 -109t26 -94t48.5 -75t76 -48t108.5 -18zM477 1210q-16 6 -18.5 15t4.5 26l139 336q14 32 51 23l172 -47q34 -9 15 -35l-232 -328q-11 -18 -20.5 -21t-26.5 3z" />
<glyph unicode="&#x108;" horiz-adv-x="1269" d="M778 209q136 0 316 70q30 9 40 4t17 -25l53 -117q13 -30 10.5 -40t-20.5 -21q-175 -103 -453 -103q-628 0 -628 723q0 339 178 546.5t467 207.5q228 0 387 -86q18 -8 21.5 -18.5t-7.5 -40.5l-57 -119q-8 -22 -15.5 -26.5t-31.5 3.5q-149 58 -287 58q-99 0 -176 -43 t-124 -117t-71 -167t-24 -198q0 -491 405 -491zM1059 1520q-15 -15 -49 4l-277 139l-278 -139q-31 -17 -47 4l-41 51q-9 13 -10 18.5t8 18.5l280 225q43 35 88 35q50 0 94 -35l275 -221q32 -23 8 -47z" />
<glyph unicode="&#x109;" horiz-adv-x="1009" d="M602 186q126 0 240 54q24 10 32.5 6.5t14.5 -21.5l51 -119q21 -34 -12 -51q-140 -78 -363 -78q-230 0 -351.5 140t-121.5 413q0 260 134.5 415t361.5 155q176 0 311 -72q19 -11 22.5 -20.5t-6.5 -30.5l-51 -121q-8 -18 -17 -21t-34 7q-119 45 -215 45q-55 0 -99.5 -19.5 t-74.5 -52.5t-50 -79t-29 -97.5t-9 -108.5q0 -60 7 -109t26 -94t48.5 -75t76 -48t108.5 -18zM944 1272q28 -28 0 -49l-47 -45q-20 -14 -49 4l-273 192l-270 -196q-28 -15 -47 4l-51 49q-15 18 0 39l268 274q49 49 98 49q36 0 58.5 -10t48.5 -39z" />
<glyph unicode="&#x10a;" horiz-adv-x="1269" d="M778 209q136 0 316 70q30 9 40 4t17 -25l53 -117q13 -30 10.5 -40t-20.5 -21q-175 -103 -453 -103q-628 0 -628 723q0 339 178 546.5t467 207.5q228 0 387 -86q18 -8 21.5 -18.5t-7.5 -40.5l-57 -119q-8 -22 -15.5 -26.5t-31.5 3.5q-149 58 -287 58q-99 0 -176 -43 t-124 -117t-71 -167t-24 -198q0 -491 405 -491zM895 1677q0 -60 -42.5 -100.5t-102.5 -40.5t-102 40.5t-42 100.5t42 102t102 42t102.5 -42t42.5 -102z" />
<glyph unicode="&#x10b;" horiz-adv-x="1009" d="M602 186q126 0 240 54q24 10 32.5 6.5t14.5 -21.5l51 -119q21 -34 -12 -51q-140 -78 -363 -78q-230 0 -351.5 140t-121.5 413q0 260 134.5 415t361.5 155q176 0 311 -72q19 -11 22.5 -20.5t-6.5 -30.5l-51 -121q-8 -18 -17 -21t-34 7q-119 45 -215 45q-55 0 -99.5 -19.5 t-74.5 -52.5t-50 -79t-29 -97.5t-9 -108.5q0 -60 7 -109t26 -94t48.5 -75t76 -48t108.5 -18zM727 1376q0 -60 -42.5 -100.5t-102.5 -40.5t-102 40.5t-42 100.5t42 102t102 42t102.5 -42t42.5 -102z" />
<glyph unicode="&#x10c;" horiz-adv-x="1269" d="M778 209q136 0 316 70q30 9 40 4t17 -25l53 -117q13 -30 10.5 -40t-20.5 -21q-175 -103 -453 -103q-628 0 -628 723q0 339 178 546.5t467 207.5q228 0 387 -86q18 -8 21.5 -18.5t-7.5 -40.5l-57 -119q-8 -22 -15.5 -26.5t-31.5 3.5q-149 58 -287 58q-99 0 -176 -43 t-124 -117t-71 -167t-24 -198q0 -491 405 -491zM1114 1819q24 -24 -8 -47l-275 -222q-43 -34 -94 -34q-46 0 -88 34l-280 226q-9 13 -8 18t10 18l41 52q16 21 47 4q50 -20 141 -69.5t137 -69.5q46 24 138.5 69.5t138.5 69.5q34 19 49 4z" />
<glyph unicode="&#x10d;" horiz-adv-x="1009" d="M602 186q126 0 240 54q24 10 32.5 6.5t14.5 -21.5l51 -119q21 -34 -12 -51q-140 -78 -363 -78q-230 0 -351.5 140t-121.5 413q0 260 134.5 415t361.5 155q176 0 311 -72q19 -11 22.5 -20.5t-6.5 -30.5l-51 -121q-8 -18 -17 -21t-34 7q-119 45 -215 45q-55 0 -99.5 -19.5 t-74.5 -52.5t-50 -79t-29 -97.5t-9 -108.5q0 -60 7 -109t26 -94t48.5 -75t76 -48t108.5 -18zM838 1585q18 11 26.5 11.5t22.5 -9.5l47 -41q17 -14 16.5 -23.5t-18.5 -27.5l-273 -283q-38 -38 -96 -38q-50 0 -88 38l-280 287q-16 19 2 37l51 47q19 19 47 4l268 -194z" />
<glyph unicode="&#x10e;" horiz-adv-x="1409" d="M268 0q-64 0 -89 27t-25 90v1202q0 62 25 89.5t89 27.5l379 2q163 0 288 -52.5t203.5 -148t118 -224t39.5 -286.5q0 -126 -21.5 -233.5t-70 -199.5t-120.5 -156.5t-178 -101t-238 -36.5h-400zM1038 723q0 109 -20 194t-65.5 154t-127.5 106t-198 37h-221v-991h227 q115 0 195.5 37t125.5 106.5t64.5 156.5t19.5 200zM1006 1819q24 -24 -9 -47l-274 -222q-43 -34 -94 -34q-46 0 -88 34l-281 226q-9 13 -8 18t10 18l41 52q16 21 47 4q50 -20 141.5 -69.5t137.5 -69.5q46 24 138 69.5t138 69.5q34 19 49 4z" />
<glyph unicode="&#x10f;" horiz-adv-x="1468" d="M92 522q0 93 18 177t57.5 157.5t97.5 127t142 84t187 30.5q123 0 219 -25v387q0 22 8.5 28.5t32.5 6.5h160q22 0 30.5 -6.5t8.5 -28.5v-1358q0 -36 -58 -63t-142.5 -39t-152 -17.5t-114.5 -5.5q-135 0 -231.5 38.5t-153.5 112t-83 170.5t-26 224zM340 522 q0 -183 69.5 -262.5t208.5 -79.5q44 0 102.5 9t92.5 22v657q-91 25 -197 25q-128 0 -202 -90.5t-74 -280.5zM1358 1024q-8 -25 -14.5 -32t-28.5 -7h-78q-44 0 -41 33l29 397q4 39 39 39h190q23 0 32.5 -12t4.5 -27z" />
<glyph unicode="&#x110;" horiz-adv-x="1409" d="M268 0q-64 0 -89 27t-25 90v528h-99q-23 0 -29 7.5t-6 31.5v90q0 24 6.5 32.5t28.5 8.5h99v504q0 62 25 89.5t89 27.5l379 2q163 0 288 -52.5t203.5 -148t118 -224t39.5 -286.5q0 -126 -21.5 -233.5t-70 -199.5t-120.5 -156.5t-178 -101t-238 -36.5h-400zM1038 723 q0 491 -411 491h-219v-399h280q22 0 27.5 -8t5.5 -33v-90q0 -25 -5.5 -32t-27.5 -7h-280v-422h225q115 0 195.5 37t125.5 106.5t64.5 156.5t19.5 200z" />
<glyph unicode="&#x111;" horiz-adv-x="1187" d="M92 516q0 124 32.5 227.5t95 180t161 119t223.5 42.5q102 0 209 -24v145h-315q-18 0 -22.5 6.5t-4.5 28.5v57q0 22 4 28.5t23 6.5h315v127q0 22 8.5 28.5t32.5 6.5h160q22 0 30.5 -6.5t8.5 -28.5v-127h90q19 0 23.5 -6.5t4.5 -28.5v-57q0 -21 -5 -28t-23 -7h-90v-1104 q0 -38 -43 -53q-176 -72 -424 -72q-135 0 -231.5 38t-153.5 111t-83 169t-26 221zM340 514q0 -179 69.5 -256.5t208.5 -77.5q44 0 102.5 9t92.5 22v643q-99 27 -197 27q-127 0 -201.5 -89.5t-74.5 -277.5z" />
<glyph unicode="&#x112;" horiz-adv-x="1224" d="M1145 47q0 -25 -9 -36t-34 -11h-584q-103 0 -177 30t-113.5 84t-56.5 115.5t-17 137.5v700q0 74 20.5 138t62 117t114 83.5t167.5 30.5h572q25 0 32.5 -10t7.5 -37v-129q0 -27 -7.5 -36.5t-32.5 -9.5h-545q-76 0 -109 -33.5t-33 -101.5v-215h619q26 0 33.5 -9.5 t7.5 -39.5v-113q0 -26 -8 -36.5t-33 -10.5h-619v-299q0 -133 142 -133h557q28 0 35.5 -9.5t7.5 -39.5v-127zM1004 1616q0 -24 -7 -31.5t-30 -7.5h-521q-22 0 -28 7.5t-6 31.5v100q0 24 6 31.5t28 7.5h521q23 0 30 -7.5t7 -31.5v-100z" />
<glyph unicode="&#x113;" horiz-adv-x="1130" d="M582 1100q230 0 346 -118.5t116 -334.5q0 -99 -43.5 -139.5t-119.5 -40.5h-545q2 -78 24.5 -134t62.5 -88.5t89 -47.5t111 -15q125 0 239 56q33 14 45 -13l56 -116q14 -32 -15 -48q-139 -84 -346 -84q-252 0 -381 135.5t-129 419.5q0 265 136 416.5t354 151.5zM887 1307 q0 -24 -7 -31.5t-30 -7.5h-520q-23 0 -29 7.5t-6 31.5v100q0 24 6 31.5t29 7.5h520q23 0 30 -7.5t7 -31.5v-100zM586 901q-103 0 -170 -77.5t-72 -184.5h471q0 122 -50.5 192t-178.5 70z" />
<glyph unicode="&#x114;" horiz-adv-x="1224" d="M1145 47q0 -25 -9 -36t-34 -11h-584q-103 0 -177 30t-113.5 84t-56.5 115.5t-17 137.5v700q0 74 20.5 138t62 117t114 83.5t167.5 30.5h572q25 0 32.5 -10t7.5 -37v-129q0 -27 -7.5 -36.5t-32.5 -9.5h-545q-76 0 -109 -33.5t-33 -101.5v-215h619q26 0 33.5 -9.5 t7.5 -39.5v-113q0 -26 -8 -36.5t-33 -10.5h-619v-299q0 -133 142 -133h557q28 0 35.5 -9.5t7.5 -39.5v-127zM692 1520q-103 0 -194.5 63.5t-159.5 163.5q-16 21 6 43l57 53q9 8 16 10.5t9.5 2t11.5 -8t13 -10.5q133 -139 251 -139q52 0 104 29.5t150 115.5q12 11 20.5 13 t11 0.5t13.5 -9.5l58 -49q12 -11 15 -20.5t1 -13.5t-8 -11q-180 -233 -375 -233z" />
<glyph unicode="&#x115;" horiz-adv-x="1130" d="M582 1100q230 0 346 -118.5t116 -334.5q0 -99 -43.5 -139.5t-119.5 -40.5h-545q2 -78 24.5 -134t62.5 -88.5t89 -47.5t111 -15q125 0 239 56q33 14 45 -13l56 -116q14 -32 -15 -48q-139 -84 -346 -84q-252 0 -381 135.5t-129 419.5q0 265 136 416.5t354 151.5zM565 1192 q-103 0 -194.5 63.5t-159.5 163.5q-16 21 6 43l57 54q9 8 15.5 10t9.5 1.5t11.5 -8t13.5 -10.5q133 -139 251 -139q52 0 103.5 29.5t150.5 116.5q12 11 20.5 13t11 0.5t13.5 -9.5l58 -50q12 -11 15 -20.5t1 -13.5t-8 -11q-180 -233 -375 -233zM586 901q-103 0 -170 -77.5 t-72 -184.5h471q0 122 -50.5 192t-178.5 70z" />
<glyph unicode="&#x116;" horiz-adv-x="1224" d="M1145 47q0 -25 -9 -36t-34 -11h-584q-103 0 -177 30t-113.5 84t-56.5 115.5t-17 137.5v700q0 74 20.5 138t62 117t114 83.5t167.5 30.5h572q25 0 32.5 -10t7.5 -37v-129q0 -27 -7.5 -36.5t-32.5 -9.5h-545q-76 0 -109 -33.5t-33 -101.5v-215h619q26 0 33.5 -9.5 t7.5 -39.5v-113q0 -26 -8 -36.5t-33 -10.5h-619v-299q0 -133 142 -133h557q28 0 35.5 -9.5t7.5 -39.5v-127zM825 1667q0 -60 -42.5 -100.5t-102.5 -40.5t-101.5 40.5t-41.5 100.5t41.5 101.5t101.5 41.5t102.5 -41.5t42.5 -101.5z" />
<glyph unicode="&#x117;" horiz-adv-x="1130" d="M582 1100q230 0 346 -118.5t116 -334.5q0 -99 -43.5 -139.5t-119.5 -40.5h-545q2 -78 24.5 -134t62.5 -88.5t89 -47.5t111 -15q125 0 239 56q33 14 45 -13l56 -116q14 -32 -15 -48q-139 -84 -346 -84q-252 0 -381 135.5t-129 419.5q0 265 136 416.5t354 151.5zM586 901 q-103 0 -170 -77.5t-72 -184.5h471q0 122 -50.5 192t-178.5 70zM725 1374q0 -60 -42.5 -100.5t-102.5 -40.5t-102 40.5t-42 100.5t42 102t102 42t102.5 -42t42.5 -102z" />
<glyph unicode="&#x118;" horiz-adv-x="1224" d="M1145 47q0 -40 -31 -47q-63 -65 -94 -127t-31 -109q0 -40 25 -56.5t80 -16.5q40 0 108 14q17 6 24 4t11 -18l16 -56q9 -25 -14 -38q-103 -43 -219 -43q-106 0 -157.5 45t-53.5 118q-2 72 42 150.5t116 132.5h-449q-103 0 -177 30t-113.5 84t-56.5 115.5t-17 137.5v700 q0 74 20.5 138t62 117t114 83.5t167.5 30.5h572q25 0 32.5 -10t7.5 -37v-129q0 -27 -7.5 -36.5t-32.5 -9.5h-545q-76 0 -109 -33.5t-33 -101.5v-215h619q26 0 33.5 -9.5t7.5 -39.5v-113q0 -26 -8 -36.5t-33 -10.5h-619v-299q0 -133 142 -133h557q28 0 35.5 -9.5t7.5 -39.5 v-127z" />
<glyph unicode="&#x119;" horiz-adv-x="1130" d="M582 1100q230 0 346 -118.5t116 -334.5q0 -99 -43.5 -139.5t-119.5 -40.5h-545q2 -78 24.5 -134t62.5 -88.5t89 -47.5t111 -15q125 0 239 56q33 14 45 -13l56 -116q14 -32 -15 -48l-6 -4q-63 -65 -94 -126.5t-31 -108.5q0 -40 25 -57t80 -17q40 0 108 14q17 6 24 4 t11 -18l16 -55q9 -26 -14 -39q-103 -43 -219 -43q-106 0 -157.5 45.5t-53.5 118.5q-3 101 82 211q-61 -9 -117 -9q-252 0 -381 135.5t-129 419.5q0 265 136 416.5t354 151.5zM586 901q-103 0 -170 -77.5t-72 -184.5h471q0 122 -50.5 192t-178.5 70z" />
<glyph unicode="&#x11a;" horiz-adv-x="1224" d="M1145 47q0 -25 -9 -36t-34 -11h-584q-103 0 -177 30t-113.5 84t-56.5 115.5t-17 137.5v700q0 74 20.5 138t62 117t114 83.5t167.5 30.5h572q25 0 32.5 -10t7.5 -37v-129q0 -27 -7.5 -36.5t-32.5 -9.5h-545q-76 0 -109 -33.5t-33 -101.5v-215h619q26 0 33.5 -9.5 t7.5 -39.5v-113q0 -26 -8 -36.5t-33 -10.5h-619v-299q0 -133 142 -133h557q28 0 35.5 -9.5t7.5 -39.5v-127zM1057 1819q24 -24 -8 -47l-275 -222q-43 -34 -94 -34q-46 0 -88 34l-281 226q-9 13 -8 18t10 18l41 52q16 21 47 4q50 -20 141.5 -69.5t137.5 -69.5q46 24 138 69.5 t138 69.5q35 19 50 4z" />
<glyph unicode="&#x11b;" horiz-adv-x="1130" d="M582 1100q230 0 346 -118.5t116 -334.5q0 -99 -43.5 -139.5t-119.5 -40.5h-545q2 -78 24.5 -134t62.5 -88.5t89 -47.5t111 -15q125 0 239 56q33 14 45 -13l56 -116q14 -32 -15 -48q-139 -84 -346 -84q-252 0 -381 135.5t-129 419.5q0 265 136 416.5t354 151.5zM840 1583 q18 11 26.5 11.5t22.5 -9.5l47 -41q17 -14 16.5 -23.5t-18.5 -27.5l-272 -283q-39 -39 -97 -39q-49 0 -88 39l-280 287q-16 19 2 37l51 47q19 19 47 4l268 -194zM586 901q-103 0 -170 -77.5t-72 -184.5h471q0 122 -50.5 192t-178.5 70z" />
<glyph unicode="&#x11c;" horiz-adv-x="1374" d="M766 205q130 0 231 37v385q-16 2 -53 2q-130 0 -264 -58q-24 -12 -35.5 -11t-21.5 20l-48 129q-8 17 -4.5 28t21.5 21q69 41 165.5 65.5t190.5 24.5q90 0 154 -12q89 -17 121 -61t32 -140v-477q0 -52 -38 -74q-101 -61 -235 -84t-241 -23q-312 0 -470 183t-158 545 q0 344 170.5 546.5t474.5 202.5q242 0 401 -86q18 -8 21 -18.5t-9 -40.5l-55 -127q-11 -22 -18 -25.5t-31 2.5q-149 58 -303 58q-103 0 -180.5 -41.5t-122.5 -115t-66.5 -163.5t-21.5 -197q0 -89 10.5 -160t38 -135t71 -107t112.5 -68t161 -25zM1044 1520q-15 -15 -49 4 l-276 139l-279 -139q-31 -17 -47 4l-41 51q-9 13 -10 18.5t8 18.5l281 225q43 35 88 35q50 0 94 -35l274 -221q33 -23 9 -47z" />
<glyph unicode="&#x11d;" horiz-adv-x="1187" d="M1057 98q0 -138 -34 -237.5t-105 -164t-169 -101.5t-237 -56q-36 -6 -39 23l-20 155q-3 27 24 33q84 13 140.5 30.5t103.5 46.5t69.5 74t22.5 109v13q-118 -37 -254 -37q-157 0 -263.5 70t-155 189.5t-48.5 282.5q0 125 31 227.5t93 179t162.5 119t231.5 42.5 q253 0 414 -72q20 -10 26.5 -20.5t6.5 -28.5v-877zM338 539q0 -176 68 -262.5t194 -86.5q106 0 215 31v647q-99 27 -194 27q-283 0 -283 -356zM995 1266q28 -28 0 -49l-47 -46q-19 -13 -49 5l-272 192l-271 -197q-27 -15 -47 5l-51 49q-15 18 0 39l268 274q49 49 99 49 q36 0 58 -10t48 -39z" />
<glyph unicode="&#x11e;" horiz-adv-x="1374" d="M766 205q130 0 231 37v385q-16 2 -53 2q-130 0 -264 -58q-24 -12 -35.5 -11t-21.5 20l-48 129q-8 17 -4.5 28t21.5 21q69 41 165.5 65.5t190.5 24.5q90 0 154 -12q89 -17 121 -61t32 -140v-477q0 -52 -38 -74q-101 -61 -235 -84t-241 -23q-312 0 -470 183t-158 545 q0 344 170.5 546.5t474.5 202.5q242 0 401 -86q18 -8 21 -18.5t-9 -40.5l-55 -127q-11 -22 -18 -25.5t-31 2.5q-149 58 -303 58q-103 0 -180.5 -41.5t-122.5 -115t-66.5 -163.5t-21.5 -197q0 -89 10.5 -160t38 -135t71 -107t112.5 -68t161 -25zM721 1522q-103 0 -194.5 63.5 t-159.5 163.5q-16 21 6 43l57 53q7 7 12 10t9.5 2t7 -2.5t9 -7t11.5 -8.5q133 -139 252 -139q52 0 104 29.5t150 115.5q12 11 20.5 13t11 0.5t13.5 -9.5l57 -49q27 -23 9 -45q-180 -233 -375 -233z" />
<glyph unicode="&#x11f;" horiz-adv-x="1187" d="M1057 98q0 -138 -34 -237.5t-105 -164t-169 -101.5t-237 -56q-36 -6 -39 23l-20 155q-3 27 24 33q84 13 140.5 30.5t103.5 46.5t69.5 74t22.5 109v13q-118 -37 -254 -37q-157 0 -263.5 70t-155 189.5t-48.5 282.5q0 125 31 227.5t93 179t162.5 119t231.5 42.5 q253 0 414 -72q20 -10 26.5 -20.5t6.5 -28.5v-877zM338 539q0 -176 68 -262.5t194 -86.5q106 0 215 31v647q-99 27 -194 27q-283 0 -283 -356zM627 1204q-103 0 -195 64t-160 164q-15 21 7 43l57 53q7 7 12 10t9.5 2t7 -2.5t9 -7t11.5 -8.5q134 -140 252 -140 q52 0 103.5 29.5t150.5 116.5q12 11 20.5 13t11 0.5t13.5 -9.5l57 -49q12 -11 15 -20.5t1 -13.5t-8 -11q-181 -234 -374 -234z" />
<glyph unicode="&#x120;" horiz-adv-x="1374" d="M766 205q130 0 231 37v385q-16 2 -53 2q-130 0 -264 -58q-24 -12 -35.5 -11t-21.5 20l-48 129q-8 17 -4.5 28t21.5 21q69 41 165.5 65.5t190.5 24.5q90 0 154 -12q89 -17 121 -61t32 -140v-477q0 -52 -38 -74q-101 -61 -235 -84t-241 -23q-312 0 -470 183t-158 545 q0 344 170.5 546.5t474.5 202.5q242 0 401 -86q18 -8 21 -18.5t-9 -40.5l-55 -127q-11 -22 -18 -25.5t-31 2.5q-149 58 -303 58q-103 0 -180.5 -41.5t-122.5 -115t-66.5 -163.5t-21.5 -197q0 -89 10.5 -160t38 -135t71 -107t112.5 -68t161 -25zM891 1667q0 -60 -43 -100.5 t-103 -40.5t-101.5 40.5t-41.5 100.5t41.5 101.5t101.5 41.5t103 -41.5t43 -101.5z" />
<glyph unicode="&#x121;" horiz-adv-x="1187" d="M1057 98q0 -138 -34 -237.5t-105 -164t-169 -101.5t-237 -56q-36 -6 -39 23l-20 155q-3 27 24 33q84 13 140.5 30.5t103.5 46.5t69.5 74t22.5 109v13q-118 -37 -254 -37q-157 0 -263.5 70t-155 189.5t-48.5 282.5q0 125 31 227.5t93 179t162.5 119t231.5 42.5 q253 0 414 -72q20 -10 26.5 -20.5t6.5 -28.5v-877zM338 539q0 -176 68 -262.5t194 -86.5q106 0 215 31v647q-99 27 -194 27q-283 0 -283 -356zM778 1382q0 -60 -42.5 -100.5t-102.5 -40.5t-102 40.5t-42 100.5t42 102t102 42t102.5 -42t42.5 -102z" />
<glyph unicode="&#x122;" horiz-adv-x="1374" d="M766 205q130 0 231 37v385q-16 2 -53 2q-130 0 -264 -58q-24 -12 -35.5 -11t-21.5 20l-48 129q-8 17 -4.5 28t21.5 21q69 41 165.5 65.5t190.5 24.5q90 0 154 -12q89 -17 121 -61t32 -140v-477q0 -52 -38 -74q-101 -61 -235 -84t-241 -23q-312 0 -470 183t-158 545 q0 344 170.5 546.5t474.5 202.5q242 0 401 -86q18 -8 21 -18.5t-9 -40.5l-55 -127q-11 -22 -18 -25.5t-31 2.5q-149 58 -303 58q-103 0 -180.5 -41.5t-122.5 -115t-66.5 -163.5t-21.5 -197q0 -89 10.5 -160t38 -135t71 -107t112.5 -68t161 -25zM770 -578q-8 -25 -14.5 -31.5 t-28.5 -6.5h-78q-44 0 -41 32l29 398q4 39 39 39h190q23 0 32.5 -12t4.5 -27z" />
<glyph unicode="&#x123;" horiz-adv-x="1187" d="M608 1593q8 20 15.5 27.5t25.5 7.5h80q42 0 39 -33l-29 -368q0 -35 -34 -35h-175q-22 0 -30.5 11t-3.5 24zM1057 98q0 -138 -34 -237.5t-105 -164t-169 -101.5t-237 -56q-36 -6 -39 23l-20 155q-3 27 24 33q84 13 140.5 30.5t103.5 46.5t69.5 74t22.5 109v13 q-118 -37 -254 -37q-157 0 -263.5 70t-155 189.5t-48.5 282.5q0 125 31 227.5t93 179t162.5 119t231.5 42.5q253 0 414 -72q20 -10 26.5 -20.5t6.5 -28.5v-877zM338 539q0 -176 68 -262.5t194 -86.5q106 0 215 31v647q-99 27 -194 27q-283 0 -283 -356z" />
<glyph unicode="&#x124;" horiz-adv-x="1445" d="M1292 43q0 -29 -8.5 -36t-38.5 -7h-155q-26 0 -37 9t-11 34v602h-636v-602q0 -28 -9.5 -35.5t-40.5 -7.5h-155q-25 0 -36 9t-11 34v1348q0 25 11 34t36 9h155q31 0 40.5 -7.5t9.5 -35.5v-531h636v531q0 25 11 34t37 9h155q30 0 38.5 -7t8.5 -36v-1348zM1036 1526 q-15 -15 -49 4l-276 139l-279 -139q-31 -17 -47 4l-41 51q-9 13 -10 18.5t8 18.5l281 225q43 35 88 35q50 0 94 -35l274 -221q32 -23 8 -47z" />
<glyph unicode="&#x125;" horiz-adv-x="1196" d="M1065 35q0 -22 -8.5 -28.5t-32.5 -6.5h-162q-22 0 -30.5 6.5t-8.5 28.5v573q0 143 -56.5 214t-182.5 71q-138 0 -213 -33v-825q0 -23 -7.5 -29t-31.5 -6h-160q-22 0 -30.5 6.5t-8.5 28.5v1427q0 22 8.5 28.5t30.5 6.5h160q24 0 31.5 -6t7.5 -29v-401q116 39 256 39 q222 0 330 -123t108 -352v-590zM582 1520q-15 -15 -50 4l-276 139l-279 -139q-31 -17 -47 4l-41 51q-9 13 -10 18.5t8 18.5l281 225q43 35 88 35q50 0 94 -35l275 -221q32 -23 8 -47z" />
<glyph unicode="&#x126;" horiz-adv-x="1445" d="M59 1092q-17 0 -21.5 6.5t-4.5 25.5v70q0 18 4.5 24.5t21.5 6.5h95v174q0 22 8.5 28.5t30.5 6.5h176q24 0 31.5 -6t7.5 -29v-174h634v174q0 22 8.5 28.5t30.5 6.5h172q24 0 31.5 -6t7.5 -29v-174h78q17 0 22 -6.5t5 -24.5v-70q0 -20 -4.5 -26t-22.5 -6h-78v-1057 q0 -23 -7.5 -29t-31.5 -6h-172q-22 0 -30.5 6.5t-8.5 28.5v612h-634v-612q0 -23 -7.5 -29t-31.5 -6h-176q-22 0 -30.5 6.5t-8.5 28.5v1057h-95zM1042 860v232h-634v-232h634z" />
<glyph unicode="&#x127;" horiz-adv-x="1196" d="M49 1204q-16 0 -20 5.5t-4 23.5v67q0 18 4 23.5t20 5.5h84v133q0 22 8.5 28.5t30.5 6.5h160q24 0 31.5 -6t7.5 -29v-133h391q16 0 20 -6t4 -25v-63q0 -20 -4 -25.5t-20 -5.5h-391v-209q116 39 256 39q222 0 330 -123t108 -354v-522q0 -22 -8.5 -28.5t-32.5 -6.5h-162 q-22 0 -30.5 6.5t-8.5 28.5v508q0 143 -56.5 213.5t-182.5 70.5q-134 0 -213 -32v-760q0 -23 -7.5 -29t-31.5 -6h-160q-22 0 -30.5 6.5t-8.5 28.5v1169h-84z" />
<glyph unicode="&#x128;" horiz-adv-x="606" d="M430 43q0 -28 -9.5 -35.5t-39.5 -7.5h-156q-26 0 -36.5 9t-10.5 34v1348q0 25 10.5 34t36.5 9h156q30 0 39.5 -7.5t9.5 -35.5v-1348zM438 1561q-50 0 -141 38.5t-137 38.5q-44 0 -92 -61q-11 -14 -17 -16.5t-24 4.5l-74 39q-19 10 -21.5 18t5.5 25q39 79 91 118t134 39 q51 0 137 -37.5t125 -37.5q35 0 56 14.5t40 46.5q10 19 17 21.5t24 -3.5l82 -28q23 -7 26.5 -13.5t-3.5 -23.5q-39 -87 -93 -134.5t-135 -47.5z" />
<glyph unicode="&#x129;" horiz-adv-x="591" d="M416 35q0 -23 -7.5 -29t-31.5 -6h-160q-22 0 -30.5 6.5t-8.5 28.5v1005q0 22 8.5 28.5t30.5 6.5h160q24 0 31.5 -6t7.5 -29v-1005zM444 1255q-50 0 -141 39t-137 39q-44 0 -92 -61q-11 -14 -17 -16.5t-24 4.5l-74 38q-19 10 -21.5 18t5.5 25q39 79 91 118.5t134 39.5 q51 0 137 -38t125 -38q35 0 56 15t40 47q10 19 17 21.5t24 -3.5l82 -28q23 -7 26.5 -13.5t-3.5 -23.5q-39 -87 -93 -135t-135 -48z" />
<glyph unicode="&#x12a;" horiz-adv-x="606" d="M430 43q0 -28 -9.5 -35.5t-39.5 -7.5h-156q-26 0 -36.5 9t-10.5 34v1348q0 25 10.5 34t36.5 9h156q30 0 39.5 -7.5t9.5 -35.5v-1348zM598 1636q0 -24 -7 -31.5t-30 -7.5h-520q-23 0 -29 7.5t-6 31.5v101q0 24 6 31.5t29 7.5h520q23 0 30 -7.5t7 -31.5v-101z" />
<glyph unicode="&#x12b;" horiz-adv-x="591" d="M416 35q0 -23 -7.5 -29t-31.5 -6h-160q-22 0 -30.5 6.5t-8.5 28.5v1005q0 22 8.5 28.5t30.5 6.5h160q24 0 31.5 -6t7.5 -29v-1005zM596 1247q0 -24 -7 -31.5t-30 -7.5h-520q-23 0 -29 7.5t-6 31.5v101q0 24 6 31t29 7h520q23 0 30 -7.5t7 -30.5v-101z" />
<glyph unicode="&#x12c;" horiz-adv-x="606" d="M430 43q0 -28 -9.5 -35.5t-39.5 -7.5h-156q-26 0 -36.5 9t-10.5 34v1348q0 25 10.5 34t36.5 9h156q30 0 39.5 -7.5t9.5 -35.5v-1348zM295 1505q-103 0 -194.5 64t-159.5 164q-16 21 6 43l57 53q7 7 12 10t9.5 2t7 -2.5t9 -7t11.5 -8.5q134 -140 252 -140q52 0 103.5 29.5 t150.5 116.5q12 11 20.5 13t11 0.5t13.5 -9.5l58 -49q12 -11 15 -20.5t1 -13.5t-8 -11q-181 -234 -375 -234z" />
<glyph unicode="&#x12d;" horiz-adv-x="591" d="M416 35q0 -23 -7.5 -29t-31.5 -6h-160q-22 0 -30.5 6.5t-8.5 28.5v1005q0 22 8.5 28.5t30.5 6.5h160q24 0 31.5 -6t7.5 -29v-1005zM293 1186q-103 0 -194.5 63.5t-159.5 163.5q-16 21 6 43l57 53q7 7 12 10t9.5 2t7 -2.5t9 -7t11.5 -8.5q133 -139 252 -139q52 0 104 29.5 t150 115.5q12 11 20.5 13t11 0.5t13.5 -9.5l57 -49q27 -23 9 -45q-180 -233 -375 -233z" />
<glyph unicode="&#x12e;" horiz-adv-x="606" d="M430 43q0 -22 -6 -30t-21 -13q-63 -65 -93.5 -127t-30.5 -109q0 -40 24.5 -56.5t79.5 -16.5q41 0 109 14q17 6 23.5 4t10.5 -18l17 -56q9 -25 -15 -38q-103 -43 -219 -43q-106 0 -157.5 45t-53.5 118q-2 72 42 150.5t116 132.5h-31q-26 0 -36.5 9t-10.5 34v1348 q0 25 10.5 34t36.5 9h156q30 0 39.5 -7.5t9.5 -35.5v-1348z" />
<glyph unicode="&#x12f;" horiz-adv-x="561" d="M412 35q0 -22 -7 -28.5t-26 -6.5q-123 -129 -123 -233q0 -41 24.5 -57.5t79.5 -16.5q41 0 109 14q17 6 24 4t11 -18l16 -55q9 -26 -14 -39q-103 -43 -219 -43q-106 0 -157.5 45t-53.5 118q-1 72 41.5 149.5t111.5 131.5h-16q-22 0 -30.5 6.5t-8.5 28.5v1005 q0 22 8.5 28.5t30.5 6.5h158q24 0 32.5 -6.5t8.5 -28.5v-1005zM442 1356q0 -62 -43 -105t-104 -43t-104.5 43t-43.5 105q0 61 43 104t105 43q61 0 104 -42.5t43 -104.5z" />
<glyph unicode="&#x130;" horiz-adv-x="606" d="M430 43q0 -28 -9.5 -35.5t-39.5 -7.5h-156q-26 0 -36.5 9t-10.5 34v1348q0 25 10.5 34t36.5 9h156q30 0 39.5 -7.5t9.5 -35.5v-1348zM442 1741q0 -60 -42.5 -101t-102.5 -41t-101.5 41t-41.5 101t41.5 101.5t101.5 41.5t102.5 -41.5t42.5 -101.5z" />
<glyph unicode="&#x131;" horiz-adv-x="591" d="M416 35q0 -23 -7.5 -29t-31.5 -6h-160q-22 0 -30.5 6.5t-8.5 28.5v1005q0 22 8.5 28.5t30.5 6.5h160q24 0 31.5 -6t7.5 -29v-1005z" />
<glyph unicode="&#x132;" horiz-adv-x="1638" d="M406 43q0 -28 -9.5 -35.5t-40.5 -7.5h-155q-26 0 -36.5 9t-10.5 34v1348q0 25 10.5 34t36.5 9h155q31 0 40.5 -7.5t9.5 -35.5v-1348zM936 -23q-103 0 -224.5 25.5t-211.5 77.5q-19 11 -21.5 18.5t8.5 34.5l62 131q7 16 19 18t30 -6q160 -73 332 -73q168 0 236.5 95 t68.5 288l-2 805q0 27 10.5 35t36.5 8h158q28 0 37.5 -7.5t9.5 -35.5q0 -206 -1 -463t-1 -369q0 -582 -547 -582z" />
<glyph unicode="&#x133;" horiz-adv-x="1110" d="M438 1356q0 -62 -43 -105t-104 -43t-104.5 43t-43.5 105q0 61 43 104t105 43q61 0 104 -42.5t43 -104.5zM408 35q0 -22 -8.5 -28.5t-32.5 -6.5h-158q-22 0 -30.5 6.5t-8.5 28.5v1005q0 22 8.5 28.5t30.5 6.5h158q24 0 32.5 -6.5t8.5 -28.5v-1005zM938 158 q0 -115 -19 -207.5t-51.5 -156t-81.5 -113t-101.5 -79.5t-119.5 -53q-38 -9 -47 17l-51 143q-5 22 -1.5 27.5t23.5 17.5q65 30 108 69.5t64.5 90t29 100.5t7.5 117v909q0 22 8.5 28.5t30.5 6.5h162q24 0 31.5 -6t7.5 -29v-882zM967 1356q0 -62 -43.5 -105t-104.5 -43 q-60 0 -103.5 43.5t-43.5 104.5t43.5 104t103.5 43q62 0 105 -43t43 -104z" />
<glyph unicode="&#x134;" horiz-adv-x="1179" d="M471 -23q-103 0 -224.5 25.5t-211.5 77.5q-18 11 -20.5 18.5t8.5 34.5l61 131q7 16 19 18t30 -6q160 -73 332 -73q168 0 236.5 95t68.5 288l-2 805q0 27 10.5 35t36.5 8h158q28 0 37.5 -7.5t9.5 -35.5q0 -206 -1 -463t-1 -369q0 -582 -547 -582zM1210 1520q-15 -15 -49 4 l-276 139l-279 -139q-31 -17 -47 4l-41 51q-9 13 -10 18.5t8 18.5l281 225q43 35 88 35q50 0 94 -35l274 -221q33 -23 9 -47z" />
<glyph unicode="&#x135;" horiz-adv-x="645" d="M459 158q0 -115 -19 -207.5t-51.5 -156t-81.5 -113t-101.5 -79.5t-119.5 -53q-38 -9 -47 17l-51 143q-5 22 -1.5 27.5t23.5 17.5q65 30 108 69.5t64.5 90t29 100.5t7.5 117v909q0 22 8.5 28.5t30.5 6.5h162q24 0 31.5 -6t7.5 -29v-882zM702 1266q28 -28 0 -49l-47 -46 q-19 -13 -49 5l-274 192l-269 -197q-27 -15 -47 5l-51 49q-11 11 -11 19t11 20l268 274q49 49 99 49q36 0 58 -10t48 -39z" />
<glyph unicode="&#x136;" horiz-adv-x="1343" d="M834 918l487 -871q27 -47 -21 -47h-182q-30 0 -42 2t-24 11t-24 30l-366 668l-261 -320v-348q0 -29 -8.5 -36t-38.5 -7h-153q-25 0 -36 9t-11 34v1348q0 25 11 34t36 9h153q30 0 38.5 -7t8.5 -36v-623l9 -4l204 260l312 381q26 29 80 29h208q19 0 25 -11t-6 -24z M702 -516q-8 -25 -14.5 -32t-28.5 -7h-77q-44 0 -41 33l28 397q4 39 39 39h191q23 0 32.5 -12t4.5 -27z" />
<glyph unicode="&#x137;" horiz-adv-x="1069" d="M725 717l315 -686q12 -31 -22 -31h-184q-42 0 -52 29l-223 499l-190 -217v-276q0 -23 -7.5 -29t-31.5 -6h-160q-22 0 -30.5 6.5t-8.5 28.5v1427q0 22 8.5 28.5t30.5 6.5h160q24 0 31.5 -6t7.5 -29v-819l8 -4l350 416q9 9 12.5 12t12.5 5.5t24 2.5h207q18 0 21.5 -11.5 t-7.5 -21.5zM532 -578q-8 -25 -14.5 -31.5t-28.5 -6.5h-77q-44 0 -41 32l28 398q4 39 39 39h191q23 0 32.5 -12t4.5 -27z" />
<glyph unicode="&#x138;" horiz-adv-x="1060" d="M379 631l344 422l2 2q11 12 20 16t29 4h209q17 0 21 -11.5t-7 -21.5l-323 -380l364 -633q7 -11 1 -20t-23 -9h-191q-23 0 -33 5t-20 22q-107 199 -254 456l-149 -178v-270q0 -22 -8.5 -28.5t-32.5 -6.5h-158q-22 0 -30.5 6.5t-8.5 28.5v1005q0 22 8.5 28.5t30.5 6.5h160 q24 0 31.5 -6t7.5 -29v-405z" />
<glyph unicode="&#x139;" horiz-adv-x="1159" d="M154 1393q0 25 10.5 34t36.5 9h153q30 0 39.5 -7.5t9.5 -35.5v-1026q0 -146 150 -146h549q23 0 29 -7.5t6 -31.5v-143q0 -22 -6.5 -30.5t-28.5 -8.5h-588q-83 0 -146.5 20.5t-103.5 54t-65 82t-35 99.5t-10 111v1026zM197 1599q-11 11 -10.5 19.5t16.5 21.5l307 236 q15 12 24 12t23 -16l113 -141q21 -24 -4 -37l-373 -181q-11 -7 -20 -5.5t-19 12.5z" />
<glyph unicode="&#x13a;" horiz-adv-x="620" d="M584 49q4 -20 0 -27t-25 -18q-65 -27 -186 -27q-117 0 -169 54.5t-52 185.5v1245q0 22 8 28.5t30 6.5h162q24 0 32.5 -6.5t8.5 -28.5v-1188q0 -54 14.5 -73t55.5 -19q20 0 74 6q18 2 24.5 -2.5t7.5 -21.5zM188 1630q-11 11 -10.5 19.5t17.5 21.5l307 236q15 12 24 12 t23 -16l113 -142q21 -24 -5 -37l-372 -180q-23 -12 -39 6z" />
<glyph unicode="&#x13b;" horiz-adv-x="1159" d="M154 1393q0 25 10.5 34t36.5 9h153q30 0 39.5 -7.5t9.5 -35.5v-1026q0 -146 150 -146h549q23 0 29 -7.5t6 -31.5v-143q0 -22 -6.5 -30.5t-28.5 -8.5h-588q-83 0 -146.5 20.5t-103.5 54t-65 82t-35 99.5t-10 111v1026zM668 -578q-8 -25 -14.5 -31.5t-28.5 -6.5h-78 q-44 0 -41 32l29 398q4 39 38 39h191q23 0 32.5 -12t4.5 -27z" />
<glyph unicode="&#x13c;" horiz-adv-x="620" d="M584 49q4 -20 0 -27t-25 -18q-65 -27 -186 -27q-117 0 -169 54.5t-52 185.5v1245q0 22 8 28.5t30 6.5h162q24 0 32.5 -6.5t8.5 -28.5v-1188q0 -54 14.5 -73t55.5 -19q20 0 74 6q18 2 24.5 -2.5t7.5 -21.5zM315 -578q-8 -25 -14.5 -31.5t-28.5 -6.5h-77q-44 0 -41 32 l28 398q4 39 39 39h191q23 0 32.5 -12t4.5 -27z" />
<glyph unicode="&#x13d;" horiz-adv-x="1159" d="M154 1393q0 25 10.5 34t36.5 9h153q30 0 39.5 -7.5t9.5 -35.5v-1026q0 -146 150 -146h549q23 0 29 -7.5t6 -31.5v-143q0 -22 -6.5 -30.5t-28.5 -8.5h-588q-83 0 -146.5 20.5t-103.5 54t-65 82t-35 99.5t-10 111v1026zM918 1001q-8 -25 -15 -31.5t-29 -6.5h-77 q-44 0 -41 32l28 398q4 39 39 39h191q23 0 32.5 -12t4.5 -27z" />
<glyph unicode="&#x13e;" horiz-adv-x="811" d="M584 49q4 -20 0 -27t-25 -18q-65 -27 -186 -27q-117 0 -169 54.5t-52 185.5v1245q0 22 8 28.5t30 6.5h162q24 0 32.5 -6.5t8.5 -28.5v-1188q0 -54 14.5 -73t55.5 -19q20 0 74 6q18 2 24.5 -2.5t7.5 -21.5zM705 1024q-8 -25 -14.5 -32t-28.5 -7h-78q-44 0 -41 33l28 397 q4 39 39 39h191q23 0 32.5 -12t4.5 -27z" />
<glyph unicode="&#x13f;" horiz-adv-x="1159" d="M154 1393q0 25 10.5 34t36.5 9h153q30 0 39.5 -7.5t9.5 -35.5v-1026q0 -146 150 -146h549q23 0 29 -7.5t6 -31.5v-143q0 -22 -6.5 -30.5t-28.5 -8.5h-588q-83 0 -146.5 20.5t-103.5 54t-65 82t-35 99.5t-10 111v1026zM987 776q0 -60 -42.5 -100.5t-102.5 -40.5t-102 40.5 t-42 100.5t42 102t102 42t102.5 -42t42.5 -102z" />
<glyph unicode="&#x140;" horiz-adv-x="792" d="M584 49q4 -20 0 -27t-25 -18q-65 -27 -186 -27q-117 0 -169 54.5t-52 185.5v1245q0 22 8 28.5t30 6.5h162q24 0 32.5 -6.5t8.5 -28.5v-1188q0 -54 14.5 -73t55.5 -19q20 0 74 6q18 2 24.5 -2.5t7.5 -21.5zM815 803q0 -60 -42.5 -100.5t-102.5 -40.5t-102 40.5t-42 100.5 t42 101.5t102 41.5t102.5 -41.5t42.5 -101.5z" />
<glyph unicode="&#x141;" horiz-adv-x="1159" d="M514 4q-83 0 -146.5 20.5t-103.5 54t-65 82t-35 99.5t-10 111v174l-95 -51q-35 -24 -59 10l-39 63q-11 24 -7.5 35.5t23.5 22.5l177 100v678q0 22 9 29.5t30 7.5h172q23 0 30.5 -7t7.5 -30v-533l209 121q40 25 62 -12l39 -64q20 -34 -19 -57l-291 -168v-319 q0 -76 37.5 -111t112.5 -35h551q23 0 29 -7.5t6 -31.5v-143q0 -22 -6.5 -30.5t-28.5 -8.5h-590z" />
<glyph unicode="&#x142;" horiz-adv-x="620" d="M152 696v764q0 23 8 30t30 7h162q24 0 32.5 -6.5t8.5 -28.5v-624l127 73q41 25 60 -12l36 -59q10 -21 5.5 -33.5t-25.5 -26.5l-203 -116v-385q0 -54 14.5 -73.5t55.5 -19.5q38 0 74 4q18 2 24.5 -2t7.5 -20l15 -119q4 -20 0 -27t-25 -18q-65 -27 -186 -27 q-117 0 -169 54.5t-52 185.5v307l-101 -57q-39 -24 -59 12l-35 60q-21 41 16 57z" />
<glyph unicode="&#x143;" horiz-adv-x="1468" d="M399 1061v-1018q0 -29 -8.5 -36t-38.5 -7h-151q-25 0 -36 9t-11 34v1268q0 67 26 96t92 29h72q51 0 76 -18t59 -72l408 -678l174 -295h8v1020q0 26 10 34.5t37 8.5h152q27 0 37 -8.5t10 -34.5v-1270q0 -63 -26.5 -93t-92.5 -30h-72q-51 0 -75 17t-60 71l-409 680 l-172 293h-9zM627 1599q-11 11 -10.5 19.5t16.5 21.5l307 236q15 12 24 12t23 -16l113 -141q21 -24 -4 -37l-373 -181q-11 -7 -20 -5.5t-19 12.5z" />
<glyph unicode="&#x144;" horiz-adv-x="1196" d="M532 895q-98 0 -161 -12v-848q0 -23 -7.5 -29t-31.5 -6h-160q-22 0 -30.5 6.5t-8.5 28.5v876q0 79 28 118t109 52q174 19 269 19q275 0 399.5 -122t124.5 -403v-540q0 -23 -7.5 -29t-31.5 -6h-162q-22 0 -30.5 6.5t-8.5 28.5v545q0 167 -62.5 241t-228.5 74zM451 1210 q-16 6 -19 15t4 26l139 336q14 32 52 23l172 -47q33 -9 14 -35l-231 -328q-11 -18 -20.5 -21t-26.5 3z" />
<glyph unicode="&#x145;" horiz-adv-x="1468" d="M399 1061v-1018q0 -29 -8.5 -36t-38.5 -7h-151q-25 0 -36 9t-11 34v1268q0 67 26 96t92 29h72q51 0 76 -18t59 -72l408 -678l174 -295h8v1020q0 26 10 34.5t37 8.5h152q27 0 37 -8.5t10 -34.5v-1270q0 -63 -26.5 -93t-92.5 -30h-72q-51 0 -75 17t-60 71l-409 680 l-172 293h-9zM692 -516q-8 -25 -14.5 -32t-28.5 -7h-78q-44 0 -41 33l29 397q4 39 39 39h190q23 0 32.5 -12t4.5 -27z" />
<glyph unicode="&#x146;" horiz-adv-x="1196" d="M532 895q-98 0 -161 -12v-848q0 -23 -7.5 -29t-31.5 -6h-160q-22 0 -30.5 6.5t-8.5 28.5v876q0 79 28 118t109 52q174 19 269 19q275 0 399.5 -122t124.5 -403v-540q0 -23 -7.5 -29t-31.5 -6h-162q-22 0 -30.5 6.5t-8.5 28.5v545q0 167 -62.5 241t-228.5 74zM602 -578 q-8 -25 -14.5 -31.5t-28.5 -6.5h-78q-44 0 -41 32l29 398q4 39 39 39h190q23 0 32.5 -12t4.5 -27z" />
<glyph unicode="&#x147;" horiz-adv-x="1468" d="M399 1061v-1018q0 -29 -8.5 -36t-38.5 -7h-151q-25 0 -36 9t-11 34v1268q0 67 26 96t92 29h72q51 0 76 -18t59 -72l408 -678l174 -295h8v1020q0 26 10 34.5t37 8.5h152q27 0 37 -8.5t10 -34.5v-1270q0 -63 -26.5 -93t-92.5 -30h-72q-51 0 -75 17t-60 71l-409 680 l-172 293h-9zM1139 1819q24 -24 -9 -47l-274 -222q-43 -34 -94 -34q-46 0 -88 34l-281 226q-9 13 -8 18t10 18l41 52q16 21 47 4q50 -20 141.5 -69.5t137.5 -69.5q46 24 138 69.5t138 69.5q34 19 49 4z" />
<glyph unicode="&#x148;" horiz-adv-x="1196" d="M532 895q-98 0 -161 -12v-848q0 -23 -7.5 -29t-31.5 -6h-160q-22 0 -30.5 6.5t-8.5 28.5v876q0 79 28 118t109 52q174 19 269 19q275 0 399.5 -122t124.5 -403v-540q0 -23 -7.5 -29t-31.5 -6h-162q-22 0 -30.5 6.5t-8.5 28.5v545q0 167 -62.5 241t-228.5 74zM852 1579 q18 11 26.5 11.5t22.5 -9.5l47 -41q17 -14 16.5 -23.5t-18.5 -27.5l-272 -283q-39 -39 -96 -39q-50 0 -89 39l-280 287q-16 19 2 37l51 47q19 19 47 4l269 -195z" />
<glyph unicode="&#x149;" horiz-adv-x="1372" d="M709 895q-99 0 -162 -12v-848q0 -23 -7.5 -29t-31.5 -6h-160q-22 0 -30.5 6.5t-8.5 28.5v876q0 79 28 118t109 52q174 19 269 19q275 0 399.5 -122t124.5 -403v-540q0 -23 -7.5 -29t-31.5 -6h-162q-22 0 -30.5 6.5t-8.5 28.5v545q0 167 -62 241t-228 74zM184 1034 q-8 -25 -14.5 -32t-28.5 -7h-78q-22 0 -31.5 8t-8.5 25l28 397q4 39 39 39h191q23 0 32 -12t4 -27z" />
<glyph unicode="&#x14a;" horiz-adv-x="1468" d="M399 1102v-1067q0 -23 -7.5 -29t-31.5 -6h-167q-22 0 -30.5 6.5t-8.5 28.5v1292q0 66 26.5 94.5t87.5 28.5h76q63 0 96.5 -24t71.5 -91l373 -624l170 -297h14v985q0 23 7.5 29t31.5 6h168q24 0 31.5 -6t7.5 -29v-1549q0 -62 -12 -109t-40 -86t-82 -60t-132 -21t-162 25 q-19 7 -22.5 16t1.5 29l19 106q3 17 9 23.5t14.5 6.5t21.5 -1q18 -4 65 -4q60 0 77.5 24t17.5 90v80l-504 828l-178 305h-9z" />
<glyph unicode="&#x14b;" horiz-adv-x="1196" d="M532 895q-98 0 -161 -12v-848q0 -23 -7.5 -29t-31.5 -6h-160q-22 0 -30.5 6.5t-8.5 28.5v876q0 74 33 116t104 54q174 19 269 19q275 0 399.5 -122t124.5 -403v-716q0 -62 -12 -109t-40 -86.5t-82 -60.5t-132 -21q-87 0 -160 25q-22 6 -25.5 15.5t2.5 29.5l19 112 q4 24 16 28t29 -3q21 -4 61 -4q56 0 71 24t15 93q0 11 -1 217.5t-1 460.5q0 167 -62.5 241t-228.5 74z" />
<glyph unicode="&#x14c;" horiz-adv-x="1472" d="M1360 723q0 -361 -158.5 -553.5t-472.5 -192.5q-307 0 -461.5 187t-154.5 551q0 172 46 312t128 234t196.5 144.5t251.5 50.5q305 0 465 -193t160 -540zM1102 715q0 87 -9 158.5t-34 140t-64.5 115t-104.5 74.5t-151 28q-92 0 -164 -40t-116 -110t-67 -160.5t-23 -195.5 q0 -99 11 -176.5t37 -143.5t67.5 -110t104.5 -68t146 -24q82 0 146 28t105 75t67.5 114t37.5 139t11 156zM1034 1626q0 -24 -7 -31.5t-30 -7.5h-520q-23 0 -29 7.5t-6 31.5v100q0 24 6 31.5t29 7.5h520q23 0 30 -7.5t7 -31.5v-100z" />
<glyph unicode="&#x14d;" horiz-adv-x="1177" d="M1085 543q0 -274 -126.5 -420t-374.5 -146q-246 0 -369 141.5t-123 418.5q0 264 137 413.5t361 149.5q241 0 368 -147t127 -410zM842 537q0 62 -6.5 113.5t-24 99t-45 79.5t-71.5 51t-101 19q-127 0 -193.5 -98.5t-66.5 -257.5q0 -179 58.5 -272t193.5 -93q69 0 120 29 t80 80.5t42.5 113.5t13.5 136zM881 1245q0 -24 -7 -31.5t-30 -7.5h-520q-23 0 -29 7.5t-6 31.5v101q0 24 6 31t29 7h520q23 0 30 -7.5t7 -30.5v-101z" />
<glyph unicode="&#x14e;" horiz-adv-x="1472" d="M1360 723q0 -361 -158.5 -553.5t-472.5 -192.5q-307 0 -461.5 187t-154.5 551q0 172 46 312t128 234t196.5 144.5t251.5 50.5q305 0 465 -193t160 -540zM1102 715q0 87 -9 158.5t-34 140t-64.5 115t-104.5 74.5t-151 28q-92 0 -164 -40t-116 -110t-67 -160.5t-23 -195.5 q0 -99 11 -176.5t37 -143.5t67.5 -110t104.5 -68t146 -24q82 0 146 28t105 75t67.5 114t37.5 139t11 156zM737 1524q-103 0 -194.5 63.5t-159.5 163.5q-16 21 6 43l57 53q9 8 16 10.5t9.5 2t11.5 -8t13 -10.5q133 -139 252 -139q52 0 103 29t150 116q9 8 15 12t13 2t8 -2.5 t10 -7.5l57 -49q12 -11 15 -20.5t1 -13.5t-8 -11q-180 -233 -375 -233z" />
<glyph unicode="&#x14f;" horiz-adv-x="1177" d="M1085 543q0 -274 -126.5 -420t-374.5 -146q-246 0 -369 141.5t-123 418.5q0 264 137 413.5t361 149.5q241 0 368 -147t127 -410zM842 537q0 62 -6.5 113.5t-24 99t-45 79.5t-71.5 51t-101 19q-127 0 -193.5 -98.5t-66.5 -257.5q0 -179 58.5 -272t193.5 -93q69 0 120 29 t80 80.5t42.5 113.5t13.5 136zM582 1186q-103 0 -195.5 63.5t-159.5 163.5q-16 21 6 43l58 53q7 7 12 10t9.5 2t7 -2.5t9 -7t11.5 -8.5q133 -139 252 -139q52 0 104 29.5t150 115.5q12 11 20.5 13t11 0.5t13.5 -9.5l57 -49q12 -11 15 -20.5t1 -13.5t-8 -11 q-180 -233 -374 -233z" />
<glyph unicode="&#x150;" horiz-adv-x="1472" d="M1360 723q0 -361 -158.5 -553.5t-472.5 -192.5q-307 0 -461.5 187t-154.5 551q0 172 46 312t128 234t196.5 144.5t251.5 50.5q305 0 465 -193t160 -540zM1102 715q0 87 -9 158.5t-34 140t-64.5 115t-104.5 74.5t-151 28q-92 0 -164 -40t-116 -110t-67 -160.5t-23 -195.5 q0 -99 11 -176.5t37 -143.5t67.5 -110t104.5 -68t146 -24q82 0 146 28t105 75t67.5 114t37.5 139t11 156zM430 1614q-12 13 -11.5 21.5t17.5 21.5l297 227q3 2 9.5 6t8 4.5t5.5 2t7 -0.5t7 -5t10 -9l109 -127q21 -24 -2 -37l-352 -170q-16 -7 -28.5 -6.5t-23.5 12.5z M848 1614q-12 13 -11.5 21.5t17.5 21.5l297 227q3 2 9.5 6t8 4.5t5.5 2t7 -0.5t7 -5t10 -9l109 -127q21 -24 -2 -37l-353 -170q-16 -7 -28 -6.5t-23 12.5z" />
<glyph unicode="&#x151;" horiz-adv-x="1177" d="M1085 543q0 -274 -126.5 -420t-374.5 -146q-246 0 -369 141.5t-123 418.5q0 264 137 413.5t361 149.5q241 0 368 -147t127 -410zM842 537q0 62 -6.5 113.5t-24 99t-45 79.5t-71.5 51t-101 19q-127 0 -193.5 -98.5t-66.5 -257.5q0 -179 58.5 -272t193.5 -93q69 0 120 29 t80 80.5t42.5 113.5t13.5 136zM354 1210q-16 6 -18.5 15t4.5 26l137 336q8 19 15.5 23t27.5 0l178 -47q34 -9 15 -35l-230 -328q-11 -18 -20.5 -21t-26.5 3zM666 1210q-16 6 -19 15t4 26l137 336q8 19 15.5 23t27.5 0l179 -47q33 -9 14 -35l-229 -328q-11 -18 -20.5 -21 t-26.5 3z" />
<glyph unicode="&#x152;" horiz-adv-x="1902" d="M1835 39q0 -23 -5.5 -31t-27.5 -8h-565q-110 0 -190 39q-130 -62 -283 -62q-134 0 -240 39t-175.5 106.5t-115 162.5t-64.5 201t-19 229q0 338 166 539.5t450 201.5q158 0 278 -63q77 41 191 41h559q22 0 27.5 -7t5.5 -32v-144q0 -24 -5 -30.5t-28 -6.5h-520 q-81 0 -115.5 -36.5t-34.5 -108.5v-207h598q23 0 29 -7.5t6 -31.5v-133q0 -22 -6.5 -30.5t-28.5 -8.5h-598v-286q0 -144 150 -144h528q22 0 27.5 -7t5.5 -32v-143zM877 1069q0 73 20 129q-66 29 -133 29q-174 0 -266 -139t-92 -369q0 -520 362 -520q78 0 131 26 q-22 45 -22 152v692z" />
<glyph unicode="&#x153;" horiz-adv-x="1886" d="M1337 1100q230 0 346.5 -118.5t116.5 -334.5q0 -99 -44 -139.5t-120 -40.5h-544q8 -285 286 -285q62 0 129 17t113 39q19 10 27 6.5t16 -21.5l55 -112q14 -33 -10 -48q-136 -86 -350 -86q-277 0 -395 162q-128 -162 -379 -162q-246 0 -369 141.5t-123 418.5 q0 264 137 413.5t361 149.5q260 0 383 -174q136 174 364 174zM842 537q0 62 -6.5 113.5t-24 99t-45 79.5t-71.5 51t-101 19q-127 0 -193.5 -98.5t-66.5 -257.5q0 -179 58.5 -272t193.5 -93q69 0 120 29t80 80.5t42.5 113.5t13.5 136zM1341 901q-103 0 -169.5 -77t-71.5 -185 h471q0 122 -51 192t-179 70z" />
<glyph unicode="&#x154;" horiz-adv-x="1325" d="M1268 43q5 -15 -2 -29t-25 -14h-182q-47 0 -58 33l-98 379q-30 107 -86.5 146.5t-167.5 39.5h-241v-555q0 -28 -9 -35.5t-39 -7.5h-159q-25 0 -36 9t-11 34v1278q0 62 25 89.5t89 27.5h484q205 0 328.5 -114.5t123.5 -299.5q0 -119 -57.5 -209t-153.5 -129v-8 q68 -29 104 -80t58 -131zM950 1012q0 35 -9.5 66.5t-32.5 63.5t-69.5 51t-111.5 19h-317v-405h303q119 0 178 56.5t59 148.5zM492 1599q-11 11 -10.5 19.5t16.5 21.5l307 236q15 12 24 12t23 -16l113 -141q21 -24 -4 -37l-373 -181q-11 -7 -20 -5.5t-19 12.5z" />
<glyph unicode="&#x155;" horiz-adv-x="901" d="M389 35q0 -22 -8.5 -28.5t-32.5 -6.5h-158q-22 0 -30 6.5t-8 28.5v878q0 85 29 123.5t114 50.5q90 11 151 11q278 0 451 -144q20 -15 6 -39l-94 -135q-13 -16 -21 -15t-24 13q-126 107 -279 107q-55 0 -96 -8v-842zM346 1210q-16 6 -18.5 15t4.5 26l139 336q14 32 51 23 l172 -47q34 -9 15 -35l-232 -328q-11 -18 -20.5 -21t-26.5 3z" />
<glyph unicode="&#x156;" horiz-adv-x="1325" d="M1268 43q5 -15 -2 -29t-25 -14h-182q-47 0 -58 33l-98 379q-30 107 -86.5 146.5t-167.5 39.5h-241v-555q0 -28 -9 -35.5t-39 -7.5h-159q-25 0 -36 9t-11 34v1278q0 62 25 89.5t89 27.5h484q205 0 328.5 -114.5t123.5 -299.5q0 -119 -57.5 -209t-153.5 -129v-8 q68 -29 104 -80t58 -131zM950 1012q0 35 -9.5 66.5t-32.5 63.5t-69.5 51t-111.5 19h-317v-405h303q119 0 178 56.5t59 148.5zM696 -514q-8 -25 -14.5 -32t-28.5 -7h-78q-22 0 -31.5 8t-8.5 25l28 397q4 39 39 39h191q23 0 32 -12t4 -27z" />
<glyph unicode="&#x157;" horiz-adv-x="901" d="M389 35q0 -22 -8.5 -28.5t-32.5 -6.5h-158q-22 0 -30 6.5t-8 28.5v878q0 85 29 123.5t114 50.5q90 11 151 11q278 0 451 -144q20 -15 6 -39l-94 -135q-13 -16 -21 -15t-24 13q-126 107 -279 107q-55 0 -96 -8v-842zM272 -578q-8 -25 -14.5 -31.5t-28.5 -6.5h-77 q-44 0 -41 32l28 398q4 39 39 39h191q23 0 32.5 -12t4.5 -27z" />
<glyph unicode="&#x158;" horiz-adv-x="1325" d="M1268 43q5 -15 -2 -29t-25 -14h-182q-47 0 -58 33l-98 379q-30 107 -86.5 146.5t-167.5 39.5h-241v-555q0 -28 -9 -35.5t-39 -7.5h-159q-25 0 -36 9t-11 34v1278q0 62 25 89.5t89 27.5h484q205 0 328.5 -114.5t123.5 -299.5q0 -119 -57.5 -209t-153.5 -129v-8 q68 -29 104 -80t58 -131zM950 1012q0 35 -9.5 66.5t-32.5 63.5t-69.5 51t-111.5 19h-317v-405h303q119 0 178 56.5t59 148.5zM997 1819q24 -24 -8 -47l-274 -222q-43 -34 -94 -34q-47 0 -89 34l-280 226q-9 13 -8 18t10 18l41 52q16 21 47 4q50 -20 141.5 -69.5t137.5 -69.5 q46 24 138 69.5t138 69.5q34 19 49 4z" />
<glyph unicode="&#x159;" horiz-adv-x="901" d="M389 35q0 -22 -8.5 -28.5t-32.5 -6.5h-158q-22 0 -30 6.5t-8 28.5v878q0 85 29 123.5t114 50.5q90 11 151 11q278 0 451 -144q20 -15 6 -39l-94 -135q-13 -16 -21 -15t-24 13q-126 107 -279 107q-55 0 -96 -8v-842zM713 1579q18 11 26.5 11.5t22.5 -9.5l47 -41 q17 -14 16.5 -23.5t-18.5 -27.5l-272 -283q-39 -39 -97 -39q-49 0 -88 39l-280 287q-16 19 2 37l51 47q19 19 47 4l268 -195z" />
<glyph unicode="&#x15a;" horiz-adv-x="1200" d="M127 1067q0 178 118.5 284.5t344.5 106.5q113 0 235.5 -23t214.5 -63q18 -11 21 -18.5t-4 -28.5l-49 -139q-7 -22 -14.5 -25.5t-24.5 2.5q-204 70 -383 70q-100 0 -151.5 -42t-51.5 -106q0 -71 69.5 -121t243.5 -118q64 -27 99 -42.5t89.5 -43.5t85 -50.5t67.5 -57.5 t56 -70.5t32.5 -83.5t13.5 -103q0 -104 -39.5 -185t-109.5 -131.5t-162.5 -76t-202.5 -25.5q-321 0 -533 115q-27 12 -12 49l61 140q15 30 45 18q229 -96 408 -96q147 0 216 50.5t69 135.5q0 82 -63 132.5t-220 111.5q-121 47 -200 87t-144 91.5t-95 114t-30 141.5z M432 1606q-11 11 -10.5 19.5t16.5 21.5l307 235q29 23 48 -4l112 -141q21 -24 -4 -37l-373 -180q-23 -12 -39 6z" />
<glyph unicode="&#x15b;" horiz-adv-x="987" d="M909 301q0 -159 -111.5 -241.5t-291.5 -82.5q-110 0 -222.5 22.5t-193.5 68.5q-29 14 -14 49l49 114q11 20 20 24t33 -5q71 -34 161.5 -54t162.5 -20q84 0 128 32.5t44 88.5t-49 90t-172 80q-178 66 -256 136t-78 188q0 138 100 223.5t283 85.5q180 0 338 -64 q28 -12 18 -49l-47 -117q-6 -16 -15 -18.5t-26 4.5q-133 49 -270 49q-70 0 -108 -30t-38 -72q0 -54 44.5 -86.5t164.5 -75.5q54 -21 87 -35t79 -37t73.5 -47t54.5 -56.5t39.5 -74t12.5 -90.5zM362 1210q-16 6 -18.5 15t4.5 26l139 336q14 32 52 23l172 -47q33 -9 14 -35 l-231 -328q-11 -18 -21 -21t-27 3z" />
<glyph unicode="&#x15c;" horiz-adv-x="1200" d="M127 1067q0 178 118.5 284.5t344.5 106.5q113 0 235.5 -23t214.5 -63q18 -11 21 -18.5t-4 -28.5l-49 -139q-7 -22 -14.5 -25.5t-24.5 2.5q-204 70 -383 70q-100 0 -151.5 -42t-51.5 -106q0 -71 69.5 -121t243.5 -118q64 -27 99 -42.5t89.5 -43.5t85 -50.5t67.5 -57.5 t56 -70.5t32.5 -83.5t13.5 -103q0 -104 -39.5 -185t-109.5 -131.5t-162.5 -76t-202.5 -25.5q-321 0 -533 115q-27 12 -12 49l61 140q15 30 45 18q229 -96 408 -96q147 0 216 50.5t69 135.5q0 82 -63 132.5t-220 111.5q-121 47 -200 87t-144 91.5t-95 114t-30 141.5z M944 1534q-15 -15 -49 4l-277 139l-278 -139q-31 -17 -47 4l-41 51q-9 13 -10 18.5t8 18.5l280 225q43 35 88 35q51 0 95 -35l274 -221q32 -23 8 -47z" />
<glyph unicode="&#x15d;" horiz-adv-x="987" d="M909 301q0 -159 -111.5 -241.5t-291.5 -82.5q-110 0 -222.5 22.5t-193.5 68.5q-29 14 -14 49l49 114q11 20 20 24t33 -5q71 -34 161.5 -54t162.5 -20q84 0 128 32.5t44 88.5t-49 90t-172 80q-178 66 -256 136t-78 188q0 138 100 223.5t283 85.5q180 0 338 -64 q28 -12 18 -49l-47 -117q-6 -16 -15 -18.5t-26 4.5q-133 49 -270 49q-70 0 -108 -30t-38 -72q0 -54 44.5 -86.5t164.5 -75.5q54 -21 87 -35t79 -37t73.5 -47t54.5 -56.5t39.5 -74t12.5 -90.5zM856 1280q28 -28 0 -49l-47 -45q-20 -14 -49 4l-273 192l-270 -196 q-28 -15 -47 4l-51 49q-15 18 0 39l268 274q50 50 98 50q36 0 58.5 -10.5t48.5 -39.5z" />
<glyph unicode="&#x15e;" horiz-adv-x="1200" d="M127 1067q0 178 118.5 284.5t344.5 106.5q113 0 235.5 -23t214.5 -63q18 -11 21 -18.5t-4 -28.5l-49 -139q-7 -22 -14.5 -25.5t-24.5 2.5q-204 70 -383 70q-100 0 -151.5 -42t-51.5 -106q0 -71 69.5 -121t243.5 -118q64 -27 99 -42.5t89.5 -43.5t85 -50.5t67.5 -57.5 t56 -70.5t32.5 -83.5t13.5 -103q0 -104 -39.5 -185t-109.5 -131.5t-162.5 -76t-202.5 -25.5h-13l-32 -90q119 -7 172 -55.5t53 -114.5q0 -75 -62 -131.5t-182 -56.5q-125 0 -205 39q-24 9 -14 39l20 55q7 17 14.5 19.5t20.5 -3.5q70 -24 131 -24q103 0 103 67q0 33 -33 48.5 t-82 15.5q-8 0 -19.5 -0.5t-15.5 0t-10.5 1t-10 3t-7.5 6.5q-7 7 -8 17t0.5 15.5t5.5 22.5l49 132q-256 26 -408 110q-27 12 -12 49l61 140q15 30 45 18q229 -96 408 -96q147 0 216 50.5t69 135.5q0 82 -63 132.5t-220 111.5q-121 47 -200 87t-144 91.5t-95 114t-30 141.5z " />
<glyph unicode="&#x15f;" horiz-adv-x="987" d="M909 301q0 -157 -110.5 -240.5t-288.5 -83.5l-33 -90q119 -7 172 -55.5t53 -114.5q0 -75 -62 -131.5t-181 -56.5q-125 0 -205 39q-24 9 -14 39l20 55q7 17 14.5 19.5t20.5 -3.5q71 -24 131 -24q102 0 102 67q0 33 -32.5 48.5t-81.5 15.5q-8 0 -20 -0.5t-16 0t-10 1t-10 3 t-8 6.5q-7 7 -8 17t0.5 15.5t5.5 22.5l49 134q-193 18 -307 84q-29 14 -14 49l49 114q11 20 20 24t33 -5q71 -34 161.5 -54t162.5 -20q84 0 128 32.5t44 88.5t-49 90t-172 80q-178 66 -256 136t-78 188q0 138 100 223.5t283 85.5q180 0 338 -64q28 -12 18 -49l-47 -117 q-6 -16 -15 -18.5t-26 4.5q-133 49 -270 49q-70 0 -108 -30t-38 -72q0 -54 44.5 -86.5t164.5 -75.5q54 -21 87 -35t79 -37t73.5 -47t54.5 -56.5t39.5 -74t12.5 -90.5z" />
<glyph unicode="&#x160;" horiz-adv-x="1200" d="M127 1067q0 178 118.5 284.5t344.5 106.5q113 0 235.5 -23t214.5 -63q18 -11 21 -18.5t-4 -28.5l-49 -139q-7 -22 -14.5 -25.5t-24.5 2.5q-204 70 -383 70q-100 0 -151.5 -42t-51.5 -106q0 -71 69.5 -121t243.5 -118q64 -27 99 -42.5t89.5 -43.5t85 -50.5t67.5 -57.5 t56 -70.5t32.5 -83.5t13.5 -103q0 -104 -39.5 -185t-109.5 -131.5t-162.5 -76t-202.5 -25.5q-321 0 -533 115q-27 12 -12 49l61 140q15 30 45 18q229 -96 408 -96q147 0 216 50.5t69 135.5q0 82 -63 132.5t-220 111.5q-121 47 -200 87t-144 91.5t-95 114t-30 141.5z M1006 1819q24 -24 -9 -47l-274 -222q-43 -34 -94 -34q-46 0 -88 34l-281 226q-9 13 -8 18t10 18l41 52q16 21 47 4q50 -20 141.5 -69.5t137.5 -69.5q46 24 138 69.5t138 69.5q34 19 49 4z" />
<glyph unicode="&#x161;" horiz-adv-x="987" d="M909 301q0 -159 -111.5 -241.5t-291.5 -82.5q-110 0 -222.5 22.5t-193.5 68.5q-29 14 -14 49l49 114q11 20 20 24t33 -5q71 -34 161.5 -54t162.5 -20q84 0 128 32.5t44 88.5t-49 90t-172 80q-178 66 -256 136t-78 188q0 138 100 223.5t283 85.5q180 0 338 -64 q28 -12 18 -49l-47 -117q-6 -16 -15 -18.5t-26 4.5q-133 49 -270 49q-70 0 -108 -30t-38 -72q0 -54 44.5 -86.5t164.5 -75.5q54 -21 87 -35t79 -37t73.5 -47t54.5 -56.5t39.5 -74t12.5 -90.5zM762 1587q18 11 26.5 11.5t22.5 -9.5l47 -41q17 -14 16.5 -23.5t-18.5 -27.5 l-272 -283q-38 -38 -97 -38q-50 0 -88 38l-280 287q-16 19 2 37l51 47q19 19 47 4l268 -194z" />
<glyph unicode="&#x162;" horiz-adv-x="1150" d="M1124 1253q0 -21 -7 -28.5t-30 -7.5h-389v-1174q0 -29 -8.5 -36t-38.5 -7h-159q-26 0 -37 9t-11 34v1174h-381q-22 0 -28 7t-6 29v142q0 24 6 31.5t28 7.5h1024q23 0 30 -7.5t7 -31.5v-142zM573 -578q-8 -25 -14.5 -31.5t-28.5 -6.5h-77q-44 0 -41 32l28 398q4 39 39 39 h191q23 0 32.5 -12t4.5 -27z" />
<glyph unicode="&#x163;" horiz-adv-x="804" d="M782 47q4 -11 1 -21.5t-19 -17.5q-92 -31 -248 -31q-164 0 -235.5 70t-71.5 221v625h-146q-21 0 -26.5 7.5t-5.5 27.5v84q0 19 6 27t26 12l156 34l27 195q4 23 12.5 31t32.5 16l119 41q36 9 36 -33v-260h220q21 0 26.5 -8t5.5 -25v-114q0 -21 -5 -28t-27 -7h-220v-594 q0 -64 30 -89.5t95 -25.5q51 0 154 15q19 4 26 -1t9 -20zM387 -578q-8 -25 -14.5 -31.5t-28.5 -6.5h-78q-44 0 -41 32l29 398q4 39 39 39h190q23 0 32.5 -12t4.5 -27z" />
<glyph unicode="&#x164;" horiz-adv-x="1150" d="M1124 1253q0 -21 -7 -28.5t-30 -7.5h-389v-1174q0 -29 -8.5 -36t-38.5 -7h-159q-26 0 -37 9t-11 34v1174h-381q-22 0 -28 7t-6 29v142q0 24 6 31.5t28 7.5h1024q23 0 30 -7.5t7 -31.5v-142zM946 1819q24 -24 -8 -47l-274 -222q-43 -34 -95 -34q-46 0 -88 34l-280 226 q-9 13 -8 18t10 18l41 52q16 21 47 4q50 -20 141 -69.5t137 -69.5q46 24 138.5 69.5t138.5 69.5q34 19 49 4z" />
<glyph unicode="&#x165;" horiz-adv-x="907" d="M782 47q4 -11 1 -21.5t-19 -17.5q-92 -31 -248 -31q-164 0 -235.5 70t-71.5 221v625h-146q-21 0 -26.5 7.5t-5.5 27.5v84q0 19 6 27t26 12l156 34l27 195q4 23 12.5 31t32.5 16l119 41q36 9 36 -33v-260h220q21 0 26.5 -8t5.5 -25v-114q0 -21 -5 -28t-27 -7h-220v-594 q0 -64 30 -89.5t95 -25.5q51 0 154 15q19 4 26 -1t9 -20zM840 1206q-8 -25 -14.5 -32t-28.5 -7h-78q-44 0 -41 33l29 397q4 39 38 39h191q23 0 32.5 -12t4.5 -27z" />
<glyph unicode="&#x166;" horiz-adv-x="1150" d="M1124 1253q0 -21 -7 -28.5t-30 -7.5h-391v-353h338q17 0 22 -6t5 -24v-89q0 -21 -4.5 -26.5t-22.5 -5.5h-338v-678q0 -23 -6.5 -29t-30.5 -6h-176q-22 0 -30.5 6.5t-8.5 28.5v678h-327q-18 0 -22.5 5.5t-4.5 26.5v89q0 18 4.5 24t22.5 6h327v353h-381q-22 0 -28 7t-6 29 v142q0 24 6 31.5t28 7.5h1024q23 0 30 -7.5t7 -31.5v-142z" />
<glyph unicode="&#x167;" horiz-adv-x="804" d="M782 47q4 -11 1 -21.5t-19 -17.5q-92 -31 -248 -31q-164 0 -235.5 70t-71.5 221v262h-133q-17 0 -22 7t-5 26v84q0 18 5.5 25.5t21.5 7.5h133v213h-146q-21 0 -26.5 7.5t-5.5 27.5v84q0 19 6 27t26 12l156 34l27 195q4 23 12.5 31t32.5 16l119 41q36 9 36 -33v-260h220 q21 0 26.5 -8t5.5 -25v-114q0 -21 -5 -28t-27 -7h-220v-213h232q16 0 21.5 -7.5t5.5 -25.5v-84q0 -19 -5 -26t-22 -7h-232v-227q0 -64 30 -90.5t95 -26.5q58 0 154 15q19 4 26 -0.5t9 -18.5z" />
<glyph unicode="&#x168;" horiz-adv-x="1427" d="M1274 199q0 -82 -37 -131.5t-125 -67.5q-113 -25 -321 -25q-177 0 -294.5 31.5t-196 106.5t-112.5 196.5t-34 304.5l-2 777q0 25 11 34t36 9h159q30 0 39 -7.5t9 -35.5v-781q0 -89 9.5 -151t34 -114.5t68 -83t111 -47.5t162.5 -17q128 0 235 20v1174q0 25 10.5 34t36.5 9 h160q29 0 35 -6.5t6 -36.5v-1192zM864 1548q-50 0 -141 39t-137 39q-44 0 -92 -61q-11 -15 -17 -17t-24 4l-74 39q-20 10 -22.5 18t5.5 25q39 79 91.5 118.5t134.5 39.5q51 0 137 -38t125 -38q35 0 56 15t40 47q10 19 17 21.5t24 -3.5l82 -29q23 -7 26.5 -13t-3.5 -23 q-39 -87 -93 -135t-135 -48z" />
<glyph unicode="&#x169;" horiz-adv-x="1175" d="M643 182q93 0 162 13v847q0 23 7.5 29t31.5 6h160q22 0 30 -6.5t8 -28.5v-876q0 -73 -33 -115t-104 -55q-137 -19 -266 -19q-276 0 -391 120t-115 405v540q0 23 7.5 29t31.5 6h160q22 0 30.5 -6.5t8.5 -28.5v-544q0 -86 10.5 -140.5t39.5 -96.5t83 -60.5t139 -18.5z M731 1247q-49 0 -140 39t-138 39q-45 0 -93 -61q-11 -15 -17 -17t-24 4l-73 39q-20 10 -22.5 18t5.5 25q39 79 91.5 118.5t134.5 39.5q51 0 137 -38t125 -38q35 0 56 15t40 47q10 19 17 21.5t24 -3.5l82 -29q22 -7 25.5 -13t-3.5 -23q-39 -87 -92.5 -135t-134.5 -48z" />
<glyph unicode="&#x16a;" horiz-adv-x="1427" d="M1274 199q0 -82 -37 -131.5t-125 -67.5q-113 -25 -321 -25q-177 0 -294.5 31.5t-196 106.5t-112.5 196.5t-34 304.5l-2 777q0 25 11 34t36 9h159q30 0 39 -7.5t9 -35.5v-781q0 -89 9.5 -151t34 -114.5t68 -83t111 -47.5t162.5 -17q128 0 235 20v1174q0 25 10.5 34t36.5 9 h160q29 0 35 -6.5t6 -36.5v-1192zM1014 1618q0 -24 -7 -31.5t-30 -7.5h-520q-23 0 -29 7.5t-6 31.5v100q0 24 6 31.5t29 7.5h520q23 0 30 -7.5t7 -31.5v-100z" />
<glyph unicode="&#x16b;" horiz-adv-x="1175" d="M643 182q93 0 162 13v847q0 23 7.5 29t31.5 6h160q22 0 30 -6.5t8 -28.5v-876q0 -73 -33 -115t-104 -55q-137 -19 -266 -19q-276 0 -391 120t-115 405v540q0 23 7.5 29t31.5 6h160q22 0 30.5 -6.5t8.5 -28.5v-544q0 -86 10.5 -140.5t39.5 -96.5t83 -60.5t139 -18.5z M889 1286q0 -24 -7 -31.5t-30 -7.5h-520q-23 0 -29 7.5t-6 31.5v100q0 24 6 31.5t29 7.5h520q23 0 30 -7.5t7 -31.5v-100z" />
<glyph unicode="&#x16c;" horiz-adv-x="1427" d="M1274 199q0 -82 -37 -131.5t-125 -67.5q-113 -25 -321 -25q-177 0 -294.5 31.5t-196 106.5t-112.5 196.5t-34 304.5l-2 777q0 25 11 34t36 9h159q30 0 39 -7.5t9 -35.5v-781q0 -89 9.5 -151t34 -114.5t68 -83t111 -47.5t162.5 -17q128 0 235 20v1174q0 25 10.5 34t36.5 9 h160q29 0 35 -6.5t6 -36.5v-1192zM717 1513q-103 0 -195 64t-160 164q-15 21 7 43l57 53q7 7 12 10t9.5 2t7 -2.5t9 -7t11.5 -8.5q133 -139 252 -139q52 0 104 29.5t150 115.5q12 11 20.5 13t11 0.5t13.5 -9.5l57 -49q27 -23 9 -45q-181 -234 -375 -234z" />
<glyph unicode="&#x16d;" horiz-adv-x="1175" d="M643 182q93 0 162 13v847q0 23 7.5 29t31.5 6h160q22 0 30 -6.5t8 -28.5v-876q0 -73 -33 -115t-104 -55q-137 -19 -266 -19q-276 0 -391 120t-115 405v540q0 23 7.5 29t31.5 6h160q22 0 30.5 -6.5t8.5 -28.5v-544q0 -86 10.5 -140.5t39.5 -96.5t83 -60.5t139 -18.5z M578 1186q-103 0 -195.5 63.5t-159.5 163.5q-16 21 6 43l58 53q7 7 12 10t9.5 2t7 -2.5t9 -7t11.5 -8.5q133 -139 252 -139q52 0 104 29.5t150 115.5q12 11 20.5 13t11 0.5t13.5 -9.5l57 -49q12 -11 15 -20.5t1 -13.5t-8 -11q-180 -233 -374 -233z" />
<glyph unicode="&#x16e;" horiz-adv-x="1427" d="M1274 199q0 -82 -37 -131.5t-125 -67.5q-113 -25 -321 -25q-177 0 -294.5 31.5t-196 106.5t-112.5 196.5t-34 304.5l-2 777q0 25 11 34t36 9h159q30 0 39 -7.5t9 -35.5v-781q0 -89 9.5 -151t34 -114.5t68 -83t111 -47.5t162.5 -17q128 0 235 20v1174q0 25 10.5 34t36.5 9 h160q29 0 35 -6.5t6 -36.5v-1192zM829 1704q0 47 -28.5 75.5t-73.5 28.5q-47 0 -75.5 -28.5t-28.5 -75.5t28.5 -76t75.5 -29q43 0 72.5 29.5t29.5 75.5zM952 1704q0 -93 -65 -154t-160 -61q-98 0 -162.5 59.5t-64.5 155.5q0 92 65.5 153.5t161.5 61.5q95 0 160 -61t65 -154z " />
<glyph unicode="&#x16f;" horiz-adv-x="1175" d="M643 182q93 0 162 13v847q0 23 7.5 29t31.5 6h160q22 0 30 -6.5t8 -28.5v-876q0 -73 -33 -115t-104 -55q-137 -19 -266 -19q-276 0 -391 120t-115 405v540q0 23 7.5 29t31.5 6h160q22 0 30.5 -6.5t8.5 -28.5v-544q0 -86 10.5 -140.5t39.5 -96.5t83 -60.5t139 -18.5z M702 1393q0 47 -28.5 75.5t-73.5 28.5q-47 0 -75.5 -28.5t-28.5 -75.5t28.5 -76t75.5 -29q44 0 73 29t29 76zM825 1393q0 -93 -65 -154t-160 -61q-98 0 -162.5 59.5t-64.5 155.5q0 92 65.5 153.5t161.5 61.5q95 0 160 -61t65 -154z" />
<glyph unicode="&#x170;" horiz-adv-x="1427" d="M1274 199q0 -82 -37 -131.5t-125 -67.5q-113 -25 -321 -25q-177 0 -294.5 31.5t-196 106.5t-112.5 196.5t-34 304.5l-2 777q0 25 11 34t36 9h159q30 0 39 -7.5t9 -35.5v-781q0 -89 9.5 -151t34 -114.5t68 -83t111 -47.5t162.5 -17q128 0 235 20v1174q0 25 10.5 34t36.5 9 h160q29 0 35 -6.5t6 -36.5v-1192zM813 1614q-12 13 -11.5 21.5t17.5 21.5l297 227q3 2 9.5 6t8 4.5t5.5 2t7 -0.5t7 -5t10 -9l109 -127q21 -24 -2 -37l-352 -170q-16 -7 -28.5 -6.5t-23.5 12.5zM395 1614q-12 13 -11.5 21.5t17.5 21.5l297 227q3 2 9.5 6t8 4.5t5.5 2t7 -0.5 t7 -5t10 -9l109 -127q21 -24 -2 -37l-352 -170q-16 -7 -28 -6.5t-23 12.5z" />
<glyph unicode="&#x171;" horiz-adv-x="1175" d="M643 182q93 0 162 13v847q0 23 7.5 29t31.5 6h160q22 0 30 -6.5t8 -28.5v-876q0 -73 -33 -115t-104 -55q-137 -19 -266 -19q-276 0 -391 120t-115 405v540q0 23 7.5 29t31.5 6h160q22 0 30.5 -6.5t8.5 -28.5v-544q0 -86 10.5 -140.5t39.5 -96.5t83 -60.5t139 -18.5z M649 1210q-16 6 -18.5 15t4.5 26l137 336q8 19 15.5 23t27.5 0l178 -47q34 -9 15 -35l-230 -328q-11 -18 -20.5 -21t-26.5 3zM338 1210q-16 6 -18.5 15t4.5 26l137 336q8 19 15.5 23t27.5 0l178 -47q33 -9 14 -35l-229 -328q-11 -18 -20.5 -21t-26.5 3z" />
<glyph unicode="&#x172;" horiz-adv-x="1427" d="M1274 199q0 -82 -37 -131.5t-125 -67.5q-116 -21 -274 -25q-101 -115 -101 -208q0 -40 25 -57t80 -17q40 0 108 14q17 6 24 4t11 -18l16 -55q9 -26 -14 -39q-103 -43 -219 -43q-106 0 -157.5 45t-53.5 118q-1 66 34 136.5t95 124.5q-290 17 -411 158.5t-121 475.5l-2 777 q0 25 11 34t36 9h159q30 0 39 -7.5t9 -35.5v-781q0 -89 9.5 -151t34 -114.5t68 -83t111 -47.5t162.5 -17q128 0 235 20v1174q0 25 10.5 34t36.5 9h160q29 0 35 -6.5t6 -36.5v-1192z" />
<glyph unicode="&#x173;" horiz-adv-x="1175" d="M643 182q93 0 162 13v847q0 23 7.5 29t31.5 6h160q22 0 30 -6.5t8 -28.5v-876q0 -113 -84 -154q-116 -124 -116 -227q0 -41 24.5 -57.5t79.5 -16.5q36 0 109 15q17 6 24 3.5t11 -18.5l16 -55q9 -26 -14 -39q-103 -43 -220 -43q-106 0 -157 45.5t-53 118.5q-2 60 28 125 t84 119q-123 -5 -135 -5q-276 0 -391 120t-115 405v540q0 23 7.5 29t31.5 6h160q22 0 30.5 -6.5t8.5 -28.5v-544q0 -86 10.5 -140.5t39.5 -96.5t83 -60.5t139 -18.5z" />
<glyph unicode="&#x174;" horiz-adv-x="1765" d="M881 1133l-72 -347l-150 -682q-12 -58 -37 -82t-75 -24h-109q-57 0 -84.5 17.5t-40.5 74.5l-282 1313q-9 33 24 33h199q24 0 34.5 -6.5t14.5 -26.5l131 -739l60 -345h12l69 345l140 663q11 58 37.5 83.5t89.5 25.5h100q54 0 79 -25.5t36 -79.5l137 -667l70 -340h12 l59 342l133 735q9 35 45 35h199q32 0 23 -33l-283 -1311q-13 -58 -40 -76t-85 -18h-104q-51 0 -77.5 23.5t-39.5 82.5l-145 682l-70 347h-10zM1202 1520q-15 -15 -49 4l-276 139l-279 -139q-31 -17 -47 4l-41 51q-9 13 -10 18.5t8 18.5l280 225q43 35 89 35q50 0 94 -35 l274 -221q32 -23 8 -47z" />
<glyph unicode="&#x175;" horiz-adv-x="1572" d="M782 754l-90 -332l-104 -336q-18 -55 -42 -75.5t-77 -20.5h-96q-47 0 -73 20t-42 82l-219 959q-9 28 22 28h185q21 0 28 -4.5t11 -21.5l90 -480l55 -311h12l76 264l117 416q14 47 37.5 68.5t79.5 21.5h84q46 0 65 -21.5t35 -72.5l113 -389l84 -299h12l53 319l88 484 q4 17 10 20.5t27 3.5l188 2q29 0 23 -28l-221 -959q-16 -61 -44.5 -81.5t-76.5 -20.5h-92q-54 0 -77 18t-42 78l-102 346l-88 322h-9zM1155 1266q28 -28 0 -49l-47 -46q-19 -13 -49 5l-273 192l-270 -197q-27 -15 -47 5l-51 49q-15 18 0 39l268 274q49 49 98 49 q36 0 58.5 -10t48.5 -39z" />
<glyph unicode="&#x176;" horiz-adv-x="1220" d="M621 776l157 324l154 303q11 20 20.5 26.5t28.5 6.5h199q30 0 18 -29l-459 -854v-516q0 -23 -7.5 -30t-31.5 -7h-170q-21 0 -29.5 7.5t-8.5 29.5v514l-469 854q-6 11 -1 21t21 10h207q22 0 31 -6.5t20 -28.5l160 -314l149 -311h11zM932 1520q-15 -15 -49 4l-277 139 l-278 -139q-31 -17 -47 4l-41 51q-9 13 -10 18.5t8 18.5l280 225q43 35 88 35q50 0 94 -35l275 -221q32 -23 8 -47z" />
<glyph unicode="&#x177;" horiz-adv-x="1069" d="M639 -174q-46 -138 -128 -198t-214 -60q-109 0 -180 24q-23 4 -28.5 12t-0.5 27l29 125q4 19 13 23.5t28 -0.5q71 -15 100 -15q73 0 114.5 29t65.5 101l43 129h-49q-22 0 -33.5 2t-25.5 9.5t-24 25t-19 46.5l-307 941q-9 28 22 28h188q23 0 31 -4.5t12 -21.5l140 -471 l106 -371h13l114 375l152 465q5 18 11.5 23t29.5 5h186q30 0 21 -26l-410 -1225v2zM909 1272q28 -28 0 -49l-47 -45q-20 -14 -49 4l-272 192l-271 -196q-28 -15 -47 4l-51 49q-15 18 0 39l268 274q49 49 99 49q36 0 58 -10t48 -39z" />
<glyph unicode="&#x178;" horiz-adv-x="1220" d="M621 776l157 324l154 303q11 20 20.5 26.5t28.5 6.5h199q30 0 18 -29l-459 -854v-516q0 -23 -7.5 -30t-31.5 -7h-170q-21 0 -29.5 7.5t-8.5 29.5v514l-469 854q-6 11 -1 21t21 10h207q22 0 31 -6.5t20 -28.5l160 -314l149 -311h11zM944 1681q0 -51 -40 -91t-93 -40 t-94 40.5t-41 90.5q0 53 40.5 93.5t94.5 40.5t93.5 -40t39.5 -94zM551 1681q0 -51 -40.5 -91t-94.5 -40t-93.5 40t-39.5 91q0 54 39.5 94t93.5 40t94.5 -40t40.5 -94z" />
<glyph unicode="&#x179;" horiz-adv-x="1273" d="M1184 1272q0 -68 -62 -144l-751 -901l4 -12h788q22 0 28.5 -8.5t6.5 -32.5v-135q0 -24 -6 -31.5t-29 -7.5h-987q-115 0 -115 104v39q0 43 13 74t43 64l778 931l-2 9h-694q-22 0 -28.5 8.5t-6.5 30.5v135q0 24 6.5 32.5t28.5 8.5h866q63 0 91 -24.5t28 -86.5v-53z M512 1599q-11 11 -10.5 19.5t16.5 21.5l307 236q15 12 24 12t23 -16l113 -141q21 -24 -4 -37l-373 -181q-11 -7 -20 -5.5t-19 12.5z" />
<glyph unicode="&#x17a;" horiz-adv-x="985" d="M936 942q0 -66 -39 -108l-563 -633l4 -6h565q22 0 28.5 -8t6.5 -27v-125q0 -20 -6.5 -27.5t-28.5 -7.5h-768q-92 0 -92 82v43q0 76 45 123l559 629l-2 6h-516q-22 0 -28.5 7.5t-6.5 27.5v122q0 19 6.5 27t28.5 8h709q53 0 75.5 -18t22.5 -66v-49zM426 1210 q-16 6 -18.5 15t4.5 26l139 336q14 32 51 23l172 -47q33 -9 14 -35l-231 -328q-11 -18 -20.5 -21t-26.5 3z" />
<glyph unicode="&#x17b;" horiz-adv-x="1273" d="M1184 1272q0 -68 -62 -144l-751 -901l4 -12h788q22 0 28.5 -8.5t6.5 -32.5v-135q0 -24 -6 -31.5t-29 -7.5h-987q-115 0 -115 104v39q0 43 13 74t43 64l778 931l-2 9h-694q-22 0 -28.5 8.5t-6.5 30.5v135q0 24 6.5 32.5t28.5 8.5h866q63 0 91 -24.5t28 -86.5v-53z M827 1671q0 -60 -42.5 -100.5t-102.5 -40.5t-101.5 40.5t-41.5 100.5t41.5 102t101.5 42t102.5 -42t42.5 -102z" />
<glyph unicode="&#x17c;" horiz-adv-x="985" d="M936 942q0 -66 -39 -108l-563 -633l4 -6h565q22 0 28.5 -8t6.5 -27v-125q0 -20 -6.5 -27.5t-28.5 -7.5h-768q-92 0 -92 82v43q0 76 45 123l559 629l-2 6h-516q-22 0 -28.5 7.5t-6.5 27.5v122q0 19 6.5 27t28.5 8h709q53 0 75.5 -18t22.5 -66v-49zM670 1374 q0 -60 -43 -100.5t-103 -40.5t-101.5 40.5t-41.5 100.5t41.5 102t101.5 42t103 -42t43 -102z" />
<glyph unicode="&#x17d;" horiz-adv-x="1273" d="M1184 1272q0 -68 -62 -144l-751 -901l4 -12h788q22 0 28.5 -8.5t6.5 -32.5v-135q0 -24 -6 -31.5t-29 -7.5h-987q-115 0 -115 104v39q0 43 13 74t43 64l778 931l-2 9h-694q-22 0 -28.5 8.5t-6.5 30.5v135q0 24 6.5 32.5t28.5 8.5h866q63 0 91 -24.5t28 -86.5v-53z M1063 1819q24 -24 -8 -47l-275 -222q-43 -34 -94 -34q-46 0 -88 34l-281 226q-9 13 -8 18t10 18l41 52q17 21 48 4q50 -20 141 -69.5t137 -69.5q46 24 138.5 69.5t138.5 69.5q34 19 49 4z" />
<glyph unicode="&#x17e;" horiz-adv-x="985" d="M936 942q0 -66 -39 -108l-563 -633l4 -6h565q22 0 28.5 -8t6.5 -27v-125q0 -20 -6.5 -27.5t-28.5 -7.5h-768q-92 0 -92 82v43q0 76 45 123l559 629l-2 6h-516q-22 0 -28.5 7.5t-6.5 27.5v122q0 19 6.5 27t28.5 8h709q53 0 75.5 -18t22.5 -66v-49zM786 1587q18 11 27 11.5 t23 -9.5l47 -41q17 -14 16.5 -23.5t-18.5 -27.5l-273 -283q-38 -38 -96 -38q-50 0 -88 38l-281 287q-16 19 2 37l52 47q19 19 47 4l268 -194z" />
<glyph unicode="&#x192;" horiz-adv-x="1263" d="M948 1419q132 0 211 -24q17 -5 20 -16.5t-1 -24.5l-21 -119q-3 -27 -45 -21q-70 15 -125 15q-86 0 -127.5 -45t-62.5 -156q-8 -35 -14.5 -80t-10.5 -65h219q22 0 27.5 -6.5t5.5 -26.5l-2 -102q-2 -19 -9.5 -28t-29.5 -9h-235q-6 -42 -22 -155.5t-30.5 -202.5t-29.5 -154 q-13 -60 -23.5 -100t-26.5 -86.5t-34.5 -76t-45.5 -59t-60 -46t-78 -26.5t-101 -10q-115 0 -184 31q-13 6 -14.5 14t3.5 25l33 117q13 29 39 20q59 -10 109 -10q29 0 52 10.5t38.5 27t29 46t22 57t19.5 70.5q15 74 29.5 165.5t29.5 194t23 148.5h-166q-21 0 -25.5 8t-2.5 29 v94q0 39 39 39h182q2 11 9 64.5t13 80.5q62 393 373 393z" />
<glyph unicode="&#x1a0;" horiz-adv-x="1581" d="M1360 723q0 -361 -158.5 -553.5t-472.5 -192.5q-307 0 -461.5 187t-154.5 551q0 172 46 312t128 234t196.5 144.5t251.5 50.5q296 0 455 -182q85 6 123.5 56t38.5 173v80q0 24 10 31.5t31 7.5h112q21 0 29 -8t8 -31v-98q0 -151 -62.5 -248t-189.5 -125q70 -168 70 -389z M1102 715q0 87 -9 158.5t-34 140t-64.5 115t-104.5 74.5t-151 28q-92 0 -164 -40t-116 -110t-67 -160.5t-23 -195.5q0 -99 11 -176.5t37 -143.5t67.5 -110t104.5 -68t146 -24q82 0 146 28t105 75t67.5 114t37.5 139t11 156z" />
<glyph unicode="&#x1a1;" horiz-adv-x="1331" d="M1085 543q0 -274 -126.5 -420t-374.5 -146q-246 0 -369 141.5t-123 418.5q0 264 137 413.5t361 149.5q265 0 393 -180q80 8 113.5 57t33.5 168v82q0 23 10.5 30t30.5 7h113q21 0 29 -7.5t8 -29.5v-99q0 -320 -262 -376q26 -91 26 -209zM842 537q0 62 -6.5 113.5t-24 99 t-45 79.5t-71.5 51t-101 19q-127 0 -193.5 -98.5t-66.5 -257.5q0 -179 58.5 -272t193.5 -93q69 0 120 29t80 80.5t42.5 113.5t13.5 136z" />
<glyph unicode="&#x1af;" horiz-adv-x="1628" d="M154 1397q0 23 5 30t19 7h197q18 0 24.5 -7t6.5 -30v-764q0 -92 10 -184q18 -132 103 -193t269 -61q129 0 236 20v1182q0 23 6.5 30t24.5 7h190q17 0 22 -7t5 -30v-127h16q93 0 126.5 47.5t33.5 171.5v92q0 24 9.5 31.5t29.5 7.5h115q19 0 26.5 -8t7.5 -31v-88 q0 -5 -6 -104q-27 -295 -336 -295h-22v-895q0 -83 -36 -133t-124 -66q-162 -25 -321 -25q-166 0 -278.5 26.5t-191 89.5t-117.5 166.5t-48 258.5q-2 39 -2 121v760z" />
<glyph unicode="&#x1b0;" horiz-adv-x="1400" d="M643 182q93 0 162 13v847q0 23 7.5 29t31.5 6h160q22 0 30 -6.5t8 -28.5v-124h17q86 0 118.5 47t32.5 170v94q0 23 10 30t31 7h113q21 0 29 -7.5t8 -29.5v-109q0 -379 -334 -379h-25v-575q0 -73 -33 -115t-104 -55q-137 -19 -266 -19q-276 0 -391 120t-115 405v540 q0 23 7.5 29t31.5 6h160q22 0 30.5 -6.5t8.5 -28.5v-544q0 -86 10.5 -140.5t39.5 -96.5t83 -60.5t139 -18.5z" />
<glyph unicode="&#x1fc;" horiz-adv-x="1816" d="M1739 39q0 -23 -5.5 -31t-27.5 -8h-557q-175 0 -257 81t-95 236h-404l-96 -286q-5 -17 -14 -24t-29 -7h-197q-17 0 -21.5 8t1.5 25l395 1157q40 122 124.5 184t248.5 62h883q22 0 27 -8t5 -33v-142q0 -24 -5 -30t-27 -6h-496q-79 0 -114.5 -37t-35.5 -109v-207h584 q22 0 27.5 -8t5.5 -33v-131q0 -23 -5.5 -31t-27.5 -8h-584v-288q0 -142 150 -142h514q22 0 27.5 -8t5.5 -33v-143zM451 516h344v553q0 116 24 160q-81 0 -119 -25t-53 -74l-74 -221zM950 1599q-11 11 -10.5 19.5t16.5 21.5l308 236q15 12 24 12t23 -16l112 -141 q21 -24 -4 -37l-372 -181q-11 -7 -20 -5.5t-19 12.5z" />
<glyph unicode="&#x1fd;" horiz-adv-x="1781" d="M1235 1100q220 0 338.5 -121t118.5 -328q0 -94 -43.5 -132t-120.5 -38h-543q2 -93 24 -154.5t62.5 -92.5t87 -42.5t111.5 -11.5q125 0 239 56q18 9 27.5 7.5t19.5 -20.5l54 -114q15 -31 -13 -50q-135 -82 -348 -82q-195 0 -321 99q-177 -99 -428 -99q-408 0 -408 326 q0 54 12.5 103t42.5 95.5t76 80.5t118.5 54.5t164.5 20.5h244q8 33 8 68q0 174 -219 174q-134 0 -281 -39q-17 -7 -30 -4.5t-17 23.5l-29 118q-10 31 19 41q166 62 377 62q234 0 329 -133q62 65 147.5 99t180.5 34zM797 223q-53 110 -56 262h-194q-39 0 -73 -7.5t-67.5 -25 t-53 -53.5t-19.5 -88q0 -145 207 -145q157 0 256 57zM1464 655q0 46 -10.5 86.5t-35 78t-71 59.5t-110.5 22q-107 0 -172.5 -69t-73.5 -177h473zM842 1210q-16 6 -19 15t4 26l140 336q14 32 51 23l172 -47q33 -9 14 -35l-231 -328q-11 -18 -20.5 -21t-26.5 3z" />
<glyph unicode="&#x1fe;" horiz-adv-x="1472" d="M238 2q-8 -11 -15 -13.5t-11 -0.5t-13 8l-45 31q-11 11 -11.5 18t11.5 25l94 123q-135 185 -135 522q0 172 46 312t128 234t196.5 144.5t251.5 50.5q244 0 395 -127l93 119q22 29 45 6l43 -31q11 -11 11.5 -17t-11.5 -24l-103 -131q152 -196 152 -528 q0 -361 -158.5 -553.5t-472.5 -192.5q-253 0 -405 134zM1102 715q0 203 -58 327l-567 -735q90 -104 264 -104q82 0 145.5 28t103.5 75t65.5 114t36 139t10.5 156zM369 725q0 -205 51 -315l563 731q-87 90 -244 90q-92 0 -164 -40t-116 -110t-67 -160.5t-23 -195.5zM637 1599 q-11 11 -10.5 19.5t16.5 21.5l307 236q15 12 24 12t23 -16l113 -141q21 -24 -4 -37l-373 -181q-11 -7 -20 -5.5t-19 12.5z" />
<glyph unicode="&#x1ff;" horiz-adv-x="1177" d="M1085 543q0 -274 -126.5 -420t-374.5 -146q-210 0 -332 107l-74 -84q-18 -18 -33 -2l-34 33q-20 15 0 35l77 88q-96 134 -96 383q0 264 137 413.5t361 149.5q206 0 332 -111l77 90q17 17 37 2l35 -32q11 -11 11 -17t-11 -18l-86 -96q100 -135 100 -375zM842 537 q0 114 -25 190l-414 -473q58 -76 183 -76q69 0 120 29t80 80.5t42.5 113.5t13.5 136zM334 543q0 -115 24 -197l412 475q-62 78 -176 78q-127 0 -193.5 -98.5t-66.5 -257.5zM506 1210q-16 6 -18.5 15t4.5 26l139 336q14 32 51 23l172 -47q33 -9 14 -35l-231 -328 q-11 -18 -20.5 -21t-26.5 3z" />
<glyph unicode="&#x218;" horiz-adv-x="1200" d="M127 1067q0 178 118.5 284.5t344.5 106.5q113 0 235.5 -23t214.5 -63q18 -11 21 -18.5t-4 -28.5l-49 -139q-7 -22 -14.5 -25.5t-24.5 2.5q-204 70 -383 70q-100 0 -151.5 -42t-51.5 -106q0 -71 69.5 -121t243.5 -118q64 -27 99 -42.5t89.5 -43.5t85 -50.5t67.5 -57.5 t56 -70.5t32.5 -83.5t13.5 -103q0 -104 -39.5 -185t-109.5 -131.5t-162.5 -76t-202.5 -25.5q-321 0 -533 115q-27 12 -12 49l61 140q15 30 45 18q229 -96 408 -96q147 0 216 50.5t69 135.5q0 82 -63 132.5t-220 111.5q-121 47 -200 87t-144 91.5t-95 114t-30 141.5z M633 -578q-8 -25 -14.5 -31.5t-28.5 -6.5h-78q-44 0 -41 32l29 398q4 39 39 39h190q23 0 32.5 -12t4.5 -27z" />
<glyph unicode="&#x219;" horiz-adv-x="987" d="M909 301q0 -159 -111.5 -241.5t-291.5 -82.5q-110 0 -222.5 22.5t-193.5 68.5q-29 14 -14 49l49 114q11 20 20 24t33 -5q71 -34 161.5 -54t162.5 -20q84 0 128 32.5t44 88.5t-49 90t-172 80q-178 66 -256 136t-78 188q0 138 100 223.5t283 85.5q180 0 338 -64 q28 -12 18 -49l-47 -117q-6 -16 -15 -18.5t-26 4.5q-133 49 -270 49q-70 0 -108 -30t-38 -72q0 -54 44.5 -86.5t164.5 -75.5q54 -21 87 -35t79 -37t73.5 -47t54.5 -56.5t39.5 -74t12.5 -90.5zM512 -578q-8 -25 -14.5 -31.5t-28.5 -6.5h-78q-44 0 -41 32l29 398q4 39 39 39 h190q23 0 32.5 -12t4.5 -27z" />
<glyph unicode="&#x259;" horiz-adv-x="1130" d="M553 -20q-228 0 -344.5 119t-116.5 333q0 99 43 139.5t121 40.5h543q-2 78 -24.5 134t-62 88.5t-88.5 47.5t-110 15q-128 0 -240 -55q-15 -5 -22.5 -6.5t-13.5 3t-11 15.5l-53 117q-14 32 12 47q139 84 349 84q509 0 509 -555q0 -265 -135.5 -416t-355.5 -151zM549 178 q105 0 170.5 76.5t73.5 185.5h-474q0 -262 230 -262z" />
<glyph unicode="&#x2b9;" horiz-adv-x="401" d="M233 915q-12 -17 -22 -21t-27 1l-61 27q-27 9 -14 41l268 591q4 9 7.5 14t13.5 8.5t24 0.5l188 -35q34 -9 17 -33z" />
<glyph unicode="&#x2c6;" horiz-adv-x="1183" d="M958 1266q28 -28 0 -49l-47 -46q-19 -13 -49 5l-272 192l-271 -197q-27 -15 -47 5l-51 49q-15 18 0 39l268 274q49 49 99 49q36 0 58 -10t48 -39z" />
<glyph unicode="&#x2c7;" horiz-adv-x="1179" d="M862 1579q18 11 26.5 11.5t22.5 -9.5l47 -41q17 -14 16.5 -23.5t-18.5 -27.5l-272 -283q-39 -39 -96 -39q-49 0 -88 39l-281 287q-16 19 2 37l51 47q19 19 47 4l269 -195z" />
<glyph unicode="&#x2d8;" horiz-adv-x="1173" d="M578 1186q-103 0 -195.5 63.5t-159.5 163.5q-16 21 6 43l58 53q7 7 12 10t9.5 2t7 -2.5t9 -7t11.5 -8.5q133 -139 252 -139q52 0 104 29.5t150 115.5q12 11 20.5 13t11 0.5t13.5 -9.5l57 -49q12 -11 15 -20.5t1 -13.5t-8 -11q-180 -233 -374 -233z" />
<glyph unicode="&#x2d9;" horiz-adv-x="1112" d="M698 1374q0 -60 -42.5 -100.5t-102.5 -40.5t-101.5 40.5t-41.5 100.5t41.5 102t101.5 42t102.5 -42t42.5 -102z" />
<glyph unicode="&#x2da;" horiz-adv-x="1120" d="M705 1393q0 47 -29 75.5t-74 28.5q-47 0 -75.5 -28.5t-28.5 -75.5t28.5 -76t75.5 -29q44 0 73.5 29.5t29.5 75.5zM827 1393q0 -93 -65 -154t-160 -61q-98 0 -162.5 59.5t-64.5 155.5q0 92 65.5 153.5t161.5 61.5q95 0 160 -61t65 -154z" />
<glyph unicode="&#x2db;" horiz-adv-x="1007" d="M514 23q21 12 33 12l88 2q28 -3 6 -25q-135 -138 -135 -245q0 -41 24.5 -57.5t79.5 -16.5q41 0 109 14q17 6 24 4t11 -18l16 -55q9 -26 -14 -39q-103 -43 -219 -43q-106 0 -157.5 45t-53.5 118q0 80 53 167.5t135 136.5z" />
<glyph unicode="&#x2dc;" horiz-adv-x="1175" d="M731 1247q-49 0 -140 39t-138 39q-45 0 -93 -61q-11 -15 -17 -17t-24 4l-73 39q-20 10 -22.5 18t5.5 25q39 79 91.5 118.5t134.5 39.5q51 0 137 -38t125 -38q35 0 56 15t40 47q10 19 17 21.5t24 -3.5l82 -29q22 -7 25.5 -13t-3.5 -23q-39 -87 -92.5 -135t-134.5 -48z" />
<glyph unicode="&#x2dd;" horiz-adv-x="1140" d="M336 1210q-16 6 -18.5 15t4.5 26l137 336q8 19 15.5 23t27.5 0l178 -47q33 -9 14 -35l-229 -328q-11 -18 -20.5 -21t-26.5 3zM647 1210q-16 6 -18.5 15t4.5 26l137 336q8 19 15.5 23t27.5 0l178 -47q34 -9 15 -35l-230 -328q-11 -18 -20.5 -21t-26.5 3z" />
<glyph unicode="&#x384;" horiz-adv-x="1021" d="M418 1210q-16 6 -19 15t4 26l138 336q8 19 15.5 23t27.5 0l178 -47q33 -9 14 -35l-229 -328q-11 -18 -20.5 -21t-26.5 3z" />
<glyph unicode="&#x385;" horiz-adv-x="1163" d="M1020 1368q0 -54 -41.5 -94.5t-97.5 -40.5q-57 0 -98.5 40.5t-41.5 94.5q0 57 41.5 98t98.5 41t98 -40t41 -99zM586 1194q-11 -20 -19 -24.5t-26 -0.5l-74 21q-14 4 -19 6.5t-10 11.5t0 23l84 346q4 10 6.5 14t11.5 8t23 3l180 -25q30 -6 21 -33zM428 1368 q0 -54 -41.5 -94.5t-95.5 -40.5q-59 0 -100 40t-41 95q0 58 41 98.5t100 40.5q55 0 96 -40t41 -99z" />
<glyph unicode="&#x386;" horiz-adv-x="1308" d="M913 313h-520l-90 -278q-6 -19 -17.5 -27t-35.5 -8h-189q-43 0 -28 43l442 1296q20 59 46.5 79t84.5 20h88q63 0 90 -19.5t47 -79.5l445 -1296q15 -43 -27 -43h-188q-26 0 -38 5.5t-19 27.5zM455 526h393l-107 344l-86 291h-10l-84 -284zM-63 1100q-16 6 -19 15t4 26 l137 336q7 19 15 23t28 -1l179 -47q33 -9 14 -35l-229 -327q-11 -18 -21 -21t-27 2z" />
<glyph unicode="&#x387;" horiz-adv-x="579" d="M463 918q0 -71 -50 -120.5t-122 -49.5t-122 49t-50 121q0 69 50 119t122 50q73 0 122.5 -48.5t49.5 -120.5z" />
<glyph unicode="&#x388;" horiz-adv-x="1224" d="M1145 47q0 -25 -9 -36t-34 -11h-584q-103 0 -177 30t-113.5 84t-56.5 115.5t-17 137.5v700q0 74 20.5 138t62 117t114 83.5t167.5 30.5h572q25 0 32.5 -10t7.5 -37v-129q0 -27 -7.5 -36.5t-32.5 -9.5h-545q-76 0 -109 -33.5t-33 -101.5v-215h619q26 0 33.5 -9.5 t7.5 -39.5v-113q0 -26 -8 -36.5t-33 -10.5h-619v-299q0 -133 142 -133h557q28 0 35.5 -9.5t7.5 -39.5v-127zM-276 1100q-16 6 -19 15t4 26l137 336q7 19 15 23t28 -1l179 -47q33 -9 14 -35l-229 -327q-11 -18 -21 -21t-27 2z" />
<glyph unicode="&#x389;" horiz-adv-x="1445" d="M1292 43q0 -29 -8.5 -36t-38.5 -7h-155q-26 0 -37 9t-11 34v602h-636v-602q0 -28 -9.5 -35.5t-40.5 -7.5h-155q-25 0 -36 9t-11 34v1348q0 25 11 34t36 9h155q31 0 40.5 -7.5t9.5 -35.5v-531h636v531q0 25 11 34t37 9h155q30 0 38.5 -7t8.5 -36v-1348zM-305 1100 q-16 6 -18.5 15t4.5 26l137 336q7 19 15 23t28 -1l178 -47q33 -9 14 -35l-229 -327q-11 -18 -20.5 -21t-26.5 2z" />
<glyph unicode="&#x38a;" horiz-adv-x="606" d="M430 43q0 -28 -9.5 -35.5t-39.5 -7.5h-156q-26 0 -36.5 9t-10.5 34v1348q0 25 10.5 34t36.5 9h156q30 0 39.5 -7.5t9.5 -35.5v-1348zM-276 1100q-16 6 -19 15t4 26l137 336q7 19 15 23t28 -1l179 -47q33 -9 14 -35l-229 -327q-11 -18 -21 -21t-27 2z" />
<glyph unicode="&#x38c;" horiz-adv-x="1472" d="M1360 723q0 -361 -158.5 -553.5t-472.5 -192.5q-307 0 -461.5 187t-154.5 551q0 172 46 312t128 234t196.5 144.5t251.5 50.5q305 0 465 -193t160 -540zM1102 715q0 87 -9 158.5t-34 140t-64.5 115t-104.5 74.5t-151 28q-92 0 -164 -40t-116 -110t-67 -160.5t-23 -195.5 q0 -99 11 -176.5t37 -143.5t67.5 -110t104.5 -68t146 -24q82 0 146 28t105 75t67.5 114t37.5 139t11 156zM-219 1100q-16 6 -18.5 15t4.5 26l137 336q7 19 15 23t28 -1l178 -47q33 -9 14 -35l-229 -327q-11 -18 -20.5 -21t-26.5 2z" />
<glyph unicode="&#x38e;" horiz-adv-x="1220" d="M621 776l157 324l154 303q11 20 20.5 26.5t28.5 6.5h199q30 0 18 -29l-459 -854v-516q0 -23 -7.5 -30t-31.5 -7h-170q-21 0 -29.5 7.5t-8.5 29.5v514l-469 854q-6 11 -1 21t21 10h207q22 0 31 -6.5t20 -28.5l160 -314l149 -311h11zM-379 1100q-16 6 -18.5 15t4.5 26 l137 336q7 19 15 23t28 -1l178 -47q34 -9 15 -35l-230 -327q-11 -18 -20.5 -21t-26.5 2z" />
<glyph unicode="&#x38f;" horiz-adv-x="1546" d="M135 739q0 208 79.5 370.5t225.5 254.5t336 92q295 0 465 -196.5t170 -520.5q0 -148 -48 -283.5t-149 -234.5l5 -6h194q21 0 29 -8.5t8 -32.5v-133q0 -24 -8 -32.5t-31 -8.5h-414q-56 0 -82 23t-26 79v45q0 41 16.5 65.5t65.5 66.5q186 153 186 456q0 229 -98 362.5 t-285 133.5q-179 0 -281 -135.5t-102 -360.5q0 -141 42 -251t145 -197q56 -46 71 -69t15 -64v-45q0 -54 -27 -81.5t-76 -27.5h-434q-41 0 -41 41v133q0 24 9 32.5t30 8.5h194l7 6q-191 162 -191 518zM-164 1100q-16 6 -18.5 15t4.5 26l137 336q7 19 15 23t28 -1l178 -47 q34 -9 15 -35l-230 -327q-11 -18 -20.5 -21t-26.5 2z" />
<glyph unicode="&#x390;" horiz-adv-x="612" d="M729 1368q0 -54 -41.5 -94.5t-97.5 -40.5q-57 0 -98 40.5t-41 94.5q0 57 41 98t98 41t98 -40t41 -99zM295 1194q-11 -20 -19 -24.5t-26 -0.5l-74 21q-14 4 -19 6.5t-10 11.5t0 23l84 346q4 10 6.5 14t11.5 8t23 3l181 -25q29 -6 20 -33zM137 1368q0 -54 -41.5 -94.5 t-95.5 -40.5q-59 0 -100 40t-41 95q0 58 40.5 98.5t100.5 40.5q55 0 96 -40t41 -99zM580 41q1 -8 1 -14t-5.5 -11t-18.5 -10q-72 -29 -190 -29q-56 0 -95.5 14t-63 36.5t-37 61t-17.5 78.5t-4 97v776q0 22 7.5 28.5t28.5 6.5h166q20 0 27.5 -6.5t7.5 -28.5v-764 q0 -55 15.5 -73.5t58.5 -18.5q21 0 71 4q18 2 24 -1.5t7 -20.5z" />
<glyph unicode="&#x391;" horiz-adv-x="1308" d="M913 313h-520l-90 -278q-6 -19 -17.5 -27t-35.5 -8h-189q-43 0 -28 43l442 1296q20 59 46.5 79t84.5 20h88q63 0 90 -19.5t47 -79.5l445 -1296q15 -43 -27 -43h-188q-26 0 -38 5.5t-19 27.5zM455 526h393l-107 344l-86 291h-10l-84 -284z" />
<glyph unicode="&#x392;" horiz-adv-x="1359" d="M1024 786q111 -43 167 -140t56 -214q0 -190 -138 -311t-341 -121h-500q-64 0 -89 27t-25 90v1202q0 62 25 89.5t89 27.5l475 2q131 0 228 -35.5t156 -117.5t59 -204q0 -90 -45.5 -165t-116.5 -115v-15zM989 449q0 101 -64 162t-182 61h-340v-447h338q69 0 120 21t77.5 56 t38.5 71.5t12 75.5zM403 879h332q26 0 50 4t50.5 16t46 31t32 51t12.5 74q0 73 -48 116t-130 43h-345v-335z" />
<glyph unicode="&#x393;" horiz-adv-x="1144" d="M403 43q0 -29 -8.5 -36t-38.5 -7h-155q-25 0 -36 9t-11 34v1024q0 60 11 111.5t37 100t67 82.5t104.5 54.5t144.5 20.5h563q28 0 35.5 -10t7.5 -37v-127q0 -27 -8.5 -37.5t-34.5 -10.5h-536q-76 0 -109 -32.5t-33 -100.5v-1038z" />
<glyph unicode="&#x395;" horiz-adv-x="1224" d="M1145 47q0 -25 -9 -36t-34 -11h-584q-103 0 -177 30t-113.5 84t-56.5 115.5t-17 137.5v700q0 74 20.5 138t62 117t114 83.5t167.5 30.5h572q25 0 32.5 -10t7.5 -37v-129q0 -27 -7.5 -36.5t-32.5 -9.5h-545q-76 0 -109 -33.5t-33 -101.5v-215h619q26 0 33.5 -9.5 t7.5 -39.5v-113q0 -26 -8 -36.5t-33 -10.5h-619v-299q0 -133 142 -133h557q28 0 35.5 -9.5t7.5 -39.5v-127z" />
<glyph unicode="&#x396;" horiz-adv-x="1273" d="M1184 1272q0 -68 -62 -144l-751 -901l4 -12h788q22 0 28.5 -8.5t6.5 -32.5v-135q0 -24 -6 -31.5t-29 -7.5h-987q-115 0 -115 104v39q0 43 13 74t43 64l778 931l-2 9h-694q-22 0 -28.5 8.5t-6.5 30.5v135q0 24 6.5 32.5t28.5 8.5h866q63 0 91 -24.5t28 -86.5v-53z" />
<glyph unicode="&#x397;" horiz-adv-x="1445" d="M1292 43q0 -29 -8.5 -36t-38.5 -7h-155q-26 0 -37 9t-11 34v602h-636v-602q0 -28 -9.5 -35.5t-40.5 -7.5h-155q-25 0 -36 9t-11 34v1348q0 25 11 34t36 9h155q31 0 40.5 -7.5t9.5 -35.5v-531h636v531q0 25 11 34t37 9h155q30 0 38.5 -7t8.5 -36v-1348z" />
<glyph unicode="&#x398;" horiz-adv-x="1497" d="M1384 723q0 -360 -163.5 -553t-479.5 -193q-311 0 -469.5 188t-158.5 550q0 343 177 542t458 199q308 0 472 -193.5t164 -539.5zM1126 715q0 108 -18 196t-59 162.5t-116 116t-179 41.5q-117 0 -205.5 -68.5t-134 -183t-45.5 -254.5q0 -251 89.5 -386.5t289.5 -135.5 q101 0 176 41.5t118 114t63.5 161.5t20.5 195zM510 639q-22 0 -27.5 8t-5.5 31v127q0 25 5.5 32t27.5 7h483q23 0 29 -7.5t6 -31.5v-127q0 -22 -6.5 -30.5t-28.5 -8.5h-483z" />
<glyph unicode="&#x399;" horiz-adv-x="606" d="M430 43q0 -28 -9.5 -35.5t-39.5 -7.5h-156q-26 0 -36.5 9t-10.5 34v1348q0 25 10.5 34t36.5 9h156q30 0 39.5 -7.5t9.5 -35.5v-1348z" />
<glyph unicode="&#x39a;" horiz-adv-x="1343" d="M834 918l487 -871q27 -47 -21 -47h-182q-30 0 -42 2t-24 11t-24 30l-366 668l-261 -320v-348q0 -29 -8.5 -36t-38.5 -7h-153q-25 0 -36 9t-11 34v1348q0 25 11 34t36 9h153q30 0 38.5 -7t8.5 -36v-623l9 -4l204 260l312 381q26 29 80 29h208q19 0 25 -11t-6 -24z" />
<glyph unicode="&#x39b;" horiz-adv-x="1318" d="M741 870l-86 291h-10l-84 -284l-258 -842q-6 -19 -17.5 -27t-35.5 -8h-189q-43 0 -28 43l442 1296q20 59 46.5 79t84.5 20h88q63 0 90 -19.5t47 -79.5l445 -1296q15 -43 -27 -43h-188q-26 0 -38 5.5t-19 27.5z" />
<glyph unicode="&#x39c;" horiz-adv-x="1716" d="M1325 989h-12l-109 -278l-182 -453q-24 -55 -45.5 -72.5t-71.5 -17.5h-92q-50 0 -72 17.5t-43 72.5l-180 432l-110 275h-13v-922q0 -28 -9.5 -35.5t-37.5 -7.5h-147q-26 0 -36.5 8t-10.5 35v1268q0 66 25.5 95.5t92.5 29.5h84q54 0 80 -18.5t49 -74.5l244 -600l127 -317 h8l127 319l242 598q23 55 50.5 74t82.5 19h78q65 0 92 -28.5t27 -92.5v-1272q0 -28 -9.5 -35.5t-37.5 -7.5h-146q-25 0 -35 8t-10 35v946z" />
<glyph unicode="&#x39d;" horiz-adv-x="1468" d="M399 1061v-1018q0 -29 -8.5 -36t-38.5 -7h-151q-25 0 -36 9t-11 34v1268q0 67 26 96t92 29h72q51 0 76 -18t59 -72l408 -678l174 -295h8v1020q0 26 10 34.5t37 8.5h152q27 0 37 -8.5t10 -34.5v-1270q0 -63 -26.5 -93t-92.5 -30h-72q-51 0 -75 17t-60 71l-409 680 l-172 293h-9z" />
<glyph unicode="&#x39e;" horiz-adv-x="1232" d="M1130 1249q0 -24 -5 -30.5t-27 -6.5h-967q-23 0 -29 6.5t-6 30.5v146q0 24 6.5 32.5t28.5 8.5h967q22 0 27 -8t5 -33v-146zM1047 690q0 -25 -5.5 -33t-27.5 -8h-799q-22 0 -27.5 8t-5.5 33v133q0 25 5.5 32t27.5 7h799q22 0 27.5 -7t5.5 -32v-133zM1151 39 q0 -23 -5.5 -31t-27.5 -8h-1001q-22 0 -28.5 8.5t-6.5 30.5v149q0 24 6.5 32.5t28.5 8.5h1001q22 0 27.5 -8t5.5 -33v-149z" />
<glyph unicode="&#x39f;" horiz-adv-x="1472" d="M1360 723q0 -361 -158.5 -553.5t-472.5 -192.5q-307 0 -461.5 187t-154.5 551q0 172 46 312t128 234t196.5 144.5t251.5 50.5q305 0 465 -193t160 -540zM1102 715q0 87 -9 158.5t-34 140t-64.5 115t-104.5 74.5t-151 28q-92 0 -164 -40t-116 -110t-67 -160.5t-23 -195.5 q0 -99 11 -176.5t37 -143.5t67.5 -110t104.5 -68t146 -24q82 0 146 28t105 75t67.5 114t37.5 139t11 156z" />
<glyph unicode="&#x3a0;" horiz-adv-x="1443" d="M1290 35q0 -22 -8.5 -28.5t-32.5 -6.5h-170q-22 0 -30.5 6.5t-8.5 28.5v1179h-634v-1179q0 -22 -8.5 -28.5t-32.5 -6.5h-172q-22 0 -30.5 6.5t-8.5 28.5v1261q0 140 131 140h874q131 0 131 -140v-1261z" />
<glyph unicode="&#x3a1;" horiz-adv-x="1280" d="M401 43q0 -29 -8.5 -36t-38.5 -7h-153q-25 0 -36 9t-11 34v1278q0 60 25.5 88.5t88.5 28.5h488q204 0 332.5 -122.5t128.5 -316.5q0 -34 -5 -70.5t-19 -82t-36.5 -86.5t-60 -80.5t-86.5 -68.5t-119.5 -46.5t-155.5 -17.5h-334v-504zM958 983q0 39 -11.5 76t-37.5 73 t-78 58t-124 22h-304v-454h308q124 0 185.5 61t61.5 164z" />
<glyph unicode="&#x3a3;" horiz-adv-x="1208" d="M1092 1436q22 0 28 -7.5t6 -31.5v-142q0 -22 -6 -29t-28 -7h-707l-4 -13l324 -338q35 -38 50.5 -63t16.5 -53q0 -55 -59 -123l-328 -398l4 -8h739q22 0 28.5 -8.5t6.5 -32.5v-143q0 -24 -6 -31.5t-29 -7.5h-970q-97 0 -97 92v45q0 77 68 152l371 456l-350 381 q-35 35 -47.5 63.5t-12.5 70.5v63q0 63 29.5 88t87.5 25h885z" />
<glyph unicode="&#x3a4;" horiz-adv-x="1150" d="M1124 1253q0 -21 -7 -28.5t-30 -7.5h-389v-1174q0 -29 -8.5 -36t-38.5 -7h-159q-26 0 -37 9t-11 34v1174h-381q-22 0 -28 7t-6 29v142q0 24 6 31.5t28 7.5h1024q23 0 30 -7.5t7 -31.5v-142z" />
<glyph unicode="&#x3a5;" horiz-adv-x="1220" d="M621 776l157 324l154 303q11 20 20.5 26.5t28.5 6.5h199q30 0 18 -29l-459 -854v-516q0 -23 -7.5 -30t-31.5 -7h-170q-21 0 -29.5 7.5t-8.5 29.5v514l-469 854q-6 11 -1 21t21 10h207q22 0 31 -6.5t20 -28.5l160 -314l149 -311h11z" />
<glyph unicode="&#x3a6;" horiz-adv-x="1740" d="M989 35q0 -23 -7.5 -29t-31.5 -6h-172q-24 0 -32.5 6.5t-8.5 28.5v82q-301 29 -462.5 189.5t-161.5 426.5q0 256 170.5 422t453.5 199v45q0 22 8.5 28.5t32.5 6.5h172q24 0 31.5 -6t7.5 -29v-45q309 -29 474 -189.5t165 -429.5q0 -260 -175 -425t-464 -195v-80zM1386 737 q0 81 -22.5 150t-68.5 126.5t-124 94.5t-182 47v-838q101 10 178 47t124.5 94t71 127t23.5 152zM737 1153q-180 -24 -281.5 -141t-101.5 -277q0 -170 95.5 -282t287.5 -136v836z" />
<glyph unicode="&#x3a7;" horiz-adv-x="1206" d="M600 539l-291 -502q-12 -23 -26 -30t-45 -7h-197q-16 0 -20.5 11t2.5 22l438 706l-408 666q-7 11 -2 21t23 10h192q33 0 46.5 -7t25.5 -30l268 -459l266 459q12 23 25.5 30t46.5 7h184q18 0 23 -11.5t-4 -23.5l-402 -658l439 -710q7 -11 1 -22t-22 -11h-200 q-31 0 -45.5 7t-26.5 30z" />
<glyph unicode="&#x3a8;" horiz-adv-x="1673" d="M1554 954q0 -137 -45 -248t-125.5 -185.5t-189 -118.5t-238.5 -54v-309q0 -25 -7 -32t-31 -7h-173q-23 0 -30.5 7t-7.5 30v311q-283 20 -434.5 175.5t-151.5 434.5v441q0 22 8.5 28.5t30.5 6.5h172q24 0 31.5 -6t7.5 -29v-469q0 -159 82.5 -255t253.5 -108v828 q0 23 7.5 31t30.5 8h173q23 0 30.5 -7t7.5 -30v-830q168 17 258.5 108t90.5 249v475q0 22 8 28.5t30 6.5h170q24 0 32.5 -6.5t8.5 -28.5v-445z" />
<glyph unicode="&#x3a9;" horiz-adv-x="1546" d="M135 739q0 208 79.5 370.5t225.5 254.5t336 92q295 0 465 -196.5t170 -520.5q0 -148 -48 -283.5t-149 -234.5l5 -6h194q21 0 29 -8.5t8 -32.5v-133q0 -24 -8 -32.5t-31 -8.5h-414q-56 0 -82 23t-26 79v45q0 41 16.5 65.5t65.5 66.5q186 153 186 456q0 229 -98 362.5 t-285 133.5q-179 0 -281 -135.5t-102 -360.5q0 -141 42 -251t145 -197q56 -46 71 -69t15 -64v-45q0 -54 -27 -81.5t-76 -27.5h-434q-41 0 -41 41v133q0 24 9 32.5t30 8.5h194l7 6q-191 162 -191 518z" />
<glyph unicode="&#x3aa;" horiz-adv-x="606" d="M430 43q0 -28 -9.5 -35.5t-39.5 -7.5h-156q-26 0 -36.5 9t-10.5 34v1348q0 25 10.5 34t36.5 9h156q30 0 39.5 -7.5t9.5 -35.5v-1348zM639 1667q0 -51 -39.5 -91t-93.5 -40q-53 0 -94 40.5t-41 90.5q0 53 40.5 93t94.5 40t93.5 -39.5t39.5 -93.5zM246 1667 q0 -51 -40.5 -91t-94.5 -40t-94 40t-40 91q0 54 40 93.5t94 39.5t94.5 -39.5t40.5 -93.5z" />
<glyph unicode="&#x3ab;" horiz-adv-x="1220" d="M621 776l157 324l154 303q11 20 20.5 26.5t28.5 6.5h199q30 0 18 -29l-459 -854v-516q0 -23 -7.5 -30t-31.5 -7h-170q-21 0 -29.5 7.5t-8.5 29.5v514l-469 854q-6 11 -1 21t21 10h207q22 0 31 -6.5t20 -28.5l160 -314l149 -311h11zM946 1632q0 -52 -40 -91.5t-93 -39.5 t-94 40.5t-41 90.5q0 53 40.5 93t94.5 40t93.5 -39.5t39.5 -93.5zM553 1632q0 -51 -40.5 -91t-94.5 -40t-93.5 39.5t-39.5 91.5q0 54 39.5 93.5t93.5 39.5t94.5 -39.5t40.5 -93.5z" />
<glyph unicode="&#x3ac;" horiz-adv-x="1183" d="M584 -23q-133 0 -229 38t-153 111t-83.5 170t-26.5 224q0 95 17 177.5t57 157.5t100.5 128t152 84t206.5 31q193 0 374 -47q34 -10 43 -23.5t9 -40.5v-897q0 -30 -27 -39q-95 -40 -217.5 -57t-222.5 -17zM621 895q-130 0 -205.5 -90t-75.5 -281q0 -184 68 -264t208 -80 q44 0 102 8t93 21v663q-87 23 -190 23zM539 1210q-16 6 -19 15t4 26l138 336q8 19 15.5 23t27.5 0l178 -47q33 -9 14 -35l-229 -328q-11 -18 -20.5 -21t-26.5 3z" />
<glyph unicode="&#x3ad;" horiz-adv-x="968" d="M578 475q-114 -5 -179.5 -47t-64.5 -119q0 -58 51.5 -98.5t161.5 -40.5q61 0 140 20.5t132 47.5q24 9 32 5.5t15 -18.5l47 -110q18 -30 -10 -49q-82 -45 -188 -67t-193 -22q-203 0 -315 79.5t-113 226.5q0 92 56.5 172t138.5 102v6q-87 22 -130.5 82t-45.5 139 q0 137 105.5 226.5t299.5 89.5q195 0 338 -76q32 -14 14 -51l-49 -113q-7 -15 -14 -18t-31 6q-138 49 -239 49q-92 0 -138.5 -36.5t-46.5 -82.5q0 -68 51 -93.5t172 -37.5q41 -2 59.5 -14t18.5 -45v-49q0 -60 -75 -64zM403 1210q-16 6 -18.5 15t4.5 26l137 336q8 19 15.5 23 t27.5 0l179 -47q33 -9 14 -35l-230 -328q-11 -18 -20.5 -21t-26.5 3z" />
<glyph unicode="&#x3ae;" horiz-adv-x="1196" d="M532 895q-98 0 -161 -12v-848q0 -23 -7.5 -29t-31.5 -6h-160q-22 0 -30.5 6.5t-8.5 28.5v876q0 74 33 116t104 54q174 19 269 19q275 0 399.5 -122t124.5 -403v-540q0 -23 -7.5 -29t-31.5 -6h-162q-22 0 -30.5 6.5t-8.5 28.5v545q0 167 -62.5 241t-228.5 74zM475 1210 q-16 6 -18.5 15t4.5 26l137 336q8 19 15.5 23t27.5 0l178 -47q34 -9 15 -35l-230 -328q-11 -18 -20.5 -21t-26.5 3z" />
<glyph unicode="&#x3af;" horiz-adv-x="612" d="M580 41q1 -8 1 -14t-5.5 -11t-18.5 -10q-72 -29 -190 -29q-56 0 -95.5 14t-63 36.5t-37 61t-17.5 78.5t-4 97v776q0 22 7.5 28.5t28.5 6.5h166q20 0 27.5 -6.5t7.5 -28.5v-764q0 -55 15.5 -73.5t58.5 -18.5q21 0 71 4q18 2 24 -1.5t7 -20.5zM201 1210q-16 6 -19 15t4 26 l138 336q8 19 15.5 23t27.5 0l178 -47q33 -9 14 -35l-229 -328q-11 -18 -20.5 -21t-26.5 3z" />
<glyph unicode="&#x3b0;" horiz-adv-x="1208" d="M371 414q0 -242 227 -242q123 0 181.5 66t58.5 178v624q0 22 8.5 28.5t32.5 6.5h157q24 0 31.5 -6t7.5 -29v-579q0 -241 -121.5 -362.5t-341.5 -121.5q-244 0 -361.5 115t-117.5 346v602q0 23 7.5 29t31.5 6h160q24 0 31.5 -6t7.5 -29v-626zM1061 1368q0 -54 -41.5 -94.5 t-97.5 -40.5q-57 0 -98.5 40.5t-41.5 94.5q0 57 41.5 98t98.5 41t98 -40t41 -99zM627 1194q-11 -20 -19 -24.5t-26 -0.5l-74 21q-14 4 -19 6.5t-10 11.5t0 23l84 346q4 10 6.5 14t11.5 8t23 3l180 -25q30 -6 21 -33zM469 1368q0 -54 -41.5 -94.5t-95.5 -40.5 q-59 0 -100.5 40t-41.5 95q0 57 41 98t101 41q55 0 96 -40t41 -99z" />
<glyph unicode="&#x3b1;" horiz-adv-x="1183" d="M584 -23q-133 0 -229 38t-153 111t-83.5 170t-26.5 224q0 95 17 177.5t57 157.5t100.5 128t152 84t206.5 31q193 0 374 -47q34 -10 43 -23.5t9 -40.5v-897q0 -30 -27 -39q-95 -40 -217.5 -57t-222.5 -17zM621 895q-130 0 -205.5 -90t-75.5 -281q0 -184 68 -264t208 -80 q44 0 102 8t93 21v663q-87 23 -190 23z" />
<glyph unicode="&#x3b2;" horiz-adv-x="1181" d="M844 840q115 -31 180.5 -135.5t65.5 -239.5q0 -227 -139.5 -357.5t-381.5 -130.5q-103 0 -213 18t-182 52q-27 13 -34 26t-7 42v907q0 226 118.5 354.5t323.5 128.5q109 0 194.5 -30.5t136.5 -83.5t77.5 -119t26.5 -142q0 -46 -14.5 -96.5t-54 -104.5t-97.5 -81v-8z M844 457q0 55 -11.5 99t-38.5 83.5t-78.5 63.5t-125.5 30q-44 5 -61 19.5t-17 54.5v33q0 67 70 73q190 21 190 201q0 77 -48.5 136t-145.5 59q-56 0 -97.5 -22t-64 -59t-33 -78.5t-10.5 -88.5v-854q79 -29 209 -29q126 0 194 76t68 203z" />
<glyph unicode="&#x3b3;" horiz-adv-x="1071" d="M664 -377q0 -23 -8.5 -30t-32.5 -7h-158q-24 0 -32.5 7t-8.5 30v371l-293 860q-2 4 -5 12t-4.5 10.5l-4.5 7.5t-6.5 6t-9 3t-12.5 1.5t-17 -1.5q-18 -3 -27.5 -0.5t-13.5 18.5l-21 109q-4 19 1 27t24 16q79 33 147 33q71 0 97.5 -28t54.5 -107l112 -357l95 -317h8 l104 327l142 422q7 23 17.5 31t31.5 8h176q35 0 20 -35l-376 -1042v-375z" />
<glyph unicode="&#x3b4;" horiz-adv-x="1177" d="M334 500q0 -148 62.5 -237t191.5 -89q127 0 192.5 92.5t65.5 227.5q0 57 -12.5 109t-40.5 103.5t-80.5 92.5t-124.5 65q-111 -24 -182.5 -134t-71.5 -230zM604 1507q184 0 336 -63q32 -14 18 -47l-45 -119q-5 -17 -16.5 -18.5t-24.5 4.5q-133 49 -268 49q-64 0 -97.5 -31 t-33.5 -74q0 -19 6.5 -35.5t23 -32t29.5 -26.5t40.5 -25t39.5 -20t44.5 -20t39.5 -17q55 -23 105.5 -53.5t103 -79t91 -105t63 -135t24.5 -165.5q0 -231 -132 -374t-369 -143q-233 0 -361.5 132t-128.5 362q0 153 74 291t205 205v4q-68 44 -100.5 97.5t-32.5 129.5 q0 139 95.5 224t270.5 85z" />
<glyph unicode="&#x3b5;" horiz-adv-x="968" d="M578 475q-114 -5 -179.5 -47t-64.5 -119q0 -58 51.5 -98.5t161.5 -40.5q61 0 140 20.5t132 47.5q24 9 32 5.5t15 -18.5l47 -110q18 -30 -10 -49q-82 -45 -188 -67t-193 -22q-203 0 -315 79.5t-113 226.5q0 92 56.5 172t138.5 102v6q-87 22 -130.5 82t-45.5 139 q0 137 105.5 226.5t299.5 89.5q195 0 338 -76q32 -14 14 -51l-49 -113q-7 -15 -14 -18t-31 6q-138 49 -239 49q-92 0 -138.5 -36.5t-46.5 -82.5q0 -68 51 -93.5t172 -37.5q41 -2 59.5 -14t18.5 -45v-49q0 -60 -75 -64z" />
<glyph unicode="&#x3b6;" horiz-adv-x="940" d="M336 467q0 -77 47 -115t178 -88q161 -64 243 -111.5t107 -83t25 -85.5q0 -125 -215 -326q-15 -14 -24.5 -16t-28.5 8l-90 69q-14 11 -14.5 19.5t9.5 25.5q8 11 39 49t51.5 68t20.5 45q0 28 -43 57.5t-149 69.5q-226 88 -315 170t-89 213q0 168 165.5 389t461.5 455l-4 8 h-514q-23 0 -30 7t-7 28v123q0 19 7.5 27t29.5 8h706q53 0 75.5 -21t22.5 -69v-45q0 -73 -47 -111q-291 -242 -454.5 -449.5t-163.5 -318.5z" />
<glyph unicode="&#x3b7;" horiz-adv-x="1196" d="M532 895q-98 0 -161 -12v-848q0 -23 -7.5 -29t-31.5 -6h-160q-22 0 -30.5 6.5t-8.5 28.5v876q0 74 33 116t104 54q174 19 269 19q275 0 399.5 -122t124.5 -403v-540q0 -23 -7.5 -29t-31.5 -6h-162q-22 0 -30.5 6.5t-8.5 28.5v545q0 167 -62.5 241t-228.5 74z" />
<glyph unicode="&#x3b8;" horiz-adv-x="1177" d="M1085 745q0 -387 -125 -577.5t-376 -190.5q-253 0 -372.5 185.5t-119.5 580.5q0 378 126.5 567t367.5 189q499 0 499 -754zM326 676q5 -263 65 -384.5t197 -121.5q257 0 260 506h-522zM586 1303q-122 0 -187.5 -118t-70.5 -321h520q-5 209 -70 324t-192 115z" />
<glyph unicode="&#x3b9;" horiz-adv-x="612" d="M580 41q1 -8 1 -14t-5.5 -11t-18.5 -10q-72 -29 -190 -29q-56 0 -95.5 14t-63 36.5t-37 61t-17.5 78.5t-4 97v776q0 22 7.5 28.5t28.5 6.5h166q20 0 27.5 -6.5t7.5 -28.5v-764q0 -55 15.5 -73.5t58.5 -18.5q21 0 71 4q18 2 24 -1.5t7 -20.5z" />
<glyph unicode="&#x3ba;" horiz-adv-x="1060" d="M379 631l344 422l2 2q11 12 20 16t29 4h209q17 0 21 -11.5t-7 -21.5l-323 -380l364 -633q7 -11 1 -20t-23 -9h-191q-23 0 -33 5t-20 22q-107 199 -254 456l-149 -178v-270q0 -22 -8.5 -28.5t-32.5 -6.5h-158q-22 0 -30.5 6.5t-8.5 28.5v1005q0 22 8.5 28.5t30.5 6.5h160 q24 0 31.5 -6t7.5 -29v-405z" />
<glyph unicode="&#x3bb;" horiz-adv-x="1167" d="M1040 35q0 -22 -8.5 -28.5t-30.5 -6.5h-159q-24 0 -32.5 6.5t-8.5 28.5v686q-92 29 -197 29q-136 0 -195 -65.5t-59 -203.5v-446q0 -23 -7.5 -29t-31.5 -6h-159q-24 0 -32.5 6.5t-8.5 28.5v463q0 213 115 335.5t341 122.5q131 0 236 -30v69q0 142 -93 218.5t-315 105.5 q-17 4 -21.5 9.5t-2.5 19.5l26 153q6 26 37 23q305 -30 455.5 -163t150.5 -409v-917z" />
<glyph unicode="&#x3bd;" horiz-adv-x="1075" d="M725 90q-20 -60 -45.5 -80t-79.5 -20h-115q-48 0 -74.5 19t-48.5 81l-331 957q-9 28 22 28h185q23 0 31 -4.5t12 -21.5l157 -486l101 -348h12l100 346l152 486q5 18 11.5 23t29.5 5h180q29 0 20 -26z" />
<glyph unicode="&#x3be;" horiz-adv-x="884" d="M315 786q-202 82 -202 308q0 181 125.5 292t339.5 111q192 0 337 -74q34 -18 17 -51l-45 -115q-7 -15 -14 -18t-31 6q-132 51 -256 51q-111 0 -175.5 -54.5t-64.5 -156.5q0 -42 10 -73t33.5 -52t49.5 -34t71 -21t85 -11.5t103 -6.5q44 -5 66 -22t22 -54v-43 q0 -71 -84 -74q-190 -8 -285 -68.5t-95 -203.5q0 -29 9 -55.5t23 -47t38.5 -39.5t47.5 -33t58 -29.5t62 -25.5t67 -24q74 -27 125.5 -51t94.5 -54t64.5 -66t22.5 -79q0 -70 -53 -152t-144 -165q-17 -17 -27.5 -19t-27.5 8l-94 76q-28 15 -6 43q5 7 34.5 45t44.5 62.5 t15 40.5q0 64 -172 123q-43 16 -68.5 26t-66.5 28t-66 32t-59 36.5t-54.5 43.5t-44 50.5t-36 61t-21 71t-8.5 83.5q0 109 63.5 218t171.5 148v8z" />
<glyph unicode="&#x3bf;" horiz-adv-x="1177" d="M1085 543q0 -274 -126.5 -420t-374.5 -146q-246 0 -369 141.5t-123 418.5q0 264 137 413.5t361 149.5q241 0 368 -147t127 -410zM842 537q0 62 -6.5 113.5t-24 99t-45 79.5t-71.5 51t-101 19q-127 0 -193.5 -98.5t-66.5 -257.5q0 -179 58.5 -272t193.5 -93q69 0 120 29 t80 80.5t42.5 113.5t13.5 136z" />
<glyph unicode="&#x3c0;" horiz-adv-x="1212" d="M1079 35q0 -22 -8.5 -28.5t-32.5 -6.5h-159q-22 0 -30.5 6.5t-8.5 28.5v839h-469v-839q0 -23 -7.5 -29t-31.5 -6h-160q-22 0 -30.5 6.5t-8.5 28.5v942q0 42 22.5 70t77.5 28h744q55 0 78.5 -28.5t23.5 -69.5v-942z" />
<glyph unicode="&#x3c1;" horiz-adv-x="1206" d="M1114 537q0 -118 -32 -219t-93.5 -177.5t-157.5 -120t-217 -43.5q-151 0 -243 31l-2 -385q0 -24 -7.5 -31.5t-31.5 -7.5h-160q-23 0 -31 8t-8 31v979q0 126 36.5 222.5t102 155.5t150.5 88.5t188 29.5q248 0 377 -147.5t129 -413.5zM864 541q0 356 -268 356 q-112 0 -168.5 -72.5t-56.5 -193.5v-418q79 -29 198 -29q295 0 295 357z" />
<glyph unicode="&#x3c2;" horiz-adv-x="993" d="M698 -338q-19 -15 -27.5 -17t-27.5 9l-94 76q-24 18 -6 43q3 4 33 42t45.5 62.5t15.5 38.5q0 27 -32.5 46.5t-135.5 62.5q-215 89 -296 202t-81 322q0 250 135.5 400.5t364.5 150.5q176 0 313 -70q19 -11 22.5 -20.5t-5.5 -30.5l-52 -123q-8 -18 -18 -21t-33 7 q-129 47 -219 45q-132 -4 -198 -99t-66 -241q0 -127 45 -192t170 -117q214 -91 280 -139.5t66 -114.5q0 -137 -199 -322z" />
<glyph unicode="&#x3c3;" horiz-adv-x="1226" d="M1145 1075q22 0 28.5 -8t6.5 -27v-129q0 -20 -6.5 -27t-28.5 -7h-164l-6 -9q112 -124 112 -342q0 -259 -132 -404t-371 -145q-246 0 -369 142t-123 405q0 262 140 406.5t366 144.5h547zM844 528q0 353 -254 353q-121 0 -188.5 -92.5t-67.5 -253.5q0 -179 61.5 -269 t198.5 -90q123 0 186.5 95.5t63.5 256.5z" />
<glyph unicode="&#x3c4;" horiz-adv-x="878" d="M508 877v-574q0 -64 29 -90.5t94 -26.5q53 0 155 15q18 4 24.5 -0.5t8.5 -18.5l23 -135q4 -11 1.5 -21.5t-20.5 -17.5q-90 -31 -248 -31q-163 0 -235 70.5t-72 220.5v609h-205q-21 0 -26.5 8t-5.5 28v123q0 15 1.5 22t8.5 12t22 5h703q22 0 27.5 -7.5t5.5 -27.5v-127 q0 -21 -5.5 -28.5t-27.5 -7.5h-258z" />
<glyph unicode="&#x3c5;" horiz-adv-x="1208" d="M371 414q0 -242 227 -242q123 0 181.5 66t58.5 178v624q0 22 8.5 28.5t32.5 6.5h157q24 0 31.5 -6t7.5 -29v-579q0 -241 -121.5 -362.5t-341.5 -121.5q-244 0 -361.5 115t-117.5 346v602q0 23 7.5 29t31.5 6h160q24 0 31.5 -6t7.5 -29v-626z" />
<glyph unicode="&#x3c6;" horiz-adv-x="1509" d="M92 539q0 103 29 194t78 155.5t106 109t119 67.5q16 7 26.5 5.5t20.5 -17.5l70 -117q8 -18 3 -27.5t-24 -21.5q-190 -113 -190 -352q0 -97 28 -171t96.5 -125.5t174.5 -62.5v737q0 147 135 168q111 15 168 15q103 0 184.5 -26.5t137.5 -74t93 -115.5t53.5 -148t16.5 -175 q0 -247 -146 -405t-401 -175v-354q0 -23 -7 -30t-32 -7h-161q-24 0 -32.5 7t-8.5 30v352q-265 17 -401 167.5t-136 396.5zM1180 549q0 178 -63.5 259t-203.5 81q-25 0 -43 -2v-711q158 16 234 116t76 257z" />
<glyph unicode="&#x3c7;" horiz-adv-x="1019" d="M506 401l-221 -366q-21 -35 -62 -35h-182q-20 0 -23.5 9.5t7.5 29.5l350 528l-309 473q-8 10 -4.5 22.5t20.5 12.5h190q24 0 36.5 -6.5t23.5 -24.5l180 -313l186 313q11 18 23 24.5t35 6.5h184q21 0 24.5 -11.5t-3.5 -19.5l-318 -469l354 -538q10 -12 6.5 -24.5 t-24.5 -12.5h-195q-27 0 -38 7.5t-23 27.5z" />
<glyph unicode="&#x3c8;" horiz-adv-x="1525" d="M883 182q280 31 280 324v532q0 23 7.5 30t31.5 7h162q24 0 31.5 -7t7.5 -30v-528q0 -242 -132 -376.5t-388 -153.5v-359q0 -23 -8.5 -30t-32.5 -7h-158q-21 0 -30 7.5t-9 29.5v359q-275 28 -397.5 162t-122.5 376v520q0 22 9 29.5t30 7.5h160q23 0 30.5 -7t7.5 -30v-518 q0 -66 15 -121.5t47 -101.5t88 -75.5t133 -37.5v854q0 22 9 29.5t30 7.5h158q24 0 32.5 -7t8.5 -30v-856z" />
<glyph unicode="&#x3c9;" horiz-adv-x="1667" d="M948 375q0 -95 48.5 -146t131.5 -51q102 0 154.5 93t52.5 257q0 255 -184 363q-26 17 -29 25t8 28l64 119q8 14 15 17t24 -1q165 -54 253.5 -198t88.5 -363q0 -134 -34 -239t-93 -170t-135 -98.5t-164 -33.5q-114 0 -189 36.5t-124 125.5h-11q-101 -162 -313 -162 q-199 0 -309.5 130.5t-110.5 400.5q0 217 88.5 369t251.5 202q29 10 39 -16l57 -127q7 -19 2 -28.5t-24 -20.5q-91 -50 -133.5 -142t-42.5 -233q0 -90 20.5 -163t68.5 -122t118 -49q81 0 129.5 52.5t48.5 144.5v311q0 23 8.5 30t32.5 7h153q24 0 31.5 -7t7.5 -30v-311z" />
<glyph unicode="&#x3ca;" horiz-adv-x="612" d="M612 1368q0 -52 -40 -91.5t-93 -39.5t-94 40.5t-41 90.5q0 53 40.5 93t94.5 40t93.5 -39.5t39.5 -93.5zM219 1368q0 -51 -40.5 -91t-94.5 -40t-93.5 39.5t-39.5 91.5q0 54 39.5 93.5t93.5 39.5t94.5 -39.5t40.5 -93.5zM580 41q1 -8 1 -14t-5.5 -11t-18.5 -10 q-72 -29 -190 -29q-56 0 -95.5 14t-63 36.5t-37 61t-17.5 78.5t-4 97v776q0 22 7.5 28.5t28.5 6.5h166q20 0 27.5 -6.5t7.5 -28.5v-764q0 -55 15.5 -73.5t58.5 -18.5q21 0 71 4q18 2 24 -1.5t7 -20.5z" />
<glyph unicode="&#x3cb;" horiz-adv-x="1208" d="M940 1368q0 -52 -40 -91.5t-93 -39.5t-94 40.5t-41 90.5q0 53 40.5 93t94.5 40t93.5 -39.5t39.5 -93.5zM547 1368q0 -51 -40.5 -91t-94.5 -40t-93.5 39.5t-39.5 91.5q0 54 39.5 93.5t93.5 39.5t94.5 -39.5t40.5 -93.5zM371 414q0 -242 227 -242q123 0 181.5 66t58.5 178 v624q0 22 8.5 28.5t32.5 6.5h157q24 0 31.5 -6t7.5 -29v-579q0 -241 -121.5 -362.5t-341.5 -121.5q-244 0 -361.5 115t-117.5 346v602q0 23 7.5 29t31.5 6h160q24 0 31.5 -6t7.5 -29v-626z" />
<glyph unicode="&#x3cc;" horiz-adv-x="1177" d="M1085 543q0 -274 -126.5 -420t-374.5 -146q-246 0 -369 141.5t-123 418.5q0 264 137 413.5t361 149.5q241 0 368 -147t127 -410zM842 537q0 62 -6.5 113.5t-24 99t-45 79.5t-71.5 51t-101 19q-127 0 -193.5 -98.5t-66.5 -257.5q0 -179 58.5 -272t193.5 -93q69 0 120 29 t80 80.5t42.5 113.5t13.5 136zM530 1210q-16 6 -18.5 15t4.5 26l137 336q8 19 15.5 23t27.5 0l178 -47q34 -9 15 -35l-230 -328q-11 -18 -20.5 -21t-26.5 3z" />
<glyph unicode="&#x3cd;" horiz-adv-x="1208" d="M371 414q0 -242 227 -242q123 0 181.5 66t58.5 178v624q0 22 8.5 28.5t32.5 6.5h157q24 0 31.5 -6t7.5 -29v-579q0 -241 -121.5 -362.5t-341.5 -121.5q-244 0 -361.5 115t-117.5 346v602q0 23 7.5 29t31.5 6h160q24 0 31.5 -6t7.5 -29v-626zM535 1210q-16 6 -19 15t4 26 l137 336q8 19 15.5 23t27.5 0l179 -47q33 -9 14 -35l-229 -328q-11 -18 -21 -21t-27 3z" />
<glyph unicode="&#x3ce;" horiz-adv-x="1667" d="M948 375q0 -95 48.5 -146t131.5 -51q102 0 154.5 93t52.5 257q0 255 -184 363q-26 17 -29 25t8 28l64 119q8 14 15 17t24 -1q165 -54 253.5 -198t88.5 -363q0 -134 -34 -239t-93 -170t-135 -98.5t-164 -33.5q-114 0 -189 36.5t-124 125.5h-11q-101 -162 -313 -162 q-199 0 -309.5 130.5t-110.5 400.5q0 217 88.5 369t251.5 202q29 10 39 -16l57 -127q7 -19 2 -28.5t-24 -20.5q-91 -50 -133.5 -142t-42.5 -233q0 -90 20.5 -163t68.5 -122t118 -49q81 0 129.5 52.5t48.5 144.5v311q0 23 8.5 30t32.5 7h153q24 0 31.5 -7t7.5 -30v-311z M754 1202q-16 6 -19 15t4 26l138 336q8 19 15.5 23t27.5 0l178 -48q32 -8 14 -34l-229 -328q-11 -18 -20.5 -21t-26.5 3z" />
<glyph unicode="&#x401;" horiz-adv-x="1224" d="M1145 47q0 -25 -9 -36t-34 -11h-584q-103 0 -177 30t-113.5 84t-56.5 115.5t-17 137.5v700q0 74 20.5 138t62 117t114 83.5t167.5 30.5h572q25 0 32.5 -10t7.5 -37v-129q0 -27 -7.5 -36.5t-32.5 -9.5h-545q-76 0 -109 -33.5t-33 -101.5v-215h619q26 0 33.5 -9.5 t7.5 -39.5v-113q0 -26 -8 -36.5t-33 -10.5h-619v-299q0 -133 142 -133h557q28 0 35.5 -9.5t7.5 -39.5v-127zM1016 1667q0 -51 -40 -91t-93 -40t-94 40.5t-41 90.5q0 53 40.5 93t94.5 40t93.5 -39.5t39.5 -93.5zM623 1667q0 -51 -41 -91t-95 -40q-53 0 -93 40t-40 91 q0 54 39.5 93.5t93.5 39.5t95 -39.5t41 -93.5z" />
<glyph unicode="&#x402;" horiz-adv-x="1626" d="M690 905q179 51 348 51q232 0 365 -131t133 -370q0 -71 -14.5 -144.5t-47.5 -156t-98.5 -161t-156.5 -136.5q-17 -11 -28 -10.5t-22 16.5l-88 114q-13 25 9 41q202 147 202 433q0 145 -81.5 222t-219.5 77q-144 0 -301 -54v-661q0 -23 -6.5 -29t-30.5 -6h-178 q-22 0 -30.5 6.5t-8.5 28.5v1179h-373q-22 0 -28 7.5t-6 31.5v142q0 24 6 31.5t28 7.5h1129q23 0 29 -7.5t6 -31.5v-142q0 -21 -6.5 -28.5t-28.5 -7.5l-502 -3v-309z" />
<glyph unicode="&#x403;" horiz-adv-x="1144" d="M403 43q0 -29 -8.5 -36t-38.5 -7h-155q-25 0 -36 9t-11 34v1024q0 60 11 111.5t37 100t67 82.5t104.5 54.5t144.5 20.5h563q28 0 35.5 -10t7.5 -37v-127q0 -27 -8.5 -37.5t-34.5 -10.5h-536q-76 0 -109 -32.5t-33 -100.5v-1038zM506 1599q-11 11 -10.5 19.5t16.5 21.5 l307 236q15 12 24 12t23 -16l113 -141q21 -24 -4 -37l-373 -181q-11 -7 -20 -5.5t-19 12.5z" />
<glyph unicode="&#x404;" horiz-adv-x="1269" d="M778 209q136 0 316 70q30 9 40 4t17 -25l53 -117q13 -30 10.5 -40t-20.5 -21q-175 -103 -453 -103q-311 0 -469.5 185.5t-158.5 548.5q0 222 80.5 391t227 260.5t337.5 91.5q228 0 387 -86q18 -8 21.5 -18.5t-7.5 -40.5l-57 -119q-8 -22 -15.5 -26.5t-31.5 3.5 q-149 58 -287 58q-162 0 -262 -104t-121 -271h537q23 0 28.5 -6.5t5.5 -30.5v-133q0 -24 -5.5 -30.5t-28.5 -6.5h-547q10 -434 403 -434z" />
<glyph unicode="&#x405;" horiz-adv-x="1200" d="M127 1067q0 178 118.5 284.5t344.5 106.5q113 0 235.5 -23t214.5 -63q18 -11 21 -18.5t-4 -28.5l-49 -139q-7 -22 -14.5 -25.5t-24.5 2.5q-204 70 -383 70q-100 0 -151.5 -42t-51.5 -106q0 -71 69.5 -121t243.5 -118q64 -27 99 -42.5t89.5 -43.5t85 -50.5t67.5 -57.5 t56 -70.5t32.5 -83.5t13.5 -103q0 -104 -39.5 -185t-109.5 -131.5t-162.5 -76t-202.5 -25.5q-321 0 -533 115q-27 12 -12 49l61 140q15 30 45 18q229 -96 408 -96q147 0 216 50.5t69 135.5q0 82 -63 132.5t-220 111.5q-121 47 -200 87t-144 91.5t-95 114t-30 141.5z" />
<glyph unicode="&#x406;" horiz-adv-x="606" d="M430 43q0 -28 -9.5 -35.5t-39.5 -7.5h-156q-26 0 -36.5 9t-10.5 34v1348q0 25 10.5 34t36.5 9h156q30 0 39.5 -7.5t9.5 -35.5v-1348z" />
<glyph unicode="&#x407;" horiz-adv-x="606" d="M430 43q0 -28 -9.5 -35.5t-39.5 -7.5h-156q-26 0 -36.5 9t-10.5 34v1348q0 25 10.5 34t36.5 9h156q30 0 39.5 -7.5t9.5 -35.5v-1348zM631 1667q0 -51 -39.5 -91t-93.5 -40q-53 0 -94.5 40.5t-41.5 90.5q0 53 41 93t95 40t93.5 -39.5t39.5 -93.5zM238 1667q0 -51 -41 -91 t-95 -40t-93.5 40t-39.5 91q0 54 39.5 93.5t93.5 39.5t95 -39.5t41 -93.5z" />
<glyph unicode="&#x408;" horiz-adv-x="1179" d="M471 -23q-103 0 -224.5 25.5t-211.5 77.5q-18 11 -20.5 18.5t8.5 34.5l61 131q7 16 19 18t30 -6q160 -73 332 -73q168 0 236.5 95t68.5 288l-2 805q0 27 10.5 35t36.5 8h158q28 0 37.5 -7.5t9.5 -35.5q0 -206 -1 -463t-1 -369q0 -582 -547 -582z" />
<glyph unicode="&#x409;" horiz-adv-x="2076" d="M561 1036q-27 -385 -48 -520q-40 -260 -140 -386q-90 -115 -256 -165q-44 -10 -56 29l-43 121q-6 18 -1.5 30.5t26.5 22.5q155 67 198.5 212t76.5 584q3 33 4 50l20 284q4 73 35.5 105.5t95.5 32.5h557q131 0 131 -140v-395h336q96 0 174 -18t129.5 -46.5t90.5 -69.5 t59.5 -80.5t33 -87t16 -82t3.5 -71.5q0 -190 -140 -318t-341 -128h-498q-65 0 -90 27t-25 90v1097h-336zM1745 459q0 102 -64 166.5t-182 64.5h-338v-465h334q70 0 121.5 23t78 60t38.5 75t12 76z" />
<glyph unicode="&#x40a;" horiz-adv-x="2125" d="M1073 0q-65 0 -90 27t-25 90v555h-550v-637q0 -23 -7.5 -29t-31.5 -6h-176q-22 0 -30.5 6.5t-8.5 28.5v1364q0 22 8.5 28.5t30.5 6.5h176q24 0 31.5 -6t7.5 -29v-518h550v520q0 22 8.5 28.5t30.5 6.5h174q24 0 31.5 -6t7.5 -29v-518h336q96 0 174.5 -17.5t130 -45 t90.5 -67.5t59.5 -78.5t32.5 -85.5t15.5 -80.5t3.5 -70.5q0 -126 -64.5 -227t-174.5 -156t-242 -55h-498zM1794 453q0 101 -63.5 161t-182.5 60h-338v-449h334q70 0 121.5 22t78 58t38.5 73t12 75z" />
<glyph unicode="&#x40b;" horiz-adv-x="1619" d="M1217 1253q0 -21 -6.5 -28.5t-28.5 -7.5h-492v-314q174 51 344 51q236 0 354.5 -121t118.5 -352v-440q0 -25 -9.5 -33t-33.5 -8h-159q-24 0 -34.5 8.5t-10.5 32.5v426q0 283 -281 283q-126 0 -289 -56v-659q0 -23 -6.5 -29t-30.5 -6h-176q-22 0 -30.5 6.5t-8.5 28.5v1182 h-375q-22 0 -28 7t-6 29v142q0 24 6 31.5t28 7.5h1119q23 0 29 -7.5t6 -31.5v-142z" />
<glyph unicode="&#x40c;" horiz-adv-x="1318" d="M928 766q42 -14 73.5 -33.5t51.5 -39.5t36 -50.5t25.5 -57.5t20.5 -69l127 -475q7 -11 0.5 -26t-29.5 -15h-180q-32 0 -41 29l-123 448q-30 106 -88.5 144t-169.5 38h-232l2 -626q0 -22 -7 -27.5t-29 -5.5h-175q-21 0 -28.5 5.5t-7.5 27.5v1368q0 22 7.5 27.5t28.5 5.5 h177q22 0 29 -5.5t3 -27.5v-533h219q36 0 66.5 6.5t66.5 24.5t64.5 60t44.5 104l90 346q6 29 41 29h168q23 0 29.5 -15t-0.5 -26l-90 -367q-42 -180 -170 -254v-10zM498 1606q-11 11 -10.5 19.5t16.5 21.5l307 235q15 12 24 12t23 -16l113 -141q21 -24 -4 -37l-373 -180 q-23 -12 -39 6z" />
<glyph unicode="&#x40e;" horiz-adv-x="1204" d="M1159 1438q16 0 22 -9t1 -22l-439 -1184q-55 -151 -140.5 -207.5t-235.5 -56.5q-82 0 -174 25q-24 8 -29.5 15t-1.5 24l26 137q3 13 8 18t13.5 5t21.5 -1q83 -10 125 -8q67 2 103 24.5t61 88.5l43 114h-43q-44 0 -66 15t-44 69l-377 920q-11 33 24 33h193q27 0 36.5 -7 t16.5 -28l184 -481l127 -347h15l127 367l166 463q8 20 17 26.5t32 6.5h188zM610 1495q-103 0 -194.5 63.5t-159.5 163.5q-16 21 6 43l57 54q9 8 15.5 10t9.5 1.5t11.5 -8t13.5 -10.5q133 -139 252 -139q51 0 102.5 29.5t150.5 116.5q9 8 15 12t13 2t8 -2.5t10 -7.5l57 -49 q12 -11 15 -20.5t1 -13.5t-8 -11q-181 -234 -375 -234z" />
<glyph unicode="&#x40f;" horiz-adv-x="1443" d="M1288 137q0 -137 -129 -137h-309l-19 -293q0 -37 -30 -37h-148q-18 0 -24 7t-6 30l-17 293h-321q-63 0 -97 34.5t-34 102.5v1262q0 22 8.5 28.5t30.5 6.5h172q24 0 31 -6t7 -29v-1182h635v1182q0 22 8.5 28.5t30.5 6.5h172q24 0 31.5 -6t7.5 -29v-1262z" />
<glyph unicode="&#x410;" horiz-adv-x="1308" d="M913 313h-520l-90 -278q-6 -19 -17.5 -27t-35.5 -8h-189q-43 0 -28 43l442 1296q20 59 46.5 79t84.5 20h88q63 0 90 -19.5t47 -79.5l445 -1296q15 -43 -27 -43h-188q-26 0 -38 5.5t-19 27.5zM455 526h393l-107 344l-86 291h-10l-84 -284z" />
<glyph unicode="&#x411;" horiz-adv-x="1320" d="M268 0q-65 0 -89.5 26t-24.5 89v1179q0 140 131 140h772q22 0 28.5 -8.5t6.5 -32.5v-140q0 -21 -6.5 -28.5t-28.5 -7.5h-651v-318h335q96 0 174 -18t129.5 -46.5t90.5 -69.5t59.5 -80.5t33 -87t16 -82t3.5 -71.5q0 -191 -140 -317.5t-343 -126.5h-496zM987 459 q0 102 -64.5 166.5t-179.5 64.5h-337v-467h333q56 0 100.5 15.5t71.5 40t44.5 57t24.5 63t7 60.5z" />
<glyph unicode="&#x412;" horiz-adv-x="1359" d="M1024 786q111 -43 167 -140t56 -214q0 -190 -138 -311t-341 -121h-500q-64 0 -89 27t-25 90v1202q0 62 25 89.5t89 27.5l475 2q131 0 228 -35.5t156 -117.5t59 -204q0 -90 -45.5 -165t-116.5 -115v-15zM989 449q0 101 -64 162t-182 61h-340v-447h338q69 0 120 21t77.5 56 t38.5 71.5t12 75.5zM403 879h332q26 0 50 4t50.5 16t46 31t32 51t12.5 74q0 73 -48 116t-130 43h-345v-335z" />
<glyph unicode="&#x413;" horiz-adv-x="1144" d="M403 43q0 -29 -8.5 -36t-38.5 -7h-155q-25 0 -36 9t-11 34v1024q0 60 11 111.5t37 100t67 82.5t104.5 54.5t144.5 20.5h563q28 0 35.5 -10t7.5 -37v-127q0 -27 -8.5 -37.5t-34.5 -10.5h-536q-76 0 -109 -32.5t-33 -100.5v-1038z" />
<glyph unicode="&#x414;" horiz-adv-x="1529" d="M276 0l-24 -301q-1 -22 -9 -29.5t-26 -7.5h-135q-31 0 -33 37l-29 420q0 91 74 98l74 6q68 77 95 166.5t50 267.5l84 652q11 64 46 94.5t106 30.5h633q73 0 104 -33.5t31 -104.5v-1077l84 -4q45 -4 58 -24.5t11 -53.5l-26 -438q-1 -23 -8 -30t-25 -7h-137q-17 0 -23.5 7 t-7.5 30l-12 301h-955zM1069 1214h-446l-50 -405q-35 -307 -58.5 -409.5t-70.5 -178.5h625v993z" />
<glyph unicode="&#x415;" horiz-adv-x="1224" d="M1145 47q0 -25 -9 -36t-34 -11h-584q-103 0 -177 30t-113.5 84t-56.5 115.5t-17 137.5v700q0 74 20.5 138t62 117t114 83.5t167.5 30.5h572q25 0 32.5 -10t7.5 -37v-129q0 -27 -7.5 -36.5t-32.5 -9.5h-545q-76 0 -109 -33.5t-33 -101.5v-215h619q26 0 33.5 -9.5 t7.5 -39.5v-113q0 -26 -8 -36.5t-33 -10.5h-619v-299q0 -133 142 -133h557q28 0 35.5 -9.5t7.5 -39.5v-127z" />
<glyph unicode="&#x416;" horiz-adv-x="2019" d="M395 776q-127 72 -170 254l-90 367q-7 11 -0.5 26t29.5 15h168q35 0 41 -29l88 -346q14 -51 35.5 -88t44.5 -57t52 -32t52.5 -15t52.5 -3h189v533q-4 22 3 27.5t30 5.5h176q21 0 29 -5.5t8 -27.5v-533h186q29 0 52.5 3t52.5 15t52 32t44.5 57t35.5 88l91 346q6 29 41 29 h167q23 0 29.5 -15t-0.5 -26l-90 -367q-42 -180 -170 -254v-10q42 -14 73.5 -33.5t51.5 -39.5t36 -50.5t25.5 -57.5t20.5 -69l127 -475q7 -11 0.5 -26t-29.5 -15h-182q-32 0 -41 29l-121 448q-31 107 -86.5 144.5t-167.5 37.5h-198v-626q0 -22 -8 -27.5t-29 -5.5h-174 q-22 0 -29.5 5.5t-7.5 27.5l2 626h-199q-110 0 -169 -38t-87 -144l-119 -448q-9 -29 -41 -29h-182q-23 0 -29.5 15t0.5 26l127 475q15 52 27 83t34.5 66t58 59t87.5 42v10z" />
<glyph unicode="&#x417;" horiz-adv-x="1236" d="M602 1458q144 0 254 -38.5t178 -123t68 -206.5q0 -108 -62.5 -194t-167.5 -128v-10q118 -25 194.5 -116.5t76.5 -213.5q0 -130 -74 -233t-205.5 -160.5t-296.5 -57.5q-134 0 -272 24.5t-234 80.5q-18 11 -20 21t10 40l55 113q7 19 18.5 24t41.5 -4q76 -32 179 -54.5 t190 -22.5q171 0 259.5 67.5t88.5 182.5q0 87 -74.5 147.5t-224.5 60.5h-107q-44 0 -61 14t-17 54v59q0 74 68 74h117q126 0 193 55t67 150q0 87 -70.5 129.5t-187.5 42.5q-163 0 -350 -76q-46 -17 -60 23l-43 108q-12 32 -9.5 42.5t21.5 21.5q176 104 457 104z" />
<glyph unicode="&#x418;" horiz-adv-x="1472" d="M1063 1075l-180 -311l-404 -676q-32 -54 -57 -71t-78 -17h-72q-66 0 -92 30t-26 93v1278q0 22 8.5 28.5t30.5 6.5h169q24 0 31.5 -6t7.5 -29v-1036h9l170 286l413 695q32 56 56 73t77 17h74q66 0 92.5 -29t26.5 -96v-1276q0 -22 -8.5 -28.5t-30.5 -6.5h-170 q-24 0 -31.5 6t-7.5 29v1040h-8z" />
<glyph unicode="&#x419;" horiz-adv-x="1472" d="M1063 1075l-180 -311l-404 -676q-32 -54 -57 -71t-78 -17h-72q-66 0 -92 30t-26 93v1278q0 22 8.5 28.5t30.5 6.5h169q24 0 31.5 -6t7.5 -29v-1036h9l170 286l413 695q32 56 56 73t77 17h74q66 0 92.5 -29t26.5 -96v-1276q0 -22 -8.5 -28.5t-30.5 -6.5h-170 q-24 0 -31.5 6t-7.5 29v1040h-8zM721 1493q-103 0 -194.5 63.5t-159.5 163.5q-16 21 6 43l57 54q9 8 15.5 10t9.5 1.5t11 -7.5t13 -11q133 -139 252 -139q52 0 103.5 29.5t150.5 116.5q12 11 20.5 13t11 0.5t13.5 -9.5l57 -49q27 -23 9 -46q-180 -233 -375 -233z" />
<glyph unicode="&#x41a;" horiz-adv-x="1318" d="M928 766q42 -14 73.5 -33.5t51.5 -39.5t36 -50.5t25.5 -57.5t20.5 -69l127 -475q7 -11 0.5 -26t-29.5 -15h-180q-32 0 -41 29l-123 448q-30 106 -88.5 144t-169.5 38h-232l2 -626q0 -22 -7 -27.5t-29 -5.5h-175q-21 0 -28.5 5.5t-7.5 27.5v1368q0 22 7.5 27.5t28.5 5.5 h177q22 0 29 -5.5t3 -27.5v-533h219q36 0 66.5 6.5t66.5 24.5t64.5 60t44.5 104l90 346q6 29 41 29h168q23 0 29.5 -15t-0.5 -26l-90 -367q-42 -180 -170 -254v-10z" />
<glyph unicode="&#x41b;" horiz-adv-x="1431" d="M342 1296q4 73 35.5 105.5t95.5 32.5h672q131 0 131 -138v-1261q0 -23 -7.5 -29t-31.5 -6h-174q-22 0 -30.5 6.5t-8.5 28.5v1179h-451l-12 -178q-27 -385 -48 -520q-40 -260 -140 -386q-90 -115 -256 -165q-44 -10 -56 29l-43 121q-6 18 -1.5 30.5t26.5 22.5 q155 67 198.5 212t76.5 584q3 33 4 50z" />
<glyph unicode="&#x41c;" horiz-adv-x="1716" d="M1325 989h-12l-109 -278l-182 -453q-24 -55 -45.5 -72.5t-71.5 -17.5h-92q-50 0 -72 17.5t-43 72.5l-180 432l-110 275h-13v-922q0 -28 -9.5 -35.5t-37.5 -7.5h-147q-26 0 -36.5 8t-10.5 35v1268q0 66 25.5 95.5t92.5 29.5h84q54 0 80 -18.5t49 -74.5l244 -600l127 -317 h8l127 319l242 598q23 55 50.5 74t82.5 19h78q65 0 92 -28.5t27 -92.5v-1272q0 -28 -9.5 -35.5t-37.5 -7.5h-146q-25 0 -35 8t-10 35v946z" />
<glyph unicode="&#x41d;" horiz-adv-x="1445" d="M1292 43q0 -29 -8.5 -36t-38.5 -7h-155q-26 0 -37 9t-11 34v602h-636v-602q0 -28 -9.5 -35.5t-40.5 -7.5h-155q-25 0 -36 9t-11 34v1348q0 25 11 34t36 9h155q31 0 40.5 -7.5t9.5 -35.5v-531h636v531q0 25 11 34t37 9h155q30 0 38.5 -7t8.5 -36v-1348z" />
<glyph unicode="&#x41e;" horiz-adv-x="1472" d="M1360 723q0 -361 -158.5 -553.5t-472.5 -192.5q-307 0 -461.5 187t-154.5 551q0 172 46 312t128 234t196.5 144.5t251.5 50.5q305 0 465 -193t160 -540zM1102 715q0 87 -9 158.5t-34 140t-64.5 115t-104.5 74.5t-151 28q-92 0 -164 -40t-116 -110t-67 -160.5t-23 -195.5 q0 -99 11 -176.5t37 -143.5t67.5 -110t104.5 -68t146 -24q82 0 146 28t105 75t67.5 114t37.5 139t11 156z" />
<glyph unicode="&#x41f;" horiz-adv-x="1443" d="M1290 35q0 -22 -8.5 -28.5t-32.5 -6.5h-170q-22 0 -30.5 6.5t-8.5 28.5v1179h-634v-1179q0 -22 -8.5 -28.5t-32.5 -6.5h-172q-22 0 -30.5 6.5t-8.5 28.5v1261q0 140 131 140h874q131 0 131 -140v-1261z" />
<glyph unicode="&#x420;" horiz-adv-x="1280" d="M401 43q0 -29 -8.5 -36t-38.5 -7h-153q-25 0 -36 9t-11 34v1278q0 60 25.5 88.5t88.5 28.5h488q204 0 332.5 -122.5t128.5 -316.5q0 -34 -5 -70.5t-19 -82t-36.5 -86.5t-60 -80.5t-86.5 -68.5t-119.5 -46.5t-155.5 -17.5h-334v-504zM958 983q0 39 -11.5 76t-37.5 73 t-78 58t-124 22h-304v-454h308q124 0 185.5 61t61.5 164z" />
<glyph unicode="&#x421;" horiz-adv-x="1269" d="M778 209q136 0 316 70q30 9 40 4t17 -25l53 -117q13 -30 10.5 -40t-20.5 -21q-175 -103 -453 -103q-628 0 -628 723q0 339 178 546.5t467 207.5q228 0 387 -86q18 -8 21.5 -18.5t-7.5 -40.5l-57 -119q-8 -22 -15.5 -26.5t-31.5 3.5q-149 58 -287 58q-99 0 -176 -43 t-124 -117t-71 -167t-24 -198q0 -491 405 -491z" />
<glyph unicode="&#x422;" horiz-adv-x="1150" d="M1124 1253q0 -21 -7 -28.5t-30 -7.5h-389v-1174q0 -29 -8.5 -36t-38.5 -7h-159q-26 0 -37 9t-11 34v1174h-381q-22 0 -28 7t-6 29v142q0 24 6 31.5t28 7.5h1024q23 0 30 -7.5t7 -31.5v-142z" />
<glyph unicode="&#x423;" horiz-adv-x="1204" d="M1159 1438q16 0 22 -9t1 -22l-439 -1184q-55 -151 -140.5 -207.5t-235.5 -56.5q-82 0 -174 25q-24 8 -29.5 15t-1.5 24l26 137q3 13 8 18t13.5 5t21.5 -1q83 -10 125 -8q67 2 103 24.5t61 88.5l43 114h-43q-44 0 -66 15t-44 69l-377 920q-11 33 24 33h193q27 0 36.5 -7 t16.5 -28l184 -481l127 -347h15l127 367l166 463q8 20 17 26.5t32 6.5h188z" />
<glyph unicode="&#x424;" horiz-adv-x="1740" d="M989 35q0 -23 -7.5 -29t-31.5 -6h-172q-24 0 -32.5 6.5t-8.5 28.5v82q-301 29 -462.5 189.5t-161.5 426.5q0 256 170.5 422t453.5 199v45q0 22 8.5 28.5t32.5 6.5h172q24 0 31.5 -6t7.5 -29v-45q309 -29 474 -189.5t165 -429.5q0 -260 -175 -425t-464 -195v-80zM1386 737 q0 81 -22.5 150t-68.5 126.5t-124 94.5t-182 47v-838q101 10 178 47t124.5 94t71 127t23.5 152zM737 1153q-180 -24 -281.5 -141t-101.5 -277q0 -170 95.5 -282t287.5 -136v836z" />
<glyph unicode="&#x425;" horiz-adv-x="1206" d="M600 539l-291 -502q-12 -23 -26 -30t-45 -7h-197q-16 0 -20.5 11t2.5 22l438 706l-408 666q-7 11 -2 21t23 10h192q33 0 46.5 -7t25.5 -30l268 -459l266 459q12 23 25.5 30t46.5 7h184q18 0 23 -11.5t-4 -23.5l-402 -658l439 -710q7 -11 1 -22t-22 -11h-200 q-31 0 -45.5 7t-26.5 30z" />
<glyph unicode="&#x426;" horiz-adv-x="1497" d="M1290 225l80 -8q23 -3 38 -10t22 -12.5t10.5 -20t3.5 -19.5v-24l-25 -434q-2 -37 -33 -37h-135q-29 0 -32 37l-15 303h-919q-131 0 -131 139v1262q0 22 8.5 28.5t30.5 6.5h172q24 0 32.5 -6.5t8.5 -28.5v-1182h634v1182q0 22 8.5 28.5t30.5 6.5h170q24 0 32.5 -6.5 t8.5 -28.5v-1176z" />
<glyph unicode="&#x427;" horiz-adv-x="1323" d="M1169 35q0 -23 -7.5 -29t-31.5 -6h-169q-24 0 -31.5 6t-7.5 29v506q-114 -21 -258 -21q-298 0 -442 122t-144 366v393q0 23 7.5 29t31.5 6h170q24 0 31.5 -6t7.5 -29v-369q0 -157 87 -227t277 -70q114 0 232 25v641q0 23 7.5 29t31.5 6h169q24 0 31.5 -6t7.5 -29v-1366z " />
<glyph unicode="&#x428;" horiz-adv-x="2025" d="M276 0q-122 0 -122 139v1262q0 22 8.5 28.5t30.5 6.5h178q24 0 31.5 -6t7.5 -29v-1182h485v1182q0 22 8.5 28.5t32.5 6.5h168q24 0 32.5 -6.5t8.5 -28.5v-1182h475v1182q0 23 7.5 29t31.5 6h174q24 0 31.5 -6t7.5 -29v-1262q0 -70 -33 -104.5t-92 -34.5h-1471z" />
<glyph unicode="&#x429;" horiz-adv-x="2078" d="M1872 225l76 -6q27 -2 44 -9.5t23.5 -22t8 -25t1.5 -29.5l-24 -434q-2 -37 -33 -37h-135q-30 0 -33 37l-14 301h-1510q-122 0 -122 139v1262q0 22 8.5 28.5t30.5 6.5h178q24 0 31.5 -6t7.5 -29v-1182h485v1182q0 22 8.5 28.5t32.5 6.5h168q24 0 32.5 -6.5t8.5 -28.5 v-1182h475v1182q0 22 8.5 28.5t30.5 6.5h172q24 0 32.5 -6.5t8.5 -28.5v-1176z" />
<glyph unicode="&#x42a;" horiz-adv-x="1691" d="M643 0q-65 0 -90 27t-25 90v1100h-479q-22 0 -28.5 7.5t-6.5 28.5v142q0 24 6 31.5t29 7.5h600q131 0 131 -138v-395h334q96 0 174 -18t129.5 -46.5t90 -69.5t59 -80.5t32.5 -87.5t15.5 -82t3.5 -71q0 -190 -140 -318t-341 -128h-494zM1360 459q0 102 -64.5 166.5 t-179.5 64.5h-336v-465h330q70 0 121.5 23t78 60t38.5 75t12 76z" />
<glyph unicode="&#x42b;" horiz-adv-x="1787" d="M268 0q-64 0 -89 27t-25 90v1284q0 22 8.5 28.5t30.5 6.5h174q24 0 31.5 -6t7.5 -29v-500h335q96 0 174 -18t129.5 -46.5t90.5 -69.5t59.5 -80.5t33 -87t16 -82t3.5 -71.5q0 -190 -140 -318t-341 -128h-498zM1634 35q0 -23 -7.5 -29t-31.5 -6h-174q-22 0 -30.5 6.5 t-8.5 28.5v1364q0 22 8.5 28.5t30.5 6.5h174q24 0 31.5 -6t7.5 -29v-1364zM989 459q0 102 -64 166.5t-182 64.5h-337v-465h333q70 0 121.5 23t78 60t38.5 75t12 76z" />
<glyph unicode="&#x42c;" horiz-adv-x="1320" d="M268 0q-64 0 -89 27t-25 90v1284q0 22 8.5 28.5t30.5 6.5h174q24 0 31.5 -6t7.5 -29v-500h335q96 0 174 -18t129.5 -46.5t90.5 -69.5t59.5 -80.5t33 -87t16 -82t3.5 -71.5q0 -190 -140 -318t-341 -128h-498zM989 459q0 102 -64 166.5t-182 64.5h-337v-465h333 q70 0 121.5 23t78 60t38.5 75t12 76z" />
<glyph unicode="&#x42d;" horiz-adv-x="1277" d="M500 209q106 0 182 31t121.5 91t68.5 136.5t29 177.5h-545q-22 0 -28 7.5t-6 29.5v133q0 24 6 31.5t28 7.5h543q-18 173 -110 272t-261 99q-152 0 -301 -58q-24 -9 -32.5 -4t-16.5 27l-49 119q-11 30 -8.5 40.5t20.5 18.5q168 86 406 86q297 0 457.5 -178.5t160.5 -523.5 q0 -377 -160 -576t-468 -199q-280 0 -455 103q-18 11 -20.5 21t10.5 40l53 117q7 20 17 25t40 -4q180 -70 318 -70z" />
<glyph unicode="&#x42e;" horiz-adv-x="1937" d="M401 35q0 -23 -7.5 -29t-31.5 -6h-169q-22 0 -30.5 6.5t-8.5 28.5v1364q0 22 8.5 28.5t30.5 6.5h169q24 0 31.5 -6t7.5 -29v-541h236q33 278 190.5 438t407.5 160q283 0 436.5 -199.5t153.5 -539.5q0 -346 -156.5 -543t-445.5 -197q-123 0 -221 35.5t-163.5 95.5 t-110.5 146.5t-67.5 182t-29.5 208.5h-230v-610zM1569 717q0 514 -334 514q-172 0 -262 -140.5t-90 -371.5q0 -156 34 -269t113 -181t197 -68q90 0 157 39t106.5 110t59 162.5t19.5 204.5z" />
<glyph unicode="&#x42f;" horiz-adv-x="1339" d="M930 596h-240q-104 0 -166 -41t-90 -145l-100 -377q-4 -15 -13.5 -23t-18 -9t-23.5 -1h-181q-24 0 -29.5 13t1.5 30l108 406q22 81 63.5 131.5t123.5 78.5v3q-115 46 -172.5 138t-57.5 218q0 186 124 302t329 116h481q64 0 89.5 -27.5t25.5 -89.5v-1286q0 -22 -8 -27.5 t-31 -5.5h-174q-25 0 -33 5.5t-8 27.5v563zM389 1008q0 -92 58.5 -147.5t177.5 -55.5h303v405h-316q-65 0 -111.5 -19.5t-69.5 -51.5t-32.5 -64t-9.5 -67z" />
<glyph unicode="&#x430;" horiz-adv-x="1140" d="M1008 117q0 -51 -39 -68q-158 -72 -418 -72q-131 0 -223.5 26.5t-142.5 75.5t-71.5 107.5t-21.5 132.5t24.5 138t75.5 116.5t139.5 82.5t207.5 30h229v35q0 42 -9 72.5t-31 56t-65 38.5t-106 13q-69 0 -151.5 -12t-133.5 -29q-23 -6 -33 -2t-14 23l-28 116q-9 34 18 43 q160 60 381 60q211 0 311.5 -93t100.5 -276v-614zM766 504h-197q-33 0 -59.5 -2.5t-61 -12.5t-57 -28t-39 -52t-16.5 -81q0 -158 217 -158q131 0 213 33v301z" />
<glyph unicode="&#x431;" horiz-adv-x="1177" d="M672 1001q114 0 197.5 -39t131 -110t69.5 -158t22 -194q0 -76 -15.5 -147t-54 -140.5t-96 -121t-148.5 -83t-205 -31.5q-88 0 -159 16.5t-121 44t-87 69.5t-59.5 87t-36 102t-18 108.5t-4.5 113.5q0 115 4.5 204t17 176.5t33.5 153t54.5 126t79.5 104.5t108.5 79 t142.5 58q62 19 207.5 48t167.5 34q20 6 30.5 2.5t14.5 -24.5l33 -123q3 -9 3.5 -16.5t0 -11.5t-4.5 -8t-6.5 -5t-8.5 -3t-7 -3l-245 -56q-137 -30 -207 -69t-101 -98t-45 -168q2 0 7 -5q131 88 305 88zM580 176q60 0 107 19.5t76.5 50.5t48.5 73.5t26.5 84.5t7.5 88 q0 65 -11 118t-36 98.5t-71.5 71t-111.5 25.5q-66 0 -139.5 -22.5t-132.5 -63.5q-14 -106 -14 -234q0 -146 57.5 -227.5t192.5 -81.5z" />
<glyph unicode="&#x432;" horiz-adv-x="1171" d="M911 582q86 -33 127 -102.5t41 -155.5q0 -144 -105 -234t-263 -90h-475q-103 0 -103 94v883q0 98 100 98h463q68 0 127.5 -16t107.5 -47.5t75.5 -84.5t27.5 -122q0 -67 -33.5 -124.5t-89.5 -86.5v-12zM834 340q0 68 -42 107.5t-124 39.5h-299v-297h297q49 0 84 14.5 t52 38t24.5 47.5t7.5 50zM369 659h301q45 0 80.5 27t35.5 88q0 45 -29 74t-79 29h-309v-218z" />
<glyph unicode="&#x433;" horiz-adv-x="968" d="M371 41q0 -26 -8 -33.5t-37 -7.5h-148q-24 0 -34.5 8.5t-10.5 32.5v702q0 55 8 101t30.5 90t59 74t96 48.5t138.5 18.5h444q25 0 32 -10t7 -35v-110q0 -24 -7.5 -33.5t-31.5 -9.5h-407q-71 0 -101 -29t-30 -96v-711z" />
<glyph unicode="&#x434;" horiz-adv-x="1286" d="M854 872h-326l-39 -309q-23 -173 -44.5 -248.5t-53.5 -126.5h463v684zM139 190q50 50 73.5 117.5t39.5 188.5l70 469q8 58 40.5 84t100.5 26h514q70 0 93.5 -27t23.5 -87v-773l63 -6q38 -4 51 -23t13 -53l-27 -397q0 -28 -27 -28h-149q-24 0 -27 28l-10 291h-725 q-3 -48 -9 -145.5t-9 -145.5q-3 -28 -29 -28h-146q-24 0 -24 26l-25 397q0 36 13.5 56t52.5 24z" />
<glyph unicode="&#x435;" horiz-adv-x="1130" d="M582 1100q230 0 346 -118.5t116 -334.5q0 -99 -43.5 -139.5t-119.5 -40.5h-545q2 -78 24.5 -134t62.5 -88.5t89 -47.5t111 -15q125 0 239 56q33 14 45 -13l56 -116q14 -32 -15 -48q-139 -84 -346 -84q-252 0 -381 135.5t-129 419.5q0 265 136 416.5t354 151.5zM586 901 q-103 0 -170 -77.5t-72 -184.5h471q0 122 -50.5 192t-178.5 70z" />
<glyph unicode="&#x436;" horiz-adv-x="1607" d="M686 483h-111q-67 0 -118 -32.5t-70 -98.5l-98 -327q-7 -25 -35 -25h-176q-15 0 -22 6.5t-6 14.5t1 16l105 354q12 40 22 62.5t28.5 50.5t47.5 46t70 30l-2 4q-98 43 -138 188l-75 268q-5 35 24 35h168q27 0 35 -26l74 -240q27 -84 72.5 -113.5t113.5 -29.5h90v376 q0 22 7.5 27.5t29.5 5.5h164q21 0 29 -5.5t8 -27.5v-376h88q66 0 112.5 30t73.5 113l74 240q8 26 35 26h168q29 0 24 -35l-76 -268q-40 -146 -137 -188l-2 -4q41 -12 70 -30t47.5 -46t28.5 -50.5t22 -62.5l104 -354q5 -11 0 -24t-26 -13h-176q-28 0 -35 25l-98 327 q-19 66 -70.5 98.5t-118.5 32.5h-108v-450q0 -22 -8 -27.5t-29 -5.5h-164q-22 0 -29.5 5.5t-7.5 27.5v450z" />
</font>
</defs>
</svg>
